/* XPM */
static char * ashtakavarga_xpm[] = {
"24 24 225 2",
"  	c None",
". 	c #5B400B",
"+ 	c #547EB2",
"@ 	c #6289B9",
"# 	c #674E1D",
"$ 	c #61450F",
"% 	c #4471AA",
"& 	c #C1D3E5",
"* 	c #6087B8",
"= 	c #694E17",
"- 	c #A48A52",
"; 	c #694E16",
"> 	c #3364A4",
", 	c #7093BE",
"' 	c #7E9EC5",
") 	c #5780B2",
"! 	c #644814",
"~ 	c #D1C195",
"{ 	c #BEA872",
"] 	c #3263A3",
"^ 	c #4D78B0",
"/ 	c #9EBAD6",
"( 	c #8DACCB",
"_ 	c #5780B3",
": 	c #AF976A",
"< 	c #DDB768",
"[ 	c #A1864B",
"} 	c #3365A4",
"| 	c #3B6CA7",
"1 	c #7FA1C9",
"2 	c #85A7CA",
"3 	c #799CC2",
"4 	c #4976AC",
"5 	c #786132",
"6 	c #D3B06F",
"7 	c #C48B21",
"8 	c #765819",
"9 	c #3263A4",
"0 	c #5780B6",
"a 	c #93B2D3",
"b 	c #7A9FC4",
"c 	c #678DB9",
"d 	c #376AA6",
"e 	c #9A7E49",
"f 	c #D4A247",
"g 	c #A7761D",
"h 	c #594113",
"i 	c #3466A3",
"j 	c #3163A3",
"k 	c #6F97C5",
"l 	c #8EAED0",
"m 	c #779CC1",
"n 	c #4F7CB0",
"o 	c #5777A1",
"p 	c #BCB9B6",
"q 	c #AFAFAF",
"r 	c #A8A8A8",
"s 	c #9F9F9F",
"t 	c #9C9EA2",
"u 	c #725C33",
"v 	c #C4A15F",
"w 	c #CE9427",
"x 	c #725419",
"y 	c #3364A3",
"z 	c #3667A5",
"A 	c #7EA5CF",
"B 	c #84A7CA",
"C 	c #6B93BB",
"D 	c #416FA8",
"E 	c #A3B8D3",
"F 	c #F2F1F0",
"G 	c #E2E2E2",
"H 	c #866B36",
"I 	c #DCAC51",
"J 	c #A0741F",
"K 	c #634918",
"L 	c #3264A4",
"M 	c #3C67A1",
"N 	c #4D77AB",
"O 	c #85AAD1",
"P 	c #7CA1C5",
"Q 	c #5984B2",
"R 	c #4D78AF",
"S 	c #DBE0E6",
"T 	c #E1E1E1",
"U 	c #6A4F1E",
"V 	c #C5A260",
"W 	c #CE9831",
"X 	c #704E0F",
"Y 	c #868279",
"Z 	c #6E7E95",
"` 	c #8A8B8B",
" .	c #6289B6",
"..	c #7BA1CA",
"+.	c #4978AE",
"@.	c #3567A5",
"#.	c #809EC2",
"$.	c #F0EDE9",
"%.	c #A0947F",
"&.	c #8A6C34",
"*.	c #E0B25B",
"=.	c #A37013",
"-.	c #7C6C47",
";.	c #979A95",
">.	c #939496",
",.	c #878F99",
"'.	c #7D8B9D",
").	c #8BA2BC",
"!.	c #769BC1",
"~.	c #3567A4",
"{.	c #A4B4C7",
"].	c #745D31",
"^.	c #C7A564",
"/.	c #BA9751",
"(.	c #928970",
"_.	c #B3B4AF",
":.	c #94968F",
"<.	c #959595",
"[.	c #BCD0E8",
"}.	c #7893B4",
"|.	c #C7CCD1",
"1.	c #D7D7D7",
"2.	c #EDECEC",
"3.	c #D9DDE2",
"4.	c #D2D1CE",
"5.	c #BEBDB5",
"6.	c #B7B2A3",
"7.	c #D1CFC8",
"8.	c #EDEEEC",
"9.	c #989A94",
"0.	c #979797",
"a.	c #87A5C8",
"b.	c #E5EBF4",
"c.	c #FFFFFF",
"d.	c #E5EAEF",
"e.	c #B7C5D4",
"f.	c #BFC1C1",
"g.	c #D7C097",
"h.	c #B2A284",
"i.	c #D6D3CB",
"j.	c #D8D9D6",
"k.	c #979A92",
"l.	c #999999",
"m.	c #EBF0F5",
"n.	c #EBEDF1",
"o.	c #C3CFDA",
"p.	c #A1B2C5",
"q.	c #B9A47A",
"r.	c #988B71",
"s.	c #EFF0F1",
"t.	c #C5C6C3",
"u.	c #949494",
"v.	c #C8C8C8",
"w.	c #FFFEFE",
"x.	c #E8ECF1",
"y.	c #CDD5DF",
"z.	c #A8B8CD",
"A.	c #8F9495",
"B.	c #B1A999",
"C.	c #F1F2F3",
"D.	c #BCBCBC",
"E.	c #FCFCFC",
"F.	c #DBE2EA",
"G.	c #CCD5E0",
"H.	c #BAC7D4",
"I.	c #869DBA",
"J.	c #B3BBC6",
"K.	c #F3F2F2",
"L.	c #A3A59F",
"M.	c #B4B4B4",
"N.	c #FCFCFB",
"O.	c #E7E7E7",
"P.	c #B6C4D4",
"Q.	c #BDC9D6",
"R.	c #839BB9",
"S.	c #95A5B9",
"T.	c #F1F0EE",
"U.	c #A2A49E",
"V.	c #B1B1B1",
"W.	c #F7F7F6",
"X.	c #F8F6F3",
"Y.	c #EDEBEA",
"Z.	c #C9CBD2",
"`.	c #96A9C0",
" +	c #BEC5CE",
".+	c #ABAAA9",
"++	c #DDDDDC",
"@+	c #A7A8A2",
"#+	c #ADADAD",
"$+	c #E5E3DD",
"%+	c #F6F4F1",
"&+	c #F5DDDE",
"*+	c #D5B8B1",
"=+	c #B6B5AE",
"-+	c #BAB9B9",
";+	c #B8B8B8",
">+	c #C6C6C4",
",+	c #A2A59E",
"'+	c #A0A0A0",
")+	c #DDDBD9",
"!+	c #F2EFEA",
"~+	c #EDD3CF",
"{+	c #BEB5A7",
"]+	c #AEADAC",
"^+	c #A9A9A9",
"/+	c #AAAAAA",
"(+	c #B9BAB7",
"_+	c #92928E",
":+	c #7C7C7C",
"<+	c #CDCDCD",
"[+	c #E9E9E9",
"}+	c #F3F3F2",
"|+	c #DDDBD6",
"1+	c #C1C0BE",
"2+	c #B7B8B8",
"3+	c #BBBBBB",
"4+	c #D1D1D1",
"5+	c #B1B2AD",
"6+	c #878787",
"7+	c #BABABA",
"8+	c #F0F0F1",
"9+	c #E5E5E5",
"0+	c #D3D3D2",
"a+	c #BABBB8",
"b+	c #92938D",
"                                        .       ",
"    + @                               # $       ",
"    % & *                           = - ;       ",
"    > , ' )                       ! ~ {         ",
"    ] ^ / ( _                     : < [         ",
"    } | 1 2 3 4                 5 6 7 8         ",
"      9 0 a b c d               e f g h         ",
"      i j k l m n o p q r s t u v w x           ",
"        y z A B C D E F G     H I J K           ",
"        L M N O P Q R S T   U V W X Y           ",
"          Z `  ...+.@.#.$.%.&.*.=.-.;.          ",
"            >.,.'.).!.~.{.].^./.(._.:.          ",
"            <.[.}.|.1.2.3.4.5.6.7.8.9.          ",
"            0.  a.b.c.d.e.f.g.h.i.j.k.          ",
"            l.    m.c.n.o.p.q.r.s.t.            ",
"            u.v.  w.c.x.y.z.A.B.C._.            ",
"              D.  E.c.F.G.H.I.J.K.L.            ",
"              M.  E.N.O.P.Q.R.S.T.U.            ",
"              V.  W.X.Y.Z.`. +.+++@+            ",
"              #+  $+%+&+*+=+-+;+>+,+            ",
"              '+O.)+!+~+{+]+^+/+(+_+            ",
"              :+<+[+}+|+1+2+3+4+5+              ",
"                6+7+G 8+9+0+a+b+                ",
"                                                "};
