/* XPM */
static const char * chart20_xpm[] = {
"24 24 359 2",
"  	c None",
". 	c #95B2BD",
"+ 	c #7BB5CD",
"@ 	c #71B5D1",
"# 	c #71B2D0",
"$ 	c #85AFC2",
"% 	c #9EB6C0",
"& 	c #70A7BE",
"* 	c #9AC3D0",
"= 	c #AACFDD",
"- 	c #D0E9EA",
"; 	c #E6F0F0",
"> 	c #E8F0F0",
", 	c #EAEEEE",
"' 	c #D4EAEB",
") 	c #ADD3E0",
"! 	c #72AEC7",
"~ 	c #629BB4",
"{ 	c #6194AF",
"] 	c #65ACCB",
"^ 	c #B5DBE1",
"/ 	c #DFEAEC",
"( 	c #D9EDEF",
"_ 	c #C3E2E9",
": 	c #C2E2EA",
"< 	c #BBE1E9",
"[ 	c #ADD7E3",
"} 	c #AED7E3",
"| 	c #E0E9EB",
"1 	c #D8E6EA",
"2 	c #8CC2D6",
"3 	c #4494B9",
"4 	c #3E8EBC",
"5 	c #73AECA",
"6 	c #C3E0E9",
"7 	c #D0E3EA",
"8 	c #B1DAE6",
"9 	c #C2E3E9",
"0 	c #E2F0F0",
"a 	c #EDEDED",
"b 	c #E7ECED",
"c 	c #BBDCE7",
"d 	c #7EBCD5",
"e 	c #BADFE7",
"f 	c #E9EDED",
"g 	c #82BFD6",
"h 	c #378AB6",
"i 	c #3E8BB6",
"j 	c #519EC3",
"k 	c #A5C9DE",
"l 	c #C8DBE8",
"m 	c #A3D1E2",
"n 	c #D5E4E9",
"o 	c #CDDEE5",
"p 	c #71B4CE",
"q 	c #B6DBE5",
"r 	c #D3E7EB",
"s 	c #3C92BC",
"t 	c #3A8CB5",
"u 	c #5A8AA4",
"v 	c #6193B3",
"w 	c #86B6D0",
"x 	c #969DAE",
"y 	c #4A6977",
"z 	c #63686A",
"A 	c #787878",
"B 	c #ABABAB",
"C 	c #E5E5E5",
"D 	c #D9D9D9",
"E 	c #909090",
"F 	c #566265",
"G 	c #3C5C69",
"H 	c #A5B0B4",
"I 	c #66AACB",
"J 	c #3687B6",
"K 	c #4389B2",
"L 	c #4A9EC3",
"M 	c #A4A4BE",
"N 	c #11171C",
"O 	c #131718",
"P 	c #151515",
"Q 	c #131313",
"R 	c #181818",
"S 	c #848484",
"T 	c #E6E6E6",
"U 	c #494949",
"V 	c #141414",
"W 	c #131415",
"X 	c #090F11",
"Y 	c #1D2224",
"Z 	c #6F8795",
"` 	c #337AAC",
" .	c #3684B5",
"..	c #7D8C97",
"+.	c #5088AF",
"@.	c #82B1D2",
"#.	c #9BA2C5",
"$.	c #45647A",
"%.	c #BCC4C9",
"&.	c #B8B8B8",
"*.	c #343434",
"=.	c #1B1B1B",
"-.	c #9B9B9B",
";.	c #121212",
">.	c #7D7D7D",
",.	c #CCDEDF",
"'.	c #6693A8",
").	c #1B252B",
"!.	c #373D40",
"~.	c #2C6290",
"{.	c #3478AE",
"].	c #55728B",
"^.	c #6B97B7",
"/.	c #A8BAE0",
"(.	c #76A8D1",
"_.	c #8CB4CD",
":.	c #EAEBEC",
"<.	c #5A5A5A",
"[.	c #1E1E1E",
"}.	c #646464",
"|.	c #242424",
"1.	c #CAD3D3",
"2.	c #C9EDEE",
"3.	c #87BACD",
"4.	c #445C6E",
"5.	c #161819",
"6.	c #28527B",
"7.	c #306AA0",
"8.	c #43688C",
"9.	c #678CB1",
"0.	c #B7BCE5",
"a.	c #5496C6",
"b.	c #A8CADC",
"c.	c #ECECEC",
"d.	c #BBBDBD",
"e.	c #353636",
"f.	c #747777",
"g.	c #E9EEEF",
"h.	c #E7EEEE",
"i.	c #464848",
"j.	c #262A2A",
"k.	c #BEE6E7",
"l.	c #B9E8EA",
"m.	c #83B2C7",
"n.	c #5B6E83",
"o.	c #040505",
"p.	c #1F3F69",
"q.	c #2B5790",
"r.	c #3D5B82",
"s.	c #6986AC",
"t.	c #B1B5E3",
"u.	c #567EAE",
"v.	c #B4C8D8",
"w.	c #C6C7C7",
"x.	c #4A4F4F",
"y.	c #525A5A",
"z.	c #C5DDDD",
"A.	c #D4F0F1",
"B.	c #CDEFEF",
"C.	c #384343",
"D.	c #212A2A",
"E.	c #B4E3E6",
"F.	c #AEE2E6",
"G.	c #729CB7",
"H.	c #787D8D",
"I.	c #010102",
"J.	c #1B325E",
"K.	c #284C85",
"L.	c #465877",
"M.	c #657EA4",
"N.	c #AEB3E0",
"O.	c #516F9F",
"P.	c #A6B6CA",
"Q.	c #C1C8C9",
"R.	c #424848",
"S.	c #566060",
"T.	c #B9D3D3",
"U.	c #CBEDEE",
"V.	c #C5ECED",
"W.	c #BFEAEB",
"X.	c #3F4F50",
"Y.	c #1E2727",
"Z.	c #A4D6DB",
"`.	c #9DD2DB",
" +	c #6684AB",
".+	c #7C7E86",
"++	c #040508",
"@+	c #1A2A57",
"#+	c #25407B",
"$+	c #63687A",
"%+	c #617295",
"&+	c #A4A9D6",
"*+	c #6274A7",
"=+	c #566576",
"-+	c #363B3B",
";+	c #708080",
">+	c #C5E4E5",
",+	c #C9EEEE",
"'+	c #C2EBEC",
")+	c #BBE8EA",
"!+	c #B4E5E8",
"~+	c #5C7779",
"{+	c #141B1B",
"]+	c #79A4A7",
"^+	c #73A1BC",
"/+	c #7E89AA",
"(+	c #434653",
"_+	c #050812",
":+	c #192757",
"<+	c #223269",
"[+	c #919197",
"}+	c #525F84",
"|+	c #7F89BC",
"1+	c #8182A8",
"2+	c #080A0E",
"3+	c #2F3536",
"4+	c #6F8182",
"5+	c #6E8585",
"6+	c #6B8484",
"7+	c #678283",
"8+	c #789A9D",
"9+	c #AAE1E5",
"0+	c #8ABBC0",
"a+	c #121A1A",
"b+	c #1F2D30",
"c+	c #3F495E",
"d+	c #51515D",
"e+	c #07080B",
"f+	c #0D102B",
"g+	c #1B275E",
"h+	c #3C4368",
"i+	c #4D5171",
"j+	c #4B5889",
"k+	c #9492B3",
"l+	c #000000",
"m+	c #2D3C3E",
"n+	c #A1DCE3",
"o+	c #9BD9E0",
"p+	c #5D868D",
"q+	c #1A2128",
"r+	c #060608",
"s+	c #0C0C10",
"t+	c #10152C",
"u+	c #182153",
"v+	c #252E62",
"w+	c #383F6F",
"x+	c #747DAF",
"y+	c #B5B4DD",
"z+	c #8188B7",
"A+	c #7392B1",
"B+	c #9ECDD5",
"C+	c #9FD4DA",
"D+	c #9BD2D9",
"E+	c #97D2D9",
"F+	c #98D6E0",
"G+	c #91C6DB",
"H+	c #9CB3DA",
"I+	c #BCBAE1",
"J+	c #707AA8",
"K+	c #222C5B",
"L+	c #1C2355",
"M+	c #222D63",
"N+	c #60657D",
"O+	c #505374",
"P+	c #2D3A73",
"Q+	c #7D85B6",
"R+	c #BCBAE6",
"S+	c #9AA2D0",
"T+	c #95ABD4",
"U+	c #9EC1DE",
"V+	c #9EC8E1",
"W+	c #9FC8E2",
"X+	c #A4C3E3",
"Y+	c #B0BBE4",
"Z+	c #B3B3E0",
"`+	c #7A84B5",
" @	c #222A53",
".@	c #382A34",
"+@	c #574B4C",
"@@	c #45445E",
"#@	c #77777F",
"$@	c #363D6A",
"%@	c #29346D",
"&@	c #5B6597",
"*@	c #A8ACDB",
"=@	c #BBBAE9",
"-@	c #BEBDE8",
";@	c #BFC0EA",
">@	c #BEBEE9",
",@	c #B3B4E7",
"'@	c #868DBF",
")@	c #4B558A",
"!@	c #242E69",
"~@	c #1E1F41",
"{@	c #584034",
"]@	c #A18961",
"^@	c #9B8B6E",
"/@	c #786B63",
"(@	c #9D9999",
"_@	c #424870",
":@	c #252D63",
"<@	c #1F2B64",
"[@	c #344276",
"}@	c #475488",
"|@	c #4B588C",
"1@	c #3D4A7D",
"2@	c #233268",
"3@	c #1C245C",
"4@	c #1C265E",
"5@	c #1C2761",
"6@	c #2C3568",
"7@	c #484459",
"8@	c #664D39",
"9@	c #917852",
"0@	c #A9946B",
"a@	c #8C765E",
"b@	c #756964",
"c@	c #3E446F",
"d@	c #474C72",
"e@	c #292F62",
"f@	c #1D255F",
"g@	c #1C255E",
"h@	c #1C255F",
"i@	c #1D2761",
"j@	c #1D2963",
"k@	c #242D63",
"l@	c #4A5074",
"m@	c #565972",
"n@	c #9E9EA0",
"o@	c #6D605D",
"p@	c #64462E",
"q@	c #7C613E",
"r@	c #937B54",
"s@	c #675044",
"t@	c #5E4A48",
"u@	c #8B8585",
"v@	c #575A75",
"w@	c #484C6C",
"x@	c #353B63",
"y@	c #343A63",
"z@	c #3E4467",
"A@	c #5B5E77",
"B@	c #676A80",
"C@	c #503832",
"D@	c #5B3E2A",
"E@	c #583D2B",
"F@	c #6A4D30",
"G@	c #60422C",
"H@	c #79716F",
"I@	c #8A8383",
"J@	c #422929",
"K@	c #4E3225",
"L@	c #62442B",
"M@	c #51382E",
"N@	c #8F8888",
"O@	c #513F3F",
"P@	c #442823",
"Q@	c #452B28",
"R@	c #544545",
"                  . + @ # $ %                   ",
"            & * = - ; > , ' ) ! ~ {             ",
"          ] ^ / ( _ : < [ } | 1 2 3 4           ",
"        5 6 7 8 9 0 a a b c d e f g h i         ",
"      j k l m n a a a a a a o p q r s t u       ",
"    v w x y z A B C a a a D E F G H I J K       ",
"    L M N O P Q R S a a T U V W X Y Z `  ...    ",
"  +.@.#.$.%.T &.*.=.a a -.;.>.,.'.).!.~.{.].    ",
"  ^./.(._.:.a T <.[.a a }.|.1.2.3.4.5.6.7.8.    ",
"  9.0.a.b.a c.d.e.f.g.h.i.j.k.l.m.n.o.p.q.r.    ",
"  s.t.u.v.a w.x.y.z.A.B.C.D.E.F.G.H.I.J.K.L.    ",
"  M.N.O.P.Q.R.S.T.U.V.W.X.Y.Z.`. +.+++@+#+$+    ",
"  %+&+*+=+-+;+>+,+'+)+!+~+{+]+^+/+(+_+:+<+[+    ",
"  }+|+1+2+3+4+5+6+7+8+9+0+a+b+c+d+e+f+g+h+      ",
"  i+j+k+l+l+l+l+l+l+m+n+o+p+q+r+s+t+u+v+        ",
"    w+x+y+z+A+B+C+D+E+F+G+H+I+J+K+L+M+N+        ",
"    O+P+Q+R+S+T+U+V+W+X+Y+Z+`+ @.@+@@@#@        ",
"      $@%@&@*@=@-@;@>@,@'@)@!@~@{@]@^@/@(@      ",
"        _@:@<@[@}@|@1@2@3@4@5@6@7@8@9@0@a@b@    ",
"          c@d@e@f@g@h@i@j@k@l@m@n@o@p@q@r@s@t@u@",
"              v@w@x@y@z@A@B@        C@D@E@F@G@H@",
"                                    I@J@K@L@M@N@",
"                                      O@P@Q@R@  ",
"                                                "};
