/* XPM */
static const char * chart30_xpm[] = {
"24 24 362 2",
"  	c None",
". 	c #95B2BD",
"+ 	c #7BB5CD",
"@ 	c #71B5D1",
"# 	c #71B2D0",
"$ 	c #85AFC2",
"% 	c #9EB6C0",
"& 	c #70A7BE",
"* 	c #9AC3D0",
"= 	c #AACFDD",
"- 	c #D0E9EA",
"; 	c #E6F0F0",
"> 	c #E8F0F0",
", 	c #EAEEEE",
"' 	c #D4EAEB",
") 	c #ADD3E0",
"! 	c #72AEC7",
"~ 	c #629BB4",
"{ 	c #6194AF",
"] 	c #65ACCB",
"^ 	c #B5DBE1",
"/ 	c #DFEAEC",
"( 	c #D9EDEF",
"_ 	c #C3E2E9",
": 	c #C2E2EA",
"< 	c #BBE1E9",
"[ 	c #ADD7E3",
"} 	c #AED7E3",
"| 	c #E0E9EB",
"1 	c #D8E6EA",
"2 	c #8CC2D6",
"3 	c #4494B9",
"4 	c #3E8EBC",
"5 	c #73AECA",
"6 	c #C3E0E9",
"7 	c #D0E3EA",
"8 	c #B1DAE6",
"9 	c #C2E3E9",
"0 	c #E2F0F0",
"a 	c #EDEDED",
"b 	c #E7ECED",
"c 	c #BBDCE7",
"d 	c #7EBCD5",
"e 	c #BADFE7",
"f 	c #E9EDED",
"g 	c #82BFD6",
"h 	c #378AB6",
"i 	c #3E8BB6",
"j 	c #519EC3",
"k 	c #A5C9DE",
"l 	c #C8DBE8",
"m 	c #A3D1E2",
"n 	c #D5E4E9",
"o 	c #CDDEE5",
"p 	c #71B4CE",
"q 	c #B6DBE5",
"r 	c #D3E7EB",
"s 	c #3C92BC",
"t 	c #3A8CB5",
"u 	c #5A8AA4",
"v 	c #6193B3",
"w 	c #8CBED9",
"x 	c #CBD4EB",
"y 	c #88C1DB",
"z 	c #DBE6EA",
"A 	c #B9D4D9",
"B 	c #76B6CE",
"C 	c #D6E4E9",
"D 	c #68ADCF",
"E 	c #3687B6",
"F 	c #4389B2",
"G 	c #4697BA",
"H 	c #9C9CB5",
"I 	c #4E697D",
"J 	c #56676A",
"K 	c #6C6C6C",
"L 	c #838383",
"M 	c #BDBDBD",
"N 	c #D9D9D9",
"O 	c #909090",
"P 	c #6E6E6E",
"Q 	c #707577",
"R 	c #56879E",
"S 	c #B1CCDB",
"T 	c #A6C9DD",
"U 	c #347BAE",
"V 	c #3684B5",
"W 	c #7D8C97",
"X 	c #5088AF",
"Y 	c #688EA8",
"Z 	c #17181D",
"` 	c #0C1115",
" .	c #131414",
"..	c #151515",
"+.	c #202020",
"@.	c #A5A5A5",
"#.	c #E6E6E6",
"$.	c #494949",
"%.	c #141414",
"&.	c #121414",
"*.	c #141D21",
"=.	c #5C7B8E",
"-.	c #B9CEDA",
";.	c #326EA2",
">.	c #3478AE",
",.	c #55728B",
"'.	c #6B97B7",
").	c #93A3C4",
"!.	c #446078",
"~.	c #7394A8",
"{.	c #E1E2E3",
"].	c #E4E4E4",
"^.	c #AFAFAF",
"/.	c #1B1B1B",
"(.	c #4E4E4E",
"_.	c #9B9B9B",
":.	c #121212",
"<.	c #7D7D7D",
"[.	c #D7E1E1",
"}.	c #A5C3C4",
"|.	c #1C262A",
"1.	c #25333C",
"2.	c #AAB6C0",
"3.	c #316597",
"4.	c #306AA0",
"5.	c #43688C",
"6.	c #678CB1",
"7.	c #B7BCE5",
"8.	c #5496C6",
"9.	c #A8CADC",
"0.	c #ECECEC",
"a.	c #DEDEDE",
"b.	c #A1A3A3",
"c.	c #1D1D1D",
"d.	c #868989",
"e.	c #E9EEEF",
"f.	c #616464",
"g.	c #232424",
"h.	c #BDD1D1",
"i.	c #C2EBEC",
"j.	c #B5E3E5",
"k.	c #465F6A",
"l.	c #101317",
"m.	c #8C9EAE",
"n.	c #285187",
"o.	c #2B5790",
"p.	c #3D5B82",
"q.	c #6986AC",
"r.	c #B1B5E3",
"s.	c #567EAE",
"t.	c #B4C8D8",
"u.	c #313131",
"v.	c #1B1C1C",
"w.	c #313535",
"x.	c #828E8E",
"y.	c #CFE8E8",
"z.	c #D4F0F1",
"A.	c #3E4949",
"B.	c #222929",
"C.	c #B8E4E5",
"D.	c #B6E5E8",
"E.	c #ADE1E5",
"F.	c #4A6677",
"G.	c #040505",
"H.	c #657491",
"I.	c #24417A",
"J.	c #284C85",
"K.	c #465877",
"L.	c #657EA4",
"M.	c #AEB3E0",
"N.	c #516F9F",
"O.	c #A6B6CA",
"P.	c #676B6B",
"Q.	c #505757",
"R.	c #313737",
"S.	c #394141",
"T.	c #A6C2C2",
"U.	c #C5ECED",
"V.	c #364243",
"W.	c #21292A",
"X.	c #B0E2E5",
"Y.	c #ACE0E5",
"Z.	c #9DD2DB",
"`.	c #455974",
" +	c #020202",
".+	c #364569",
"++	c #21356E",
"@+	c #25407B",
"#+	c #63687A",
"$+	c #617295",
"%+	c #A4A9D6",
"&+	c #6678AD",
"*+	c #8198B2",
"=+	c #DCF0F2",
"-+	c #CDE9EA",
";+	c #A8C2C3",
">+	c #1C2121",
",+	c #4D5E5E",
"'+	c #BBE8EA",
")+	c #3E4F50",
"!+	c #1E2627",
"~+	c #9FD5DA",
"{+	c #A5E0E4",
"]+	c #74A2BD",
"^+	c #535A70",
"/+	c #0A0A0C",
"(+	c #17214E",
"_+	c #1E2E66",
":+	c #223269",
"<+	c #919197",
"[+	c #525F84",
"}+	c #7B84B6",
"|+	c #8E90BA",
"1+	c #5C6E97",
"2+	c #C0D8E0",
"3+	c #C8E9EA",
"4+	c #A4C6C6",
"5+	c #1A2121",
"6+	c #3E4E4F",
"7+	c #B1E3E7",
"8+	c #5A7779",
"9+	c #131A1B",
"0+	c #75A2A5",
"a+	c #8CC6D4",
"b+	c #7286AA",
"c+	c #494953",
"d+	c #12141D",
"e+	c #171E50",
"f+	c #1D2963",
"g+	c #3C4368",
"h+	c #4D5171",
"i+	c #3B466D",
"j+	c #27262F",
"k+	c #35394D",
"l+	c #404F60",
"m+	c #637676",
"n+	c #2B3636",
"o+	c #0E1112",
"p+	c #75999C",
"q+	c #A7DEE4",
"r+	c #87B9BF",
"s+	c #12191A",
"t+	c #202E30",
"u+	c #425466",
"v+	c #535261",
"w+	c #0A0A0E",
"x+	c #121730",
"y+	c #1A255B",
"z+	c #252E62",
"A+	c #313761",
"B+	c #2E3246",
"C+	c #1D1C23",
"D+	c #030305",
"E+	c #060709",
"F+	c #263133",
"G+	c #67898D",
"H+	c #9DD5DC",
"I+	c #9CD9E1",
"J+	c #97D5DF",
"K+	c #5E808E",
"L+	c #20242C",
"M+	c #060608",
"N+	c #0A0B0F",
"O+	c #0F1328",
"P+	c #191F4B",
"Q+	c #222D63",
"R+	c #60657D",
"S+	c #4F5273",
"T+	c #2C3870",
"U+	c #7880AF",
"V+	c #B3B1DC",
"W+	c #939BC7",
"X+	c #90A6CE",
"Y+	c #9CBFDC",
"Z+	c #9EC8E1",
"`+	c #9FC8E2",
" @	c #A4C3E3",
".@	c #AEB9E2",
"+@	c #ADADD8",
"@@	c #747EAD",
"#@	c #20284F",
"$@	c #362932",
"%@	c #574B4C",
"&@	c #45445E",
"*@	c #77777F",
"=@	c #363D6A",
"-@	c #29346D",
";@	c #5B6597",
">@	c #A8ACDB",
",@	c #BBBAE9",
"'@	c #BEBDE8",
")@	c #BFC0EA",
"!@	c #BEBEE9",
"~@	c #B3B4E7",
"{@	c #868DBF",
"]@	c #4B558A",
"^@	c #242E69",
"/@	c #1E1F41",
"(@	c #584034",
"_@	c #A18961",
":@	c #9B8B6E",
"<@	c #786B63",
"[@	c #9D9999",
"}@	c #424870",
"|@	c #252D63",
"1@	c #1F2B64",
"2@	c #344276",
"3@	c #475488",
"4@	c #4B588C",
"5@	c #3D4A7D",
"6@	c #233268",
"7@	c #1C245C",
"8@	c #1C265E",
"9@	c #1C2761",
"0@	c #2C3568",
"a@	c #484459",
"b@	c #664D39",
"c@	c #917852",
"d@	c #A9946B",
"e@	c #8C765E",
"f@	c #756964",
"g@	c #3E446F",
"h@	c #474C72",
"i@	c #292F62",
"j@	c #1D255F",
"k@	c #1C255E",
"l@	c #1C255F",
"m@	c #1D2761",
"n@	c #242D63",
"o@	c #4A5074",
"p@	c #565972",
"q@	c #9E9EA0",
"r@	c #6D605D",
"s@	c #64462E",
"t@	c #7C613E",
"u@	c #937B54",
"v@	c #675044",
"w@	c #5E4A48",
"x@	c #8B8585",
"y@	c #575A75",
"z@	c #484C6C",
"A@	c #353B63",
"B@	c #343A63",
"C@	c #3E4467",
"D@	c #5B5E77",
"E@	c #676A80",
"F@	c #503832",
"G@	c #5B3E2A",
"H@	c #583D2B",
"I@	c #6A4D30",
"J@	c #60422C",
"K@	c #79716F",
"L@	c #8A8383",
"M@	c #422929",
"N@	c #4E3225",
"O@	c #62442B",
"P@	c #51382E",
"Q@	c #8F8888",
"R@	c #513F3F",
"S@	c #442823",
"T@	c #452B28",
"U@	c #544545",
"                  . + @ # $ %                   ",
"            & * = - ; > , ' ) ! ~ {             ",
"          ] ^ / ( _ : < [ } | 1 2 3 4           ",
"        5 6 7 8 9 0 a a b c d e f g h i         ",
"      j k l m n a a a a a a o p q r s t u       ",
"    v w x y z a a a a a a a a A B C D E F       ",
"    G H I J K L M a a a N O P Q R S T U V W     ",
"  X Y Z `  .....+.@.a #.$.%...&.*.=.-.;.>.,.    ",
"  '.).!.~.{.].^./.(.a _.:.<.[.}.|.1.2.3.4.5.    ",
"  6.7.8.9.0.a.b.c.d.e.f.g.h.i.j.k.l.m.n.o.p.    ",
"  q.r.s.t.u.v.w.x.y.z.A.B.C.D.E.F.G.H.I.J.K.    ",
"  L.M.N.O.P.Q.R.S.T.U.V.W.X.Y.Z.`. +.+++@+#+    ",
"  $+%+&+*+=+-+;+>+,+'+)+!+~+{+]+^+/+(+_+:+<+    ",
"  [+}+|+1+2+3+4+5+6+7+8+9+0+a+b+c+d+e+f+g+      ",
"  h+i+j+k+l+m+n+o+p+q+r+s+t+u+v+w+x+y+z+        ",
"    A+B+C+D+E+F+G+H+I+J+K+L+M+N+O+P+Q+R+        ",
"    S+T+U+V+W+X+Y+Z+`+ @.@+@@@#@$@%@&@*@        ",
"      =@-@;@>@,@'@)@!@~@{@]@^@/@(@_@:@<@[@      ",
"        }@|@1@2@3@4@5@6@7@8@9@0@a@b@c@d@e@f@    ",
"          g@h@i@j@k@l@m@f+n@o@p@q@r@s@t@u@v@w@x@",
"              y@z@A@B@C@D@E@        F@G@H@I@J@K@",
"                                    L@M@N@O@P@Q@",
"                                      R@S@T@U@  ",
"                                                "};
