/* XPM */
static const char * chart3_xpm[] = {
"24 24 359 2",
"  	c None",
". 	c #95B2BD",
"+ 	c #7BB5CD",
"@ 	c #71B5D1",
"# 	c #71B2D0",
"$ 	c #85AFC2",
"% 	c #9EB6C0",
"& 	c #70A7BE",
"* 	c #9AC3D0",
"= 	c #AACFDD",
"- 	c #D0E9EA",
"; 	c #E6F0F0",
"> 	c #E8F0F0",
", 	c #EAEEEE",
"' 	c #D4EAEB",
") 	c #ADD3E0",
"! 	c #72AEC7",
"~ 	c #629BB4",
"{ 	c #6194AF",
"] 	c #65ACCB",
"^ 	c #B5DBE1",
"/ 	c #DFEAEC",
"( 	c #D9EDEF",
"_ 	c #C3E2E9",
": 	c #C2E2EA",
"< 	c #BBE1E9",
"[ 	c #ADD7E3",
"} 	c #AED7E3",
"| 	c #E0E9EB",
"1 	c #D8E6EA",
"2 	c #8CC2D6",
"3 	c #4494B9",
"4 	c #3E8EBC",
"5 	c #73AECA",
"6 	c #C3E0E9",
"7 	c #D0E3EA",
"8 	c #B1DAE6",
"9 	c #C2E3E9",
"0 	c #E2F0F0",
"a 	c #EDEDED",
"b 	c #E7ECED",
"c 	c #BBDCE7",
"d 	c #7EBCD5",
"e 	c #BADFE7",
"f 	c #E9EDED",
"g 	c #82BFD6",
"h 	c #378AB6",
"i 	c #3E8BB6",
"j 	c #519EC3",
"k 	c #A5C9DE",
"l 	c #C8DBE8",
"m 	c #A3D1E2",
"n 	c #D5E4E9",
"o 	c #CDDEE5",
"p 	c #71B4CE",
"q 	c #B6DBE5",
"r 	c #D3E7EB",
"s 	c #3C92BC",
"t 	c #3A8CB5",
"u 	c #5A8AA4",
"v 	c #6193B3",
"w 	c #8CBED9",
"x 	c #CBD4EB",
"y 	c #88C1DB",
"z 	c #DBE6EA",
"A 	c #E3E3E3",
"B 	c #B1B1B1",
"C 	c #838383",
"D 	c #6B6B6B",
"E 	c #6F6F6F",
"F 	c #959595",
"G 	c #D7D7D7",
"H 	c #B9D4D9",
"I 	c #76B6CE",
"J 	c #D6E4E9",
"K 	c #68ADCF",
"L 	c #3687B6",
"M 	c #4389B2",
"N 	c #4A9EC3",
"O 	c #CDCCED",
"P 	c #88B7D9",
"Q 	c #BBDFE7",
"R 	c #B5B5B5",
"S 	c #1E1E1E",
"T 	c #181818",
"U 	c #151515",
"V 	c #161616",
"W 	c #4F4F4F",
"X 	c #D2D2D2",
"Y 	c #DCE7EA",
"Z 	c #70B0CD",
"` 	c #B4D0DF",
" .	c #A6C9DD",
"..	c #347BAE",
"+.	c #3684B5",
"@.	c #7D8C97",
"#.	c #5088AF",
"$.	c #82B1D2",
"%.	c #B0B8E0",
"&.	c #72A5C9",
"*.	c #D8E2E8",
"=.	c #CACACA",
"-.	c #8D8D8D",
";.	c #E8E8E8",
">.	c #DFDFDF",
",.	c #7E7E7E",
"'.	c #080808",
").	c #DAEDEE",
"!.	c #7DB3CD",
"~.	c #89B7D4",
"{.	c #BBD0DC",
"].	c #326EA2",
"^.	c #3478AE",
"/.	c #55728B",
"(.	c #6B97B7",
"_.	c #A8BAE0",
":.	c #76A8D1",
"<.	c #8CB4CD",
"[.	c #EAEBEC",
"}.	c #EBEBEB",
"|.	c #737373",
"1.	c #2D2D2D",
"2.	c #C1CACA",
"3.	c #C9EDEE",
"4.	c #8ABED2",
"5.	c #80AECF",
"6.	c #BFCCD7",
"7.	c #316597",
"8.	c #306AA0",
"9.	c #43688C",
"0.	c #678CB1",
"a.	c #B7BCE5",
"b.	c #5496C6",
"c.	c #A8CADC",
"d.	c #ECEEEE",
"e.	c #EAEFEF",
"f.	c #D7DCDC",
"g.	c #191A1A",
"h.	c #4E5051",
"i.	c #A7B8B8",
"j.	c #BEE7E8",
"k.	c #B9E8EA",
"l.	c #84B3C8",
"m.	c #8CA8C9",
"n.	c #ABC1D5",
"o.	c #285187",
"p.	c #2B5790",
"q.	c #3D5B82",
"r.	c #6986AC",
"s.	c #B1B5E3",
"t.	c #567EAE",
"u.	c #B4C8D8",
"v.	c #E3F2F2",
"w.	c #DEF3F3",
"x.	c #CCE4E4",
"y.	c #525D5D",
"z.	c #465252",
"A.	c #262E2E",
"B.	c #5B7171",
"C.	c #A9D4D7",
"D.	c #AEE2E6",
"E.	c #729CB7",
"F.	c #B3BBD3",
"G.	c #8194BA",
"H.	c #24417A",
"I.	c #284C85",
"J.	c #465877",
"K.	c #657EA4",
"L.	c #AEB3E0",
"M.	c #516F9F",
"N.	c #A6B6CA",
"O.	c #E8F0F1",
"P.	c #E0F2F2",
"Q.	c #D8F2F2",
"R.	c #D3F1F1",
"S.	c #CCEEEF",
"T.	c #C4EBEC",
"U.	c #B7E0E1",
"V.	c #718C8E",
"W.	c #0D1112",
"X.	c #85ADB1",
"Y.	c #9DD2DB",
"Z.	c #6786AD",
"`.	c #CBCDDB",
" +	c #465988",
".+	c #21356E",
"++	c #25407B",
"@+	c #63687A",
"#+	c #617295",
"$+	c #A4A9D6",
"%+	c #6678AD",
"&+	c #8198B2",
"*+	c #DCF0F2",
"=+	c #D3F0F1",
"-+	c #C5E5E6",
";+	c #B3D4D4",
">+	c #BBE2E3",
",+	c #BAE7E9",
"'+	c #AEDDE0",
")+	c #6F9093",
"!+	c #070909",
"~+	c #7CA8AB",
"{+	c #75A4BF",
"]+	c #8793B7",
"^+	c #B0B8D9",
"/+	c #1D2A62",
"(+	c #1E2E66",
"_+	c #223269",
":+	c #919197",
"<+	c #525F84",
"[+	c #7F89BC",
"}+	c #A0A2D1",
"|+	c #61739E",
"1+	c #C2DAE2",
"2+	c #93B1B1",
"3+	c #2A3434",
"4+	c #536969",
"5+	c #607B7D",
"6+	c #4E6869",
"7+	c #141B1C",
"8+	c #2C3D3E",
"9+	c #7DB1BD",
"0+	c #7B90B7",
"a+	c #BFBFDA",
"b+	c #606C98",
"c+	c #1C245E",
"d+	c #1D2963",
"e+	c #3C4368",
"f+	c #4D5171",
"g+	c #4B5889",
"h+	c #C0BDE8",
"i+	c #7D86B6",
"j+	c #7792B2",
"k+	c #C8EDEE",
"l+	c #A1C9C9",
"m+	c #435556",
"n+	c #151C1C",
"o+	c #030404",
"p+	c #0B1010",
"q+	c #384E51",
"r+	c #73A5AF",
"s+	c #7FA3C5",
"t+	c #C4C1E5",
"u+	c #8C93BD",
"v+	c #273268",
"w+	c #1C2760",
"x+	c #252E62",
"y+	c #383F6F",
"z+	c #767FB2",
"A+	c #BEBDE8",
"B+	c #878FC0",
"C+	c #7999BA",
"D+	c #A5D6DE",
"E+	c #A3D9DF",
"F+	c #9CD4DA",
"G+	c #95CFD7",
"H+	c #92CDD7",
"I+	c #8EC2D6",
"J+	c #9EB5DC",
"K+	c #C3C1E9",
"L+	c #7680B0",
"M+	c #242E5F",
"N+	c #1D2457",
"O+	c #222D63",
"P+	c #60657D",
"Q+	c #505374",
"R+	c #2D3A73",
"S+	c #7D85B6",
"T+	c #BCBAE6",
"U+	c #9AA2D0",
"V+	c #95ABD4",
"W+	c #9EC1DE",
"X+	c #9EC8E1",
"Y+	c #9FC8E2",
"Z+	c #A4C3E3",
"`+	c #B0BBE4",
" @	c #B3B3E0",
".@	c #7A84B5",
"+@	c #222A53",
"@@	c #382A34",
"#@	c #574B4C",
"$@	c #45445E",
"%@	c #77777F",
"&@	c #363D6A",
"*@	c #29346D",
"=@	c #5B6597",
"-@	c #A8ACDB",
";@	c #BBBAE9",
">@	c #BFC0EA",
",@	c #BEBEE9",
"'@	c #B3B4E7",
")@	c #868DBF",
"!@	c #4B558A",
"~@	c #242E69",
"{@	c #1E1F41",
"]@	c #584034",
"^@	c #A18961",
"/@	c #9B8B6E",
"(@	c #786B63",
"_@	c #9D9999",
":@	c #424870",
"<@	c #252D63",
"[@	c #1F2B64",
"}@	c #344276",
"|@	c #475488",
"1@	c #4B588C",
"2@	c #3D4A7D",
"3@	c #233268",
"4@	c #1C245C",
"5@	c #1C265E",
"6@	c #1C2761",
"7@	c #2C3568",
"8@	c #484459",
"9@	c #664D39",
"0@	c #917852",
"a@	c #A9946B",
"b@	c #8C765E",
"c@	c #756964",
"d@	c #3E446F",
"e@	c #474C72",
"f@	c #292F62",
"g@	c #1D255F",
"h@	c #1C255E",
"i@	c #1C255F",
"j@	c #1D2761",
"k@	c #242D63",
"l@	c #4A5074",
"m@	c #565972",
"n@	c #9E9EA0",
"o@	c #6D605D",
"p@	c #64462E",
"q@	c #7C613E",
"r@	c #937B54",
"s@	c #675044",
"t@	c #5E4A48",
"u@	c #8B8585",
"v@	c #575A75",
"w@	c #484C6C",
"x@	c #353B63",
"y@	c #343A63",
"z@	c #3E4467",
"A@	c #5B5E77",
"B@	c #676A80",
"C@	c #503832",
"D@	c #5B3E2A",
"E@	c #583D2B",
"F@	c #6A4D30",
"G@	c #60422C",
"H@	c #79716F",
"I@	c #8A8383",
"J@	c #422929",
"K@	c #4E3225",
"L@	c #62442B",
"M@	c #51382E",
"N@	c #8F8888",
"O@	c #513F3F",
"P@	c #442823",
"Q@	c #452B28",
"R@	c #544545",
"                  . + @ # $ %                   ",
"            & * = - ; > , ' ) ! ~ {             ",
"          ] ^ / ( _ : < [ } | 1 2 3 4           ",
"        5 6 7 8 9 0 a a b c d e f g h i         ",
"      j k l m n a a a a a a o p q r s t u       ",
"    v w x y z A B C D E F G a H I J K L M       ",
"    N O P Q a R S T U U V W X Y Z `  ...+.@.    ",
"  #.$.%.&.*.a =.-.=.;.>.,.'.B ).!.~.{.].^./.    ",
"  (._.:.<.[.a a a a }.G |.1.2.3.4.5.6.7.8.9.    ",
"  0.a.b.c.a a d.e.f.S g.h.i.j.k.l.m.n.o.p.q.    ",
"  r.s.t.u.a d.v.w.x.y.z.A.B.C.D.E.F.G.H.I.J.    ",
"  K.L.M.N.O.P.Q.R.S.T.U.V.W.X.Y.Z.`. +.+++@+    ",
"  #+$+%+&+*+=+-+;+>+,+'+)+!+~+{+]+^+/+(+_+:+    ",
"  <+[+}+|+1+S.2+3+4+5+6+7+8+9+0+a+b+c+d+e+      ",
"  f+g+h+i+j+k+l+m+n+o+p+q+r+s+t+u+v+w+x+        ",
"    y+z+A+B+C+D+E+F+G+H+I+J+K+L+M+N+O+P+        ",
"    Q+R+S+T+U+V+W+X+Y+Z+`+ @.@+@@@#@$@%@        ",
"      &@*@=@-@;@A+>@,@'@)@!@~@{@]@^@/@(@_@      ",
"        :@<@[@}@|@1@2@3@4@5@6@7@8@9@0@a@b@c@    ",
"          d@e@f@g@h@i@j@d+k@l@m@n@o@p@q@r@s@t@u@",
"              v@w@x@y@z@A@B@        C@D@E@F@G@H@",
"                                    I@J@K@L@M@N@",
"                                      O@P@Q@R@  ",
"                                                "};
