/* XPM */
static const char * chart45_xpm[] = {
"24 24 341 2",
"  	c None",
". 	c #95B2BD",
"+ 	c #7BB5CD",
"@ 	c #71B5D1",
"# 	c #71B2D0",
"$ 	c #85AFC2",
"% 	c #9EB6C0",
"& 	c #70A7BE",
"* 	c #9AC3D0",
"= 	c #AACFDD",
"- 	c #D0E9EA",
"; 	c #E6F0F0",
"> 	c #E8F0F0",
", 	c #EAEEEE",
"' 	c #D4EAEB",
") 	c #ADD3E0",
"! 	c #72AEC7",
"~ 	c #629BB4",
"{ 	c #6194AF",
"] 	c #65ACCB",
"^ 	c #B5DBE1",
"/ 	c #DFEAEC",
"( 	c #D9EDEF",
"_ 	c #C3E2E9",
": 	c #C2E2EA",
"< 	c #BBE1E9",
"[ 	c #ADD7E3",
"} 	c #AED7E3",
"| 	c #E0E9EB",
"1 	c #D8E6EA",
"2 	c #8CC2D6",
"3 	c #4494B9",
"4 	c #3E8EBC",
"5 	c #73AECA",
"6 	c #C3E0E9",
"7 	c #D0E3EA",
"8 	c #B1DAE6",
"9 	c #C2E3E9",
"0 	c #E2F0F0",
"a 	c #EDEDED",
"b 	c #E7ECED",
"c 	c #BBDCE7",
"d 	c #7EBCD5",
"e 	c #BADFE7",
"f 	c #E9EDED",
"g 	c #82BFD6",
"h 	c #378AB6",
"i 	c #3E8BB6",
"j 	c #519EC3",
"k 	c #A5C9DE",
"l 	c #C8DBE8",
"m 	c #A3D1E2",
"n 	c #D5E4E9",
"o 	c #CDDEE5",
"p 	c #71B4CE",
"q 	c #B6DBE5",
"r 	c #D3E7EB",
"s 	c #3C92BC",
"t 	c #3A8CB5",
"u 	c #5A8AA4",
"v 	c #6193B3",
"w 	c #8CBED9",
"x 	c #CBD4EB",
"y 	c #7DB2CA",
"z 	c #7F8688",
"A 	c #6C6C6C",
"B 	c #D4D4D4",
"C 	c #676767",
"D 	c #505C5E",
"E 	c #334F59",
"F 	c #BAC6CA",
"G 	c #68ADCF",
"H 	c #3687B6",
"I 	c #4389B2",
"J 	c #4A9EC3",
"K 	c #CDCCED",
"L 	c #82AFCF",
"M 	c #607377",
"N 	c #0C0C0C",
"O 	c #0B0B0B",
"P 	c #C2C2C2",
"Q 	c #000000",
"R 	c #0D0D0D",
"S 	c #141414",
"T 	c #121314",
"U 	c #090F11",
"V 	c #8EA4B0",
"W 	c #A6C9DD",
"X 	c #347BAE",
"Y 	c #3684B5",
"Z 	c #7D8C97",
"` 	c #5088AF",
" .	c #82B1D2",
"..	c #ACB4DB",
"+.	c #405D71",
"@.	c #0E0F0F",
"#.	c #0A0A0A",
"$.	c #969696",
"%.	c #DAEDEE",
"&.	c #7DB3CD",
"*.	c #89B7D4",
"=.	c #BBD0DC",
"-.	c #326EA2",
";.	c #3478AE",
">.	c #55728B",
",.	c #6B97B7",
"'.	c #A6B8DE",
").	c #4D6E88",
"!.	c #0E1315",
"~.	c #4E4E4E",
"{.	c #434343",
"].	c #E6F1F1",
"^.	c #C9EDEE",
"/.	c #8ABED2",
"(.	c #80AECF",
"_.	c #BFCCD7",
":.	c #316597",
"<.	c #306AA0",
"[.	c #43688C",
"}.	c #6589AE",
"|.	c #7C809C",
"1.	c #0C161D",
"2.	c #2C353A",
"3.	c #D2D2D2",
"4.	c #606060",
"5.	c #EAEFEF",
"6.	c #E9EEEF",
"7.	c #BDC3C3",
"8.	c #141616",
"9.	c #1D2324",
"0.	c #3F5050",
"a.	c #658A9A",
"b.	c #8AA6C6",
"c.	c #ABC1D5",
"d.	c #285187",
"e.	c #2B5790",
"f.	c #3D5B82",
"g.	c #587090",
"h.	c #1C1D24",
"i.	c #020204",
"j.	c #555E66",
"k.	c #909090",
"l.	c #3A3A3A",
"m.	c #060606",
"n.	c #869393",
"o.	c #ADC2C2",
"p.	c #D4F0F1",
"q.	c #B6D4D4",
"r.	c #4C5C5C",
"s.	c #485A5A",
"t.	c #3A494A",
"u.	c #0F1414",
"v.	c #1A242A",
"w.	c #9BA2B7",
"x.	c #8194BA",
"y.	c #24417A",
"z.	c #284C85",
"A.	c #465877",
"B.	c #4E617E",
"C.	c #657677",
"D.	c #C5ECED",
"E.	c #BFEAEB",
"F.	c #B9E6E9",
"G.	c #B1E3E6",
"H.	c #A0D1D5",
"I.	c #4E696D",
"J.	c #040506",
"K.	c #A0A1AC",
"L.	c #465988",
"M.	c #21356E",
"N.	c #25407B",
"O.	c #63687A",
"P.	c #5F6F92",
"Q.	c #959AC3",
"R.	c #5D6D9E",
"S.	c #758AA2",
"T.	c #C9DBDD",
"U.	c #4E5959",
"V.	c #080A0A",
"W.	c #B7D9D9",
"X.	c #B9E0E1",
"Y.	c #BBE8EA",
"Z.	c #9FCACD",
"`.	c #A7D9DC",
" +	c #A5DDE2",
".+	c #9DD5D9",
"++	c #3D5664",
"@+	c #09090C",
"#+	c #8C93AD",
"$+	c #1D2A62",
"%+	c #1E2E66",
"&+	c #223269",
"*+	c #919197",
"=+	c #525F84",
"-+	c #7F89BC",
";+	c #A0A2D1",
">+	c #61739E",
",+	c #C2DAE2",
"'+	c #536161",
")+	c #090B0B",
"!+	c #B7E7E9",
"~+	c #B1E3E7",
"{+	c #232E2F",
"]+	c #476063",
"^+	c #56777A",
"/+	c #3F595F",
"(+	c #0C0E12",
"_+	c #3F3F48",
":+	c #566189",
"<+	c #1C245E",
"[+	c #1D2963",
"}+	c #3C4368",
"|+	c #4D5171",
"1+	c #4B5889",
"2+	c #C0BDE8",
"3+	c #7D86B6",
"4+	c #7792B2",
"5+	c #516061",
"6+	c #B4E5E8",
"7+	c #ADE2E6",
"8+	c #A7DEE4",
"9+	c #445E61",
"0+	c #151D1E",
"a+	c #030505",
"b+	c #090C0E",
"c+	c #4A4957",
"d+	c #72779A",
"e+	c #263167",
"f+	c #1C2760",
"g+	c #252E62",
"h+	c #383F6F",
"i+	c #767FB2",
"j+	c #BEBDE8",
"k+	c #878FC0",
"l+	c #7594B4",
"m+	c #9ECDD5",
"n+	c #A2DCE3",
"o+	c #9CD9E1",
"p+	c #95D1DB",
"q+	c #8BBFD3",
"r+	c #97ADD2",
"s+	c #BBB9DF",
"t+	c #737DAC",
"u+	c #232D5E",
"v+	c #1D2457",
"w+	c #222D63",
"x+	c #60657D",
"y+	c #505374",
"z+	c #2D3A73",
"A+	c #7D85B6",
"B+	c #BCBAE6",
"C+	c #9AA2D0",
"D+	c #95ABD4",
"E+	c #9EC1DE",
"F+	c #9EC8E1",
"G+	c #9FC8E2",
"H+	c #A4C3E3",
"I+	c #B0BBE4",
"J+	c #B3B3E0",
"K+	c #7A84B5",
"L+	c #222A53",
"M+	c #382A34",
"N+	c #574B4C",
"O+	c #45445E",
"P+	c #77777F",
"Q+	c #363D6A",
"R+	c #29346D",
"S+	c #5B6597",
"T+	c #A8ACDB",
"U+	c #BBBAE9",
"V+	c #BFC0EA",
"W+	c #BEBEE9",
"X+	c #B3B4E7",
"Y+	c #868DBF",
"Z+	c #4B558A",
"`+	c #242E69",
" @	c #1E1F41",
".@	c #584034",
"+@	c #A18961",
"@@	c #9B8B6E",
"#@	c #786B63",
"$@	c #9D9999",
"%@	c #424870",
"&@	c #252D63",
"*@	c #1F2B64",
"=@	c #344276",
"-@	c #475488",
";@	c #4B588C",
">@	c #3D4A7D",
",@	c #233268",
"'@	c #1C245C",
")@	c #1C265E",
"!@	c #1C2761",
"~@	c #2C3568",
"{@	c #484459",
"]@	c #664D39",
"^@	c #917852",
"/@	c #A9946B",
"(@	c #8C765E",
"_@	c #756964",
":@	c #3E446F",
"<@	c #474C72",
"[@	c #292F62",
"}@	c #1D255F",
"|@	c #1C255E",
"1@	c #1C255F",
"2@	c #1D2761",
"3@	c #242D63",
"4@	c #4A5074",
"5@	c #565972",
"6@	c #9E9EA0",
"7@	c #6D605D",
"8@	c #64462E",
"9@	c #7C613E",
"0@	c #937B54",
"a@	c #675044",
"b@	c #5E4A48",
"c@	c #8B8585",
"d@	c #575A75",
"e@	c #484C6C",
"f@	c #353B63",
"g@	c #343A63",
"h@	c #3E4467",
"i@	c #5B5E77",
"j@	c #676A80",
"k@	c #503832",
"l@	c #5B3E2A",
"m@	c #583D2B",
"n@	c #6A4D30",
"o@	c #60422C",
"p@	c #79716F",
"q@	c #8A8383",
"r@	c #422929",
"s@	c #4E3225",
"t@	c #62442B",
"u@	c #51382E",
"v@	c #8F8888",
"w@	c #513F3F",
"x@	c #442823",
"y@	c #452B28",
"z@	c #544545",
"                  . + @ # $ %                   ",
"            & * = - ; > , ' ) ! ~ {             ",
"          ] ^ / ( _ : < [ } | 1 2 3 4           ",
"        5 6 7 8 9 0 a a b c d e f g h i         ",
"      j k l m n a a a a a a o p q r s t u       ",
"    v w x y z A a a a B C C C D E F G H I       ",
"    J K L M N O a a a P Q R S T U V W X Y Z     ",
"  `  ...+.@.#.O a a a P Q $.a %.&.*.=.-.;.>.    ",
"  ,.'.).!.~.{.O a a a P Q $.].^./.(._.:.<.[.    ",
"  }.|.1.2.3.4.O 5.5.6.7.Q 8.9.0.a.b.c.d.e.f.    ",
"  g.h.i.j.k.l.m.n.o.p.q.r.s.t.u.v.w.x.y.z.A.    ",
"  B.Q Q Q Q Q Q Q C.D.E.F.G.H.I.J.K.L.M.N.O.    ",
"  P.Q.R.S.T.U.V.W.X.Y.Z.`. +.+++@+#+$+%+&+*+    ",
"  =+-+;+>+,+'+)+E.!+~+{+]+^+/+(+_+:+<+[+}+      ",
"  |+1+2+3+4+5+V.6+7+8+9+0+a+b+c+d+e+f+g+        ",
"    h+i+j+k+l+m+8+n+o+p+q+r+s+t+u+v+w+x+        ",
"    y+z+A+B+C+D+E+F+G+H+I+J+K+L+M+N+O+P+        ",
"      Q+R+S+T+U+j+V+W+X+Y+Z+`+ @.@+@@@#@$@      ",
"        %@&@*@=@-@;@>@,@'@)@!@~@{@]@^@/@(@_@    ",
"          :@<@[@}@|@1@2@[+3@4@5@6@7@8@9@0@a@b@c@",
"              d@e@f@g@h@i@j@        k@l@m@n@o@p@",
"                                    q@r@s@t@u@v@",
"                                      w@x@y@z@  ",
"                                                "};
