/* XPM */
static const char * chart6_xpm[] = {
"24 24 360 2",
"  	c None",
". 	c #95B2BD",
"+ 	c #7BB5CD",
"@ 	c #71B5D1",
"# 	c #71B2D0",
"$ 	c #85AFC2",
"% 	c #9EB6C0",
"& 	c #70A7BE",
"* 	c #9AC3D0",
"= 	c #AACFDD",
"- 	c #D0E9EA",
"; 	c #E6F0F0",
"> 	c #E8F0F0",
", 	c #EAEEEE",
"' 	c #D4EAEB",
") 	c #ADD3E0",
"! 	c #72AEC7",
"~ 	c #629BB4",
"{ 	c #6194AF",
"] 	c #65ACCB",
"^ 	c #B5DBE1",
"/ 	c #DFEAEC",
"( 	c #D9EDEF",
"_ 	c #C3E2E9",
": 	c #C2E2EA",
"< 	c #BBE1E9",
"[ 	c #ADD7E3",
"} 	c #AED7E3",
"| 	c #E0E9EB",
"1 	c #D8E6EA",
"2 	c #8CC2D6",
"3 	c #4494B9",
"4 	c #3E8EBC",
"5 	c #73AECA",
"6 	c #C3E0E9",
"7 	c #D0E3EA",
"8 	c #B1DAE6",
"9 	c #C2E3E9",
"0 	c #E2F0F0",
"a 	c #EDEDED",
"b 	c #E7ECED",
"c 	c #BBDCE7",
"d 	c #7EBCD5",
"e 	c #BADFE7",
"f 	c #E9EDED",
"g 	c #82BFD6",
"h 	c #378AB6",
"i 	c #3E8BB6",
"j 	c #519EC3",
"k 	c #A5C9DE",
"l 	c #C8DBE8",
"m 	c #A3D1E2",
"n 	c #D5E4E9",
"o 	c #CDDEE5",
"p 	c #71B4CE",
"q 	c #B6DBE5",
"r 	c #D3E7EB",
"s 	c #3C92BC",
"t 	c #3A8CB5",
"u 	c #5A8AA4",
"v 	c #6193B3",
"w 	c #8CBED9",
"x 	c #CBD4EB",
"y 	c #88C1DB",
"z 	c #DBE6EA",
"A 	c #E6E6E6",
"B 	c #A4A4A4",
"C 	c #767676",
"D 	c #6A6A6A",
"E 	c #ABABAB",
"F 	c #B9D4D9",
"G 	c #76B6CE",
"H 	c #D6E4E9",
"I 	c #68ADCF",
"J 	c #3687B6",
"K 	c #4389B2",
"L 	c #4A9EC3",
"M 	c #CDCCED",
"N 	c #88B7D9",
"O 	c #BBDFE7",
"P 	c #DCDCDC",
"Q 	c #5E5E5E",
"R 	c #1A1A1A",
"S 	c #161616",
"T 	c #151515",
"U 	c #787878",
"V 	c #DCE7EA",
"W 	c #70B0CD",
"X 	c #B4D0DF",
"Y 	c #A6C9DD",
"Z 	c #347BAE",
"` 	c #3684B5",
" .	c #7D8C97",
"..	c #5088AF",
"+.	c #82B1D2",
"@.	c #B0B8E0",
"#.	c #72A5C9",
"$.	c #D8E2E8",
"%.	c #E5E5E5",
"&.	c #757575",
"*.	c #181818",
"=.	c #848484",
"-.	c #D4D4D4",
";.	c #ECECEC",
">.	c #DAEDEE",
",.	c #7DB3CD",
"'.	c #89B7D4",
").	c #BBD0DC",
"!.	c #326EA2",
"~.	c #3478AE",
"{.	c #55728B",
"].	c #6B97B7",
"^.	c #A8BAE0",
"/.	c #76A8D1",
"(.	c #8CB4CD",
"_.	c #EAEBEC",
":.	c #CBCBCB",
"<.	c #343434",
"[.	c #606060",
"}.	c #E9E9E9",
"|.	c #E6F1F1",
"1.	c #C9EDEE",
"2.	c #8ABED2",
"3.	c #80AECF",
"4.	c #BFCCD7",
"5.	c #316597",
"6.	c #306AA0",
"7.	c #43688C",
"8.	c #678CB1",
"9.	c #B7BCE5",
"0.	c #5496C6",
"a.	c #A8CADC",
"b.	c #B5B6B6",
"c.	c #101010",
"d.	c #545656",
"e.	c #373839",
"f.	c #232424",
"g.	c #4E5051",
"h.	c #ABBDBD",
"i.	c #BFE8E9",
"j.	c #B9E8EA",
"k.	c #84B3C8",
"l.	c #8CA8C9",
"m.	c #ABC1D5",
"n.	c #285187",
"o.	c #2B5790",
"p.	c #3D5B82",
"q.	c #6986AC",
"r.	c #B1B5E3",
"s.	c #567EAE",
"t.	c #B4C8D8",
"u.	c #ECEEEE",
"v.	c #A7B2B2",
"w.	c #020202",
"x.	c #2F3535",
"y.	c #4E5959",
"z.	c #495656",
"A.	c #191E1E",
"B.	c #2B3536",
"C.	c #9DC6C9",
"D.	c #AEE2E6",
"E.	c #729CB7",
"F.	c #B3BBD3",
"G.	c #8194BA",
"H.	c #24417A",
"I.	c #284C85",
"J.	c #465877",
"K.	c #657EA4",
"L.	c #AEB3E0",
"M.	c #516F9F",
"N.	c #A6B6CA",
"O.	c #E8F0F1",
"P.	c #E0F2F2",
"Q.	c #A0B4B4",
"R.	c #050606",
"S.	c #92AAAB",
"T.	c #C1E7E8",
"U.	c #B9E3E4",
"V.	c #728E90",
"W.	c #070909",
"X.	c #81A8AC",
"Y.	c #9DD2DB",
"Z.	c #6786AD",
"`.	c #CBCDDB",
" +	c #465988",
".+	c #21356E",
"++	c #25407B",
"@+	c #63687A",
"#+	c #617295",
"$+	c #A4A9D6",
"%+	c #6678AD",
"&+	c #8198B2",
"*+	c #DCF0F2",
"=+	c #D3F0F1",
"-+	c #A7C2C2",
";+	c #1C2121",
">+	c #6F8788",
",+	c #B5E1E3",
"'+	c #B1E1E4",
")+	c #75989B",
"!+	c #090C0C",
"~+	c #7DAAAD",
"{+	c #75A4BF",
"]+	c #8793B7",
"^+	c #B0B8D9",
"/+	c #1D2A62",
"(+	c #1E2E66",
"_+	c #223269",
":+	c #919197",
"<+	c #525F84",
"[+	c #7F89BC",
"}+	c #A0A2D1",
"|+	c #61739E",
"1+	c #C2DAE2",
"2+	c #CCEEEF",
"3+	c #B7DDDD",
"4+	c #4E6060",
"5+	c #161C1C",
"6+	c #556D6F",
"7+	c #587476",
"8+	c #1D2829",
"9+	c #2F4142",
"0+	c #7EB3BF",
"a+	c #7B90B7",
"b+	c #BFBFDA",
"c+	c #606C98",
"d+	c #1C245E",
"e+	c #1D2963",
"f+	c #3C4368",
"g+	c #4D5171",
"h+	c #4B5889",
"i+	c #C0BDE8",
"j+	c #7D86B6",
"k+	c #7792B2",
"l+	c #C8EDEE",
"m+	c #BAE8E9",
"n+	c #9BC5C8",
"o+	c #435759",
"p+	c #0A0D0E",
"q+	c #070A0A",
"r+	c #33474A",
"s+	c #73A5AF",
"t+	c #7FA3C6",
"u+	c #C4C1E5",
"v+	c #8C93BD",
"w+	c #273268",
"x+	c #1C2760",
"y+	c #252E62",
"z+	c #383F6F",
"A+	c #767FB2",
"B+	c #BEBDE8",
"C+	c #878FC0",
"D+	c #7999BA",
"E+	c #A6D7DF",
"F+	c #A7DEE4",
"G+	c #9ED7DE",
"H+	c #95D0D8",
"I+	c #92CDD7",
"J+	c #8DC1D5",
"K+	c #9DB4DB",
"L+	c #C3C1E9",
"M+	c #7680B0",
"N+	c #242E5F",
"O+	c #1D2457",
"P+	c #222D63",
"Q+	c #60657D",
"R+	c #505374",
"S+	c #2D3A73",
"T+	c #7D85B6",
"U+	c #BCBAE6",
"V+	c #9AA2D0",
"W+	c #95ABD4",
"X+	c #9EC1DE",
"Y+	c #9EC8E1",
"Z+	c #9FC8E2",
"`+	c #A4C3E3",
" @	c #B0BBE4",
".@	c #B3B3E0",
"+@	c #7A84B5",
"@@	c #222A53",
"#@	c #382A34",
"$@	c #574B4C",
"%@	c #45445E",
"&@	c #77777F",
"*@	c #363D6A",
"=@	c #29346D",
"-@	c #5B6597",
";@	c #A8ACDB",
">@	c #BBBAE9",
",@	c #BFC0EA",
"'@	c #BEBEE9",
")@	c #B3B4E7",
"!@	c #868DBF",
"~@	c #4B558A",
"{@	c #242E69",
"]@	c #1E1F41",
"^@	c #584034",
"/@	c #A18961",
"(@	c #9B8B6E",
"_@	c #786B63",
":@	c #9D9999",
"<@	c #424870",
"[@	c #252D63",
"}@	c #1F2B64",
"|@	c #344276",
"1@	c #475488",
"2@	c #4B588C",
"3@	c #3D4A7D",
"4@	c #233268",
"5@	c #1C245C",
"6@	c #1C265E",
"7@	c #1C2761",
"8@	c #2C3568",
"9@	c #484459",
"0@	c #664D39",
"a@	c #917852",
"b@	c #A9946B",
"c@	c #8C765E",
"d@	c #756964",
"e@	c #3E446F",
"f@	c #474C72",
"g@	c #292F62",
"h@	c #1D255F",
"i@	c #1C255E",
"j@	c #1C255F",
"k@	c #1D2761",
"l@	c #242D63",
"m@	c #4A5074",
"n@	c #565972",
"o@	c #9E9EA0",
"p@	c #6D605D",
"q@	c #64462E",
"r@	c #7C613E",
"s@	c #937B54",
"t@	c #675044",
"u@	c #5E4A48",
"v@	c #8B8585",
"w@	c #575A75",
"x@	c #484C6C",
"y@	c #353B63",
"z@	c #343A63",
"A@	c #3E4467",
"B@	c #5B5E77",
"C@	c #676A80",
"D@	c #503832",
"E@	c #5B3E2A",
"F@	c #583D2B",
"G@	c #6A4D30",
"H@	c #60422C",
"I@	c #79716F",
"J@	c #8A8383",
"K@	c #422929",
"L@	c #4E3225",
"M@	c #62442B",
"N@	c #51382E",
"O@	c #8F8888",
"P@	c #513F3F",
"Q@	c #442823",
"R@	c #452B28",
"S@	c #544545",
"                  . + @ # $ %                   ",
"            & * = - ; > , ' ) ! ~ {             ",
"          ] ^ / ( _ : < [ } | 1 2 3 4           ",
"        5 6 7 8 9 0 a a b c d e f g h i         ",
"      j k l m n a a a a a a o p q r s t u       ",
"    v w x y z a a A B C D E a F G H I J K       ",
"    L M N O a a P Q R S T U a V W X Y Z `  .    ",
"  ..+.@.#.$.a %.&.*.=.-.;.a a >.,.'.).!.~.{.    ",
"  ].^./.(._.a :.<.[.}.a a a |.1.2.3.4.5.6.7.    ",
"  8.9.0.a.a a b.c.d.e.f.g.h.i.j.k.l.m.n.o.p.    ",
"  q.r.s.t.a u.v.w.x.y.z.A.B.C.D.E.F.G.H.I.J.    ",
"  K.L.M.N.O.P.Q.R.S.T.U.V.W.X.Y.Z.`. +.+++@+    ",
"  #+$+%+&+*+=+-+;+>+,+'+)+!+~+{+]+^+/+(+_+:+    ",
"  <+[+}+|+1+2+3+4+5+6+7+8+9+0+a+b+c+d+e+f+      ",
"  g+h+i+j+k+l+m+n+o+p+q+r+s+t+u+v+w+x+y+        ",
"    z+A+B+C+D+E+F+G+H+I+J+K+L+M+N+O+P+Q+        ",
"    R+S+T+U+V+W+X+Y+Z+`+ @.@+@@@#@$@%@&@        ",
"      *@=@-@;@>@B+,@'@)@!@~@{@]@^@/@(@_@:@      ",
"        <@[@}@|@1@2@3@4@5@6@7@8@9@0@a@b@c@d@    ",
"          e@f@g@h@i@j@k@e+l@m@n@o@p@q@r@s@t@u@v@",
"              w@x@y@z@A@B@C@        D@E@F@G@H@I@",
"                                    J@K@L@M@N@O@",
"                                      P@Q@R@S@  ",
"                                                "};
