/* XPM */
static const char * chart_xpm[] = {
"24 24 330 2",
"  	c None",
". 	c #95B2BD",
"+ 	c #7BB5CD",
"@ 	c #71B5D1",
"# 	c #71B2D0",
"$ 	c #85AFC2",
"% 	c #9EB6C0",
"& 	c #70A7BE",
"* 	c #9AC3D0",
"= 	c #AACFDD",
"- 	c #D0E9EA",
"; 	c #E6F0F0",
"> 	c #E8F0F0",
", 	c #EAEEEE",
"' 	c #D4EAEB",
") 	c #ADD3E0",
"! 	c #72AEC7",
"~ 	c #629BB4",
"{ 	c #6194AF",
"] 	c #65ACCC",
"^ 	c #B5DBE1",
"/ 	c #DFEAEC",
"( 	c #D9EDEF",
"_ 	c #C3E2E9",
": 	c #C2E2EA",
"< 	c #BBE1E9",
"[ 	c #ADD7E3",
"} 	c #AED7E3",
"| 	c #E0E9EC",
"1 	c #D8E6EA",
"2 	c #8CC2D6",
"3 	c #4494B9",
"4 	c #3E8EBC",
"5 	c #73AECA",
"6 	c #C3E0E9",
"7 	c #D0E3EA",
"8 	c #B1DAE6",
"9 	c #C2E3E9",
"0 	c #E2F0F0",
"a 	c #EDEDED",
"b 	c #E7ECED",
"c 	c #BBDCE7",
"d 	c #7EBCD5",
"e 	c #BADFE7",
"f 	c #E9EDED",
"g 	c #82BFD6",
"h 	c #378AB6",
"i 	c #3E8BB6",
"j 	c #519EC3",
"k 	c #A5C9DE",
"l 	c #C8DBE8",
"m 	c #A3D1E2",
"n 	c #D6E4E9",
"o 	c #CEDEE5",
"p 	c #71B4CE",
"q 	c #B6DBE6",
"r 	c #D3E7EB",
"s 	c #3C92BC",
"t 	c #3A8CB5",
"u 	c #5A8AA4",
"v 	c #6193B3",
"w 	c #8CBED9",
"x 	c #CBD4EB",
"y 	c #88C1DB",
"z 	c #DBE6EA",
"A 	c #B9D4D9",
"B 	c #76B6CE",
"C 	c #68ADCF",
"D 	c #3687B6",
"E 	c #4389B2",
"F 	c #4A9EC3",
"G 	c #CDCCED",
"H 	c #88B7D9",
"I 	c #BBDFE7",
"J 	c #DCE7EA",
"K 	c #70B0CE",
"L 	c #B4D0DF",
"M 	c #A6C9DD",
"N 	c #347BAE",
"O 	c #3684B5",
"P 	c #7D8C97",
"Q 	c #5088AF",
"R 	c #82B1D2",
"S 	c #B0B8E0",
"T 	c #72A5C9",
"U 	c #D8E2E8",
"V 	c #DAEDEE",
"W 	c #7DB3CD",
"X 	c #89B7D4",
"Y 	c #BBD0DC",
"Z 	c #326EA2",
"` 	c #3478AE",
" .	c #55728B",
"..	c #6B97B7",
"+.	c #A8BAE0",
"@.	c #76A8D1",
"#.	c #8CB4CD",
"$.	c #EAEBEC",
"%.	c #E6F1F1",
"&.	c #C9EDEE",
"*.	c #8ABED2",
"=.	c #80AECF",
"-.	c #BFCCD7",
";.	c #316597",
">.	c #306AA0",
",.	c #43688C",
"'.	c #678DB1",
").	c #B7BCE5",
"!.	c #5496C6",
"~.	c #A8CADC",
"{.	c #ECEEEE",
"].	c #EAEFEF",
"^.	c #E9EFEF",
"/.	c #E7EEEE",
"(.	c #E5EDEE",
"_.	c #D8EEEE",
":.	c #C2EBEC",
"<.	c #B9E8EA",
"[.	c #84B3C8",
"}.	c #8CA8C9",
"|.	c #ABC1D5",
"1.	c #285187",
"2.	c #2B5790",
"3.	c #3D5B82",
"4.	c #6986AC",
"5.	c #B1B5E3",
"6.	c #567EAE",
"7.	c #B4C8D8",
"8.	c #E4F2F2",
"9.	c #DEF3F3",
"0.	c #D8F2F2",
"a.	c #D4F0F1",
"b.	c #CDEFEF",
"c.	c #C4ECED",
"d.	c #BCE9EA",
"e.	c #B6E5E8",
"f.	c #AEE2E6",
"g.	c #729CB7",
"h.	c #B3BBD3",
"i.	c #8194BA",
"j.	c #24417A",
"k.	c #284C85",
"l.	c #465877",
"m.	c #657EA4",
"n.	c #AEB3E0",
"o.	c #516F9F",
"p.	c #A6B6CA",
"q.	c #E8F0F1",
"r.	c #E0F2F2",
"s.	c #D3F1F1",
"t.	c #CCEEEF",
"u.	c #C5ECED",
"v.	c #BFEAEB",
"w.	c #B9E6E9",
"x.	c #B2E4E7",
"y.	c #ACE0E5",
"z.	c #9DD2DB",
"A.	c #6786AD",
"B.	c #CBCDDB",
"C.	c #465988",
"D.	c #21356E",
"E.	c #25407B",
"F.	c #63687A",
"G.	c #617295",
"H.	c #A4A9D6",
"I.	c #6678AD",
"J.	c #8198B2",
"K.	c #DCF0F2",
"L.	c #D3F0F1",
"M.	c #CEEFF0",
"N.	c #C9EEEE",
"O.	c #BBE8EA",
"P.	c #B4E5E8",
"Q.	c #A7DFE4",
"R.	c #A5E0E4",
"S.	c #75A4BF",
"T.	c #8793B7",
"U.	c #B0B8D9",
"V.	c #1D2A62",
"W.	c #1E2E66",
"X.	c #223269",
"Y.	c #919197",
"Z.	c #525F84",
"`.	c #7F89BC",
" +	c #A0A2D1",
".+	c #61739E",
"++	c #C2DAE2",
"@+	c #C4ECEC",
"#+	c #B7E7E9",
"$+	c #B1E3E7",
"%+	c #AAE1E5",
"&+	c #A4DEE4",
"*+	c #A0DEE2",
"=+	c #8FCAD8",
"-+	c #7B90B7",
";+	c #BFBFDA",
">+	c #606C98",
",+	c #1C245E",
"'+	c #1E2963",
")+	c #3C4368",
"!+	c #4D5171",
"~+	c #4B5889",
"{+	c #C0BDE8",
"]+	c #7D86B6",
"^+	c #7792B2",
"/+	c #C8EDEE",
"(+	c #BAE8EA",
"_+	c #ADE2E6",
":+	c #A7DEE4",
"<+	c #A1DCE3",
"[+	c #9CDAE1",
"}+	c #90CEDA",
"|+	c #81A5C8",
"1+	c #C4C1E5",
"2+	c #8C93BD",
"3+	c #273268",
"4+	c #1C2760",
"5+	c #252E62",
"6+	c #383F6F",
"7+	c #767FB2",
"8+	c #BEBDE8",
"9+	c #878FC0",
"0+	c #7999BA",
"a+	c #A6D7DF",
"b+	c #A2DCE3",
"c+	c #9CD9E1",
"d+	c #98D6E0",
"e+	c #91C6DB",
"f+	c #9EB5DC",
"g+	c #C3C1E9",
"h+	c #7680B0",
"i+	c #242E5F",
"j+	c #1D2457",
"k+	c #222D63",
"l+	c #60657D",
"m+	c #505374",
"n+	c #2D3A73",
"o+	c #7D85B6",
"p+	c #BCBAE6",
"q+	c #9AA2D0",
"r+	c #95ABD4",
"s+	c #9EC1DE",
"t+	c #9EC8E1",
"u+	c #9FC8E2",
"v+	c #A4C3E3",
"w+	c #B0BBE4",
"x+	c #B3B3E0",
"y+	c #7A84B5",
"z+	c #222A53",
"A+	c #382A34",
"B+	c #574B4C",
"C+	c #45445E",
"D+	c #77777F",
"E+	c #363D6A",
"F+	c #29346D",
"G+	c #5B6597",
"H+	c #A8ACDB",
"I+	c #BBBAE9",
"J+	c #BFC0EA",
"K+	c #BEBEEA",
"L+	c #B3B4E7",
"M+	c #868DBF",
"N+	c #4B558A",
"O+	c #242E69",
"P+	c #1E1F41",
"Q+	c #584034",
"R+	c #A18961",
"S+	c #9B8B6E",
"T+	c #786B63",
"U+	c #9C9A9A",
"V+	c #424870",
"W+	c #252D63",
"X+	c #1F2B64",
"Y+	c #344276",
"Z+	c #475488",
"`+	c #4B588C",
" @	c #3D4A7D",
".@	c #233268",
"+@	c #1C245C",
"@@	c #1C265E",
"#@	c #1C2761",
"$@	c #2C3568",
"%@	c #484459",
"&@	c #664D39",
"*@	c #917852",
"=@	c #A9946B",
"-@	c #8C765E",
";@	c #756964",
">@	c #3E446F",
",@	c #474C72",
"'@	c #292F62",
")@	c #1D255F",
"!@	c #1C255E",
"~@	c #1C255F",
"{@	c #1D2761",
"]@	c #1D2963",
"^@	c #242D63",
"/@	c #4A5074",
"(@	c #565972",
"_@	c #9E9EA0",
":@	c #6D605D",
"<@	c #64462E",
"[@	c #7C613E",
"}@	c #937B54",
"|@	c #675044",
"1@	c #5E4A48",
"2@	c #8B8585",
"3@	c #575A75",
"4@	c #484C6C",
"5@	c #353B63",
"6@	c #343A63",
"7@	c #3E4467",
"8@	c #5B5E77",
"9@	c #676A80",
"0@	c #503832",
"a@	c #5B3E2A",
"b@	c #583D2B",
"c@	c #6A4D30",
"d@	c #60422C",
"e@	c #79716F",
"f@	c #8A8383",
"g@	c #422929",
"h@	c #4E3225",
"i@	c #62442B",
"j@	c #51382E",
"k@	c #8F8888",
"l@	c #523F3F",
"m@	c #442823",
"n@	c #452B28",
"o@	c #544545",
"                  . + @ # $ %                   ",
"            & * = - ; > , ' ) ! ~ {             ",
"          ] ^ / ( _ : < [ } | 1 2 3 4           ",
"        5 6 7 8 9 0 a a b c d e f g h i         ",
"      j k l m n a a a a a a o p q r s t u       ",
"    v w x y z a a a a a a a a A B n C D E       ",
"    F G H I a a a a a a a a a J K L M N O P     ",
"  Q R S T U a a a a a a a a a V W X Y Z `  .    ",
"  ..+.@.#.$.a a a a a a a a %.&.*.=.-.;.>.,.    ",
"  '.).!.~.a a {.].].^./.(._.:.<.[.}.|.1.2.3.    ",
"  4.5.6.7.a {.8.9.0.a.b.c.d.e.f.g.h.i.j.k.l.    ",
"  m.n.o.p.q.r.0.s.t.u.v.w.x.y.z.A.B.C.D.E.F.    ",
"  G.H.I.J.K.L.M.N.:.O.P.f.Q.R.S.T.U.V.W.X.Y.    ",
"  Z.`. +.+++t.@+v.#+$+%+&+*+=+-+;+>+,+'+)+      ",
"  !+~+{+]+^+/+(+P._+:+<+[+}+|+1+2+3+4+5+        ",
"    6+7+8+9+0+a+:+b+c+d+e+f+g+h+i+j+k+l+        ",
"    m+n+o+p+q+r+s+t+u+v+w+x+y+z+A+B+C+D+        ",
"      E+F+G+H+I+8+J+K+L+M+N+O+P+Q+R+S+T+U+      ",
"        V+W+X+Y+Z+`+ @.@+@@@#@$@%@&@*@=@-@;@    ",
"          >@,@'@)@!@~@{@]@^@/@(@_@:@<@[@}@|@1@2@",
"              3@4@5@6@7@8@9@        0@a@b@c@d@e@",
"                                    f@g@h@i@j@k@",
"                                      l@m@n@o@  ",
"                                                "};
