/* XPM */
static const char * chart12_xpm[] = {
"24 24 338 2",
"  	c None",
". 	c #95B2BD",
"+ 	c #7BB5CD",
"@ 	c #71B5D1",
"# 	c #71B2D0",
"$ 	c #85AFC2",
"% 	c #9EB6C0",
"& 	c #70A7BE",
"* 	c #9AC3D0",
"= 	c #AACFDD",
"- 	c #D0E9EA",
"; 	c #E6F0F0",
"> 	c #E8F0F0",
", 	c #EAEEEE",
"' 	c #D4EAEB",
") 	c #ADD3E0",
"! 	c #72AEC7",
"~ 	c #629BB4",
"{ 	c #6194AF",
"] 	c #65ACCB",
"^ 	c #B5DBE1",
"/ 	c #DFEAEC",
"( 	c #D9EDEF",
"_ 	c #C3E2E9",
": 	c #C2E2EA",
"< 	c #BBE1E9",
"[ 	c #ADD7E3",
"} 	c #AED7E3",
"| 	c #E0E9EB",
"1 	c #D8E6EA",
"2 	c #8CC2D6",
"3 	c #4494B9",
"4 	c #3E8EBC",
"5 	c #73AECA",
"6 	c #C3E0E9",
"7 	c #D0E3EA",
"8 	c #B1DAE6",
"9 	c #C2E3E9",
"0 	c #E2F0F0",
"a 	c #EDEDED",
"b 	c #E7ECED",
"c 	c #BBDCE7",
"d 	c #7EBCD5",
"e 	c #BADFE7",
"f 	c #E9EDED",
"g 	c #82BFD6",
"h 	c #378AB6",
"i 	c #3E8BB6",
"j 	c #519EC3",
"k 	c #A5C9DE",
"l 	c #C8DBE8",
"m 	c #A3D1E2",
"n 	c #D5E4E9",
"o 	c #CDDEE5",
"p 	c #71B4CE",
"q 	c #B6DBE5",
"r 	c #D3E7EB",
"s 	c #3C92BC",
"t 	c #3A8CB5",
"u 	c #5A8AA4",
"v 	c #6193B3",
"w 	c #8CBED9",
"x 	c #CBD4EB",
"y 	c #88C1DB",
"z 	c #DBE6EA",
"A 	c #B9D4D9",
"B 	c #76B6CE",
"C 	c #D6E4E9",
"D 	c #68ADCF",
"E 	c #3687B6",
"F 	c #4389B2",
"G 	c #4A9EC3",
"H 	c #CDCCED",
"I 	c #88B7D9",
"J 	c #BBDFE7",
"K 	c #DFDFDF",
"L 	c #7E7E7E",
"M 	c #B6B6B6",
"N 	c #D0D0D0",
"O 	c #929292",
"P 	c #717171",
"Q 	c #64696B",
"R 	c #416778",
"S 	c #9EB7C4",
"T 	c #A6C9DD",
"U 	c #347BAE",
"V 	c #3684B5",
"W 	c #7D8C97",
"X 	c #5088AF",
"Y 	c #82B1D2",
"Z 	c #B0B8E0",
"` 	c #6C9DBF",
" .	c #B5BDC2",
"..	c #767676",
"+.	c #070707",
"@.	c #8C8C8C",
"#.	c #595959",
"$.	c #1A1A1A",
"%.	c #161616",
"&.	c #121414",
"*.	c #090E10",
"=.	c #27343C",
"-.	c #9CADB7",
";.	c #326EA2",
">.	c #3478AE",
",.	c #55728B",
"'.	c #6B97B7",
").	c #A8BAE0",
"!.	c #76A8D1",
"~.	c #4C626F",
"{.	c #000000",
"].	c #949494",
"^.	c #B8B8B8",
"/.	c #DBE5E5",
"(.	c #BDDFE0",
"_.	c #4A6671",
":.	c #030405",
"<.	c #70787E",
"[.	c #316597",
"}.	c #306AA0",
"|.	c #43688C",
"1.	c #678CB1",
"2.	c #B7BCE5",
"3.	c #5496C6",
"4.	c #8AA6B5",
"5.	c #909090",
"6.	c #7C7C7C",
"7.	c #8A8D8D",
"8.	c #EAEFEF",
"9.	c #E9EEEF",
"0.	c #E7EEEE",
"a.	c #E5EDEE",
"b.	c #D8EEEE",
"c.	c #C2EBEC",
"d.	c #B9E8EA",
"e.	c #7098AA",
"f.	c #040507",
"g.	c #65737E",
"h.	c #285187",
"i.	c #2B5790",
"j.	c #3D5B82",
"k.	c #6986AC",
"l.	c #B1B5E3",
"m.	c #567EAE",
"n.	c #B4C8D8",
"o.	c #CBCDCD",
"p.	c #838F8F",
"q.	c #D8F2F2",
"r.	c #D4F0F1",
"s.	c #CDEFEF",
"t.	c #C4ECED",
"u.	c #BCE9EA",
"v.	c #B6E5E8",
"w.	c #A9DCE0",
"x.	c #3B515F",
"y.	c #25262B",
"z.	c #687796",
"A.	c #24417A",
"B.	c #284C85",
"C.	c #465877",
"D.	c #657EA4",
"E.	c #AEB3E0",
"F.	c #516F9F",
"G.	c #A6B6CA",
"H.	c #E8F0F1",
"I.	c #C1D0D0",
"J.	c #7C8E8E",
"K.	c #CCEEEF",
"L.	c #C5ECED",
"M.	c #BFEAEB",
"N.	c #B9E6E9",
"O.	c #B2E4E7",
"P.	c #A3D5DA",
"Q.	c #5F7F85",
"R.	c #141A22",
"S.	c #8C8E98",
"T.	c #455887",
"U.	c #21356E",
"V.	c #25407B",
"W.	c #63687A",
"X.	c #617295",
"Y.	c #A4A9D6",
"Z.	c #6678AD",
"`.	c #8198B2",
" +	c #DCF0F2",
".+	c #B6CFCF",
"++	c #778C8C",
"@+	c #BBE8EA",
"#+	c #B4E5E8",
"$+	c #AEE2E6",
"%+	c #9FD5DA",
"&+	c #5B7B7E",
"*+	c #1B252C",
"=+	c #5B637B",
"-+	c #AEB6D7",
";+	c #1D2A62",
">+	c #1E2E66",
",+	c #223269",
"'+	c #919197",
")+	c #525F84",
"!+	c #7F89BC",
"~+	c #A0A2D1",
"{+	c #61739E",
"]+	c #C2DAE2",
"^+	c #B0CDCE",
"/+	c #718A8B",
"(+	c #B7E7E9",
"_+	c #B1E3E7",
":+	c #AAE1E5",
"<+	c #93C8CD",
"[+	c #40585A",
"}+	c #2B3C41",
"|+	c #5F708E",
"1+	c #BCBCD7",
"2+	c #606C98",
"3+	c #1C245E",
"4+	c #1D2963",
"5+	c #3C4368",
"6+	c #4D5171",
"7+	c #4B5889",
"8+	c #C0BDE8",
"9+	c #646B92",
"0+	c #435264",
"a+	c #617373",
"b+	c #3C4C4D",
"c+	c #617F81",
"d+	c #71979B",
"e+	c #A1DCE3",
"f+	c #3B5255",
"g+	c #0B1011",
"h+	c #384757",
"i+	c #6E6C81",
"j+	c #4F536A",
"k+	c #161C3A",
"l+	c #0F1636",
"m+	c #212958",
"n+	c #383F6F",
"o+	c #767FB2",
"p+	c #67677E",
"q+	c #2A3B3D",
"r+	c #98D6E0",
"s+	c #27363C",
"t+	c #474B5D",
"u+	c #505374",
"v+	c #2D3A73",
"w+	c #7A82B2",
"x+	c #B3B1DC",
"y+	c #939BC7",
"z+	c #8EA3CA",
"A+	c #97B8D4",
"B+	c #97BFD7",
"C+	c #9AC1DA",
"D+	c #A4C3E3",
"E+	c #AAB5DC",
"F+	c #ABABD6",
"G+	c #747EAD",
"H+	c #20284F",
"I+	c #352831",
"J+	c #534748",
"K+	c #424159",
"L+	c #74747C",
"M+	c #363D6A",
"N+	c #29346D",
"O+	c #5B6597",
"P+	c #A8ACDB",
"Q+	c #BBBAE9",
"R+	c #BEBDE8",
"S+	c #BFC0EA",
"T+	c #BEBEE9",
"U+	c #B3B4E7",
"V+	c #868DBF",
"W+	c #4B558A",
"X+	c #242E69",
"Y+	c #1E1F41",
"Z+	c #584034",
"`+	c #A18961",
" @	c #9B8B6E",
".@	c #786B63",
"+@	c #9D9999",
"@@	c #424870",
"#@	c #252D63",
"$@	c #1F2B64",
"%@	c #344276",
"&@	c #475488",
"*@	c #4B588C",
"=@	c #3D4A7D",
"-@	c #233268",
";@	c #1C245C",
">@	c #1C265E",
",@	c #1C2761",
"'@	c #2C3568",
")@	c #484459",
"!@	c #664D39",
"~@	c #917852",
"{@	c #A9946B",
"]@	c #8C765E",
"^@	c #756964",
"/@	c #3E446F",
"(@	c #474C72",
"_@	c #292F62",
":@	c #1D255F",
"<@	c #1C255E",
"[@	c #1C255F",
"}@	c #1D2761",
"|@	c #242D63",
"1@	c #4A5074",
"2@	c #565972",
"3@	c #9E9EA0",
"4@	c #6D605D",
"5@	c #64462E",
"6@	c #7C613E",
"7@	c #937B54",
"8@	c #675044",
"9@	c #5E4A48",
"0@	c #8B8585",
"a@	c #575A75",
"b@	c #484C6C",
"c@	c #353B63",
"d@	c #343A63",
"e@	c #3E4467",
"f@	c #5B5E77",
"g@	c #676A80",
"h@	c #503832",
"i@	c #5B3E2A",
"j@	c #583D2B",
"k@	c #6A4D30",
"l@	c #60422C",
"m@	c #79716F",
"n@	c #8A8383",
"o@	c #422929",
"p@	c #4E3225",
"q@	c #62442B",
"r@	c #51382E",
"s@	c #8F8888",
"t@	c #513F3F",
"u@	c #442823",
"v@	c #452B28",
"w@	c #544545",
"                  . + @ # $ %                   ",
"            & * = - ; > , ' ) ! ~ {             ",
"          ] ^ / ( _ : < [ } | 1 2 3 4           ",
"        5 6 7 8 9 0 a a b c d e f g h i         ",
"      j k l m n a a a a a a o p q r s t u       ",
"    v w x y z a a a a a a a a A B C D E F       ",
"    G H I J K L M a a a N O P Q R S T U V W     ",
"  X Y Z `  ...+.@.a a a #.$.%.&.*.=.-.;.>.,.    ",
"  '.).!.~.{.{.{.@.a a a ].^./.(._.:.<.[.}.|.    ",
"  1.2.3.4.5.6.{.7.8.9.0.a.b.c.d.e.f.g.h.i.j.    ",
"  k.l.m.n.a o.{.p.q.r.s.t.u.v.w.x.y.z.A.B.C.    ",
"  D.E.F.G.H.I.{.J.K.L.M.N.O.P.Q.R.S.T.U.V.W.    ",
"  X.Y.Z.`. +.+{.++c.@+#+$+%+&+*+=+-+;+>+,+'+    ",
"  )+!+~+{+]+^+{./+(+_+:+<+[+}+|+1+2+3+4+5+      ",
"  6+7+8+9+0+a+{.b+c+d+e+f+g+h+i+j+k+l+m+        ",
"    n+o+p+{.{.{.{.{.q+r+s+{.{.{.{.{.{.t+        ",
"    u+v+w+x+y+z+A+B+C+D+E+F+G+H+I+J+K+L+        ",
"      M+N+O+P+Q+R+S+T+U+V+W+X+Y+Z+`+ @.@+@      ",
"        @@#@$@%@&@*@=@-@;@>@,@'@)@!@~@{@]@^@    ",
"          /@(@_@:@<@[@}@4+|@1@2@3@4@5@6@7@8@9@0@",
"              a@b@c@d@e@f@g@        h@i@j@k@l@m@",
"                                    n@o@p@q@r@s@",
"                                      t@u@v@w@  ",
"                                                "};
