/* XPM */
static const char * chart10_xpm[] = {
"24 24 343 2",
"  	c None",
". 	c #95B2BD",
"+ 	c #7BB5CD",
"@ 	c #71B5D1",
"# 	c #71B2D0",
"$ 	c #85AFC2",
"% 	c #9EB6C0",
"& 	c #70A7BE",
"* 	c #9AC3D0",
"= 	c #AACFDD",
"- 	c #D0E9EA",
"; 	c #E6F0F0",
"> 	c #E8F0F0",
", 	c #EAEEEE",
"' 	c #D4EAEB",
") 	c #ADD3E0",
"! 	c #72AEC7",
"~ 	c #629BB4",
"{ 	c #6194AF",
"] 	c #65ACCB",
"^ 	c #B5DBE1",
"/ 	c #DFEAEC",
"( 	c #D9EDEF",
"_ 	c #C3E2E9",
": 	c #C2E2EA",
"< 	c #BBE1E9",
"[ 	c #ADD7E3",
"} 	c #AED7E3",
"| 	c #E0E9EB",
"1 	c #D8E6EA",
"2 	c #8CC2D6",
"3 	c #4494B9",
"4 	c #3E8EBC",
"5 	c #73AECA",
"6 	c #C3E0E9",
"7 	c #D0E3EA",
"8 	c #B1DAE6",
"9 	c #C2E3E9",
"0 	c #E2F0F0",
"a 	c #EDEDED",
"b 	c #E7ECED",
"c 	c #BBDCE7",
"d 	c #7EBCD5",
"e 	c #BADFE7",
"f 	c #E9EDED",
"g 	c #82BFD6",
"h 	c #378AB6",
"i 	c #3E8BB6",
"j 	c #519EC3",
"k 	c #A5C9DE",
"l 	c #C8DBE8",
"m 	c #A3D1E2",
"n 	c #D5E4E9",
"o 	c #CDDEE5",
"p 	c #71B4CE",
"q 	c #B6DBE5",
"r 	c #D3E7EB",
"s 	c #3C92BC",
"t 	c #3A8CB5",
"u 	c #5A8AA4",
"v 	c #6193B3",
"w 	c #8CBED9",
"x 	c #CBD4EB",
"y 	c #88C1DB",
"z 	c #DBE6EA",
"A 	c #B9D4D9",
"B 	c #76B6CE",
"C 	c #D6E4E9",
"D 	c #68ADCF",
"E 	c #3687B6",
"F 	c #4389B2",
"G 	c #4A9EC3",
"H 	c #CDCCED",
"I 	c #88B7D9",
"J 	c #B0D2DA",
"K 	c #7E7E7E",
"L 	c #B6B6B6",
"M 	c #D9D9D9",
"N 	c #909090",
"O 	c #6E6E6E",
"P 	c #707577",
"Q 	c #56879E",
"R 	c #B1CCDB",
"S 	c #A6C9DD",
"T 	c #347BAE",
"U 	c #3684B5",
"V 	c #7D8C97",
"W 	c #5088AF",
"X 	c #82B1D2",
"Y 	c #A7AFD5",
"Z 	c #5F8AA8",
"` 	c #6B7073",
" .	c #070707",
"..	c #8C8C8C",
"+.	c #E6E6E6",
"@.	c #494949",
"#.	c #141414",
"$.	c #151515",
"%.	c #121414",
"&.	c #141D21",
"*.	c #5C7B8E",
"=.	c #B9CEDA",
"-.	c #326EA2",
";.	c #3478AE",
">.	c #55728B",
",.	c #6B97B7",
"'.	c #A8BAE0",
").	c #405B71",
"!.	c #000000",
"~.	c #9B9B9B",
"{.	c #121212",
"].	c #7D7D7D",
"^.	c #D7E1E1",
"/.	c #A5C3C4",
"(.	c #1C262A",
"_.	c #25333C",
":.	c #AAB6C0",
"<.	c #316597",
"[.	c #306AA0",
"}.	c #43688C",
"|.	c #678CB1",
"1.	c #B7BCE5",
"2.	c #457BA3",
"3.	c #667A85",
"4.	c #7C7C7C",
"5.	c #8B8C8C",
"6.	c #EAEFEF",
"7.	c #E9EEEF",
"8.	c #616464",
"9.	c #232424",
"0.	c #BDD1D1",
"a.	c #C2EBEC",
"b.	c #B5E3E5",
"c.	c #465F6A",
"d.	c #101317",
"e.	c #8C9EAE",
"f.	c #285187",
"g.	c #2B5790",
"h.	c #3D5B82",
"i.	c #6986AC",
"j.	c #B1B5E3",
"k.	c #567EAE",
"l.	c #B4C8D8",
"m.	c #CCCCCC",
"n.	c #868F8F",
"o.	c #DEF3F3",
"p.	c #D8F2F2",
"q.	c #D4F0F1",
"r.	c #3E4949",
"s.	c #222929",
"t.	c #B8E4E5",
"u.	c #B6E5E8",
"v.	c #ADE1E5",
"w.	c #4A6677",
"x.	c #040505",
"y.	c #657491",
"z.	c #24417A",
"A.	c #284C85",
"B.	c #465877",
"C.	c #657EA4",
"D.	c #AEB3E0",
"E.	c #516F9F",
"F.	c #A6B6CA",
"G.	c #C8CFCF",
"H.	c #7F8F8F",
"I.	c #D3F1F1",
"J.	c #CCEEEF",
"K.	c #C5ECED",
"L.	c #364243",
"M.	c #21292A",
"N.	c #B0E2E5",
"O.	c #ACE0E5",
"P.	c #9DD2DB",
"Q.	c #455974",
"R.	c #020202",
"S.	c #364569",
"T.	c #21356E",
"U.	c #25407B",
"V.	c #63687A",
"W.	c #617295",
"X.	c #A4A9D6",
"Y.	c #6678AD",
"Z.	c #8198B2",
"`.	c #BDCFD0",
" +	c #798D8E",
".+	c #C9EEEE",
"++	c #BBE8EA",
"@+	c #3E4F50",
"#+	c #1E2627",
"$+	c #9FD5DA",
"%+	c #A5E0E4",
"&+	c #74A2BD",
"*+	c #535A70",
"=+	c #0A0A0C",
"-+	c #17214E",
";+	c #1E2E66",
">+	c #223269",
",+	c #919197",
"'+	c #525F84",
")+	c #7F89BC",
"!+	c #A0A2D1",
"~+	c #61739E",
"{+	c #A7BCC2",
"]+	c #748B8B",
"^+	c #BFEAEB",
"/+	c #B7E7E9",
"(+	c #B1E3E7",
"_+	c #5A7779",
":+	c #131A1B",
"<+	c #75A2A5",
"[+	c #8CC6D4",
"}+	c #7286AA",
"|+	c #494953",
"1+	c #12141D",
"2+	c #171E50",
"3+	c #1D2963",
"4+	c #3C4368",
"5+	c #4D5171",
"6+	c #4B5889",
"7+	c #9A97BA",
"8+	c #464B66",
"9+	c #394656",
"0+	c #3E4D4D",
"a+	c #658183",
"b+	c #769A9C",
"c+	c #A7DEE4",
"d+	c #87B9BF",
"e+	c #12191A",
"f+	c #202E30",
"g+	c #425466",
"h+	c #535261",
"i+	c #0A0A0E",
"j+	c #121730",
"k+	c #1A255B",
"l+	c #252E62",
"m+	c #383F6F",
"n+	c #404561",
"o+	c #2C3C3E",
"p+	c #9CD9E1",
"q+	c #97D5DF",
"r+	c #5E808E",
"s+	c #20242C",
"t+	c #060608",
"u+	c #0A0B0F",
"v+	c #0F1328",
"w+	c #191F4B",
"x+	c #222D63",
"y+	c #60657D",
"z+	c #505374",
"A+	c #2C3870",
"B+	c #777FAE",
"C+	c #B3B1DC",
"D+	c #939BC7",
"E+	c #8EA3CA",
"F+	c #97B8D4",
"G+	c #99C1D9",
"H+	c #9FC8E2",
"I+	c #A4C3E3",
"J+	c #AEB9E2",
"K+	c #ADADD8",
"L+	c #747EAD",
"M+	c #20284F",
"N+	c #362932",
"O+	c #574B4C",
"P+	c #45445E",
"Q+	c #77777F",
"R+	c #363D6A",
"S+	c #29346D",
"T+	c #5B6597",
"U+	c #A8ACDB",
"V+	c #BBBAE9",
"W+	c #BEBDE8",
"X+	c #BFC0EA",
"Y+	c #BEBEE9",
"Z+	c #B3B4E7",
"`+	c #868DBF",
" @	c #4B558A",
".@	c #242E69",
"+@	c #1E1F41",
"@@	c #584034",
"#@	c #A18961",
"$@	c #9B8B6E",
"%@	c #786B63",
"&@	c #9D9999",
"*@	c #424870",
"=@	c #252D63",
"-@	c #1F2B64",
";@	c #344276",
">@	c #475488",
",@	c #4B588C",
"'@	c #3D4A7D",
")@	c #233268",
"!@	c #1C245C",
"~@	c #1C265E",
"{@	c #1C2761",
"]@	c #2C3568",
"^@	c #484459",
"/@	c #664D39",
"(@	c #917852",
"_@	c #A9946B",
":@	c #8C765E",
"<@	c #756964",
"[@	c #3E446F",
"}@	c #474C72",
"|@	c #292F62",
"1@	c #1D255F",
"2@	c #1C255E",
"3@	c #1C255F",
"4@	c #1D2761",
"5@	c #242D63",
"6@	c #4A5074",
"7@	c #565972",
"8@	c #9E9EA0",
"9@	c #6D605D",
"0@	c #64462E",
"a@	c #7C613E",
"b@	c #937B54",
"c@	c #675044",
"d@	c #5E4A48",
"e@	c #8B8585",
"f@	c #575A75",
"g@	c #484C6C",
"h@	c #353B63",
"i@	c #343A63",
"j@	c #3E4467",
"k@	c #5B5E77",
"l@	c #676A80",
"m@	c #503832",
"n@	c #5B3E2A",
"o@	c #583D2B",
"p@	c #6A4D30",
"q@	c #60422C",
"r@	c #79716F",
"s@	c #8A8383",
"t@	c #422929",
"u@	c #4E3225",
"v@	c #62442B",
"w@	c #51382E",
"x@	c #8F8888",
"y@	c #513F3F",
"z@	c #442823",
"A@	c #452B28",
"B@	c #544545",
"                  . + @ # $ %                   ",
"            & * = - ; > , ' ) ! ~ {             ",
"          ] ^ / ( _ : < [ } | 1 2 3 4           ",
"        5 6 7 8 9 0 a a b c d e f g h i         ",
"      j k l m n a a a a a a o p q r s t u       ",
"    v w x y z a a a a a a a a A B C D E F       ",
"    G H I J K L a a a a M N O P Q R S T U V     ",
"  W X Y Z `  ...a a a +.@.#.$.%.&.*.=.-.;.>.    ",
"  ,.'.).!.!.!...a a a ~.{.].^./.(._.:.<.[.}.    ",
"  |.1.2.3.4.!.5.6.6.7.8.9.0.a.b.c.d.e.f.g.h.    ",
"  i.j.k.l.m.!.n.o.p.q.r.s.t.u.v.w.x.y.z.A.B.    ",
"  C.D.E.F.G.!.H.I.J.K.L.M.N.O.P.Q.R.S.T.U.V.    ",
"  W.X.Y.Z.`.!. +.+a.++@+#+$+%+&+*+=+-+;+>+,+    ",
"  '+)+!+~+{+!.]+^+/+(+_+:+<+[+}+|+1+2+3+4+      ",
"  5+6+7+8+9+!.0+a+b+c+d+e+f+g+h+i+j+k+l+        ",
"    m+n+!.!.!.!.!.o+p+q+r+s+t+u+v+w+x+y+        ",
"    z+A+B+C+D+E+F+G+H+I+J+K+L+M+N+O+P+Q+        ",
"      R+S+T+U+V+W+X+Y+Z+`+ @.@+@@@#@$@%@&@      ",
"        *@=@-@;@>@,@'@)@!@~@{@]@^@/@(@_@:@<@    ",
"          [@}@|@1@2@3@4@3+5@6@7@8@9@0@a@b@c@d@e@",
"              f@g@h@i@j@k@l@        m@n@o@p@q@r@",
"                                    s@t@u@v@w@x@",
"                                      y@z@A@B@  ",
"                                                "};
