/* XPM */
static char * chart108_xpm[] = {
"32 32 447 2",
"  	c None",
". 	c #96A1AA",
"+ 	c #689FBC",
"@ 	c #4AA3C8",
"# 	c #47A2C7",
"$ 	c #439DC7",
"% 	c #5CA0C4",
"& 	c #8999A5",
"* 	c #BBBEC1",
"= 	c #A1B3BF",
"- 	c #5E99B4",
"; 	c #6FB6D3",
"> 	c #A8E1E4",
", 	c #D8F2F2",
"' 	c #EDEDED",
") 	c #D5F1F1",
"! 	c #A1DDE3",
"~ 	c #5BAECD",
"{ 	c #458BB3",
"] 	c #638AA3",
"^ 	c #A3ACB1",
"/ 	c #5897B4",
"( 	c #89CBDB",
"_ 	c #E0F4F4",
": 	c #E4F3F4",
"< 	c #E2F4F4",
"[ 	c #B1E0E7",
"} 	c #4AA9C8",
"| 	c #368DB6",
"1 	c #5A8EAC",
"2 	c #A6BFD0",
"3 	c #50A6CA",
"4 	c #C7EDED",
"5 	c #CBECEF",
"6 	c #B4DEE8",
"7 	c #B6DEE8",
"8 	c #ABDAE5",
"9 	c #9DD2E1",
"0 	c #89C7DB",
"a 	c #A9D8E5",
"b 	c #5FB1CF",
"c 	c #3E8EBC",
"d 	c #96B5C8",
"e 	c #4AA0C8",
"f 	c #DDF1F3",
"g 	c #B9DEE9",
"h 	c #A1D4E3",
"i 	c #BAE3EA",
"j 	c #D9F2F3",
"k 	c #CBEAEF",
"l 	c #8AC3DA",
"m 	c #64B0D0",
"n 	c #CBEEEF",
"o 	c #45A1C7",
"p 	c #368AB6",
"q 	c #3D8BB7",
"r 	c #3693B6",
"s 	c #C4DFEC",
"t 	c #A6D2E4",
"u 	c #8FCADD",
"v 	c #99C6D7",
"w 	c #D0F0F0",
"x 	c #ACDAE6",
"y 	c #3687B6",
"z 	c #478AB1",
"A 	c #3E91BC",
"B 	c #A6D0E4",
"C 	c #F4E2F4",
"D 	c #95C6DF",
"E 	c #88BBCC",
"F 	c #409BC6",
"G 	c #DDF3F3",
"H 	c #3690B6",
"I 	c #6D8899",
"J 	c #6193B3",
"K 	c #80C0D8",
"L 	c #F3DDF3",
"M 	c #A1C8E3",
"N 	c #70B9D4",
"O 	c #F2F2E8",
"P 	c #65A5BD",
"Q 	c #78BDD6",
"R 	c #8AC4DC",
"S 	c #3681B6",
"T 	c #3B88B9",
"U 	c #3997BF",
"V 	c #D0D0F0",
"W 	c #CAD1EE",
"X 	c #56A9CC",
"Y 	c #D3F1F1",
"Z 	c #A5D1DF",
"` 	c #3990BD",
" .	c #C4E0EC",
"..	c #3377AB",
"+.	c #3684B6",
"@.	c #87929B",
"#.	c #628DAC",
"$.	c #77B7D5",
"%.	c #EACDEF",
"&.	c #0C1218",
"*.	c #000000",
"=.	c #A1A1A1",
"-.	c #040404",
";.	c #347DB0",
">.	c #AED3E6",
",.	c #3070A2",
"'.	c #3374AB",
").	c #60788C",
"!.	c #3E82B2",
"~.	c #AEC6E6",
"{.	c #B7C3E9",
"].	c #3275A8",
"^.	c #050606",
"/.	c #4386B1",
"(.	c #97BFD9",
"_.	c #366D9C",
":.	c #2F699F",
"<.	c #4A6B8A",
"[.	c #AEB1B8",
"}.	c #3883B8",
"|.	c #D7CEF0",
"1.	c #7DB0D7",
"2.	c #3987B3",
"3.	c #262626",
"4.	c #9B9B9B",
"5.	c #B6C7C7",
"6.	c #465454",
"7.	c #5091BA",
"8.	c #90B7D6",
"9.	c #356795",
"0.	c #2D5E95",
"a.	c #306AA0",
"b.	c #41678D",
"c.	c #848E9C",
"d.	c #4A8EC8",
"e.	c #DECDEF",
"f.	c #5098CA",
"g.	c #5BA6CD",
"h.	c #C5C5C5",
"i.	c #1E1E1E",
"j.	c #3A4343",
"k.	c #6A8182",
"l.	c #B8E7E8",
"m.	c #BFEBEB",
"n.	c #5183AD",
"o.	c #97B1CF",
"p.	c #E0F1F4",
"q.	c #285286",
"r.	c #2A568C",
"s.	c #2C5A94",
"t.	c #3C5C84",
"u.	c #788190",
"v.	c #588FCC",
"w.	c #D0C4EC",
"x.	c #4A7AB0",
"y.	c #7FABC9",
"z.	c #DEF3F4",
"A.	c #B9D7D8",
"B.	c #7C9595",
"C.	c #759191",
"D.	c #151B1B",
"E.	c #90B8B9",
"F.	c #AFE3E7",
"G.	c #436891",
"H.	c #C0CAE4",
"I.	c #BECDE6",
"J.	c #24407A",
"K.	c #274D85",
"L.	c #29538B",
"M.	c #3F567B",
"N.	c #797F8F",
"O.	c #5B89C7",
"P.	c #CDC2EC",
"Q.	c #486A9E",
"R.	c #779CBF",
"S.	c #D1F0F1",
"T.	c #CEEFF0",
"U.	c #C2ECEC",
"V.	c #283131",
"W.	c #ADD7DA",
"X.	c #B7E6E9",
"Y.	c #789A9D",
"Z.	c #1B2324",
"`.	c #97CBDF",
" +	c #3F5887",
".+	c #F2E8F2",
"++	c #8496BC",
"@+	c #21336D",
"#+	c #25437B",
"$+	c #274783",
"%+	c #4D5973",
"&+	c #787D8C",
"*+	c #4F7BB7",
"=+	c #CDC5ED",
"-+	c #4E6A9C",
";+	c #56759E",
">+	c #8DA3A3",
",+	c #87A1A1",
"'+	c #030404",
")+	c #BCE8EA",
"!+	c #7A9A9D",
"~+	c #AEE3E6",
"{+	c #72979B",
"]+	c #5F8AAF",
"^+	c #6C7AA8",
"/+	c #435785",
"(+	c #1E2D66",
"_+	c #223A72",
":+	c #253F7B",
"<+	c #6A6D7C",
"[+	c #7D808F",
"}+	c #42649C",
"|+	c #CCC7ED",
"1+	c #697CB3",
"2+	c #D6F1F2",
"3+	c #8CA3A3",
"4+	c #7E9D9F",
"5+	c #B4E5E8",
"6+	c #658F98",
"7+	c #334C7B",
"8+	c #BEC3E4",
"9+	c #C1C7E7",
"0+	c #1D2C63",
"a+	c #1F3169",
"b+	c #919197",
"c+	c #A3A3A9",
"d+	c #25417B",
"e+	c #B6B9E8",
"f+	c #A8ACE0",
"g+	c #203468",
"h+	c #ADC2D7",
"i+	c #BCEAEA",
"j+	c #B9E6E9",
"k+	c #B3E4E7",
"l+	c #ACE2E6",
"m+	c #A9E0E5",
"n+	c #A6DFE4",
"o+	c #A1DCE3",
"p+	c #A3E2E3",
"q+	c #567EA6",
"r+	c #7782B1",
"s+	c #5D6E9F",
"t+	c #1B215B",
"u+	c #1D2861",
"v+	c #1E2B64",
"w+	c #2A3360",
"x+	c #2E3868",
"y+	c #828CC2",
"z+	c #D4CBEF",
"A+	c #6F7AB3",
"B+	c #465D86",
"C+	c #BAE7EA",
"D+	c #9DDCE1",
"E+	c #9DDFE1",
"F+	c #71A6C5",
"G+	c #7B8CB7",
"H+	c #F1DEF4",
"I+	c #A6AED6",
"J+	c #1D2A61",
"K+	c #1C255E",
"L+	c #1C2760",
"M+	c #1F2B67",
"N+	c #616271",
"O+	c #585974",
"P+	c #374A81",
"Q+	c #C1BFEB",
"R+	c #C2C0EC",
"S+	c #4F5F91",
"T+	c #6B89AD",
"U+	c #B1E4E7",
"V+	c #A8DEE4",
"W+	c #A3DCE3",
"X+	c #9EDAE2",
"Y+	c #9BD9E1",
"Z+	c #98DCE0",
"`+	c #7EB6D0",
" @	c #8598C3",
".@	c #D8CEF0",
"+@	c #C2C6EC",
"@@	c #2B3F73",
"#@	c #1B235B",
"$@	c #1E2964",
"%@	c #303760",
"&@	c #94949C",
"*@	c #1E2864",
"=@	c #727EB4",
"-@	c #CEC8EE",
";@	c #BAB9E9",
">@	c #5B6B9F",
",@	c #6A8AAE",
"'@	c #B3E7E7",
")@	c #B1E6E7",
"!@	c #9ADAE0",
"~@	c #91D3DD",
"{@	c #86B7D4",
"]@	c #9EACDA",
"^@	c #B0B4E0",
"/@	c #32457C",
"(@	c #1C235C",
"_@	c #1D2763",
":@	c #1D2963",
"<@	c #222C60",
"[@	c #9D9D9D",
"}@	c #292F61",
"|@	c #1F3067",
"1@	c #929BCE",
"2@	c #CAC7ED",
"3@	c #C2BFEB",
"4@	c #737FB5",
"5@	c #6B8BB3",
"6@	c #97C7DB",
"7@	c #9DD7E1",
"8@	c #9AD7E0",
"9@	c #97D6DF",
"0@	c #94D3DE",
"a@	c #91C7DD",
"b@	c #91B5D9",
"c@	c #B3B6E7",
"d@	c #D2C8EE",
"e@	c #B0B5E4",
"f@	c #2C3F76",
"g@	c #161C48",
"h@	c #231828",
"i@	c #1A1E3E",
"j@	c #1D255F",
"k@	c #656575",
"l@	c #787888",
"m@	c #1E2866",
"n@	c #1E2D64",
"o@	c #7A85BA",
"p@	c #C7C2EC",
"q@	c #B1B2E7",
"r@	c #A2AADC",
"s@	c #9FB0DD",
"t@	c #A2B9E2",
"u@	c #A6BDE4",
"v@	c #ACBAE6",
"w@	c #B9BCE9",
"x@	c #C7C0EC",
"y@	c #C3C0EC",
"z@	c #848EC0",
"A@	c #243870",
"B@	c #151D45",
"C@	c #381E1E",
"D@	c #715643",
"E@	c #9C8568",
"F@	c #4C4246",
"G@	c #8A8A8A",
"H@	c #484D6E",
"I@	c #1E2A66",
"J@	c #1C255C",
"K@	c #48588A",
"L@	c #969DCE",
"M@	c #BBBAEA",
"N@	c #C8C2EC",
"O@	c #C9C2EC",
"P@	c #C1BCEA",
"Q@	c #ADAEE5",
"R@	c #818BBF",
"S@	c #3E4E82",
"T@	c #1C245E",
"U@	c #1C2460",
"V@	c #17214D",
"W@	c #311D24",
"X@	c #816647",
"Y@	c #B39C6B",
"Z@	c #BFAC7D",
"`@	c #867260",
" #	c #655959",
".#	c #AFAFAF",
"+#	c #525470",
"@#	c #2C3F74",
"##	c #4B5A8B",
"$#	c #5A689C",
"%#	c #5D6DA1",
"&#	c #556393",
"*#	c #3B4C7F",
"=#	c #1E2F66",
"-#	c #1C275E",
";#	c #1F2B69",
">#	c #1A2458",
",#	c #3D292A",
"'#	c #765838",
")#	c #937B55",
"!#	c #B49F72",
"~#	c #B39F79",
"{#	c #6F5A4F",
"]#	c #726A6A",
"^#	c #7D7D8D",
"/#	c #293165",
"(#	c #1D2761",
"_#	c #1B2159",
":#	c #1B2259",
"<#	c #404464",
"[#	c #97979B",
"}#	c #A6A6A6",
"|#	c #4B3029",
"1#	c #6E5030",
"2#	c #7E6540",
"3#	c #98815A",
"4#	c #B6A072",
"5#	c #8B7661",
"6#	c #4F3B3D",
"7#	c #A09C9C",
"8#	c #4E506A",
"9#	c #202A6A",
"0#	c #373C63",
"a#	c #8A8A8E",
"b#	c #7C7878",
"c#	c #503228",
"d#	c #65482B",
"e#	c #735633",
"f#	c #7A5F40",
"g#	c #553C33",
"h#	c #4B2F25",
"i#	c #3F2323",
"j#	c #9E9E9E",
"k#	c #6D6D7D",
"l#	c #3D4163",
"m#	c #3A3F64",
"n#	c #3C4162",
"o#	c #4D5069",
"p#	c #8F8F93",
"q#	c #4D3939",
"r#	c #513427",
"s#	c #593C29",
"t#	c #4A2F24",
"u#	c #6C4E2E",
"v#	c #846436",
"w#	c #4D3027",
"x#	c #828080",
"y#	c #A7A7A7",
"z#	c #3F2423",
"A#	c #3A2020",
"B#	c #583A28",
"C#	c #6F502F",
"D#	c #61432B",
"E#	c #402624",
"F#	c #AEAEAE",
"G#	c #665C5C",
"H#	c #3D2121",
"I#	c #472B23",
"J#	c #432725",
"K#	c #625A5B",
"L#	c #412323",
"M#	c #3D2122",
"N#	c #584E4E",
"                        . + @ # $ % & *                         ",
"                  = - ; > , ' ' ' ) ! ~ { ] ^                   ",
"                / ( _ ' ' ' : < ' ' ' ' [ } | 1                 ",
"            2 3 4 ' ' 5 6 7 6 8 9 0 a ' ' ' b | c               ",
"          d e f ' g h i j ' ' ' ' k l m n ' ' o p q             ",
"          r s ' t u ' ' ' ' ' ' ' ' ' v e w ' x y | z           ",
"        A B C D u ' ' ' ' ' ' ' ' ' ' ' E F G ' o y H I         ",
"      J K L M N ' ' ' ' ' ' ' ' ' ' ' ' O P Q ' R S p T         ",
"      U V W X Y ' ' ' ' ' ' ' ' ' ' ' ' ' Z ` '  ...+.y @.      ",
"    #.$.%.&.*.' ' ' =.-.*.-.=.' =.-.*.-.=.7 ;.>.: ,.'.S ).      ",
"    !.~.{.].*.' ' ' -.=.' =.-.' -.=.' =.^.4 /.(.' _.:.'.<.      ",
"  [.}.|.1.2.*.' ' ' *.' ' ' *.' 3.4.' 5.6.4 7.8.' 9.0.a.b.      ",
"  c.d.e.f.g.*.' ' ' *.' ' ' *.' h.i.j.k.l.m.n.o.p.q.r.s.t.      ",
"  u.v.w.x.y.*.' ' ' *.< _ z.*.) A.B.C.D.E.F.G.H.I.J.K.L.M.      ",
"  N.O.P.Q.R.*.' ' < *., S.T.*.U.V.W.X.Y.Z.`. +.+++@+#+$+%+      ",
"  &+*+=+-+;+*.: z., -.>+n ,+'+)+'+!+~+{+'+]+^+' /+(+_+:+<+      ",
"  [+}+|+1+*.*.*.2+S.3+'+*.'+4+5+Y.'+*.'+6+7+8+9+0+(+a+@+b+      ",
"  c+d+e+f+g+h+_ w n 4 U.i+j+k+l+m+n+o+p+q+r+' s+t+u+v+w+        ",
"    x+y+z+A+B+) n U.)+C+5+~+m+n+o+D+E+F+G+H+I+J+K+L+M+N+        ",
"    O+P+Q+R+S+T+n i+5+U+l+V+W+X+Y+Z+`+ @.@+@@@#@L+$@%@          ",
"    &@*@=@-@;@>@,@'@)@m+n+o+Y+!@~@{@]@z+^@/@(@_@:@<@[@          ",
"      }@|@1@2@3@4@5@6@7@8@9@0@a@b@c@d@e@f@g@h@i@j@k@            ",
"      l@m@n@o@p@2@q@r@s@t@u@v@w@x@y@z@A@B@C@D@E@F@G@            ",
"        H@I@J@K@L@M@N@O@O@O@P@Q@R@S@T@U@V@W@X@Y@Z@`@ #.#        ",
"          +#I@(@L+@###$#%#&#*#=#(@#@-#L+;#>#,#'#)#!#~#{#]#      ",
"            ^#/#(#(@_#_#:#_##@J@-#L+$@$@<#[#}#|#1#2#3#4#5#6#7#  ",
"                ^#8#9#$@$@$@$@I@M+I@0#a#      b#c#d#e#f#g#h#i#j#",
"                    k#8#l#m#n#o#k@p#            q#r#s#t#u#v#w#x#",
"                                                y#z#A#B#C#D#E#F#",
"                                                  G#H#t#I#J#K#  ",
"                                                      L#M#N#    ",
"                                                                "};
