/* XPM */
static const char * chart27_xpm[] = {
"24 24 348 2",
"  	c None",
". 	c #95B2BD",
"+ 	c #7BB5CD",
"@ 	c #71B5D1",
"# 	c #71B2D0",
"$ 	c #85AFC2",
"% 	c #9EB6C0",
"& 	c #70A7BE",
"* 	c #9AC3D0",
"= 	c #AACFDD",
"- 	c #D0E9EA",
"; 	c #E6F0F0",
"> 	c #E8F0F0",
", 	c #EAEEEE",
"' 	c #D4EAEB",
") 	c #ADD3E0",
"! 	c #72AEC7",
"~ 	c #629BB4",
"{ 	c #6194AF",
"] 	c #65ACCB",
"^ 	c #B5DBE1",
"/ 	c #DFEAEC",
"( 	c #D9EDEF",
"_ 	c #C3E2E9",
": 	c #C2E2EA",
"< 	c #BBE1E9",
"[ 	c #ADD7E3",
"} 	c #AED7E3",
"| 	c #E0E9EB",
"1 	c #D8E6EA",
"2 	c #8CC2D6",
"3 	c #4494B9",
"4 	c #3E8EBC",
"5 	c #73AECA",
"6 	c #C3E0E9",
"7 	c #D0E3EA",
"8 	c #B1DAE6",
"9 	c #C2E3E9",
"0 	c #E2F0F0",
"a 	c #EDEDED",
"b 	c #E7ECED",
"c 	c #BBDCE7",
"d 	c #7EBCD5",
"e 	c #BADFE7",
"f 	c #E9EDED",
"g 	c #82BFD6",
"h 	c #378AB6",
"i 	c #3E8BB6",
"j 	c #519EC3",
"k 	c #A5C9DE",
"l 	c #C8DBE8",
"m 	c #A3D1E2",
"n 	c #D5E4E9",
"o 	c #CDDEE5",
"p 	c #71B4CE",
"q 	c #B6DBE5",
"r 	c #D3E7EB",
"s 	c #3C92BC",
"t 	c #3A8CB5",
"u 	c #5A8AA4",
"v 	c #6193B3",
"w 	c #8CBED9",
"x 	c #CBD4EB",
"y 	c #88C1DB",
"z 	c #DBE6EA",
"A 	c #B9D4D9",
"B 	c #76B6CE",
"C 	c #D6E4E9",
"D 	c #68ADCF",
"E 	c #3687B6",
"F 	c #4389B2",
"G 	c #4696B9",
"H 	c #9797AF",
"I 	c #4A6376",
"J 	c #556569",
"K 	c #787878",
"L 	c #ABABAB",
"M 	c #E5E5E5",
"N 	c #8B8B8B",
"O 	c #676767",
"P 	c #5F6465",
"Q 	c #304C59",
"R 	c #4E5A61",
"S 	c #90AEC0",
"T 	c #347BAE",
"U 	c #3684B5",
"V 	c #7D8C97",
"W 	c #5088AF",
"X 	c #688EA8",
"Y 	c #16171C",
"Z 	c #0C1115",
"` 	c #131414",
" .	c #131313",
"..	c #181818",
"+.	c #848484",
"@.	c #4F4F4F",
"#.	c #141414",
"$.	c #111313",
"%.	c #030506",
"&.	c #010202",
"*.	c #91A1AA",
"=.	c #326EA2",
"-.	c #3478AE",
";.	c #55728B",
">.	c #6B97B7",
",.	c #94A4C5",
"'.	c #47667F",
").	c #799CB2",
"!.	c #E3E4E5",
"~.	c #B8B8B8",
"{.	c #343434",
"].	c #1B1B1B",
"^.	c #E6F1F1",
"/.	c #BADCDD",
"(.	c #233136",
"_.	c #1E2830",
":.	c #A6B1BB",
"<.	c #316597",
"[.	c #306AA0",
"}.	c #43688C",
"|.	c #678CB1",
"1.	c #B7BCE5",
"2.	c #5496C6",
"3.	c #A8CADC",
"4.	c #E6E6E6",
"5.	c #595A5A",
"6.	c #1E1E1E",
"7.	c #EAEFEF",
"8.	c #E9EEEF",
"9.	c #E7EEEE",
"0.	c #E5EDEE",
"a.	c #D8EEEE",
"b.	c #C2EBEC",
"c.	c #799799",
"d.	c #090D0E",
"e.	c #506073",
"f.	c #A7BDD0",
"g.	c #285187",
"h.	c #2B5790",
"i.	c #3D5B82",
"j.	c #6986AC",
"k.	c #B1B5E3",
"l.	c #567EAE",
"m.	c #B4C8D8",
"n.	c #ECECEC",
"o.	c #BBBDBD",
"p.	c #333737",
"q.	c #6E7979",
"r.	c #D8F2F2",
"s.	c #D4F0F1",
"t.	c #CDEFEF",
"u.	c #C4ECED",
"v.	c #BCE9EA",
"w.	c #A6D1D3",
"x.	c #222C2D",
"y.	c #1E2A31",
"z.	c #9FA6BB",
"A.	c #8194BA",
"B.	c #24417A",
"C.	c #284C85",
"D.	c #465877",
"E.	c #657EA4",
"F.	c #AEB3E0",
"G.	c #516F9F",
"H.	c #A6B6CA",
"I.	c #C2C9CA",
"J.	c #494F4F",
"K.	c #505A5A",
"L.	c #C0DCDC",
"M.	c #CCEEEF",
"N.	c #C5ECED",
"O.	c #BFEAEB",
"P.	c #B9E6E9",
"Q.	c #AEDFE2",
"R.	c #597376",
"S.	c #0D1212",
"T.	c #455974",
"U.	c #CBCDDB",
"V.	c #465988",
"W.	c #21356E",
"X.	c #25407B",
"Y.	c #63687A",
"Z.	c #617295",
"`.	c #A4A9D6",
" +	c #6678AD",
".+	c #6B7E94",
"++	c #414748",
"@+	c #546060",
"#+	c #B4D1D2",
"$+	c #C8EDED",
"%+	c #BBE8EA",
"&+	c #B4E5E8",
"*+	c #AEE2E6",
"=+	c #88B5B9",
"-+	c #212D2E",
";+	c #1E2B32",
">+	c #818DAF",
",+	c #B0B8D9",
"'+	c #1D2A62",
")+	c #1E2E66",
"!+	c #223269",
"~+	c #919197",
"{+	c #525F84",
"]+	c #7B84B6",
"^+	c #6A6C8B",
"/+	c #171C27",
"(+	c #677478",
"_+	c #C3E3E4",
":+	c #C4ECEC",
"<+	c #B7E7E9",
"[+	c #B1E3E7",
"}+	c #AAE1E5",
"|+	c #9CD4DA",
"1+	c #4A6769",
"2+	c #080C0D",
"3+	c #5C6B89",
"4+	c #BFBFDA",
"5+	c #606C98",
"6+	c #1C245E",
"7+	c #1D2963",
"8+	c #3C4368",
"9+	c #4D5171",
"0+	c #3C476E",
"a+	c #111114",
"b+	c #1E202C",
"c+	c #404F61",
"d+	c #708586",
"e+	c #698383",
"f+	c #658183",
"g+	c #769A9C",
"h+	c #A7DEE4",
"i+	c #A1DCE3",
"j+	c #79AAAF",
"k+	c #0F1617",
"l+	c #313F4C",
"m+	c #B9B6D8",
"n+	c #8C93BD",
"o+	c #273268",
"p+	c #1C2760",
"q+	c #252E62",
"r+	c #2A2F54",
"s+	c #000000",
"t+	c #2C3C3E",
"u+	c #9CD9E1",
"v+	c #98D6E0",
"w+	c #364951",
"x+	c #13161A",
"y+	c #8B8AA7",
"z+	c #757FAF",
"A+	c #242E5F",
"B+	c #1D2457",
"C+	c #222D63",
"D+	c #60657D",
"E+	c #4E5172",
"F+	c #2B376E",
"G+	c #777FAE",
"H+	c #B3B1DC",
"I+	c #939BC7",
"J+	c #8EA3CA",
"K+	c #97B8D4",
"L+	c #99C1D9",
"M+	c #9FC8E2",
"N+	c #A4C3E3",
"O+	c #AAB5DC",
"P+	c #ACACD8",
"Q+	c #7982B3",
"R+	c #222A53",
"S+	c #382A34",
"T+	c #574B4C",
"U+	c #45445E",
"V+	c #77777F",
"W+	c #363D6A",
"X+	c #29346D",
"Y+	c #5B6597",
"Z+	c #A8ACDB",
"`+	c #BBBAE9",
" @	c #BEBDE8",
".@	c #BFC0EA",
"+@	c #BEBEE9",
"@@	c #B3B4E7",
"#@	c #868DBF",
"$@	c #4B558A",
"%@	c #242E69",
"&@	c #1E1F41",
"*@	c #584034",
"=@	c #A18961",
"-@	c #9B8B6E",
";@	c #786B63",
">@	c #9D9999",
",@	c #424870",
"'@	c #252D63",
")@	c #1F2B64",
"!@	c #344276",
"~@	c #475488",
"{@	c #4B588C",
"]@	c #3D4A7D",
"^@	c #233268",
"/@	c #1C245C",
"(@	c #1C265E",
"_@	c #1C2761",
":@	c #2C3568",
"<@	c #484459",
"[@	c #664D39",
"}@	c #917852",
"|@	c #A9946B",
"1@	c #8C765E",
"2@	c #756964",
"3@	c #3E446F",
"4@	c #474C72",
"5@	c #292F62",
"6@	c #1D255F",
"7@	c #1C255E",
"8@	c #1C255F",
"9@	c #1D2761",
"0@	c #242D63",
"a@	c #4A5074",
"b@	c #565972",
"c@	c #9E9EA0",
"d@	c #6D605D",
"e@	c #64462E",
"f@	c #7C613E",
"g@	c #937B54",
"h@	c #675044",
"i@	c #5E4A48",
"j@	c #8B8585",
"k@	c #575A75",
"l@	c #484C6C",
"m@	c #353B63",
"n@	c #343A63",
"o@	c #3E4467",
"p@	c #5B5E77",
"q@	c #676A80",
"r@	c #503832",
"s@	c #5B3E2A",
"t@	c #583D2B",
"u@	c #6A4D30",
"v@	c #60422C",
"w@	c #79716F",
"x@	c #8A8383",
"y@	c #422929",
"z@	c #4E3225",
"A@	c #62442B",
"B@	c #51382E",
"C@	c #8F8888",
"D@	c #513F3F",
"E@	c #442823",
"F@	c #452B28",
"G@	c #544545",
"                  . + @ # $ %                   ",
"            & * = - ; > , ' ) ! ~ {             ",
"          ] ^ / ( _ : < [ } | 1 2 3 4           ",
"        5 6 7 8 9 0 a a b c d e f g h i         ",
"      j k l m n a a a a a a o p q r s t u       ",
"    v w x y z a a a a a a a a A B C D E F       ",
"    G H I J K L M a a N O O O P Q R S T U V     ",
"  W X Y Z `  ...+.a a @.#.#.#.$.%.&.*.=.-.;.    ",
"  >.,.'.).!.~.{.].a a a a a ^./.(._.:.<.[.}.    ",
"  |.1.2.3.a 4.5.6.7.8.9.0.a.b.c.d.e.f.g.h.i.    ",
"  j.k.l.m.n.o.p.q.r.s.t.u.v.w.x.y.z.A.B.C.D.    ",
"  E.F.G.H.I.J.K.L.M.N.O.P.Q.R.S.T.U.V.W.X.Y.    ",
"  Z.`. +.+++@+#+$+b.%+&+*+=+-+;+>+,+'+)+!+~+    ",
"  {+]+^+/+(+_+:+O.<+[+}+|+1+2+3+4+5+6+7+8+      ",
"  9+0+a+b+c+d+e+f+g+h+i+j+k+l+m+n+o+p+q+        ",
"    r+s+s+s+s+s+s+t+u+v+w+x+y+z+A+B+C+D+        ",
"    E+F+G+H+I+J+K+L+M+N+O+P+Q+R+S+T+U+V+        ",
"      W+X+Y+Z+`+ @.@+@@@#@$@%@&@*@=@-@;@>@      ",
"        ,@'@)@!@~@{@]@^@/@(@_@:@<@[@}@|@1@2@    ",
"          3@4@5@6@7@8@9@7+0@a@b@c@d@e@f@g@h@i@j@",
"              k@l@m@n@o@p@q@        r@s@t@u@v@w@",
"                                    x@y@z@A@B@C@",
"                                      D@E@F@G@  ",
"                                                "};
