/* XPM */
static const char * chart40_xpm[] = {
"24 24 352 2",
"  	c None",
". 	c #95B2BD",
"+ 	c #7BB5CD",
"@ 	c #71B5D1",
"# 	c #71B2D0",
"$ 	c #85AFC2",
"% 	c #9EB6C0",
"& 	c #70A7BE",
"* 	c #9AC3D0",
"= 	c #AACFDD",
"- 	c #D0E9EA",
"; 	c #E6F0F0",
"> 	c #E8F0F0",
", 	c #EAEEEE",
"' 	c #D4EAEB",
") 	c #ADD3E0",
"! 	c #72AEC7",
"~ 	c #629BB4",
"{ 	c #6194AF",
"] 	c #65ACCB",
"^ 	c #B5DBE1",
"/ 	c #DFEAEC",
"( 	c #D9EDEF",
"_ 	c #C3E2E9",
": 	c #C2E2EA",
"< 	c #BBE1E9",
"[ 	c #ADD7E3",
"} 	c #AED7E3",
"| 	c #E0E9EB",
"1 	c #D8E6EA",
"2 	c #8CC2D6",
"3 	c #4494B9",
"4 	c #3E8EBC",
"5 	c #73AECA",
"6 	c #C3E0E9",
"7 	c #D0E3EA",
"8 	c #B1DAE6",
"9 	c #C2E3E9",
"0 	c #E2F0F0",
"a 	c #EDEDED",
"b 	c #E7ECED",
"c 	c #BBDCE7",
"d 	c #7EBCD5",
"e 	c #BADFE7",
"f 	c #E9EDED",
"g 	c #82BFD6",
"h 	c #378AB6",
"i 	c #3E8BB6",
"j 	c #519EC3",
"k 	c #A5C9DE",
"l 	c #C8DBE8",
"m 	c #A3D1E2",
"n 	c #D5E4E9",
"o 	c #CDDEE5",
"p 	c #71B4CE",
"q 	c #B6DBE5",
"r 	c #D3E7EB",
"s 	c #3C92BC",
"t 	c #3A8CB5",
"u 	c #5A8AA4",
"v 	c #6193B3",
"w 	c #8CBED9",
"x 	c #CBD4EB",
"y 	c #88C1DB",
"z 	c #DBE6EA",
"A 	c #B9D4D9",
"B 	c #76B6CE",
"C 	c #D6E4E9",
"D 	c #68ADCF",
"E 	c #3687B6",
"F 	c #4389B2",
"G 	c #4A9EC3",
"H 	c #CDCCED",
"I 	c #88B7D9",
"J 	c #BBDFE7",
"K 	c #DBDBDB",
"L 	c #8A8A8A",
"M 	c #6C6C6C",
"N 	c #D9D9D9",
"O 	c #909090",
"P 	c #6E6E6E",
"Q 	c #707577",
"R 	c #56879E",
"S 	c #B1CCDB",
"T 	c #A6C9DD",
"U 	c #347BAE",
"V 	c #3684B5",
"W 	c #7D8C97",
"X 	c #5088AF",
"Y 	c #82B1D2",
"Z 	c #B0B8E0",
"` 	c #72A5C9",
" .	c #CED8DD",
"..	c #7A7A7A",
"+.	c #0C0C0C",
"@.	c #0B0B0B",
"#.	c #E6E6E6",
"$.	c #494949",
"%.	c #141414",
"&.	c #151515",
"*.	c #121414",
"=.	c #141D21",
"-.	c #5C7B8E",
";.	c #B9CEDA",
">.	c #326EA2",
",.	c #3478AE",
"'.	c #55728B",
").	c #6B97B7",
"!.	c #A8BAE0",
"~.	c #76A8D1",
"{.	c #89B0C8",
"].	c #848485",
"^.	c #0F0F0F",
"/.	c #0A0A0A",
"(.	c #9B9B9B",
"_.	c #121212",
":.	c #7D7D7D",
"<.	c #D7E1E1",
"[.	c #A5C3C4",
"}.	c #1C262A",
"|.	c #25333C",
"1.	c #AAB6C0",
"2.	c #316597",
"3.	c #306AA0",
"4.	c #43688C",
"5.	c #678CB1",
"6.	c #B7BCE5",
"7.	c #5394C4",
"8.	c #6E8490",
"9.	c #191919",
"0.	c #4F4F4F",
"a.	c #434444",
"b.	c #EAEFEF",
"c.	c #E9EEEF",
"d.	c #616464",
"e.	c #232424",
"f.	c #BDD1D1",
"g.	c #C2EBEC",
"h.	c #B5E3E5",
"i.	c #465F6A",
"j.	c #101317",
"k.	c #8C9EAE",
"l.	c #285187",
"m.	c #2B5790",
"n.	c #3D5B82",
"o.	c #6986AC",
"p.	c #AEB2DF",
"q.	c #3A5576",
"r.	c #1A1D20",
"s.	c #3F3F3F",
"t.	c #D1D2D2",
"u.	c #5C6262",
"v.	c #0A0B0B",
"w.	c #D8F2F2",
"x.	c #D4F0F1",
"y.	c #3E4949",
"z.	c #222929",
"A.	c #B8E4E5",
"B.	c #B6E5E8",
"C.	c #ADE1E5",
"D.	c #4A6677",
"E.	c #040505",
"F.	c #657491",
"G.	c #24417A",
"H.	c #284C85",
"I.	c #465877",
"J.	c #657EA4",
"K.	c #9296BB",
"L.	c #0D1119",
"M.	c #030404",
"N.	c #6E7172",
"O.	c #889393",
"P.	c #353B3B",
"Q.	c #050606",
"R.	c #7C9091",
"S.	c #9EBDBE",
"T.	c #364243",
"U.	c #21292A",
"V.	c #B0E2E5",
"W.	c #ACE0E5",
"X.	c #9DD2DB",
"Y.	c #455974",
"Z.	c #020202",
"`.	c #364569",
" +	c #21356E",
".+	c #25407B",
"++	c #63687A",
"@+	c #617295",
"#+	c #7E82A5",
"$+	c #000000",
"%+	c #5D7374",
"&+	c #3E4F50",
"*+	c #1E2627",
"=+	c #9FD5DA",
"-+	c #A5E0E4",
";+	c #74A2BD",
">+	c #535A70",
",+	c #0A0A0C",
"'+	c #17214E",
")+	c #1E2E66",
"!+	c #223269",
"~+	c #919197",
"{+	c #525F84",
"]+	c #7C86B8",
"^+	c #9294BE",
"/+	c #586990",
"(+	c #B1C7CE",
"_+	c #BAD9DA",
":+	c #495757",
"<+	c #080A0A",
"[+	c #A7D3D4",
"}+	c #A9D9DD",
"|+	c #5A7779",
"1+	c #131A1B",
"2+	c #75A2A5",
"3+	c #8CC6D4",
"4+	c #7286AA",
"5+	c #494953",
"6+	c #12141D",
"7+	c #171E50",
"8+	c #1D2963",
"9+	c #3C4368",
"0+	c #4D5171",
"a+	c #4B5889",
"b+	c #C0BDE8",
"c+	c #7D86B6",
"d+	c #7792B2",
"e+	c #C8EDEE",
"f+	c #4B5E5F",
"g+	c #ADE2E6",
"h+	c #A7DEE4",
"i+	c #87B9BF",
"j+	c #12191A",
"k+	c #202E30",
"l+	c #425466",
"m+	c #535261",
"n+	c #0A0A0E",
"o+	c #121730",
"p+	c #1A255B",
"q+	c #252E62",
"r+	c #383F6F",
"s+	c #767FB2",
"t+	c #BEBDE8",
"u+	c #878FC0",
"v+	c #7999BA",
"w+	c #43575A",
"x+	c #070A0A",
"y+	c #A2DCE3",
"z+	c #9CD9E1",
"A+	c #97D5DF",
"B+	c #5E808E",
"C+	c #20242C",
"D+	c #060608",
"E+	c #0A0B0F",
"F+	c #0F1328",
"G+	c #191F4B",
"H+	c #222D63",
"I+	c #60657D",
"J+	c #505374",
"K+	c #2D3A73",
"L+	c #7D85B6",
"M+	c #BCBAE6",
"N+	c #9AA2D0",
"O+	c #90A6CE",
"P+	c #97B8D4",
"Q+	c #9EC8E1",
"R+	c #9FC8E2",
"S+	c #A4C3E3",
"T+	c #AEB9E2",
"U+	c #ADADD8",
"V+	c #747EAD",
"W+	c #20284F",
"X+	c #362932",
"Y+	c #574B4C",
"Z+	c #45445E",
"`+	c #77777F",
" @	c #363D6A",
".@	c #29346D",
"+@	c #5B6597",
"@@	c #A8ACDB",
"#@	c #BBBAE9",
"$@	c #BFC0EA",
"%@	c #BEBEE9",
"&@	c #B3B4E7",
"*@	c #868DBF",
"=@	c #4B558A",
"-@	c #242E69",
";@	c #1E1F41",
">@	c #584034",
",@	c #A18961",
"'@	c #9B8B6E",
")@	c #786B63",
"!@	c #9D9999",
"~@	c #424870",
"{@	c #252D63",
"]@	c #1F2B64",
"^@	c #344276",
"/@	c #475488",
"(@	c #4B588C",
"_@	c #3D4A7D",
":@	c #233268",
"<@	c #1C245C",
"[@	c #1C265E",
"}@	c #1C2761",
"|@	c #2C3568",
"1@	c #484459",
"2@	c #664D39",
"3@	c #917852",
"4@	c #A9946B",
"5@	c #8C765E",
"6@	c #756964",
"7@	c #3E446F",
"8@	c #474C72",
"9@	c #292F62",
"0@	c #1D255F",
"a@	c #1C255E",
"b@	c #1C255F",
"c@	c #1D2761",
"d@	c #242D63",
"e@	c #4A5074",
"f@	c #565972",
"g@	c #9E9EA0",
"h@	c #6D605D",
"i@	c #64462E",
"j@	c #7C613E",
"k@	c #937B54",
"l@	c #675044",
"m@	c #5E4A48",
"n@	c #8B8585",
"o@	c #575A75",
"p@	c #484C6C",
"q@	c #353B63",
"r@	c #343A63",
"s@	c #3E4467",
"t@	c #5B5E77",
"u@	c #676A80",
"v@	c #503832",
"w@	c #5B3E2A",
"x@	c #583D2B",
"y@	c #6A4D30",
"z@	c #60422C",
"A@	c #79716F",
"B@	c #8A8383",
"C@	c #422929",
"D@	c #4E3225",
"E@	c #62442B",
"F@	c #51382E",
"G@	c #8F8888",
"H@	c #513F3F",
"I@	c #442823",
"J@	c #452B28",
"K@	c #544545",
"                  . + @ # $ %                   ",
"            & * = - ; > , ' ) ! ~ {             ",
"          ] ^ / ( _ : < [ } | 1 2 3 4           ",
"        5 6 7 8 9 0 a a b c d e f g h i         ",
"      j k l m n a a a a a a o p q r s t u       ",
"    v w x y z a a a a a a a a A B C D E F       ",
"    G H I J K L M a a a N O P Q R S T U V W     ",
"  X Y Z `  ...+.@.a a #.$.%.&.*.=.-.;.>.,.'.    ",
"  ).!.~.{.].^./.@.a a (._.:.<.[.}.|.1.2.3.4.    ",
"  5.6.7.8.9.0.a.@.b.c.d.e.f.g.h.i.j.k.l.m.n.    ",
"  o.p.q.r.s.t.u.v.w.x.y.z.A.B.C.D.E.F.G.H.I.    ",
"  J.K.L.M.N.O.P.Q.R.S.T.U.V.W.X.Y.Z.`. +.+++    ",
"  @+#+$+$+$+$+$+$+$+%+&+*+=+-+;+>+,+'+)+!+~+    ",
"  {+]+^+/+(+_+:+<+[+}+|+1+2+3+4+5+6+7+8+9+      ",
"  0+a+b+c+d+e+f+<+g+h+i+j+k+l+m+n+o+p+q+        ",
"    r+s+t+u+v+w+x+y+z+A+B+C+D+E+F+G+H+I+        ",
"    J+K+L+M+N+O+P+Q+R+S+T+U+V+W+X+Y+Z+`+        ",
"       @.@+@@@#@t+$@%@&@*@=@-@;@>@,@'@)@!@      ",
"        ~@{@]@^@/@(@_@:@<@[@}@|@1@2@3@4@5@6@    ",
"          7@8@9@0@a@b@c@8+d@e@f@g@h@i@j@k@l@m@n@",
"              o@p@q@r@s@t@u@        v@w@x@y@z@A@",
"                                    B@C@D@E@F@G@",
"                                      H@I@J@K@  ",
"                                                "};
