/* XPM */
static char * chart144_xpm[] = {
"24 24 358 2",
"  	c None",
". 	c #94A8B2",
"+ 	c #67AAC8",
"@ 	c #5BABCB",
"# 	c #59A6CB",
"$ 	c #79A3B9",
"% 	c #AAB8BF",
"& 	c #5896B3",
"* 	c #95C0CE",
"= 	c #A8CDDC",
"- 	c #D4EEEE",
"; 	c #F3F6F3",
"> 	c #F5F6F4",
", 	c #FBF3F0",
"' 	c #DFF2F0",
") 	c #A5D1E0",
"! 	c #6DADC7",
"~ 	c #5C96B0",
"{ 	c #6291AC",
"] 	c #4CA0C6",
"^ 	c #C1E5E7",
"/ 	c #EFEDED",
"( 	c #D6EEEF",
"_ 	c #B8DDE7",
": 	c #B8DFE8",
"< 	c #AFDDE7",
"[ 	c #9ED1E0",
"} 	c #9DD0E0",
"| 	c #EFEFEE",
"1 	c #E7EBEC",
"2 	c #95C8DA",
"3 	c #3A8EB5",
"4 	c #3E8EBD",
"5 	c #68A7C5",
"6 	c #D5ECF0",
"7 	c #E0E7EA",
"8 	c #A5D6E4",
"9 	c #BAE1E8",
"0 	c #E1F2F2",
"a 	c #F1EDEC",
"b 	c #F0EEED",
"c 	c #EEEEEE",
"d 	c #B4DAE6",
"e 	c #61AECE",
"f 	c #C3E8EC",
"g 	c #FDF4F0",
"h 	c #66B3D1",
"i 	c #3487B4",
"j 	c #3E8BB6",
"k 	c #3C91BB",
"l 	c #A7CBDF",
"m 	c #CDDDE8",
"n 	c #91CADF",
"o 	c #D9E5E9",
"p 	c #F1EEED",
"q 	c #EDECEC",
"r 	c #ECEDED",
"s 	c #EDEDED",
"t 	c #F4EFEE",
"u 	c #D2E0E5",
"v 	c #57A5C6",
"w 	c #BBDEE8",
"x 	c #DFEEEF",
"y 	c #2F8BB9",
"z 	c #388BB5",
"A 	c #68899B",
"B 	c #628FAF",
"C 	c #82BFD8",
"D 	c #DAD8EF",
"E 	c #6EB6D4",
"F 	c #E9ECEC",
"G 	c #EEEDED",
"H 	c #ECECEC",
"I 	c #D4E2DE",
"J 	c #62ACC7",
"K 	c #E8EBEC",
"L 	c #6FB4D3",
"M 	c #3083B4",
"N 	c #4088B5",
"O 	c #3497BE",
"P 	c #DFD3F3",
"Q 	c #78AACB",
"R 	c #ACCDCF",
"S 	c #EFEEEE",
"T 	c #DDDDDD",
"U 	c #E9E9E9",
"V 	c #CDD2D3",
"W 	c #61AACB",
"X 	c #D0DEE5",
"Y 	c #B7D6E5",
"Z 	c #2A74AA",
"` 	c #3185B7",
" .	c #878F97",
"..	c #427DA7",
"+.	c #86B7D6",
"@.	c #C7C1E8",
"#.	c #4E7999",
"$.	c #000000",
"%.	c #FBFBFB",
"&.	c #E8E8E8",
"*.	c #333333",
"=.	c #CECECE",
"-.	c #F5F5F5",
";.	c #A9A9A9",
">.	c #0B0F0F",
",.	c #82BDD9",
"'.	c #8CBBD7",
").	c #D8E3E8",
"!.	c #26659C",
"~.	c #3279B2",
"{.	c #556F87",
"].	c #6995B4",
"^.	c #C2C5E9",
"/.	c #75AAD2",
"(.	c #98C2DB",
"_.	c #100F0F",
":.	c #FAFAFA",
"<.	c #F1F1F1",
"[.	c #A8A8A8",
"}.	c #303030",
"|.	c #D2D1D1",
"1.	c #8C9595",
"2.	c #111514",
"3.	c #93CBE0",
"4.	c #81AFD1",
"5.	c #DDDFE3",
"6.	c #255B90",
"7.	c #2F6AA1",
"8.	c #43678B",
"9.	c #5F88AD",
"0.	c #D3C7ED",
"a.	c #4591C4",
"b.	c #B7DAEC",
"c.	c #EEEEEF",
"d.	c #DADCDC",
"e.	c #868888",
"f.	c #727373",
"g.	c #CDD0D0",
"h.	c #E7EAEB",
"i.	c #959F9F",
"j.	c #C3F0F2",
"k.	c #0C0F0F",
"l.	c #8EC1D7",
"m.	c #8DA8C9",
"n.	c #C9DDE7",
"o.	c #1C477F",
"p.	c #2A5792",
"q.	c #3C5A81",
"r.	c #6382A9",
"s.	c #C7C0EC",
"t.	c #4571A4",
"u.	c #C8DBEA",
"v.	c #FBFAFA",
"w.	c #EEFEFF",
"x.	c #3C4141",
"y.	c #687171",
"z.	c #2A2E2F",
"A.	c #4A5454",
"B.	c #B5DCDD",
"C.	c #313D3D",
"D.	c #576B6C",
"E.	c #050606",
"F.	c #426078",
"G.	c #CBCDE2",
"H.	c #90A2C6",
"I.	c #1C3873",
"J.	c #264C87",
"K.	c #465674",
"L.	c #5E799E",
"M.	c #C5C1EC",
"N.	c #446496",
"O.	c #BCCCDF",
"P.	c #121010",
"Q.	c #F8FFFF",
"R.	c #D8F3F2",
"S.	c #BAD5D5",
"T.	c #B1D0D1",
"U.	c #4C5A5A",
"V.	c #8CADAE",
"W.	c #B7E4E7",
"X.	c #98C4C6",
"Y.	c #9ACCD1",
"Z.	c #010307",
"`.	c #5775A2",
" +	c #E9E7EA",
".+	c #3D5182",
"++	c #1D316A",
"@+	c #213D7B",
"#+	c #686B79",
"$+	c #596C8F",
"%+	c #BDBCE5",
"&+	c #6478AF",
"*+	c #14243D",
"=+	c #191B1B",
"-+	c #222929",
";+	c #DAFDFE",
">+	c #C9EDED",
",+	c #C4EDEE",
"'+	c #607676",
")+	c #9DCACC",
"!+	c #AEE2E6",
"~+	c #A7DEE4",
"{+	c #AEECF0",
"]+	c #040813",
"^+	c #8492BA",
"/+	c #C0C7E8",
"(+	c #122059",
"_+	c #1E2E66",
":+	c #1B2C67",
"<+	c #9C9A9C",
"[+	c #4A577C",
"}+	c #8D95CA",
"|+	c #B4B2DF",
"1+	c #536897",
"2+	c #E4FCFE",
"3+	c #D6FBFC",
"4+	c #C3EAEB",
"5+	c #BEE9EB",
"6+	c #B6E6E8",
"7+	c #B7EBEE",
"8+	c #ABE2E7",
"9+	c #A4DDE3",
"0+	c #A2E0E3",
"a+	c #8DCBD7",
"b+	c #6F8AB7",
"c+	c #D6D1E8",
"d+	c #4B5A8A",
"e+	c #19205A",
"f+	c #1A2662",
"g+	c #434868",
"h+	c #3B4C80",
"i+	c #CFCAF4",
"j+	c #7B83B4",
"k+	c #6C89AC",
"l+	c #D3F8F5",
"m+	c #B8E7E8",
"n+	c #B2E4E7",
"o+	c #ACE1E6",
"p+	c #A6DDE3",
"q+	c #9FDAE2",
"r+	c #9CDAE1",
"s+	c #8CCFDA",
"t+	c #7897BF",
"u+	c #D6CDEF",
"v+	c #8792BD",
"w+	c #1C265D",
"x+	c #1C2760",
"y+	c #222C60",
"z+	c #272E64",
"A+	c #737FB3",
"B+	c #D2CCF6",
"C+	c #717BAF",
"D+	c #6C8DB0",
"E+	c #AFE4E6",
"F+	c #A8DFE4",
"G+	c #A3DDE3",
"H+	c #9CD9E1",
"I+	c #98D8DF",
"J+	c #8ECBDA",
"K+	c #95AED7",
"L+	c #D3CBF1",
"M+	c #8C95C5",
"N+	c #18245B",
"O+	c #1B235C",
"P+	c #1C2862",
"Q+	c #676B81",
"R+	c #565876",
"S+	c #192865",
"T+	c #7F88B9",
"U+	c #D1CBF5",
"V+	c #9CA0CF",
"W+	c #8EA5D0",
"X+	c #9AC0DD",
"Y+	c #9AC7E0",
"Z+	c #9CC7E1",
"`+	c #A3C2E2",
" @	c #B3BCE6",
".@	c #C3BEEB",
"+@	c #7582B5",
"@@	c #14204C",
"#@	c #37252C",
"$@	c #5A4E4C",
"%@	c #353555",
"&@	c #3E446B",
"*@	c #192561",
"=@	c #4F5D8E",
"-@	c #ACB0DF",
";@	c #C8C4F1",
">@	c #CAC4EE",
",@	c #CAC5EF",
"'@	c #CAC5F0",
")@	c #BBB9EF",
"!@	c #868FC1",
"~@	c #38447A",
"{@	c #1C2562",
"]@	c #181E42",
"^@	c #5A3E2F",
"/@	c #B09869",
"(@	c #AE9D76",
"_@	c #6B5B57",
":@	c #A9A9AA",
"<@	c #40466F",
"[@	c #1D235C",
"}@	c #14215A",
"|@	c #2F4074",
"1@	c #4A588D",
"2@	c #4E5E92",
"3@	c #3C4C7E",
"4@	c #182960",
"5@	c #161D56",
"6@	c #1A245C",
"7@	c #1A255F",
"8@	c #242F6A",
"9@	c #35334E",
"0@	c #664930",
"a@	c #927A53",
"b@	c #B8A476",
"c@	c #7C6551",
"d@	c #746B6A",
"e@	c #4E5276",
"f@	c #242A5E",
"g@	c #151D5A",
"h@	c #161F5A",
"i@	c #17205C",
"j@	c #19245F",
"k@	c #182561",
"l@	c #1D2860",
"m@	c #525878",
"n@	c #675B5A",
"o@	c #5E3E27",
"p@	c #795F3B",
"q@	c #9F865B",
"r@	c #685044",
"s@	c #5A4647",
"t@	c #979494",
"u@	c #64657A",
"v@	c #4D4F6C",
"w@	c #383D63",
"x@	c #363C62",
"y@	c #444967",
"z@	c #636477",
"A@	c #7D7F8B",
"B@	c #48312E",
"C@	c #5A3C28",
"D@	c #4E3326",
"E@	c #6D4F2F",
"F@	c #624227",
"G@	c #7B7676",
"H@	c #9F9D9D",
"I@	c #361B1D",
"J@	c #523426",
"K@	c #6A4B2D",
"L@	c #482C22",
"M@	c #A19E9E",
"N@	c #564647",
"O@	c #442722",
"P@	c #402524",
"Q@	c #56494A",
"                  . + @ # $ %                   ",
"            & * = - ; > , ' ) ! ~ {             ",
"          ] ^ / ( _ : < [ } | 1 2 3 4           ",
"        5 6 7 8 9 0 a b c d e f g h i j         ",
"      k l m n o p q r s q t u v w x y z A       ",
"    B C D E F G H s s s s H G I J K L M N       ",
"    O P Q R S s s s T U s s s V W X Y Z `  .    ",
"  ..+.@.#.$.%.s H &.*.=.H -.;.>.,.'.).!.~.{.    ",
"  ].^./.(._.:.H <.[.}.=.s |.1.2.3.4.5.6.7.8.    ",
"  9.0.a.b._.:.c.d.e.f.g.h.i.j.k.l.m.n.o.p.q.    ",
"  r.s.t.u._.v.w.x.y.z.A.B.C.D.E.F.G.H.I.J.K.    ",
"  L.M.N.O.P.Q.R.S.T.U.V.W.X.Y.Z.`. +.+++@+#+    ",
"  $+%+&+*+=+-+;+>+,+'+)+!+~+{+]+^+/+(+_+:+<+    ",
"  [+}+|+1+2+3+4+5+6+7+8+9+0+a+b+c+d+e+f+g+      ",
"    h+i+j+k+l+m+n+o+p+q+r+s+t+u+v+w+x+y+        ",
"    z+A+B+C+D+E+F+G+H+I+J+K+L+M+N+O+P+Q+        ",
"    R+S+T+U+V+W+X+Y+Z+`+ @.@+@@@#@$@%@          ",
"      &@*@=@-@;@>@,@'@)@!@~@{@]@^@/@(@_@:@      ",
"        <@[@}@|@1@2@3@4@5@6@7@8@9@0@a@b@c@d@    ",
"            e@f@g@h@i@j@k@l@m@    n@o@p@q@r@s@t@",
"              u@v@w@x@y@z@A@        B@C@D@E@F@G@",
"                                    H@I@J@K@L@M@",
"                                      N@O@P@Q@  ",
"                                                "};
