/* XPM */
static char * chart108_xpm[] = {
"24 24 364 2",
"  	c None",
". 	c #94A8B2",
"+ 	c #67AAC8",
"@ 	c #5BABCB",
"# 	c #59A6CB",
"$ 	c #79A3B9",
"% 	c #AAB8BF",
"& 	c #5896B3",
"* 	c #95C0CE",
"= 	c #A8CDDC",
"- 	c #D4EEEE",
"; 	c #F3F6F3",
"> 	c #F5F6F4",
", 	c #FBF3F0",
"' 	c #DFF2F0",
") 	c #A5D1E0",
"! 	c #6DADC7",
"~ 	c #5C96B0",
"{ 	c #6291AC",
"] 	c #4CA0C6",
"^ 	c #C1E5E7",
"/ 	c #EFEDED",
"( 	c #D6EEEF",
"_ 	c #B8DDE7",
": 	c #B8DFE8",
"< 	c #AFDDE7",
"[ 	c #9ED1E0",
"} 	c #9DD0E0",
"| 	c #EFEFEE",
"1 	c #E7EBEC",
"2 	c #95C8DA",
"3 	c #3A8EB5",
"4 	c #3E8EBD",
"5 	c #68A7C5",
"6 	c #D5ECF0",
"7 	c #E0E7EA",
"8 	c #A5D6E4",
"9 	c #BAE1E8",
"0 	c #E1F2F2",
"a 	c #F1EDEC",
"b 	c #F0EEED",
"c 	c #EEEEEE",
"d 	c #B4DAE6",
"e 	c #61AECE",
"f 	c #C3E8EC",
"g 	c #FDF4F0",
"h 	c #66B3D1",
"i 	c #3487B4",
"j 	c #3E8BB6",
"k 	c #3C91BB",
"l 	c #A7CBDF",
"m 	c #CDDDE8",
"n 	c #91CADF",
"o 	c #D9E5E9",
"p 	c #F1EEED",
"q 	c #EDECEC",
"r 	c #ECEDED",
"s 	c #EDEDED",
"t 	c #F4EFEE",
"u 	c #D2E0E5",
"v 	c #57A5C6",
"w 	c #BBDEE8",
"x 	c #DFEEEF",
"y 	c #2F8BB9",
"z 	c #388BB5",
"A 	c #68899B",
"B 	c #628FAF",
"C 	c #82BFD8",
"D 	c #DAD8EF",
"E 	c #6EB6D4",
"F 	c #E9ECEC",
"G 	c #EEEDED",
"H 	c #ECECEC",
"I 	c #D4E2DE",
"J 	c #62ACC7",
"K 	c #E8EBEC",
"L 	c #6FB4D3",
"M 	c #3083B4",
"N 	c #4088B5",
"O 	c #3497BE",
"P 	c #DDD1F0",
"Q 	c #709DBC",
"R 	c #C7E8EA",
"S 	c #EEECEC",
"T 	c #EAEAEA",
"U 	c #D1D1D1",
"V 	c #CDCDCD",
"W 	c #DADADA",
"X 	c #E2E2E2",
"Y 	c #CCCCCC",
"Z 	c #E0E5E7",
"` 	c #60A9CA",
" .	c #D0DEE5",
"..	c #B7D6E5",
"+.	c #2A74AA",
"@.	c #3185B7",
"#.	c #878F97",
"$.	c #427DA7",
"%.	c #86B7D6",
"&.	c #C2B8DC",
"*.	c #000009",
"=.	c #D1CECD",
"-.	c #9E9E9E",
";.	c #3C3C3C",
">.	c #646464",
",.	c #3A3A3A",
"'.	c #E3E3E3",
").	c #404040",
"!.	c #575757",
"~.	c #474646",
"{.	c #5A5E5E",
"].	c #7EB8D4",
"^.	c #8CBBD7",
"/.	c #D8E3E8",
"(.	c #26659C",
"_.	c #3279B2",
":.	c #556F87",
"<.	c #6995B4",
"[.	c #C2C5E9",
"}.	c #78ADD5",
"|.	c #073047",
"1.	c #CFCECE",
"2.	c #EFEFEF",
"3.	c #676767",
"4.	c #C6C6C6",
"5.	c #F1F1F1",
"6.	c #626262",
"7.	c #1A1A1A",
"8.	c #DCDBDB",
"9.	c #CAD7D7",
"0.	c #414E4D",
"a.	c #90C7DC",
"b.	c #81AFD1",
"c.	c #DDDFE3",
"d.	c #255B90",
"e.	c #2F6AA1",
"f.	c #43678B",
"g.	c #5F88AD",
"h.	c #D3C7ED",
"i.	c #4794C7",
"j.	c #234658",
"k.	c #CCCECE",
"l.	c #EEF0F0",
"m.	c #676868",
"n.	c #CDCFCF",
"o.	c #B7BBBB",
"p.	c #1E2525",
"q.	c #506263",
"r.	c #C2F3F4",
"s.	c #81B1C7",
"t.	c #8DA8C9",
"u.	c #C9DDE7",
"v.	c #1C477F",
"w.	c #2A5792",
"x.	c #3C5A81",
"y.	c #6382A9",
"z.	c #C7C0EC",
"A.	c #4873A7",
"B.	c #344756",
"C.	c #CFCECD",
"D.	c #656868",
"E.	c #C3D7D7",
"F.	c #DAF5F6",
"G.	c #606C6C",
"H.	c #B4D5D5",
"I.	c #728889",
"J.	c #A4CBCC",
"K.	c #4B5F61",
"L.	c #607C7E",
"M.	c #6C9AB8",
"N.	c #CACBE0",
"O.	c #90A2C6",
"P.	c #1C3873",
"Q.	c #264C87",
"R.	c #465674",
"S.	c #5E799E",
"T.	c #C5C1EC",
"U.	c #476799",
"V.	c #213146",
"W.	c #D5E0E1",
"X.	c #E0F4F5",
"Y.	c #5F6A6A",
"Z.	c #849898",
"`.	c #D4F9FA",
" +	c #394343",
".+	c #AED7D8",
"++	c #030505",
"@+	c #ADDDE1",
"#+	c #89B5B9",
"$+	c #04070A",
"%+	c #6284B2",
"&+	c #E8E7EA",
"*+	c #3D5182",
"=+	c #1D316A",
"-+	c #213D7B",
";+	c #686B79",
">+	c #596C8F",
",+	c #BDBCE5",
"'+	c #5E6EA0",
")+	c #030303",
"!+	c #E0FEFF",
"~+	c #BDDCDC",
"{+	c #222929",
"]+	c #090D0D",
"^+	c #4C5F60",
"/+	c #B2E3E6",
"(+	c #749598",
"_+	c #040708",
":+	c #0A0E0D",
"<+	c #6592A4",
"[+	c #7E8AB1",
"}+	c #C0C7E8",
"|+	c #122059",
"1+	c #1E2E66",
"2+	c #1B2C67",
"3+	c #9C9A9C",
"4+	c #4A577C",
"5+	c #8D95CA",
"6+	c #B5B3E0",
"7+	c #556B9B",
"8+	c #E4FDFE",
"9+	c #CAEDED",
"0+	c #C5EDEE",
"a+	c #CAF7F8",
"b+	c #C3F5F7",
"c+	c #B8ECF0",
"d+	c #A9E1E5",
"e+	c #A8E3E9",
"f+	c #ADEEF2",
"g+	c #98DAE7",
"h+	c #6981AD",
"i+	c #D7D2E8",
"j+	c #4B5A8A",
"k+	c #19205A",
"l+	c #1A2662",
"m+	c #434868",
"n+	c #3B4C80",
"o+	c #CFCAF4",
"p+	c #7B83B4",
"q+	c #6C89AC",
"r+	c #D3F8F5",
"s+	c #B8E7E8",
"t+	c #B2E4E7",
"u+	c #ACE1E6",
"v+	c #A6DDE3",
"w+	c #9FDAE2",
"x+	c #9CDAE1",
"y+	c #8CCFDA",
"z+	c #7897BF",
"A+	c #D6CDEF",
"B+	c #8792BD",
"C+	c #1C265D",
"D+	c #1C2760",
"E+	c #222C60",
"F+	c #272E64",
"G+	c #737FB3",
"H+	c #D2CCF6",
"I+	c #717BAF",
"J+	c #6C8DB0",
"K+	c #AFE4E6",
"L+	c #A8DFE4",
"M+	c #A3DDE3",
"N+	c #9CD9E1",
"O+	c #98D8DF",
"P+	c #8ECBDA",
"Q+	c #95AED7",
"R+	c #D3CBF1",
"S+	c #8C95C5",
"T+	c #18245B",
"U+	c #1B235C",
"V+	c #1C2862",
"W+	c #676B81",
"X+	c #565876",
"Y+	c #192865",
"Z+	c #7F88B9",
"`+	c #D1CBF5",
" @	c #9CA0CF",
".@	c #8EA5D0",
"+@	c #9AC0DD",
"@@	c #9AC7E0",
"#@	c #9CC7E1",
"$@	c #A3C2E2",
"%@	c #B3BCE6",
"&@	c #C3BEEB",
"*@	c #7582B5",
"=@	c #14204C",
"-@	c #37252C",
";@	c #5A4E4C",
">@	c #353555",
",@	c #3E446B",
"'@	c #192561",
")@	c #4F5D8E",
"!@	c #ACB0DF",
"~@	c #C8C4F1",
"{@	c #CAC4EE",
"]@	c #CAC5EF",
"^@	c #CAC5F0",
"/@	c #BBB9EF",
"(@	c #868FC1",
"_@	c #38447A",
":@	c #1C2562",
"<@	c #181E42",
"[@	c #5A3E2F",
"}@	c #B09869",
"|@	c #AE9D76",
"1@	c #6B5B57",
"2@	c #A9A9AA",
"3@	c #40466F",
"4@	c #1D235C",
"5@	c #14215A",
"6@	c #2F4074",
"7@	c #4A588D",
"8@	c #4E5E92",
"9@	c #3C4C7E",
"0@	c #182960",
"a@	c #161D56",
"b@	c #1A245C",
"c@	c #1A255F",
"d@	c #242F6A",
"e@	c #35334E",
"f@	c #664930",
"g@	c #927A53",
"h@	c #B8A476",
"i@	c #7C6551",
"j@	c #746B6A",
"k@	c #4E5276",
"l@	c #242A5E",
"m@	c #151D5A",
"n@	c #161F5A",
"o@	c #17205C",
"p@	c #19245F",
"q@	c #182561",
"r@	c #1D2860",
"s@	c #525878",
"t@	c #675B5A",
"u@	c #5E3E27",
"v@	c #795F3B",
"w@	c #9F865B",
"x@	c #685044",
"y@	c #5A4647",
"z@	c #979494",
"A@	c #64657A",
"B@	c #4D4F6C",
"C@	c #383D63",
"D@	c #363C62",
"E@	c #444967",
"F@	c #636477",
"G@	c #7D7F8B",
"H@	c #48312E",
"I@	c #5A3C28",
"J@	c #4E3326",
"K@	c #6D4F2F",
"L@	c #624227",
"M@	c #7B7676",
"N@	c #9F9D9D",
"O@	c #361B1D",
"P@	c #523426",
"Q@	c #6A4B2D",
"R@	c #482C22",
"S@	c #A19E9E",
"T@	c #564647",
"U@	c #442722",
"V@	c #402524",
"W@	c #56494A",
"                  . + @ # $ %                   ",
"            & * = - ; > , ' ) ! ~ {             ",
"          ] ^ / ( _ : < [ } | 1 2 3 4           ",
"        5 6 7 8 9 0 a b c d e f g h i j         ",
"      k l m n o p q r s q t u v w x y z A       ",
"    B C D E F G H s s s s H G I J K L M N       ",
"    O P Q R S T U V W H X Y V Z `  ...+.@.#.    ",
"  $.%.&.*.=.c -.;.>.,.'.).!.~.{.].^./.(._.:.    ",
"  <.[.}.|.1.2.3.4.5.6.W 7.8.9.0.a.b.c.d.e.f.    ",
"  g.h.i.j.1.2.3.k.l.m.n.o.p.q.r.s.t.u.v.w.x.    ",
"  y.z.A.B.C.2.D.E.F.G.H.I.J.K.L.M.N.O.P.Q.R.    ",
"  S.T.U.V.W.X.Y.Z.`. +.+++@+#+$+%+&+*+=+-+;+    ",
"  >+,+'+)+)+!+~+{+]+^+/+(+_+:+<+[+}+|+1+2+3+    ",
"  4+5+6+7+8+9+0+a+b+c+d+e+f+g+h+i+j+k+l+m+      ",
"    n+o+p+q+r+s+t+u+v+w+x+y+z+A+B+C+D+E+        ",
"    F+G+H+I+J+K+L+M+N+O+P+Q+R+S+T+U+V+W+        ",
"    X+Y+Z+`+ @.@+@@@#@$@%@&@*@=@-@;@>@          ",
"      ,@'@)@!@~@{@]@^@/@(@_@:@<@[@}@|@1@2@      ",
"        3@4@5@6@7@8@9@0@a@b@c@d@e@f@g@h@i@j@    ",
"            k@l@m@n@o@p@q@r@s@    t@u@v@w@x@y@z@",
"              A@B@C@D@E@F@G@        H@I@J@K@L@M@",
"                                    N@O@P@Q@R@S@",
"                                      T@U@V@W@  ",
"                                                "};
