/* XPM */
static const char * chart9_xpm[] = {
"24 24 362 2",
"  	c None",
". 	c #95B2BD",
"+ 	c #7BB5CD",
"@ 	c #71B5D1",
"# 	c #71B2D0",
"$ 	c #85AFC2",
"% 	c #9EB6C0",
"& 	c #70A7BE",
"* 	c #9AC3D0",
"= 	c #AACFDD",
"- 	c #D0E9EA",
"; 	c #E6F0F0",
"> 	c #E8F0F0",
", 	c #EAEEEE",
"' 	c #D4EAEB",
") 	c #ADD3E0",
"! 	c #72AEC7",
"~ 	c #629BB4",
"{ 	c #6194AF",
"] 	c #65ACCB",
"^ 	c #B5DBE1",
"/ 	c #DFEAEC",
"( 	c #D9EDEF",
"_ 	c #C3E2E9",
": 	c #C2E2EA",
"< 	c #BBE1E9",
"[ 	c #ADD7E3",
"} 	c #AED7E3",
"| 	c #E0E9EB",
"1 	c #D8E6EA",
"2 	c #8CC2D6",
"3 	c #4494B9",
"4 	c #3E8EBC",
"5 	c #73AECA",
"6 	c #C3E0E9",
"7 	c #D0E3EA",
"8 	c #B1DAE6",
"9 	c #C2E3E9",
"0 	c #E2F0F0",
"a 	c #EDEDED",
"b 	c #E7ECED",
"c 	c #BBDCE7",
"d 	c #7EBCD5",
"e 	c #BADFE7",
"f 	c #E9EDED",
"g 	c #82BFD6",
"h 	c #378AB6",
"i 	c #3E8BB6",
"j 	c #519EC3",
"k 	c #A5C9DE",
"l 	c #C8DBE8",
"m 	c #A3D1E2",
"n 	c #D5E4E9",
"o 	c #CDDEE5",
"p 	c #71B4CE",
"q 	c #B6DBE5",
"r 	c #D3E7EB",
"s 	c #3C92BC",
"t 	c #3A8CB5",
"u 	c #5A8AA4",
"v 	c #6193B3",
"w 	c #8CBED9",
"x 	c #CBD4EB",
"y 	c #88C1DB",
"z 	c #DBE6EA",
"A 	c #E6E6E6",
"B 	c #A5A5A5",
"C 	c #707070",
"D 	c #737373",
"E 	c #ADADAD",
"F 	c #EAEAEA",
"G 	c #B9D4D9",
"H 	c #76B6CE",
"I 	c #D6E4E9",
"J 	c #68ADCF",
"K 	c #3687B6",
"L 	c #4389B2",
"M 	c #4A9EC3",
"N 	c #CDCCED",
"O 	c #88B7D9",
"P 	c #BBDFE7",
"Q 	c #E3E3E3",
"R 	c #7B7B7B",
"S 	c #1C1C1C",
"T 	c #151515",
"U 	c #212121",
"V 	c #929292",
"W 	c #DCE7EA",
"X 	c #70B0CD",
"Y 	c #B4D0DF",
"Z 	c #A6C9DD",
"` 	c #347BAE",
" .	c #3684B5",
"..	c #7D8C97",
"+.	c #5088AF",
"@.	c #82B1D2",
"#.	c #B0B8E0",
"$.	c #72A5C9",
"%.	c #D8E2E8",
"&.	c #BCBCBC",
"*.	c #1A1A1A",
"=.	c #6B6B6B",
"-.	c #DFDFDF",
";.	c #D6D6D6",
">.	c #505050",
",.	c #323232",
"'.	c #CACACA",
").	c #DAEDEE",
"!.	c #7DB3CD",
"~.	c #89B7D4",
"{.	c #BBD0DC",
"].	c #326EA2",
"^.	c #3478AE",
"/.	c #55728B",
"(.	c #6B97B7",
"_.	c #A8BAE0",
":.	c #76A8D1",
"<.	c #8CB4CD",
"[.	c #EAEBEC",
"}.	c #AEAEAE",
"|.	c #040404",
"1.	c #B6B6B6",
"2.	c #0E0E0E",
"3.	c #AFB8B8",
"4.	c #C9EDEE",
"5.	c #8ABED2",
"6.	c #80AECF",
"7.	c #BFCCD7",
"8.	c #316597",
"9.	c #306AA0",
"0.	c #43688C",
"a.	c #678CB1",
"b.	c #B7BCE5",
"c.	c #5496C6",
"d.	c #A8CADC",
"e.	c #BABCBC",
"f.	c #191A1A",
"g.	c #515353",
"h.	c #BEC2C2",
"i.	c #C0C5C5",
"j.	c #787C7D",
"k.	c #020202",
"l.	c #8EACAD",
"m.	c #B9E8EA",
"n.	c #84B3C8",
"o.	c #8CA8C9",
"p.	c #ABC1D5",
"q.	c #285187",
"r.	c #2B5790",
"s.	c #3D5B82",
"t.	c #6986AC",
"u.	c #B1B5E3",
"v.	c #567EAE",
"w.	c #B4C8D8",
"x.	c #ECEEEE",
"y.	c #D7E5E5",
"z.	c #747F7F",
"A.	c #181B1B",
"B.	c #0B0D0D",
"C.	c #1D2424",
"D.	c #060808",
"E.	c #88ABAD",
"F.	c #AEE2E6",
"G.	c #729CB7",
"H.	c #B3BBD3",
"I.	c #8194BA",
"J.	c #24417A",
"K.	c #284C85",
"L.	c #465877",
"M.	c #657EA4",
"N.	c #AEB3E0",
"O.	c #516F9F",
"P.	c #A6B6CA",
"Q.	c #E8F0F1",
"R.	c #E0F2F2",
"S.	c #D8F2F2",
"T.	c #C7E3E3",
"U.	c #99B3B3",
"V.	c #829C9D",
"W.	c #86A4A4",
"X.	c #5C7274",
"Y.	c #161C1C",
"Z.	c #8AB4B8",
"`.	c #9DD2DB",
" +	c #6786AD",
".+	c #CBCDDB",
"++	c #465988",
"@+	c #21356E",
"#+	c #25407B",
"$+	c #63687A",
"%+	c #617295",
"&+	c #A4A9D6",
"*+	c #6678AD",
"=+	c #8198B2",
"-+	c #DCF0F2",
";+	c #D3F0F1",
">+	c #CEEFF0",
",+	c #C9EEEE",
"'+	c #C2EBEC",
")+	c #B6E2E4",
"!+	c #9CC6C9",
"~+	c #232E2E",
"{+	c #3A4D4F",
"]+	c #98CED2",
"^+	c #75A4BF",
"/+	c #8793B7",
"(+	c #B0B8D9",
"_+	c #1D2A62",
":+	c #1E2E66",
"<+	c #223269",
"[+	c #919197",
"}+	c #525F84",
"|+	c #7F89BC",
"1+	c #A0A2D1",
"2+	c #61739E",
"3+	c #C2DAE2",
"4+	c #CCEEEF",
"5+	c #C4ECEC",
"6+	c #92B2B3",
"7+	c #668182",
"8+	c #566E70",
"9+	c #242F30",
"0+	c #1B2526",
"a+	c #77A5A9",
"b+	c #8FCAD8",
"c+	c #7B90B7",
"d+	c #BFBFDA",
"e+	c #606C98",
"f+	c #1C245E",
"g+	c #1D2963",
"h+	c #3C4368",
"i+	c #4D5171",
"j+	c #4B5889",
"k+	c #C0BDE8",
"l+	c #7D86B6",
"m+	c #7792B2",
"n+	c #C8EDEE",
"o+	c #BAE8E9",
"p+	c #587071",
"q+	c #030404",
"r+	c #0D1111",
"s+	c #324547",
"t+	c #75A4A9",
"u+	c #8ECBD7",
"v+	c #81A5C8",
"w+	c #C4C1E5",
"x+	c #8C93BD",
"y+	c #273268",
"z+	c #1C2760",
"A+	c #252E62",
"B+	c #383F6F",
"C+	c #767FB2",
"D+	c #BEBDE8",
"E+	c #878FC0",
"F+	c #7999BA",
"G+	c #A6D7DF",
"H+	c #A3D9DF",
"I+	c #9BD2D9",
"J+	c #95D0D8",
"K+	c #94D0DA",
"L+	c #90C5DA",
"M+	c #9EB5DC",
"N+	c #C3C1E9",
"O+	c #7680B0",
"P+	c #242E5F",
"Q+	c #1D2457",
"R+	c #222D63",
"S+	c #60657D",
"T+	c #505374",
"U+	c #2D3A73",
"V+	c #7D85B6",
"W+	c #BCBAE6",
"X+	c #9AA2D0",
"Y+	c #95ABD4",
"Z+	c #9EC1DE",
"`+	c #9EC8E1",
" @	c #9FC8E2",
".@	c #A4C3E3",
"+@	c #B0BBE4",
"@@	c #B3B3E0",
"#@	c #7A84B5",
"$@	c #222A53",
"%@	c #382A34",
"&@	c #574B4C",
"*@	c #45445E",
"=@	c #77777F",
"-@	c #363D6A",
";@	c #29346D",
">@	c #5B6597",
",@	c #A8ACDB",
"'@	c #BBBAE9",
")@	c #BFC0EA",
"!@	c #BEBEE9",
"~@	c #B3B4E7",
"{@	c #868DBF",
"]@	c #4B558A",
"^@	c #242E69",
"/@	c #1E1F41",
"(@	c #584034",
"_@	c #A18961",
":@	c #9B8B6E",
"<@	c #786B63",
"[@	c #9D9999",
"}@	c #424870",
"|@	c #252D63",
"1@	c #1F2B64",
"2@	c #344276",
"3@	c #475488",
"4@	c #4B588C",
"5@	c #3D4A7D",
"6@	c #233268",
"7@	c #1C245C",
"8@	c #1C265E",
"9@	c #1C2761",
"0@	c #2C3568",
"a@	c #484459",
"b@	c #664D39",
"c@	c #917852",
"d@	c #A9946B",
"e@	c #8C765E",
"f@	c #756964",
"g@	c #3E446F",
"h@	c #474C72",
"i@	c #292F62",
"j@	c #1D255F",
"k@	c #1C255E",
"l@	c #1C255F",
"m@	c #1D2761",
"n@	c #242D63",
"o@	c #4A5074",
"p@	c #565972",
"q@	c #9E9EA0",
"r@	c #6D605D",
"s@	c #64462E",
"t@	c #7C613E",
"u@	c #937B54",
"v@	c #675044",
"w@	c #5E4A48",
"x@	c #8B8585",
"y@	c #575A75",
"z@	c #484C6C",
"A@	c #353B63",
"B@	c #343A63",
"C@	c #3E4467",
"D@	c #5B5E77",
"E@	c #676A80",
"F@	c #503832",
"G@	c #5B3E2A",
"H@	c #583D2B",
"I@	c #6A4D30",
"J@	c #60422C",
"K@	c #79716F",
"L@	c #8A8383",
"M@	c #422929",
"N@	c #4E3225",
"O@	c #62442B",
"P@	c #51382E",
"Q@	c #8F8888",
"R@	c #513F3F",
"S@	c #442823",
"T@	c #452B28",
"U@	c #544545",
"                  . + @ # $ %                   ",
"            & * = - ; > , ' ) ! ~ {             ",
"          ] ^ / ( _ : < [ } | 1 2 3 4           ",
"        5 6 7 8 9 0 a a b c d e f g h i         ",
"      j k l m n a a a a a a o p q r s t u       ",
"    v w x y z a A B C D E F a G H I J K L       ",
"    M N O P a Q R S T T U V F W X Y Z `  ...    ",
"  +.@.#.$.%.a &.*.=.-.;.>.,.'.).!.~.{.].^./.    ",
"  (._.:.<.[.a }.|.1.a a E 2.3.4.5.6.7.8.9.0.    ",
"  a.b.c.d.a a e.f.g.h.i.j.k.l.m.n.o.p.q.r.s.    ",
"  t.u.v.w.a x.y.z.A.k.B.C.D.E.F.G.H.I.J.K.L.    ",
"  M.N.O.P.Q.R.S.T.U.V.W.X.Y.Z.`. +.+++@+#+$+    ",
"  %+&+*+=+-+;+>+,+'+)+!+~+{+]+^+/+(+_+:+<+[+    ",
"  }+|+1+2+3+4+5+6+7+8+9+0+a+b+c+d+e+f+g+h+      ",
"  i+j+k+l+m+n+o+p+q+r+s+t+u+v+w+x+y+z+A+        ",
"    B+C+D+E+F+G+H+I+J+K+L+M+N+O+P+Q+R+S+        ",
"    T+U+V+W+X+Y+Z+`+ @.@+@@@#@$@%@&@*@=@        ",
"      -@;@>@,@'@D+)@!@~@{@]@^@/@(@_@:@<@[@      ",
"        }@|@1@2@3@4@5@6@7@8@9@0@a@b@c@d@e@f@    ",
"          g@h@i@j@k@l@m@g+n@o@p@q@r@s@t@u@v@w@x@",
"              y@z@A@B@C@D@E@        F@G@H@I@J@K@",
"                                    L@M@N@O@P@Q@",
"                                      R@S@T@U@  ",
"                                                "};
