/* XPM */
static const char * chart8_xpm[] = {
"24 24 361 2",
"  	c None",
". 	c #95B2BD",
"+ 	c #7BB5CD",
"@ 	c #71B5D1",
"# 	c #71B2D0",
"$ 	c #85AFC2",
"% 	c #9EB6C0",
"& 	c #70A7BE",
"* 	c #9AC3D0",
"= 	c #AACFDD",
"- 	c #D0E9EA",
"; 	c #E6F0F0",
"> 	c #E8F0F0",
", 	c #EAEEEE",
"' 	c #D4EAEB",
") 	c #ADD3E0",
"! 	c #72AEC7",
"~ 	c #629BB4",
"{ 	c #6194AF",
"] 	c #65ACCB",
"^ 	c #B5DBE1",
"/ 	c #DFEAEC",
"( 	c #D9EDEF",
"_ 	c #C3E2E9",
": 	c #C2E2EA",
"< 	c #BBE1E9",
"[ 	c #ADD7E3",
"} 	c #AED7E3",
"| 	c #E0E9EB",
"1 	c #D8E6EA",
"2 	c #8CC2D6",
"3 	c #4494B9",
"4 	c #3E8EBC",
"5 	c #73AECA",
"6 	c #C3E0E9",
"7 	c #D0E3EA",
"8 	c #B1DAE6",
"9 	c #C2E3E9",
"0 	c #E2F0F0",
"a 	c #EDEDED",
"b 	c #E7ECED",
"c 	c #BBDCE7",
"d 	c #7EBCD5",
"e 	c #BADFE7",
"f 	c #E9EDED",
"g 	c #82BFD6",
"h 	c #378AB6",
"i 	c #3E8BB6",
"j 	c #519EC3",
"k 	c #A5C9DE",
"l 	c #C8DBE8",
"m 	c #A3D1E2",
"n 	c #D5E4E9",
"o 	c #CDDEE5",
"p 	c #71B4CE",
"q 	c #B6DBE5",
"r 	c #D3E7EB",
"s 	c #3C92BC",
"t 	c #3A8CB5",
"u 	c #5A8AA4",
"v 	c #6193B3",
"w 	c #8CBED9",
"x 	c #CBD4EB",
"y 	c #88C1DB",
"z 	c #DBE6EA",
"A 	c #DEDEDE",
"B 	c #9A9A9A",
"C 	c #6E6E6E",
"D 	c #969696",
"E 	c #DADADA",
"F 	c #B9D4D9",
"G 	c #76B6CE",
"H 	c #D6E4E9",
"I 	c #68ADCF",
"J 	c #3687B6",
"K 	c #4389B2",
"L 	c #4A9EC3",
"M 	c #CDCCED",
"N 	c #88B7D9",
"O 	c #BBDFE7",
"P 	c #D9D9D9",
"Q 	c #5D5D5D",
"R 	c #181818",
"S 	c #151515",
"T 	c #141414",
"U 	c #565656",
"V 	c #D5D5D5",
"W 	c #DCE7EA",
"X 	c #70B0CD",
"Y 	c #B4D0DF",
"Z 	c #A6C9DD",
"` 	c #347BAE",
" .	c #3684B5",
"..	c #7D8C97",
"+.	c #5088AF",
"@.	c #82B1D2",
"#.	c #B0B8E0",
"$.	c #72A5C9",
"%.	c #D8E2E8",
"&.	c #B2B2B2",
"*.	c #0A0A0A",
"=.	c #787878",
"-.	c #DCDCDC",
";.	c #757575",
">.	c #090909",
",.	c #DAEDEE",
"'.	c #7DB3CD",
").	c #89B7D4",
"!.	c #BBD0DC",
"~.	c #326EA2",
"{.	c #3478AE",
"].	c #55728B",
"^.	c #6B97B7",
"/.	c #A8BAE0",
"(.	c #76A8D1",
"_.	c #8CB4CD",
":.	c #EAEBEC",
"<.	c #B8B8B8",
"[.	c #868686",
"}.	c #EBEBEB",
"|.	c #A6A6A6",
"1.	c #1D1D1D",
"2.	c #B8C1C1",
"3.	c #C9EDEE",
"4.	c #8ABED2",
"5.	c #80AECF",
"6.	c #BFCCD7",
"7.	c #316597",
"8.	c #306AA0",
"9.	c #43688C",
"0.	c #678CB1",
"a.	c #B7BCE5",
"b.	c #5496C6",
"c.	c #A8CADC",
"d.	c #E2E4E4",
"e.	c #7C7F7F",
"f.	c #4A4B4B",
"g.	c #777B7B",
"h.	c #3A3C3C",
"i.	c #869494",
"j.	c #BDE5E6",
"k.	c #B9E8EA",
"l.	c #84B3C8",
"m.	c #8CA8C9",
"n.	c #ABC1D5",
"o.	c #285187",
"p.	c #2B5790",
"q.	c #3D5B82",
"r.	c #6986AC",
"s.	c #B1B5E3",
"t.	c #567EAE",
"u.	c #B4C8D8",
"v.	c #ECEEEE",
"w.	c #D7E5E5",
"x.	c #727D7D",
"y.	c #4C5555",
"z.	c #798989",
"A.	c #495555",
"B.	c #273030",
"C.	c #708B8C",
"D.	c #AEDBDD",
"E.	c #AEE2E6",
"F.	c #729CB7",
"G.	c #B3BBD3",
"H.	c #8194BA",
"I.	c #24417A",
"J.	c #284C85",
"K.	c #465877",
"L.	c #657EA4",
"M.	c #AEB3E0",
"N.	c #516F9F",
"O.	c #A6B6CA",
"P.	c #E8F0F1",
"Q.	c #E0F2F2",
"R.	c #ABBFBF",
"S.	c #171A1A",
"T.	c #94ADAE",
"U.	c #C5ECED",
"V.	c #B4DDDE",
"W.	c #678082",
"X.	c #151B1C",
"Y.	c #89B3B7",
"Z.	c #9DD2DB",
"`.	c #6786AD",
" +	c #CBCDDB",
".+	c #465988",
"++	c #21356E",
"@+	c #25407B",
"#+	c #63687A",
"$+	c #617295",
"%+	c #A4A9D6",
"&+	c #6678AD",
"*+	c #8198B2",
"=+	c #DCF0F2",
"-+	c #D3F0F1",
";+	c #99B2B2",
">+	c #060707",
",+	c #7A9495",
"'+	c #B6E2E4",
")+	c #B1E1E4",
"!+	c #74979A",
"~+	c #050708",
"{+	c #7BA7AA",
"]+	c #75A4BF",
"^+	c #8793B7",
"/+	c #B0B8D9",
"(+	c #1D2A62",
"_+	c #1E2E66",
":+	c #223269",
"<+	c #919197",
"[+	c #525F84",
"}+	c #7F89BC",
"|+	c #A0A2D1",
"1+	c #61739E",
"2+	c #C2DAE2",
"3+	c #CCEEEF",
"4+	c #A7C9C9",
"5+	c #293333",
"6+	c #161C1D",
"7+	c #577072",
"8+	c #567274",
"9+	c #1B2526",
"0+	c #263436",
"a+	c #7BAEBA",
"b+	c #7B90B7",
"c+	c #BFBFDA",
"d+	c #606C98",
"e+	c #1C245E",
"f+	c #1D2963",
"g+	c #3C4368",
"h+	c #4D5171",
"i+	c #4B5889",
"j+	c #C0BDE8",
"k+	c #7D86B6",
"l+	c #7792B2",
"m+	c #C8EDEE",
"n+	c #B6E3E4",
"o+	c #85A9AB",
"p+	c #303E40",
"q+	c #060808",
"r+	c #070A0A",
"s+	c #2F4244",
"t+	c #6E9EA7",
"u+	c #7EA2C4",
"v+	c #C4C1E5",
"w+	c #8C93BD",
"x+	c #273268",
"y+	c #1C2760",
"z+	c #252E62",
"A+	c #383F6F",
"B+	c #767FB2",
"C+	c #BEBDE8",
"D+	c #878FC0",
"E+	c #7999BA",
"F+	c #A6D7DF",
"G+	c #A6DDE3",
"H+	c #9DD5DC",
"I+	c #95D0D8",
"J+	c #92CDD7",
"K+	c #8DC1D5",
"L+	c #9DB4DB",
"M+	c #C3C1E9",
"N+	c #7680B0",
"O+	c #242E5F",
"P+	c #1D2457",
"Q+	c #222D63",
"R+	c #60657D",
"S+	c #505374",
"T+	c #2D3A73",
"U+	c #7D85B6",
"V+	c #BCBAE6",
"W+	c #9AA2D0",
"X+	c #95ABD4",
"Y+	c #9EC1DE",
"Z+	c #9EC8E1",
"`+	c #9FC8E2",
" @	c #A4C3E3",
".@	c #B0BBE4",
"+@	c #B3B3E0",
"@@	c #7A84B5",
"#@	c #222A53",
"$@	c #382A34",
"%@	c #574B4C",
"&@	c #45445E",
"*@	c #77777F",
"=@	c #363D6A",
"-@	c #29346D",
";@	c #5B6597",
">@	c #A8ACDB",
",@	c #BBBAE9",
"'@	c #BFC0EA",
")@	c #BEBEE9",
"!@	c #B3B4E7",
"~@	c #868DBF",
"{@	c #4B558A",
"]@	c #242E69",
"^@	c #1E1F41",
"/@	c #584034",
"(@	c #A18961",
"_@	c #9B8B6E",
":@	c #786B63",
"<@	c #9D9999",
"[@	c #424870",
"}@	c #252D63",
"|@	c #1F2B64",
"1@	c #344276",
"2@	c #475488",
"3@	c #4B588C",
"4@	c #3D4A7D",
"5@	c #233268",
"6@	c #1C245C",
"7@	c #1C265E",
"8@	c #1C2761",
"9@	c #2C3568",
"0@	c #484459",
"a@	c #664D39",
"b@	c #917852",
"c@	c #A9946B",
"d@	c #8C765E",
"e@	c #756964",
"f@	c #3E446F",
"g@	c #474C72",
"h@	c #292F62",
"i@	c #1D255F",
"j@	c #1C255E",
"k@	c #1C255F",
"l@	c #1D2761",
"m@	c #242D63",
"n@	c #4A5074",
"o@	c #565972",
"p@	c #9E9EA0",
"q@	c #6D605D",
"r@	c #64462E",
"s@	c #7C613E",
"t@	c #937B54",
"u@	c #675044",
"v@	c #5E4A48",
"w@	c #8B8585",
"x@	c #575A75",
"y@	c #484C6C",
"z@	c #353B63",
"A@	c #343A63",
"B@	c #3E4467",
"C@	c #5B5E77",
"D@	c #676A80",
"E@	c #503832",
"F@	c #5B3E2A",
"G@	c #583D2B",
"H@	c #6A4D30",
"I@	c #60422C",
"J@	c #79716F",
"K@	c #8A8383",
"L@	c #422929",
"M@	c #4E3225",
"N@	c #62442B",
"O@	c #51382E",
"P@	c #8F8888",
"Q@	c #513F3F",
"R@	c #442823",
"S@	c #452B28",
"T@	c #544545",
"                  . + @ # $ %                   ",
"            & * = - ; > , ' ) ! ~ {             ",
"          ] ^ / ( _ : < [ } | 1 2 3 4           ",
"        5 6 7 8 9 0 a a b c d e f g h i         ",
"      j k l m n a a a a a a o p q r s t u       ",
"    v w x y z a A B C C D E a F G H I J K       ",
"    L M N O a P Q R S T S U V W X Y Z `  ...    ",
"  +.@.#.$.%.a &.*.=.A -.;.>.&.,.'.).!.~.{.].    ",
"  ^./.(._.:.a <.T [.}.a |.1.2.3.4.5.6.7.8.9.    ",
"  0.a.b.c.a a d.e.1.f.g.h.i.j.k.l.m.n.o.p.q.    ",
"  r.s.t.u.a v.w.x.y.z.A.B.C.D.E.F.G.H.I.J.K.    ",
"  L.M.N.O.P.Q.R.S.T.U.V.W.X.Y.Z.`. +.+++@+#+    ",
"  $+%+&+*+=+-+;+>+,+'+)+!+~+{+]+^+/+(+_+:+<+    ",
"  [+}+|+1+2+3+4+5+6+7+8+9+0+a+b+c+d+e+f+g+      ",
"  h+i+j+k+l+m+n+o+p+q+r+s+t+u+v+w+x+y+z+        ",
"    A+B+C+D+E+F+G+H+I+J+K+L+M+N+O+P+Q+R+        ",
"    S+T+U+V+W+X+Y+Z+`+ @.@+@@@#@$@%@&@*@        ",
"      =@-@;@>@,@C+'@)@!@~@{@]@^@/@(@_@:@<@      ",
"        [@}@|@1@2@3@4@5@6@7@8@9@0@a@b@c@d@e@    ",
"          f@g@h@i@j@k@l@f+m@n@o@p@q@r@s@t@u@v@w@",
"              x@y@z@A@B@C@D@        E@F@G@H@I@J@",
"                                    K@L@M@N@O@P@",
"                                      Q@R@S@T@  ",
"                                                "};
