/* XPM */
static const char * chart60_xpm[] = {
"24 24 357 2",
"  	c None",
". 	c #95B2BD",
"+ 	c #7BB5CD",
"@ 	c #71B5D1",
"# 	c #71B2D0",
"$ 	c #85AFC2",
"% 	c #9EB6C0",
"& 	c #70A7BE",
"* 	c #9AC3D0",
"= 	c #AACFDD",
"- 	c #D0E9EA",
"; 	c #E6F0F0",
"> 	c #E8F0F0",
", 	c #EAEEEE",
"' 	c #D4EAEB",
") 	c #ADD3E0",
"! 	c #72AEC7",
"~ 	c #629BB4",
"{ 	c #6194AF",
"] 	c #65ACCB",
"^ 	c #B5DBE1",
"/ 	c #DFEAEC",
"( 	c #D9EDEF",
"_ 	c #C3E2E9",
": 	c #C2E2EA",
"< 	c #BBE1E9",
"[ 	c #ADD7E3",
"} 	c #AED7E3",
"| 	c #E0E9EB",
"1 	c #D8E6EA",
"2 	c #8CC2D6",
"3 	c #4494B9",
"4 	c #3E8EBC",
"5 	c #73AECA",
"6 	c #C3E0E9",
"7 	c #D0E3EA",
"8 	c #B1DAE6",
"9 	c #C2E3E9",
"0 	c #E2F0F0",
"a 	c #EDEDED",
"b 	c #E7ECED",
"c 	c #BBDCE7",
"d 	c #7EBCD5",
"e 	c #BADFE7",
"f 	c #E9EDED",
"g 	c #82BFD6",
"h 	c #378AB6",
"i 	c #3E8BB6",
"j 	c #519EC3",
"k 	c #A5C9DE",
"l 	c #C8DBE8",
"m 	c #A3D1E2",
"n 	c #D5E4E9",
"o 	c #CDDEE5",
"p 	c #71B4CE",
"q 	c #B6DBE5",
"r 	c #D3E7EB",
"s 	c #3C92BC",
"t 	c #3A8CB5",
"u 	c #5A8AA4",
"v 	c #6193B3",
"w 	c #8CBED9",
"x 	c #CBD4EB",
"y 	c #88C1DB",
"z 	c #DBE6EA",
"A 	c #B9D4D9",
"B 	c #76B6CE",
"C 	c #D6E4E9",
"D 	c #68ADCF",
"E 	c #3687B6",
"F 	c #4389B2",
"G 	c #4A9EC3",
"H 	c #CDCCED",
"I 	c #86B5D7",
"J 	c #8EA9AF",
"K 	c #7D7D7D",
"L 	c #6A6A6A",
"M 	c #777777",
"N 	c #D9D9D9",
"O 	c #909090",
"P 	c #6E6E6E",
"Q 	c #707577",
"R 	c #56879E",
"S 	c #B1CCDB",
"T 	c #A6C9DD",
"U 	c #347BAE",
"V 	c #3684B5",
"W 	c #7D8C97",
"X 	c #5088AF",
"Y 	c #82B1D2",
"Z 	c #A5ADD2",
"` 	c #385163",
" .	c #1C1E1E",
"..	c #171717",
"+.	c #151515",
"@.	c #212121",
"#.	c #E6E6E6",
"$.	c #494949",
"%.	c #141414",
"&.	c #121414",
"*.	c #141D21",
"=.	c #5C7B8E",
"-.	c #B9CEDA",
";.	c #326EA2",
">.	c #3478AE",
",.	c #55728B",
"'.	c #6B97B7",
").	c #A4B5DA",
"!.	c #425E75",
"~.	c #0B0E10",
"{.	c #676868",
"].	c #C9C9C9",
"^.	c #E8E8E8",
"/.	c #9B9B9B",
"(.	c #121212",
"_.	c #D7E1E1",
":.	c #A5C3C4",
"<.	c #1C262A",
"[.	c #25333C",
"}.	c #AAB6C0",
"|.	c #316597",
"1.	c #306AA0",
"2.	c #43688C",
"3.	c #678CB1",
"4.	c #A1A5CA",
"5.	c #162734",
"6.	c #323C41",
"7.	c #DCDCDC",
"8.	c #ECEEEE",
"9.	c #EAEFEF",
"0.	c #E9EEEF",
"a.	c #616464",
"b.	c #232424",
"c.	c #BDD1D1",
"d.	c #C2EBEC",
"e.	c #B5E3E5",
"f.	c #465F6A",
"g.	c #101317",
"h.	c #8C9EAE",
"i.	c #285187",
"j.	c #2B5790",
"k.	c #3D5B82",
"l.	c #6986AC",
"m.	c #8E92B7",
"n.	c #070A0E",
"o.	c #383E43",
"p.	c #434343",
"q.	c #242424",
"r.	c #343737",
"s.	c #869393",
"t.	c #D2EBEB",
"u.	c #D4F0F1",
"v.	c #3E4949",
"w.	c #222929",
"x.	c #B8E4E5",
"y.	c #B6E5E8",
"z.	c #ADE1E5",
"A.	c #4A6677",
"B.	c #040505",
"C.	c #657491",
"D.	c #24417A",
"E.	c #284C85",
"F.	c #465877",
"G.	c #657EA4",
"H.	c #878BAE",
"I.	c #010102",
"J.	c #1D2023",
"K.	c #525556",
"L.	c #535A5A",
"M.	c #2F3535",
"N.	c #0A0C0C",
"O.	c #829898",
"P.	c #C5ECED",
"Q.	c #364243",
"R.	c #21292A",
"S.	c #B0E2E5",
"T.	c #ACE0E5",
"U.	c #9DD2DB",
"V.	c #455974",
"W.	c #020202",
"X.	c #364569",
"Y.	c #21356E",
"Z.	c #25407B",
"`.	c #63687A",
" +	c #617295",
".+	c #8084A7",
"++	c #030305",
"@+	c #4B5968",
"#+	c #D4E7E9",
"$+	c #CFECED",
"%+	c #A9C4C5",
"&+	c #1B2020",
"*+	c #414F4F",
"=+	c #BBE8EA",
"-+	c #3E4F50",
";+	c #1E2627",
">+	c #9FD5DA",
",+	c #A5E0E4",
"'+	c #74A2BD",
")+	c #535A70",
"!+	c #0A0A0C",
"~+	c #17214E",
"{+	c #1E2E66",
"]+	c #223269",
"^+	c #919197",
"/+	c #525F84",
"(+	c #6B739E",
"_+	c #1A1B23",
":+	c #2C3447",
"<+	c #B6CDD4",
"[+	c #CAECED",
"}+	c #ABCECE",
"|+	c #1D2323",
"1+	c #425354",
"2+	c #B1E3E7",
"3+	c #5A7779",
"4+	c #131A1B",
"5+	c #75A2A5",
"6+	c #8CC6D4",
"7+	c #7286AA",
"8+	c #494953",
"9+	c #12141D",
"0+	c #171E50",
"a+	c #1D2963",
"b+	c #3C4368",
"c+	c #4D5171",
"d+	c #475382",
"e+	c #5B596E",
"f+	c #0B0C11",
"g+	c #323D4B",
"h+	c #6A7E7E",
"i+	c #384647",
"j+	c #101515",
"k+	c #799EA1",
"l+	c #A7DEE4",
"m+	c #87B9BF",
"n+	c #12191A",
"o+	c #202E30",
"p+	c #425466",
"q+	c #535261",
"r+	c #0A0A0E",
"s+	c #121730",
"t+	c #1A255B",
"u+	c #252E62",
"v+	c #383F6F",
"w+	c #68709D",
"x+	c #58586C",
"y+	c #0D0E13",
"z+	c #030405",
"A+	c #1F2829",
"B+	c #65868A",
"C+	c #9ED6DD",
"D+	c #9CD9E1",
"E+	c #97D5DF",
"F+	c #5E808E",
"G+	c #20242C",
"H+	c #060608",
"I+	c #0A0B0F",
"J+	c #0F1328",
"K+	c #191F4B",
"L+	c #222D63",
"M+	c #60657D",
"N+	c #505374",
"O+	c #2D3A73",
"P+	c #7B82B3",
"Q+	c #B5B3DD",
"R+	c #939BC7",
"S+	c #90A5CD",
"T+	c #9CBFDC",
"U+	c #9EC8E1",
"V+	c #9FC8E2",
"W+	c #A4C3E3",
"X+	c #AEB9E2",
"Y+	c #ADADD8",
"Z+	c #747EAD",
"`+	c #20284F",
" @	c #362932",
".@	c #574B4C",
"+@	c #45445E",
"@@	c #77777F",
"#@	c #363D6A",
"$@	c #29346D",
"%@	c #5B6597",
"&@	c #A8ACDB",
"*@	c #BBBAE9",
"=@	c #BEBDE8",
"-@	c #BFC0EA",
";@	c #BEBEE9",
">@	c #B3B4E7",
",@	c #868DBF",
"'@	c #4B558A",
")@	c #242E69",
"!@	c #1E1F41",
"~@	c #584034",
"{@	c #A18961",
"]@	c #9B8B6E",
"^@	c #786B63",
"/@	c #9D9999",
"(@	c #424870",
"_@	c #252D63",
":@	c #1F2B64",
"<@	c #344276",
"[@	c #475488",
"}@	c #4B588C",
"|@	c #3D4A7D",
"1@	c #233268",
"2@	c #1C245C",
"3@	c #1C265E",
"4@	c #1C2761",
"5@	c #2C3568",
"6@	c #484459",
"7@	c #664D39",
"8@	c #917852",
"9@	c #A9946B",
"0@	c #8C765E",
"a@	c #756964",
"b@	c #3E446F",
"c@	c #474C72",
"d@	c #292F62",
"e@	c #1D255F",
"f@	c #1C255E",
"g@	c #1C255F",
"h@	c #1D2761",
"i@	c #242D63",
"j@	c #4A5074",
"k@	c #565972",
"l@	c #9E9EA0",
"m@	c #6D605D",
"n@	c #64462E",
"o@	c #7C613E",
"p@	c #937B54",
"q@	c #675044",
"r@	c #5E4A48",
"s@	c #8B8585",
"t@	c #575A75",
"u@	c #484C6C",
"v@	c #353B63",
"w@	c #343A63",
"x@	c #3E4467",
"y@	c #5B5E77",
"z@	c #676A80",
"A@	c #503832",
"B@	c #5B3E2A",
"C@	c #583D2B",
"D@	c #6A4D30",
"E@	c #60422C",
"F@	c #79716F",
"G@	c #8A8383",
"H@	c #422929",
"I@	c #4E3225",
"J@	c #62442B",
"K@	c #51382E",
"L@	c #8F8888",
"M@	c #513F3F",
"N@	c #442823",
"O@	c #452B28",
"P@	c #544545",
"                  . + @ # $ %                   ",
"            & * = - ; > , ' ) ! ~ {             ",
"          ] ^ / ( _ : < [ } | 1 2 3 4           ",
"        5 6 7 8 9 0 a a b c d e f g h i         ",
"      j k l m n a a a a a a o p q r s t u       ",
"    v w x y z a a a a a a a a A B C D E F       ",
"    G H I J K L M a a a N O P Q R S T U V W     ",
"  X Y Z `  ...+.@.a a #.$.%.+.&.*.=.-.;.>.,.    ",
"  '.).!.~.{.].^.a a a /.(.K _.:.<.[.}.|.1.2.    ",
"  3.4.5.6.7.a 8.9.9.0.a.b.c.d.e.f.g.h.i.j.k.    ",
"  l.m.n.o.p.q.r.s.t.u.v.w.x.y.z.A.B.C.D.E.F.    ",
"  G.H.I.J.K.L.M.N.O.P.Q.R.S.T.U.V.W.X.Y.Z.`.    ",
"   +.+++@+#+$+%+&+*+=+-+;+>+,+'+)+!+~+{+]+^+    ",
"  /+(+_+:+<+[+}+|+1+2+3+4+5+6+7+8+9+0+a+b+      ",
"  c+d+e+f+g+h+i+j+k+l+m+n+o+p+q+r+s+t+u+        ",
"    v+w+x+y+z+A+B+C+D+E+F+G+H+I+J+K+L+M+        ",
"    N+O+P+Q+R+S+T+U+V+W+X+Y+Z+`+ @.@+@@@        ",
"      #@$@%@&@*@=@-@;@>@,@'@)@!@~@{@]@^@/@      ",
"        (@_@:@<@[@}@|@1@2@3@4@5@6@7@8@9@0@a@    ",
"          b@c@d@e@f@g@h@a+i@j@k@l@m@n@o@p@q@r@s@",
"              t@u@v@w@x@y@z@        A@B@C@D@E@F@",
"                                    G@H@I@J@K@L@",
"                                      M@N@O@P@  ",
"                                                "};
