/* XPM */
static const char * chartb_xpm[] = {
"24 24 385 2",
"  	c None",
". 	c #95B2BD",
"+ 	c #7BB5CD",
"@ 	c #71B5D1",
"# 	c #71B2D0",
"$ 	c #85AFC2",
"% 	c #9EB6C0",
"& 	c #70A7BE",
"* 	c #9AC3D0",
"= 	c #AACFDD",
"- 	c #D0E9EA",
"; 	c #E6F0F0",
"> 	c #E8F0F0",
", 	c #EAEEEE",
"' 	c #D4EAEB",
") 	c #ADD3E0",
"! 	c #72AEC7",
"~ 	c #629BB4",
"{ 	c #6194AF",
"] 	c #65ACCC",
"^ 	c #B5DBE1",
"/ 	c #DFEAEC",
"( 	c #D9EDEF",
"_ 	c #C3E2E9",
": 	c #C2E2EA",
"< 	c #BBE1E9",
"[ 	c #ADD7E3",
"} 	c #AED7E3",
"| 	c #E0E9EC",
"1 	c #D8E6EA",
"2 	c #8CC2D6",
"3 	c #4494B9",
"4 	c #3E8EBC",
"5 	c #73AECA",
"6 	c #C3E0E9",
"7 	c #C2B0A6",
"8 	c #B47D4A",
"9 	c #BB8141",
"0 	c #C48342",
"a 	c #C78040",
"b 	c #C77E40",
"c 	c #C57B40",
"d 	c #B8723E",
"e 	c #A96B39",
"f 	c #B06D44",
"g 	c #CFB8B0",
"h 	c #81BED5",
"i 	c #378AB6",
"j 	c #3E8BB6",
"k 	c #519EC3",
"l 	c #A5C9DE",
"m 	c #BDBDC4",
"n 	c #C5812E",
"o 	c #F9CA3F",
"p 	c #FFD441",
"q 	c #FFCA2F",
"r 	c #FFC120",
"s 	c #FFB613",
"t 	c #FFA806",
"u 	c #FF9900",
"v 	c #FF9200",
"w 	c #E57303",
"x 	c #A47B68",
"y 	c #CEDFE2",
"z 	c #3C92BC",
"A 	c #3A8CB5",
"B 	c #5A8AA4",
"C 	c #6193B3",
"D 	c #8CBED9",
"E 	c #C4C3D7",
"F 	c #A27049",
"G 	c #F7D257",
"H 	c #FFEC8C",
"I 	c #FFE073",
"J 	c #FFD355",
"K 	c #FFC63B",
"L 	c #FFB624",
"M 	c #FFA30B",
"N 	c #FF9100",
"O 	c #F47500",
"P 	c #F47200",
"Q 	c #A25F3A",
"R 	c #CACDD0",
"S 	c #68ADCF",
"T 	c #3687B6",
"U 	c #4389B2",
"V 	c #4A9EC3",
"W 	c #C9C1DF",
"X 	c #A17C66",
"Y 	c #EEBC59",
"Z 	c #FFF1B0",
"` 	c #FFE18E",
" .	c #FFD672",
"..	c #FFC554",
"+.	c #FFB53B",
"@.	c #FFA524",
"#.	c #FF8805",
"$.	c #E47009",
"%.	c #676C4A",
"&.	c #F96000",
"*.	c #C25016",
"=.	c #AAAAAE",
"-.	c #A6C9DD",
";.	c #347BAE",
">.	c #3684B5",
",.	c #7D8C97",
"'.	c #5088AF",
").	c #82B1D2",
"!.	c #AE898B",
"~.	c #DCA25A",
"{.	c #FFEFBA",
"].	c #FFE8AA",
"^.	c #FFDA8E",
"/.	c #FFCC71",
"(.	c #FFBA54",
"_.	c #FFA93C",
":.	c #FF911A",
"<.	c #F36801",
"[.	c #7D7451",
"}.	c #0BA6CF",
"|.	c #EA5200",
"1.	c #D94504",
"2.	c #8B7A7E",
"3.	c #BBD0DC",
"4.	c #326EA2",
"5.	c #3478AE",
"6.	c #55728B",
"7.	c #6B97B7",
"8.	c #959BB9",
"9.	c #C3854A",
"0.	c #FCF1CC",
"a.	c #FFF5D3",
"b.	c #FFE3AC",
"c.	c #FFD48F",
"d.	c #FFC372",
"e.	c #FFB155",
"f.	c #FF9A37",
"g.	c #FF700B",
"h.	c #B25A23",
"i.	c #1AA8C4",
"j.	c #00BFFA",
"k.	c #CE4D04",
"l.	c #F14500",
"m.	c #95584A",
"n.	c #BFCCD7",
"o.	c #316597",
"p.	c #306AA0",
"q.	c #43688C",
"r.	c #678DB1",
"s.	c #7C799B",
"t.	c #7C6A5A",
"u.	c #AF9881",
"v.	c #C3B092",
"w.	c #CCB187",
"x.	c #D4AC73",
"y.	c #DFA15C",
"z.	c #EC8E3D",
"A.	c #EF6B16",
"B.	c #C7501B",
"C.	c #32AAB9",
"D.	c #0BD4FF",
"E.	c #04CDFF",
"F.	c #A7551F",
"G.	c #F34700",
"H.	c #A04425",
"I.	c #ABC1D5",
"J.	c #285187",
"K.	c #2B5790",
"L.	c #3D5B82",
"M.	c #6986AC",
"N.	c #AEB2E0",
"O.	c #47689C",
"P.	c #3572AD",
"Q.	c #57AECB",
"R.	c #52ADBF",
"S.	c #459DAF",
"T.	c #488D9E",
"U.	c #5B767E",
"V.	c #6A5B62",
"W.	c #5E9FAD",
"X.	c #3BDAFF",
"Y.	c #30D8FF",
"Z.	c #22DCFF",
"`.	c #585C65",
" +	c #8F4E3D",
".+	c #917271",
"++	c #8194BA",
"@+	c #24417A",
"#+	c #284C85",
"$+	c #465877",
"%+	c #657EA4",
"&+	c #AEB3E0",
"*+	c #48649B",
"=+	c #4889CB",
"-+	c #BAE8FA",
";+	c #ACF8FF",
">+	c #79ECFF",
",+	c #4DDFFF",
"'+	c #21C6F3",
")+	c #2A95DB",
"!+	c #62C7F1",
"~+	c #2363D3",
"{+	c #236DD8",
"]+	c #3AC0F3",
"^+	c #2762A2",
"/+	c #587196",
"(+	c #C3C5D3",
"_+	c #465988",
":+	c #21356E",
"<+	c #25407B",
"[+	c #63687A",
"}+	c #617295",
"|+	c #A4A9D6",
"1+	c #5A6BA7",
"2+	c #4B83C4",
"3+	c #D0EBFB",
"4+	c #CAFEFF",
"5+	c #A5F6FF",
"6+	c #82EEFF",
"7+	c #51D1F2",
"8+	c #5FA7E0",
"9+	c #78B3E4",
"0+	c #3F46EF",
"a+	c #495CEF",
"b+	c #61BDF6",
"c+	c #2C549A",
"d+	c #8490B3",
"e+	c #B0B8D9",
"f+	c #1D2A62",
"g+	c #1E2E66",
"h+	c #223269",
"i+	c #919197",
"j+	c #525F84",
"k+	c #7F89BC",
"l+	c #8E91C7",
"m+	c #2F5AA9",
"n+	c #A7CCEE",
"o+	c #E0FFFF",
"p+	c #C1FCFF",
"q+	c #A7F7FF",
"r+	c #73CFEE",
"s+	c #89AFDC",
"t+	c #89A7DF",
"u+	c #6C71FA",
"v+	c #718DF2",
"w+	c #75B7ED",
"x+	c #445595",
"y+	c #BFBFDA",
"z+	c #606C98",
"A+	c #1C245E",
"B+	c #1E2963",
"C+	c #3C4368",
"D+	c #4D5171",
"E+	c #4B5889",
"F+	c #BBB8E5",
"G+	c #4F5EA3",
"H+	c #2A4FA3",
"I+	c #AED2F0",
"J+	c #E3FFFF",
"K+	c #D1FEFF",
"L+	c #8AC5EA",
"M+	c #9AB0D9",
"N+	c #92A5DE",
"O+	c #A2A6FA",
"P+	c #A9BCF3",
"Q+	c #749BD3",
"R+	c #918FBE",
"S+	c #8C93BD",
"T+	c #273268",
"U+	c #1C2760",
"V+	c #252E62",
"W+	c #383F6F",
"X+	c #767FB2",
"Y+	c #BEBDE8",
"Z+	c #737AB2",
"`+	c #304A9B",
" @	c #7597CF",
".@	c #CFDBF1",
"+@	c #8AA9DA",
"@@	c #A0B4DC",
"#@	c #B1C1E9",
"$@	c #D8DCF9",
"%@	c #BFCCEF",
"&@	c #5971B4",
"*@	c #6D76A4",
"=@	c #242E5F",
"-@	c #1D2457",
";@	c #222D63",
">@	c #60657D",
",@	c #505374",
"'@	c #2D3A73",
")@	c #7D85B6",
"!@	c #BCBAE6",
"~@	c #8A92C5",
"{@	c #5269AE",
"]@	c #4C67B1",
"^@	c #3651A7",
"/@	c #6380C2",
"(@	c #829BD0",
"_@	c #8A9FCD",
":@	c #637ABE",
"<@	c #49579B",
"[@	c #212952",
"}@	c #382A34",
"|@	c #574B4C",
"1@	c #45445E",
"2@	c #77777F",
"3@	c #363D6A",
"4@	c #29346D",
"5@	c #5B6597",
"6@	c #A8ACDB",
"7@	c #B5B4E4",
"8@	c #A2A2D6",
"9@	c #777DBC",
"0@	c #6F79B8",
"a@	c #727CB9",
"b@	c #616EA7",
"c@	c #3B4883",
"d@	c #212B67",
"e@	c #1E1F41",
"f@	c #584034",
"g@	c #A18961",
"h@	c #9B8B6E",
"i@	c #786B63",
"j@	c #9C9A9A",
"k@	c #424870",
"l@	c #252D63",
"m@	c #1F2B64",
"n@	c #344276",
"o@	c #475488",
"p@	c #4B588C",
"q@	c #3D4A7D",
"r@	c #233268",
"s@	c #1C245C",
"t@	c #1C265E",
"u@	c #1C2761",
"v@	c #2C3568",
"w@	c #484459",
"x@	c #664D39",
"y@	c #917852",
"z@	c #A9946B",
"A@	c #8C765E",
"B@	c #756964",
"C@	c #3E446F",
"D@	c #474C72",
"E@	c #292F62",
"F@	c #1D255F",
"G@	c #1C255E",
"H@	c #1C255F",
"I@	c #1D2761",
"J@	c #1D2963",
"K@	c #242D63",
"L@	c #4A5074",
"M@	c #565972",
"N@	c #9E9EA0",
"O@	c #6D605D",
"P@	c #64462E",
"Q@	c #7C613E",
"R@	c #937B54",
"S@	c #675044",
"T@	c #5E4A48",
"U@	c #8B8585",
"V@	c #575A75",
"W@	c #484C6C",
"X@	c #353B63",
"Y@	c #343A63",
"Z@	c #3E4467",
"`@	c #5B5E77",
" #	c #676A80",
".#	c #503832",
"+#	c #5B3E2A",
"@#	c #583D2B",
"##	c #6A4D30",
"$#	c #60422C",
"%#	c #79716F",
"&#	c #8A8383",
"*#	c #422929",
"=#	c #4E3225",
"-#	c #62442B",
";#	c #51382E",
">#	c #8F8888",
",#	c #523F3F",
"'#	c #442823",
")#	c #452B28",
"!#	c #544545",
"                  . + @ # $ %                   ",
"            & * = - ; > , ' ) ! ~ {             ",
"          ] ^ / ( _ : < [ } | 1 2 3 4           ",
"        5 6 7 8 9 0 a b c d e f g h i j         ",
"      k l m n o p q r s t u v w x y z A B       ",
"    C D E F G H I J K L M N O P Q R S T U       ",
"    V W X Y Z `  ...+.@.#.$.%.&.*.=.-.;.>.,.    ",
"  '.).!.~.{.].^./.(._.:.<.[.}.|.1.2.3.4.5.6.    ",
"  7.8.9.0.a.b.c.d.e.f.g.h.i.j.k.l.m.n.o.p.q.    ",
"  r.s.t.u.v.w.x.y.z.A.B.C.D.E.F.G.H.I.J.K.L.    ",
"  M.N.O.P.Q.R.S.T.U.V.W.X.Y.Z.`. +.+++@+#+$+    ",
"  %+&+*+=+-+;+>+,+'+)+!+~+{+]+^+/+(+_+:+<+[+    ",
"  }+|+1+2+3+4+5+6+7+8+9+0+a+b+c+d+e+f+g+h+i+    ",
"  j+k+l+m+n+o+p+q+r+s+t+u+v+w+x+y+z+A+B+C+      ",
"  D+E+F+G+H+I+J+K+L+M+N+O+P+Q+R+S+T+U+V+        ",
"    W+X+Y+Z+`+ @.@+@@@#@$@%@&@*@=@-@;@>@        ",
"    ,@'@)@!@~@{@]@^@/@(@_@:@<@[@}@|@1@2@        ",
"      3@4@5@6@7@8@9@0@a@b@c@d@e@f@g@h@i@j@      ",
"        k@l@m@n@o@p@q@r@s@t@u@v@w@x@y@z@A@B@    ",
"          C@D@E@F@G@H@I@J@K@L@M@N@O@P@Q@R@S@T@U@",
"              V@W@X@Y@Z@`@ #        .#+#@###$#%#",
"                                    &#*#=#-#;#>#",
"                                      ,#'#)#!#  ",
"                                                "};
