/* XPM */
static const char * chart16_xpm[] = {
"24 24 342 2",
"  	c None",
". 	c #95B2BD",
"+ 	c #7BB5CD",
"@ 	c #71B5D1",
"# 	c #71B2D0",
"$ 	c #85AFC2",
"% 	c #9EB6C0",
"& 	c #70A7BE",
"* 	c #9AC3D0",
"= 	c #AACFDD",
"- 	c #D0E9EA",
"; 	c #E6F0F0",
"> 	c #E8F0F0",
", 	c #EAEEEE",
"' 	c #D4EAEB",
") 	c #ADD3E0",
"! 	c #72AEC7",
"~ 	c #629BB4",
"{ 	c #6194AF",
"] 	c #65ACCB",
"^ 	c #B5DBE1",
"/ 	c #DFEAEC",
"( 	c #D9EDEF",
"_ 	c #C3E2E9",
": 	c #C2E2EA",
"< 	c #BBE1E9",
"[ 	c #ADD7E3",
"} 	c #AED7E3",
"| 	c #E0E9EB",
"1 	c #D8E6EA",
"2 	c #8CC2D6",
"3 	c #4494B9",
"4 	c #3E8EBC",
"5 	c #73AECA",
"6 	c #C3E0E9",
"7 	c #D0E3EA",
"8 	c #B1DAE6",
"9 	c #C2E3E9",
"0 	c #E2F0F0",
"a 	c #EDEDED",
"b 	c #E7ECED",
"c 	c #BBDCE7",
"d 	c #7EBCD5",
"e 	c #BADFE7",
"f 	c #E9EDED",
"g 	c #82BFD6",
"h 	c #378AB6",
"i 	c #3E8BB6",
"j 	c #519EC3",
"k 	c #A5C9DE",
"l 	c #C8DBE8",
"m 	c #A3D1E2",
"n 	c #D5E4E9",
"o 	c #CDDEE5",
"p 	c #71B4CE",
"q 	c #B6DBE5",
"r 	c #D3E7EB",
"s 	c #3C92BC",
"t 	c #3A8CB5",
"u 	c #5A8AA4",
"v 	c #6193B3",
"w 	c #8CBED9",
"x 	c #CBD4EB",
"y 	c #88C1DB",
"z 	c #DBE6EA",
"A 	c #B9D4D9",
"B 	c #76B6CE",
"C 	c #D6E4E9",
"D 	c #68ADCF",
"E 	c #3687B6",
"F 	c #4389B2",
"G 	c #4A9EC3",
"H 	c #CDCCED",
"I 	c #88B7D9",
"J 	c #B0D2DA",
"K 	c #7E7E7E",
"L 	c #B6B6B6",
"M 	c #D4D4D4",
"N 	c #979797",
"O 	c #696E6F",
"P 	c #32505D",
"Q 	c #8A9FAB",
"R 	c #A6C9DD",
"S 	c #347BAE",
"T 	c #3684B5",
"U 	c #7D8C97",
"V 	c #5088AF",
"W 	c #82B1D2",
"X 	c #A7AFD5",
"Y 	c #5F8AA8",
"Z 	c #6B7073",
"` 	c #070707",
" .	c #8C8C8C",
"..	c #B8B8B8",
"+.	c #373737",
"@.	c #191919",
"#.	c #131515",
"$.	c #0B1013",
"%.	c #516C7D",
"&.	c #BBD0DC",
"*.	c #326EA2",
"=.	c #3478AE",
"-.	c #55728B",
";.	c #6B97B7",
">.	c #A8BAE0",
",.	c #405B71",
"'.	c #000000",
").	c #DADADA",
"!.	c #282828",
"~.	c #303030",
"{.	c #979E9E",
"].	c #BCDEDF",
"^.	c #8ABED2",
"/.	c #80AECF",
"(.	c #BFCCD7",
"_.	c #316597",
":.	c #306AA0",
"<.	c #43688C",
"[.	c #678CB1",
"}.	c #B7BCE5",
"|.	c #457BA3",
"1.	c #667A85",
"2.	c #7C7C7C",
"3.	c #8B8C8C",
"4.	c #EAEFEF",
"5.	c #E9EEEF",
"6.	c #8F9393",
"7.	c #171818",
"8.	c #8E9C9C",
"9.	c #C0E9EA",
"0.	c #B9E8EA",
"a.	c #84B3C8",
"b.	c #8CA8C9",
"c.	c #ABC1D5",
"d.	c #285187",
"e.	c #2B5790",
"f.	c #3D5B82",
"g.	c #6986AC",
"h.	c #B1B5E3",
"i.	c #567EAE",
"j.	c #B4C8D8",
"k.	c #CCCCCC",
"l.	c #868F8F",
"m.	c #DEF3F3",
"n.	c #D8F2F2",
"o.	c #D4F0F1",
"p.	c #4E5B5B",
"q.	c #111515",
"r.	c #485A5A",
"s.	c #252E2F",
"t.	c #1C2525",
"u.	c #2E3F4A",
"v.	c #939AAD",
"w.	c #7F92B8",
"x.	c #24417A",
"y.	c #284C85",
"z.	c #465877",
"A.	c #657EA4",
"B.	c #AEB3E0",
"C.	c #516F9F",
"D.	c #A6B6CA",
"E.	c #C8CFCF",
"F.	c #7F8F8F",
"G.	c #D3F1F1",
"H.	c #CCEEEF",
"I.	c #C5ECED",
"J.	c #384445",
"K.	c #080A0A",
"L.	c #354445",
"M.	c #405456",
"N.	c #334548",
"O.	c #090C10",
"P.	c #38393C",
"Q.	c #3E4E78",
"R.	c #21356E",
"S.	c #25407B",
"T.	c #63687A",
"U.	c #617295",
"V.	c #A4A9D6",
"W.	c #6678AD",
"X.	c #8198B2",
"Y.	c #BDCFD0",
"Z.	c #798D8E",
"`.	c #C9EEEE",
" +	c #C2EBEC",
".+	c #BBE8EA",
"++	c #394849",
"@+	c #1B2424",
"#+	c #97CACF",
"$+	c #A3DDE1",
"%+	c #6E9AB3",
"&+	c #43495B",
"*+	c #08090B",
"=+	c #16214D",
"-+	c #1E2E66",
";+	c #223269",
">+	c #919197",
",+	c #525F84",
"'+	c #7F89BC",
")+	c #A0A2D1",
"!+	c #61739E",
"~+	c #A7BCC2",
"{+	c #748B8B",
"]+	c #BFEAEB",
"^+	c #B7E7E9",
"/+	c #B1E3E7",
"(+	c #547072",
"_+	c #161E1F",
":+	c #7EAEB2",
"<+	c #8CC6D4",
"[+	c #768AB0",
"}+	c #686877",
"|+	c #06070A",
"1+	c #161C4B",
"2+	c #1D2963",
"3+	c #3C4368",
"4+	c #4D5171",
"5+	c #4B5889",
"6+	c #9A97BA",
"7+	c #464B66",
"8+	c #394656",
"9+	c #3E4D4D",
"0+	c #658183",
"a+	c #769A9C",
"b+	c #A7DEE4",
"c+	c #86B7BD",
"d+	c #151D1E",
"e+	c #202E31",
"f+	c #425466",
"g+	c #5D5B6C",
"h+	c #121319",
"i+	c #0D1123",
"j+	c #192356",
"k+	c #252E62",
"l+	c #383F6F",
"m+	c #404561",
"n+	c #2C3C3E",
"o+	c #9CD9E1",
"p+	c #97D5DF",
"q+	c #638796",
"r+	c #252A33",
"s+	c #070709",
"t+	c #090A0D",
"u+	c #0E1226",
"v+	c #181D48",
"w+	c #212C62",
"x+	c #60657D",
"y+	c #505374",
"z+	c #2C3870",
"A+	c #777FAE",
"B+	c #B3B1DC",
"C+	c #939BC7",
"D+	c #8EA3CA",
"E+	c #97B8D4",
"F+	c #99C1D9",
"G+	c #9FC8E2",
"H+	c #A4C3E3",
"I+	c #AFBAE3",
"J+	c #AEAED9",
"K+	c #757EAD",
"L+	c #20284F",
"M+	c #362932",
"N+	c #574B4C",
"O+	c #45445E",
"P+	c #77777F",
"Q+	c #363D6A",
"R+	c #29346D",
"S+	c #5B6597",
"T+	c #A8ACDB",
"U+	c #BBBAE9",
"V+	c #BEBDE8",
"W+	c #BFC0EA",
"X+	c #BEBEE9",
"Y+	c #B3B4E7",
"Z+	c #868DBF",
"`+	c #4B558A",
" @	c #242E69",
".@	c #1E1F41",
"+@	c #584034",
"@@	c #A18961",
"#@	c #9B8B6E",
"$@	c #786B63",
"%@	c #9D9999",
"&@	c #424870",
"*@	c #252D63",
"=@	c #1F2B64",
"-@	c #344276",
";@	c #475488",
">@	c #4B588C",
",@	c #3D4A7D",
"'@	c #233268",
")@	c #1C245C",
"!@	c #1C265E",
"~@	c #1C2761",
"{@	c #2C3568",
"]@	c #484459",
"^@	c #664D39",
"/@	c #917852",
"(@	c #A9946B",
"_@	c #8C765E",
":@	c #756964",
"<@	c #3E446F",
"[@	c #474C72",
"}@	c #292F62",
"|@	c #1D255F",
"1@	c #1C255E",
"2@	c #1C255F",
"3@	c #1D2761",
"4@	c #242D63",
"5@	c #4A5074",
"6@	c #565972",
"7@	c #9E9EA0",
"8@	c #6D605D",
"9@	c #64462E",
"0@	c #7C613E",
"a@	c #937B54",
"b@	c #675044",
"c@	c #5E4A48",
"d@	c #8B8585",
"e@	c #575A75",
"f@	c #484C6C",
"g@	c #353B63",
"h@	c #343A63",
"i@	c #3E4467",
"j@	c #5B5E77",
"k@	c #676A80",
"l@	c #503832",
"m@	c #5B3E2A",
"n@	c #583D2B",
"o@	c #6A4D30",
"p@	c #60422C",
"q@	c #79716F",
"r@	c #8A8383",
"s@	c #422929",
"t@	c #4E3225",
"u@	c #62442B",
"v@	c #51382E",
"w@	c #8F8888",
"x@	c #513F3F",
"y@	c #442823",
"z@	c #452B28",
"A@	c #544545",
"                  . + @ # $ %                   ",
"            & * = - ; > , ' ) ! ~ {             ",
"          ] ^ / ( _ : < [ } | 1 2 3 4           ",
"        5 6 7 8 9 0 a a b c d e f g h i         ",
"      j k l m n a a a a a a o p q r s t u       ",
"    v w x y z a a a a a a a a A B C D E F       ",
"    G H I J K L a a a a a M N O P Q R S T U     ",
"  V W X Y Z `  .a a a a ..+.@.#.$.%.&.*.=.-.    ",
"  ;.>.,.'.'.'. .a a a ).!.~.{.].^./.(._.:.<.    ",
"  [.}.|.1.2.'.3.4.4.5.6.7.8.9.0.a.b.c.d.e.f.    ",
"  g.h.i.j.k.'.l.m.n.o.p.q.r.s.t.u.v.w.x.y.z.    ",
"  A.B.C.D.E.'.F.G.H.I.J.K.L.M.N.O.P.Q.R.S.T.    ",
"  U.V.W.X.Y.'.Z.`. +.+++@+#+$+%+&+*+=+-+;+>+    ",
"  ,+'+)+!+~+'.{+]+^+/+(+_+:+<+[+}+|+1+2+3+      ",
"  4+5+6+7+8+'.9+0+a+b+c+d+e+f+g+h+i+j+k+        ",
"    l+m+'.'.'.'.'.n+o+p+q+r+s+t+u+v+w+x+        ",
"    y+z+A+B+C+D+E+F+G+H+I+J+K+L+M+N+O+P+        ",
"      Q+R+S+T+U+V+W+X+Y+Z+`+ @.@+@@@#@$@%@      ",
"        &@*@=@-@;@>@,@'@)@!@~@{@]@^@/@(@_@:@    ",
"          <@[@}@|@1@2@3@2+4@5@6@7@8@9@0@a@b@c@d@",
"              e@f@g@h@i@j@k@        l@m@n@o@p@q@",
"                                    r@s@t@u@v@w@",
"                                      x@y@z@A@  ",
"                                                "};
