/* XPM */
static const char * chart4_xpm[] = {
"24 24 349 2",
"  	c None",
". 	c #95B2BD",
"+ 	c #7BB5CD",
"@ 	c #71B5D1",
"# 	c #71B2D0",
"$ 	c #85AFC2",
"% 	c #9EB6C0",
"& 	c #70A7BE",
"* 	c #9AC3D0",
"= 	c #AACFDD",
"- 	c #D0E9EA",
"; 	c #E6F0F0",
"> 	c #E8F0F0",
", 	c #EAEEEE",
"' 	c #D4EAEB",
") 	c #ADD3E0",
"! 	c #72AEC7",
"~ 	c #629BB4",
"{ 	c #6194AF",
"] 	c #65ACCB",
"^ 	c #B5DBE1",
"/ 	c #DFEAEC",
"( 	c #D9EDEF",
"_ 	c #C3E2E9",
": 	c #C2E2EA",
"< 	c #BBE1E9",
"[ 	c #ADD7E3",
"} 	c #AED7E3",
"| 	c #E0E9EB",
"1 	c #D8E6EA",
"2 	c #8CC2D6",
"3 	c #4494B9",
"4 	c #3E8EBC",
"5 	c #73AECA",
"6 	c #C3E0E9",
"7 	c #D0E3EA",
"8 	c #B1DAE6",
"9 	c #C2E3E9",
"0 	c #E2F0F0",
"a 	c #EDEDED",
"b 	c #E7ECED",
"c 	c #BBDCE7",
"d 	c #7EBCD5",
"e 	c #BADFE7",
"f 	c #E9EDED",
"g 	c #82BFD6",
"h 	c #378AB6",
"i 	c #3E8BB6",
"j 	c #519EC3",
"k 	c #A5C9DE",
"l 	c #C8DBE8",
"m 	c #A3D1E2",
"n 	c #D5E4E9",
"o 	c #CDDEE5",
"p 	c #71B4CE",
"q 	c #B6DBE5",
"r 	c #D3E7EB",
"s 	c #3C92BC",
"t 	c #3A8CB5",
"u 	c #5A8AA4",
"v 	c #6193B3",
"w 	c #8CBED9",
"x 	c #CBD4EB",
"y 	c #88C1DB",
"z 	c #DBE6EA",
"A 	c #CECECE",
"B 	c #6E6E6E",
"C 	c #A3A3A3",
"D 	c #B9D4D9",
"E 	c #76B6CE",
"F 	c #D6E4E9",
"G 	c #68ADCF",
"H 	c #3687B6",
"I 	c #4389B2",
"J 	c #4A9EC3",
"K 	c #CDCCED",
"L 	c #88B7D9",
"M 	c #BBDFE7",
"N 	c #D4D4D4",
"O 	c #535353",
"P 	c #020202",
"Q 	c #6B6B6B",
"R 	c #DCE7EA",
"S 	c #70B0CD",
"T 	c #B4D0DF",
"U 	c #A6C9DD",
"V 	c #347BAE",
"W 	c #3684B5",
"X 	c #7D8C97",
"Y 	c #5088AF",
"Z 	c #82B1D2",
"` 	c #B0B8E0",
" .	c #72A5C9",
"..	c #D8E2E8",
"+.	c #DFDFDF",
"@.	c #5F5F5F",
"#.	c #141414",
"$.	c #010101",
"%.	c #DAEDEE",
"&.	c #7DB3CD",
"*.	c #89B7D4",
"=.	c #BBD0DC",
"-.	c #326EA2",
";.	c #3478AE",
">.	c #55728B",
",.	c #6B97B7",
"'.	c #A8BAE0",
").	c #76A8D1",
"!.	c #8CB4CD",
"~.	c #EAEBEC",
"{.	c #EBEBEB",
"].	c #828282",
"^.	c #121212",
"/.	c #757575",
"(.	c #0E0E0E",
"_.	c #E6F1F1",
":.	c #C9EDEE",
"<.	c #8ABED2",
"[.	c #80AECF",
"}.	c #BFCCD7",
"|.	c #316597",
"1.	c #306AA0",
"2.	c #43688C",
"3.	c #678CB1",
"4.	c #B7BCE5",
"5.	c #5496C6",
"6.	c #A8CADC",
"7.	c #E8E8E8",
"8.	c #959696",
"9.	c #1A1B1B",
"0.	c #636565",
"a.	c #D9DEDF",
"b.	c #141515",
"c.	c #686B6C",
"d.	c #D8EEEE",
"e.	c #C2EBEC",
"f.	c #B9E8EA",
"g.	c #84B3C8",
"h.	c #8CA8C9",
"i.	c #ABC1D5",
"j.	c #285187",
"k.	c #2B5790",
"l.	c #3D5B82",
"m.	c #6986AC",
"n.	c #B1B5E3",
"o.	c #567EAE",
"p.	c #B4C8D8",
"q.	c #BEC0C0",
"r.	c #1E2020",
"s.	c #0F1111",
"t.	c #748282",
"u.	c #809192",
"v.	c #0B0D0D",
"w.	c #364141",
"x.	c #728D8E",
"y.	c #B6E5E8",
"z.	c #AEE2E6",
"A.	c #729CB7",
"B.	c #B3BBD3",
"C.	c #8194BA",
"D.	c #24417A",
"E.	c #284C85",
"F.	c #465877",
"G.	c #657EA4",
"H.	c #AEB3E0",
"I.	c #516F9F",
"J.	c #A6B6CA",
"K.	c #E8F0F1",
"L.	c #A2AFAF",
"M.	c #000000",
"N.	c #ACE0E5",
"O.	c #9DD2DB",
"P.	c #6786AD",
"Q.	c #CBCDDB",
"R.	c #465988",
"S.	c #21356E",
"T.	c #25407B",
"U.	c #63687A",
"V.	c #617295",
"W.	c #A4A9D6",
"X.	c #6678AD",
"Y.	c #8198B2",
"Z.	c #DCF0F2",
"`.	c #CEEAEB",
" +	c #BCDADB",
".+	c #B7D9D9",
"++	c #B1D6D7",
"@+	c #AAD3D5",
"#+	c #0E1213",
"$+	c #485D5F",
"%+	c #98CBD0",
"&+	c #A5E0E4",
"*+	c #75A4BF",
"=+	c #8793B7",
"-+	c #B0B8D9",
";+	c #1D2A62",
">+	c #1E2E66",
",+	c #223269",
"'+	c #919197",
")+	c #525F84",
"!+	c #7F89BC",
"~+	c #A0A2D1",
"{+	c #61739E",
"]+	c #C2DAE2",
"^+	c #CCEEEF",
"/+	c #C4ECEC",
"(+	c #BFEAEB",
"_+	c #B7E7E9",
":+	c #B1E3E7",
"<+	c #0F1414",
"[+	c #4A6467",
"}+	c #A0DDE2",
"|+	c #8FCAD8",
"1+	c #7B90B7",
"2+	c #BFBFDA",
"3+	c #606C98",
"4+	c #1C245E",
"5+	c #1D2963",
"6+	c #3C4368",
"7+	c #4D5171",
"8+	c #4B5889",
"9+	c #C0BDE8",
"0+	c #7D86B6",
"a+	c #7792B2",
"b+	c #C8EDEE",
"c+	c #BAE8E9",
"d+	c #B4E5E8",
"e+	c #ADE2E6",
"f+	c #A7DEE4",
"g+	c #0E1314",
"h+	c #466366",
"i+	c #90CEDA",
"j+	c #81A5C8",
"k+	c #C4C1E5",
"l+	c #8C93BD",
"m+	c #273268",
"n+	c #1C2760",
"o+	c #252E62",
"p+	c #383F6F",
"q+	c #767FB2",
"r+	c #BEBDE8",
"s+	c #878FC0",
"t+	c #7999BA",
"u+	c #A6D7DF",
"v+	c #A2DCE3",
"w+	c #9CD9E1",
"x+	c #92CDD7",
"y+	c #8DC1D5",
"z+	c #9EB5DC",
"A+	c #C3C1E9",
"B+	c #7680B0",
"C+	c #242E5F",
"D+	c #1D2457",
"E+	c #222D63",
"F+	c #60657D",
"G+	c #505374",
"H+	c #2D3A73",
"I+	c #7D85B6",
"J+	c #BCBAE6",
"K+	c #9AA2D0",
"L+	c #95ABD4",
"M+	c #9EC1DE",
"N+	c #9EC8E1",
"O+	c #9FC8E2",
"P+	c #A4C3E3",
"Q+	c #B0BBE4",
"R+	c #B3B3E0",
"S+	c #7A84B5",
"T+	c #222A53",
"U+	c #382A34",
"V+	c #574B4C",
"W+	c #45445E",
"X+	c #77777F",
"Y+	c #363D6A",
"Z+	c #29346D",
"`+	c #5B6597",
" @	c #A8ACDB",
".@	c #BBBAE9",
"+@	c #BFC0EA",
"@@	c #BEBEE9",
"#@	c #B3B4E7",
"$@	c #868DBF",
"%@	c #4B558A",
"&@	c #242E69",
"*@	c #1E1F41",
"=@	c #584034",
"-@	c #A18961",
";@	c #9B8B6E",
">@	c #786B63",
",@	c #9D9999",
"'@	c #424870",
")@	c #252D63",
"!@	c #1F2B64",
"~@	c #344276",
"{@	c #475488",
"]@	c #4B588C",
"^@	c #3D4A7D",
"/@	c #233268",
"(@	c #1C245C",
"_@	c #1C265E",
":@	c #1C2761",
"<@	c #2C3568",
"[@	c #484459",
"}@	c #664D39",
"|@	c #917852",
"1@	c #A9946B",
"2@	c #8C765E",
"3@	c #756964",
"4@	c #3E446F",
"5@	c #474C72",
"6@	c #292F62",
"7@	c #1D255F",
"8@	c #1C255E",
"9@	c #1C255F",
"0@	c #1D2761",
"a@	c #242D63",
"b@	c #4A5074",
"c@	c #565972",
"d@	c #9E9EA0",
"e@	c #6D605D",
"f@	c #64462E",
"g@	c #7C613E",
"h@	c #937B54",
"i@	c #675044",
"j@	c #5E4A48",
"k@	c #8B8585",
"l@	c #575A75",
"m@	c #484C6C",
"n@	c #353B63",
"o@	c #343A63",
"p@	c #3E4467",
"q@	c #5B5E77",
"r@	c #676A80",
"s@	c #503832",
"t@	c #5B3E2A",
"u@	c #583D2B",
"v@	c #6A4D30",
"w@	c #60422C",
"x@	c #79716F",
"y@	c #8A8383",
"z@	c #422929",
"A@	c #4E3225",
"B@	c #62442B",
"C@	c #51382E",
"D@	c #8F8888",
"E@	c #513F3F",
"F@	c #442823",
"G@	c #452B28",
"H@	c #544545",
"                  . + @ # $ %                   ",
"            & * = - ; > , ' ) ! ~ {             ",
"          ] ^ / ( _ : < [ } | 1 2 3 4           ",
"        5 6 7 8 9 0 a a b c d e f g h i         ",
"      j k l m n a a a a a a o p q r s t u       ",
"    v w x y z a a a A B C a a D E F G H I       ",
"    J K L M a a a N O P Q a a R S T U V W X     ",
"  Y Z `  ...a a +.@.#.$.Q a a %.&.*.=.-.;.>.    ",
"  ,.'.).!.~.a {.].^./.(.Q a _.:.<.[.}.|.1.2.    ",
"  3.4.5.6.a 7.8.9.0.a.b.c.d.e.f.g.h.i.j.k.l.    ",
"  m.n.o.p.a q.r.s.t.u.v.w.x.y.z.A.B.C.D.E.F.    ",
"  G.H.I.J.K.L.M.M.M.M.M.M.M.N.O.P.Q.R.S.T.U.    ",
"  V.W.X.Y.Z.`. +.+++@+#+$+%+&+*+=+-+;+>+,+'+    ",
"  )+!+~+{+]+^+/+(+_+:+<+[+}+|+1+2+3+4+5+6+      ",
"  7+8+9+0+a+b+c+d+e+f+g+h+i+j+k+l+m+n+o+        ",
"    p+q+r+s+t+u+f+v+w+x+y+z+A+B+C+D+E+F+        ",
"    G+H+I+J+K+L+M+N+O+P+Q+R+S+T+U+V+W+X+        ",
"      Y+Z+`+ @.@r++@@@#@$@%@&@*@=@-@;@>@,@      ",
"        '@)@!@~@{@]@^@/@(@_@:@<@[@}@|@1@2@3@    ",
"          4@5@6@7@8@9@0@5+a@b@c@d@e@f@g@h@i@j@k@",
"              l@m@n@o@p@q@r@        s@t@u@v@w@x@",
"                                    y@z@A@B@C@D@",
"                                      E@F@G@H@  ",
"                                                "};
