/* XPM */
static const char * chart7_xpm[] = {
"24 24 350 2",
"  	c None",
". 	c #95B2BD",
"+ 	c #7BB5CD",
"@ 	c #71B5D1",
"# 	c #71B2D0",
"$ 	c #85AFC2",
"% 	c #9EB6C0",
"& 	c #70A7BE",
"* 	c #9AC3D0",
"= 	c #AACFDD",
"- 	c #D0E9EA",
"; 	c #E6F0F0",
"> 	c #E8F0F0",
", 	c #EAEEEE",
"' 	c #D4EAEB",
") 	c #ADD3E0",
"! 	c #72AEC7",
"~ 	c #629BB4",
"{ 	c #6194AF",
"] 	c #65ACCB",
"^ 	c #B5DBE1",
"/ 	c #DFEAEC",
"( 	c #D9EDEF",
"_ 	c #C3E2E9",
": 	c #C2E2EA",
"< 	c #BBE1E9",
"[ 	c #ADD7E3",
"} 	c #AED7E3",
"| 	c #E0E9EB",
"1 	c #D8E6EA",
"2 	c #8CC2D6",
"3 	c #4494B9",
"4 	c #3E8EBC",
"5 	c #73AECA",
"6 	c #C3E0E9",
"7 	c #D0E3EA",
"8 	c #B1DAE6",
"9 	c #C2E3E9",
"0 	c #E2F0F0",
"a 	c #EDEDED",
"b 	c #E7ECED",
"c 	c #BBDCE7",
"d 	c #7EBCD5",
"e 	c #BADFE7",
"f 	c #E9EDED",
"g 	c #82BFD6",
"h 	c #378AB6",
"i 	c #3E8BB6",
"j 	c #519EC3",
"k 	c #A5C9DE",
"l 	c #C8DBE8",
"m 	c #A3D1E2",
"n 	c #D5E4E9",
"o 	c #CDDEE5",
"p 	c #71B4CE",
"q 	c #B6DBE5",
"r 	c #D3E7EB",
"s 	c #3C92BC",
"t 	c #3A8CB5",
"u 	c #5A8AA4",
"v 	c #6193B3",
"w 	c #8CBED9",
"x 	c #CBD4EB",
"y 	c #88C1DB",
"z 	c #DBE6EA",
"A 	c #C8C8C8",
"B 	c #676767",
"C 	c #B9D4D9",
"D 	c #76B6CE",
"E 	c #D6E4E9",
"F 	c #68ADCF",
"G 	c #3687B6",
"H 	c #4389B2",
"I 	c #4A9EC3",
"J 	c #CDCCED",
"K 	c #88B7D9",
"L 	c #BBDFE7",
"M 	c #B2B2B2",
"N 	c #141414",
"O 	c #0A0A0A",
"P 	c #020202",
"Q 	c #ADADAD",
"R 	c #DCE7EA",
"S 	c #70B0CD",
"T 	c #B4D0DF",
"U 	c #A6C9DD",
"V 	c #347BAE",
"W 	c #3684B5",
"X 	c #7D8C97",
"Y 	c #5088AF",
"Z 	c #82B1D2",
"` 	c #B0B8E0",
" .	c #72A5C9",
"..	c #D8E2E8",
"+.	c #EAEAEA",
"@.	c #565656",
"#.	c #2E2E2E",
"$.	c #DAEDEE",
"%.	c #7DB3CD",
"&.	c #89B7D4",
"*.	c #BBD0DC",
"=.	c #326EA2",
"-.	c #3478AE",
";.	c #55728B",
">.	c #6B97B7",
",.	c #A8BAE0",
"'.	c #76A8D1",
").	c #8CB4CD",
"!.	c #EAEBEC",
"~.	c #BABABA",
"{.	c #1A1A1A",
"].	c #787878",
"^.	c #E0EBEB",
"/.	c #C9EDEE",
"(.	c #8ABED2",
"_.	c #80AECF",
":.	c #BFCCD7",
"<.	c #316597",
"[.	c #306AA0",
"}.	c #43688C",
"|.	c #678CB1",
"1.	c #B7BCE5",
"2.	c #5496C6",
"3.	c #A8CADC",
"4.	c #ECEEEE",
"5.	c #EAEFEF",
"6.	c #DDE1E2",
"7.	c #565959",
"8.	c #28292A",
"9.	c #BCCFCF",
"0.	c #C2EBEC",
"a.	c #B9E8EA",
"b.	c #84B3C8",
"c.	c #8CA8C9",
"d.	c #ABC1D5",
"e.	c #285187",
"f.	c #2B5790",
"g.	c #3D5B82",
"h.	c #6986AC",
"i.	c #B1B5E3",
"j.	c #567EAE",
"k.	c #B4C8D8",
"l.	c #E3F2F2",
"m.	c #DEF3F3",
"n.	c #D7F1F1",
"o.	c #95A9AA",
"p.	c #141818",
"q.	c #6D8383",
"r.	c #BCE9EA",
"s.	c #B6E5E8",
"t.	c #AEE2E6",
"u.	c #729CB7",
"v.	c #B3BBD3",
"w.	c #8194BA",
"x.	c #24417A",
"y.	c #284C85",
"z.	c #465877",
"A.	c #657EA4",
"B.	c #AEB3E0",
"C.	c #516F9F",
"D.	c #A6B6CA",
"E.	c #E8F0F1",
"F.	c #E0F2F2",
"G.	c #D8F2F2",
"H.	c #D3F1F1",
"I.	c #C4E4E5",
"J.	c #455353",
"K.	c #1C2223",
"L.	c #A3CBCE",
"M.	c #B2E4E7",
"N.	c #ACE0E5",
"O.	c #9DD2DB",
"P.	c #6786AD",
"Q.	c #CBCDDB",
"R.	c #465988",
"S.	c #21356E",
"T.	c #25407B",
"U.	c #63687A",
"V.	c #617295",
"W.	c #A4A9D6",
"X.	c #6678AD",
"Y.	c #8198B2",
"Z.	c #DCF0F2",
"`.	c #D3F0F1",
" +	c #CEEFF0",
".+	c #C9EEEE",
"++	c #8FADAD",
"@+	c #0A0C0C",
"#+	c #648082",
"$+	c #ABDEE2",
"%+	c #A7DFE4",
"&+	c #A5E0E4",
"*+	c #75A4BF",
"=+	c #8793B7",
"-+	c #B0B8D9",
";+	c #1D2A62",
">+	c #1E2E66",
",+	c #223269",
"'+	c #919197",
")+	c #525F84",
"!+	c #7F89BC",
"~+	c #A0A2D1",
"{+	c #61739E",
"]+	c #C2DAE2",
"^+	c #CCEEEF",
"/+	c #C4ECEC",
"(+	c #B5DEDF",
"_+	c #364445",
":+	c #273233",
"<+	c #90BFC2",
"[+	c #A4DEE4",
"}+	c #A0DDE2",
"|+	c #8FCAD8",
"1+	c #7B90B7",
"2+	c #BFBFDA",
"3+	c #606C98",
"4+	c #1C245E",
"5+	c #1D2963",
"6+	c #3C4368",
"7+	c #4D5171",
"8+	c #4B5889",
"9+	c #C0BDE8",
"0+	c #7D86B6",
"a+	c #7792B2",
"b+	c #C8EDEE",
"c+	c #BAE8E9",
"d+	c #7B9D9F",
"e+	c #111717",
"f+	c #59777A",
"g+	c #9ED8DF",
"h+	c #9CDAE1",
"i+	c #90CEDA",
"j+	c #81A5C8",
"k+	c #C4C1E5",
"l+	c #8C93BD",
"m+	c #273268",
"n+	c #1C2760",
"o+	c #252E62",
"p+	c #383F6F",
"q+	c #767FB2",
"r+	c #BEBDE8",
"s+	c #878FC0",
"t+	c #7999BA",
"u+	c #A6D7DF",
"v+	c #A4DAE0",
"w+	c #9BD3DA",
"x+	c #99D5DD",
"y+	c #98D6E0",
"z+	c #91C6DB",
"A+	c #9EB5DC",
"B+	c #C3C1E9",
"C+	c #7680B0",
"D+	c #242E5F",
"E+	c #1D2457",
"F+	c #222D63",
"G+	c #60657D",
"H+	c #505374",
"I+	c #2D3A73",
"J+	c #7D85B6",
"K+	c #BCBAE6",
"L+	c #9AA2D0",
"M+	c #95ABD4",
"N+	c #9EC1DE",
"O+	c #9EC8E1",
"P+	c #9FC8E2",
"Q+	c #A4C3E3",
"R+	c #B0BBE4",
"S+	c #B3B3E0",
"T+	c #7A84B5",
"U+	c #222A53",
"V+	c #382A34",
"W+	c #574B4C",
"X+	c #45445E",
"Y+	c #77777F",
"Z+	c #363D6A",
"`+	c #29346D",
" @	c #5B6597",
".@	c #A8ACDB",
"+@	c #BBBAE9",
"@@	c #BFC0EA",
"#@	c #BEBEE9",
"$@	c #B3B4E7",
"%@	c #868DBF",
"&@	c #4B558A",
"*@	c #242E69",
"=@	c #1E1F41",
"-@	c #584034",
";@	c #A18961",
">@	c #9B8B6E",
",@	c #786B63",
"'@	c #9D9999",
")@	c #424870",
"!@	c #252D63",
"~@	c #1F2B64",
"{@	c #344276",
"]@	c #475488",
"^@	c #4B588C",
"/@	c #3D4A7D",
"(@	c #233268",
"_@	c #1C245C",
":@	c #1C265E",
"<@	c #1C2761",
"[@	c #2C3568",
"}@	c #484459",
"|@	c #664D39",
"1@	c #917852",
"2@	c #A9946B",
"3@	c #8C765E",
"4@	c #756964",
"5@	c #3E446F",
"6@	c #474C72",
"7@	c #292F62",
"8@	c #1D255F",
"9@	c #1C255E",
"0@	c #1C255F",
"a@	c #1D2761",
"b@	c #242D63",
"c@	c #4A5074",
"d@	c #565972",
"e@	c #9E9EA0",
"f@	c #6D605D",
"g@	c #64462E",
"h@	c #7C613E",
"i@	c #937B54",
"j@	c #675044",
"k@	c #5E4A48",
"l@	c #8B8585",
"m@	c #575A75",
"n@	c #484C6C",
"o@	c #353B63",
"p@	c #343A63",
"q@	c #3E4467",
"r@	c #5B5E77",
"s@	c #676A80",
"t@	c #503832",
"u@	c #5B3E2A",
"v@	c #583D2B",
"w@	c #6A4D30",
"x@	c #60422C",
"y@	c #79716F",
"z@	c #8A8383",
"A@	c #422929",
"B@	c #4E3225",
"C@	c #62442B",
"D@	c #51382E",
"E@	c #8F8888",
"F@	c #513F3F",
"G@	c #442823",
"H@	c #452B28",
"I@	c #544545",
"                  . + @ # $ %                   ",
"            & * = - ; > , ' ) ! ~ {             ",
"          ] ^ / ( _ : < [ } | 1 2 3 4           ",
"        5 6 7 8 9 0 a a b c d e f g h i         ",
"      j k l m n a a a a a a o p q r s t u       ",
"    v w x y z A B B B B B B A C D E F G H       ",
"    I J K L a M N N N N O P Q R S T U V W X     ",
"  Y Z `  ...a a a a a +.@.#.A $.%.&.*.=.-.;.    ",
"  >.,.'.).!.a a a a a ~.{.].^./.(._.:.<.[.}.    ",
"  |.1.2.3.a a 4.5.5.6.7.8.9.0.a.b.c.d.e.f.g.    ",
"  h.i.j.k.a 4.l.m.n.o.p.q.r.s.t.u.v.w.x.y.z.    ",
"  A.B.C.D.E.F.G.H.I.J.K.L.M.N.O.P.Q.R.S.T.U.    ",
"  V.W.X.Y.Z.`. +.+++@+#+$+%+&+*+=+-+;+>+,+'+    ",
"  )+!+~+{+]+^+/+(+_+:+<+[+}+|+1+2+3+4+5+6+      ",
"  7+8+9+0+a+b+c+d+e+f+g+h+i+j+k+l+m+n+o+        ",
"    p+q+r+s+t+u+v+w+x+y+z+A+B+C+D+E+F+G+        ",
"    H+I+J+K+L+M+N+O+P+Q+R+S+T+U+V+W+X+Y+        ",
"      Z+`+ @.@+@r+@@#@$@%@&@*@=@-@;@>@,@'@      ",
"        )@!@~@{@]@^@/@(@_@:@<@[@}@|@1@2@3@4@    ",
"          5@6@7@8@9@0@a@5+b@c@d@e@f@g@h@i@j@k@l@",
"              m@n@o@p@q@r@s@        t@u@v@w@x@y@",
"                                    z@A@B@C@D@E@",
"                                      F@G@H@I@  ",
"                                                "};
