/* XPM */
static const char * chart24_xpm[] = {
"24 24 332 2",
"  	c None",
". 	c #95B2BD",
"+ 	c #7BB5CD",
"@ 	c #71B5D1",
"# 	c #71B2D0",
"$ 	c #85AFC2",
"% 	c #9EB6C0",
"& 	c #70A7BE",
"* 	c #9AC3D0",
"= 	c #AACFDD",
"- 	c #D0E9EA",
"; 	c #E6F0F0",
"> 	c #E8F0F0",
", 	c #EAEEEE",
"' 	c #D4EAEB",
") 	c #ADD3E0",
"! 	c #72AEC7",
"~ 	c #629BB4",
"{ 	c #6194AF",
"] 	c #65ACCB",
"^ 	c #B5DBE1",
"/ 	c #DFEAEC",
"( 	c #D9EDEF",
"_ 	c #C3E2E9",
": 	c #C2E2EA",
"< 	c #BBE1E9",
"[ 	c #ADD7E3",
"} 	c #AED7E3",
"| 	c #E0E9EB",
"1 	c #D8E6EA",
"2 	c #8CC2D6",
"3 	c #4494B9",
"4 	c #3E8EBC",
"5 	c #73AECA",
"6 	c #C3E0E9",
"7 	c #D0E3EA",
"8 	c #B1DAE6",
"9 	c #C2E3E9",
"0 	c #E2F0F0",
"a 	c #EDEDED",
"b 	c #E7ECED",
"c 	c #BBDCE7",
"d 	c #7EBCD5",
"e 	c #BADFE7",
"f 	c #E9EDED",
"g 	c #82BFD6",
"h 	c #378AB6",
"i 	c #3E8BB6",
"j 	c #519EC3",
"k 	c #A5C9DE",
"l 	c #C8DBE8",
"m 	c #A3D1E2",
"n 	c #D5E4E9",
"o 	c #CDDEE5",
"p 	c #71B4CE",
"q 	c #B6DBE5",
"r 	c #D3E7EB",
"s 	c #3C92BC",
"t 	c #3A8CB5",
"u 	c #5A8AA4",
"v 	c #6193B3",
"w 	c #8CBED9",
"x 	c #CBD4EB",
"y 	c #88C1DB",
"z 	c #DBE6EA",
"A 	c #B9D4D9",
"B 	c #76B6CE",
"C 	c #D6E4E9",
"D 	c #68ADCF",
"E 	c #3687B6",
"F 	c #4389B2",
"G 	c #4696B9",
"H 	c #9797AF",
"I 	c #4A6376",
"J 	c #556569",
"K 	c #787878",
"L 	c #ABABAB",
"M 	c #E5E5E5",
"N 	c #AEB6B9",
"O 	c #304C59",
"P 	c #859AA5",
"Q 	c #A6C9DD",
"R 	c #347BAE",
"S 	c #3684B5",
"T 	c #7D8C97",
"U 	c #5088AF",
"V 	c #688EA8",
"W 	c #16171C",
"X 	c #0C1115",
"Y 	c #131414",
"Z 	c #131313",
"` 	c #181818",
" .	c #848484",
"..	c #ECECEC",
"+.	c #C5C5C5",
"@.	c #2B2F2F",
"#.	c #000000",
"$.	c #4A6373",
"%.	c #BBD0DC",
"&.	c #326EA2",
"*.	c #3478AE",
"=.	c #55728B",
"-.	c #6B97B7",
";.	c #94A4C5",
">.	c #47667F",
",.	c #799CB2",
"'.	c #E3E4E5",
").	c #B8B8B8",
"!.	c #343434",
"~.	c #1B1B1B",
"{.	c #C3C3C3",
"].	c #393C3C",
"^.	c #121515",
"/.	c #455E70",
"(.	c #BFCCD7",
"_.	c #316597",
":.	c #306AA0",
"<.	c #43688C",
"[.	c #678CB1",
"}.	c #B7BCE5",
"|.	c #5496C6",
"1.	c #A8CADC",
"2.	c #E6E6E6",
"3.	c #595A5A",
"4.	c #1E1E1E",
"5.	c #EAEFEF",
"6.	c #E9EEEF",
"7.	c #E7EEEE",
"8.	c #CDD4D5",
"9.	c #454C4C",
"0.	c #131717",
"a.	c #678283",
"b.	c #4C5B6D",
"c.	c #ABC1D5",
"d.	c #285187",
"e.	c #2B5790",
"f.	c #3D5B82",
"g.	c #6986AC",
"h.	c #B1B5E3",
"i.	c #567EAE",
"j.	c #B4C8D8",
"k.	c #BBBDBD",
"l.	c #333737",
"m.	c #6E7979",
"n.	c #D8F2F2",
"o.	c #D4F0F1",
"p.	c #C2E2E2",
"q.	c #435151",
"r.	c #6C888A",
"s.	c #99C7CA",
"t.	c #616573",
"u.	c #8194BA",
"v.	c #24417A",
"w.	c #284C85",
"x.	c #465877",
"y.	c #657EA4",
"z.	c #AEB3E0",
"A.	c #516F9F",
"B.	c #A6B6CA",
"C.	c #C2C9CA",
"D.	c #494F4F",
"E.	c #505A5A",
"F.	c #C0DCDC",
"G.	c #CCEEEF",
"H.	c #C5ECED",
"I.	c #5C7172",
"J.	c #030404",
"K.	c #283334",
"L.	c #617F82",
"M.	c #567479",
"N.	c #434449",
"O.	c #2A3652",
"P.	c #21356E",
"Q.	c #25407B",
"R.	c #63687A",
"S.	c #617295",
"T.	c #A4A9D6",
"U.	c #6678AD",
"V.	c #6B7E94",
"W.	c #414748",
"X.	c #546060",
"Y.	c #B4D1D2",
"Z.	c #C8EDED",
"`.	c #C2EBEC",
" +	c #BBE8EA",
".+	c #313E3F",
"++	c #1E2E66",
"@+	c #223269",
"#+	c #919197",
"$+	c #525F84",
"%+	c #7B84B6",
"&+	c #6A6C8B",
"*+	c #171C27",
"=+	c #677478",
"-+	c #C3E3E4",
";+	c #C4ECEC",
">+	c #BFEAEB",
",+	c #B7E7E9",
"'+	c #B1E3E7",
")+	c #9FD2D6",
"!+	c #95CAD0",
"~+	c #92C9CE",
"{+	c #82B8C5",
"]+	c #667798",
"^+	c #2F354B",
"/+	c #192055",
"(+	c #1D2963",
"_+	c #3C4368",
":+	c #4D5171",
"<+	c #3C476E",
"[+	c #111114",
"}+	c #1E202C",
"|+	c #404F61",
"1+	c #708586",
"2+	c #698383",
"3+	c #658183",
"4+	c #769A9C",
"5+	c #A7DEE4",
"6+	c #A1DCE3",
"7+	c #9CDAE1",
"8+	c #90CEDA",
"9+	c #81A5C8",
"0+	c #B2AFD0",
"a+	c #151B38",
"b+	c #1C2760",
"c+	c #252E62",
"d+	c #2A2F54",
"e+	c #2C3C3E",
"f+	c #9CD9E1",
"g+	c #98D6E0",
"h+	c #91C6DB",
"i+	c #9EB5DC",
"j+	c #C3C1E9",
"k+	c #6B74A0",
"l+	c #0F132F",
"m+	c #222D63",
"n+	c #60657D",
"o+	c #4E5172",
"p+	c #2B376E",
"q+	c #777FAE",
"r+	c #B3B1DC",
"s+	c #939BC7",
"t+	c #8EA3CA",
"u+	c #97B8D4",
"v+	c #99C1D9",
"w+	c #9FC8E2",
"x+	c #A4C3E3",
"y+	c #B0BBE4",
"z+	c #B3B3E0",
"A+	c #7A84B5",
"B+	c #212952",
"C+	c #352831",
"D+	c #55494A",
"E+	c #45445E",
"F+	c #77777F",
"G+	c #363D6A",
"H+	c #29346D",
"I+	c #5B6597",
"J+	c #A8ACDB",
"K+	c #BBBAE9",
"L+	c #BEBDE8",
"M+	c #BFC0EA",
"N+	c #BEBEE9",
"O+	c #B3B4E7",
"P+	c #868DBF",
"Q+	c #4B558A",
"R+	c #242E69",
"S+	c #1E1F41",
"T+	c #584034",
"U+	c #A18961",
"V+	c #9B8B6E",
"W+	c #786B63",
"X+	c #9D9999",
"Y+	c #424870",
"Z+	c #252D63",
"`+	c #1F2B64",
" @	c #344276",
".@	c #475488",
"+@	c #4B588C",
"@@	c #3D4A7D",
"#@	c #233268",
"$@	c #1C245C",
"%@	c #1C265E",
"&@	c #1C2761",
"*@	c #2C3568",
"=@	c #484459",
"-@	c #664D39",
";@	c #917852",
">@	c #A9946B",
",@	c #8C765E",
"'@	c #756964",
")@	c #3E446F",
"!@	c #474C72",
"~@	c #292F62",
"{@	c #1D255F",
"]@	c #1C255E",
"^@	c #1C255F",
"/@	c #1D2761",
"(@	c #242D63",
"_@	c #4A5074",
":@	c #565972",
"<@	c #9E9EA0",
"[@	c #6D605D",
"}@	c #64462E",
"|@	c #7C613E",
"1@	c #937B54",
"2@	c #675044",
"3@	c #5E4A48",
"4@	c #8B8585",
"5@	c #575A75",
"6@	c #484C6C",
"7@	c #353B63",
"8@	c #343A63",
"9@	c #3E4467",
"0@	c #5B5E77",
"a@	c #676A80",
"b@	c #503832",
"c@	c #5B3E2A",
"d@	c #583D2B",
"e@	c #6A4D30",
"f@	c #60422C",
"g@	c #79716F",
"h@	c #8A8383",
"i@	c #422929",
"j@	c #4E3225",
"k@	c #62442B",
"l@	c #51382E",
"m@	c #8F8888",
"n@	c #513F3F",
"o@	c #442823",
"p@	c #452B28",
"q@	c #544545",
"                  . + @ # $ %                   ",
"            & * = - ; > , ' ) ! ~ {             ",
"          ] ^ / ( _ : < [ } | 1 2 3 4           ",
"        5 6 7 8 9 0 a a b c d e f g h i         ",
"      j k l m n a a a a a a o p q r s t u       ",
"    v w x y z a a a a a a a a A B C D E F       ",
"    G H I J K L M a a a a a a N O P Q R S T     ",
"  U V W X Y Z `  .a a a a ..+.@.#.$.%.&.*.=.    ",
"  -.;.>.,.'.).!.~.a a a ..{.].^.#./.(._.:.<.    ",
"  [.}.|.1.a 2.3.4.5.6.7.8.9.0.a.#.b.c.d.e.f.    ",
"  g.h.i.j...k.l.m.n.o.p.q.0.r.s.#.t.u.v.w.x.    ",
"  y.z.A.B.C.D.E.F.G.H.I.J.K.L.M.#.N.O.P.Q.R.    ",
"  S.T.U.V.W.X.Y.Z.`. +.+#.#.#.#.#.#.#.++@+#+    ",
"  $+%+&+*+=+-+;+>+,+'+)+!+~+{+]+#.^+/+(+_+      ",
"  :+<+[+}+|+1+2+3+4+5+6+7+8+9+0+#.a+b+c+        ",
"    d+#.#.#.#.#.#.e+f+g+h+i+j+k+#.l+m+n+        ",
"    o+p+q+r+s+t+u+v+w+x+y+z+A+B+C+D+E+F+        ",
"      G+H+I+J+K+L+M+N+O+P+Q+R+S+T+U+V+W+X+      ",
"        Y+Z+`+ @.@+@@@#@$@%@&@*@=@-@;@>@,@'@    ",
"          )@!@~@{@]@^@/@(+(@_@:@<@[@}@|@1@2@3@4@",
"              5@6@7@8@9@0@a@        b@c@d@e@f@g@",
"                                    h@i@j@k@l@m@",
"                                      n@o@p@q@  ",
"                                                "};
