/* XPM */
static char * chart144_xpm[] = {
"32 32 441 2",
"  	c None",
". 	c #96A1AA",
"+ 	c #689FBC",
"@ 	c #4AA3C8",
"# 	c #47A2C7",
"$ 	c #439DC7",
"% 	c #5CA0C4",
"& 	c #8999A5",
"* 	c #BBBEC1",
"= 	c #A1B3BF",
"- 	c #5E99B4",
"; 	c #6FB6D3",
"> 	c #A8E1E4",
", 	c #D8F2F2",
"' 	c #EDEDED",
") 	c #D5F1F1",
"! 	c #A1DDE3",
"~ 	c #5BAECD",
"{ 	c #458BB3",
"] 	c #638AA3",
"^ 	c #A3ACB1",
"/ 	c #5897B4",
"( 	c #89CBDB",
"_ 	c #E0F4F4",
": 	c #E4F3F4",
"< 	c #E2F4F4",
"[ 	c #B1E0E7",
"} 	c #4AA9C8",
"| 	c #368DB6",
"1 	c #5A8EAC",
"2 	c #A6BFD0",
"3 	c #50A6CA",
"4 	c #C7EDED",
"5 	c #CBECEF",
"6 	c #B4DEE8",
"7 	c #B6DEE8",
"8 	c #ABDAE5",
"9 	c #9DD2E1",
"0 	c #89C7DB",
"a 	c #A9D8E5",
"b 	c #5FB1CF",
"c 	c #3E8EBC",
"d 	c #96B5C8",
"e 	c #4AA0C8",
"f 	c #DDF1F3",
"g 	c #B9DEE9",
"h 	c #A1D4E3",
"i 	c #BAE3EA",
"j 	c #D9F2F3",
"k 	c #CBEAEF",
"l 	c #8AC3DA",
"m 	c #64B0D0",
"n 	c #CBEEEF",
"o 	c #45A1C7",
"p 	c #368AB6",
"q 	c #3D8BB7",
"r 	c #3693B6",
"s 	c #C4DFEC",
"t 	c #A6D2E4",
"u 	c #8FCADD",
"v 	c #99C6D7",
"w 	c #D0F0F0",
"x 	c #ACDAE6",
"y 	c #3687B6",
"z 	c #478AB1",
"A 	c #3E91BC",
"B 	c #A6D0E4",
"C 	c #F4E2F4",
"D 	c #95C6DF",
"E 	c #88BBCC",
"F 	c #409BC6",
"G 	c #DDF3F3",
"H 	c #3690B6",
"I 	c #6D8899",
"J 	c #6193B3",
"K 	c #80C0D8",
"L 	c #F3DDF3",
"M 	c #A1C8E3",
"N 	c #70B9D4",
"O 	c #F2F2E8",
"P 	c #65A5BD",
"Q 	c #78BDD6",
"R 	c #8AC4DC",
"S 	c #3681B6",
"T 	c #3B88B9",
"U 	c #3997BF",
"V 	c #D0D0F0",
"W 	c #CAD1EE",
"X 	c #56A9CC",
"Y 	c #D3F1F1",
"Z 	c #A5D1DF",
"` 	c #3990BD",
" .	c #C4E0EC",
"..	c #3377AB",
"+.	c #3684B6",
"@.	c #87929B",
"#.	c #628DAC",
"$.	c #77B7D5",
"%.	c #EACDEF",
"&.	c #679CCD",
"*.	c #0E1519",
"=.	c #000000",
"-.	c #D9D9D9",
";.	c #121212",
">.	c #347DB0",
",.	c #AED3E6",
"'.	c #3070A2",
").	c #3374AB",
"!.	c #60788C",
"~.	c #3E82B2",
"{.	c #AEC6E6",
"].	c #B7C3E9",
"^.	c #3275A8",
"/.	c #B9D2E1",
"(.	c #5B5B5B",
"_.	c #4386B1",
":.	c #97BFD9",
"<.	c #366D9C",
"[.	c #2F699F",
"}.	c #4A6B8A",
"|.	c #AEB1B8",
"1.	c #3883B8",
"2.	c #D7CEF0",
"3.	c #7DB0D7",
"4.	c #3987B3",
"5.	c #A4A4A4",
"6.	c #929292",
"7.	c #8A9797",
"8.	c #5091BA",
"9.	c #90B7D6",
"0.	c #356795",
"a.	c #2D5E95",
"b.	c #306AA0",
"c.	c #41678D",
"d.	c #848E9C",
"e.	c #4A8EC8",
"f.	c #DECDEF",
"g.	c #5098CA",
"h.	c #5BA6CD",
"i.	c #DEDEDE",
"j.	c #6E6E6E",
"k.	c #627070",
"l.	c #C0EBEC",
"m.	c #BFEBEB",
"n.	c #5183AD",
"o.	c #97B1CF",
"p.	c #E0F1F4",
"q.	c #285286",
"r.	c #2A568C",
"s.	c #2C5A94",
"t.	c #3C5C84",
"u.	c #788190",
"v.	c #588FCC",
"w.	c #D0C4EC",
"x.	c #4A7AB0",
"y.	c #7FABC9",
"z.	c #7A8484",
"A.	c #D6E9E9",
"B.	c #DEF3F4",
"C.	c #CEEFF0",
"D.	c #6A7F80",
"E.	c #B3DFDF",
"F.	c #B9E6E9",
"G.	c #AFE3E7",
"H.	c #436891",
"I.	c #C0CAE4",
"J.	c #BECDE6",
"K.	c #24407A",
"L.	c #274D85",
"M.	c #29538B",
"N.	c #3F567B",
"O.	c #797F8F",
"P.	c #5B89C7",
"Q.	c #CDC2EC",
"R.	c #486A9E",
"S.	c #779CBF",
"T.	c #DBF3F3",
"U.	c #BDEAEB",
"V.	c #3F5887",
"W.	c #F2E8F2",
"X.	c #8496BC",
"Y.	c #21336D",
"Z.	c #25437B",
"`.	c #274783",
" +	c #4D5973",
".+	c #787D8C",
"++	c #4F7BB7",
"@+	c #CDC5ED",
"#+	c #4E6A9C",
"$+	c #56759E",
"%+	c #BCE8EA",
"&+	c #B3E3E7",
"*+	c #AEE3E6",
"=+	c #A8DEE4",
"-+	c #5F8AAF",
";+	c #6C7AA8",
">+	c #435785",
",+	c #1E2D66",
"'+	c #223A72",
")+	c #253F7B",
"!+	c #6A6D7C",
"~+	c #7D808F",
"{+	c #42649C",
"]+	c #CCC7ED",
"^+	c #697CB3",
"/+	c #314E7D",
"(+	c #D1F0F1",
"_+	c #CAEEEE",
":+	c #C5ECED",
"<+	c #B4E5E8",
"[+	c #B1E3E7",
"}+	c #ABE1E5",
"|+	c #A6DDE4",
"1+	c #A6E0E4",
"2+	c #334C7B",
"3+	c #BEC3E4",
"4+	c #C1C7E7",
"5+	c #1D2C63",
"6+	c #1F3169",
"7+	c #919197",
"8+	c #A3A3A9",
"9+	c #25417B",
"0+	c #B6B9E8",
"a+	c #A8ACE0",
"b+	c #203468",
"c+	c #ADC2D7",
"d+	c #C2ECEC",
"e+	c #BCEAEA",
"f+	c #B3E4E7",
"g+	c #ACE2E6",
"h+	c #A9E0E5",
"i+	c #A6DFE4",
"j+	c #A1DCE3",
"k+	c #A3E2E3",
"l+	c #567EA6",
"m+	c #7782B1",
"n+	c #5D6E9F",
"o+	c #1B215B",
"p+	c #1D2861",
"q+	c #1E2B64",
"r+	c #2A3360",
"s+	c #2E3868",
"t+	c #828CC2",
"u+	c #D4CBEF",
"v+	c #6F7AB3",
"w+	c #465D86",
"x+	c #BAE7EA",
"y+	c #9DDCE1",
"z+	c #9DDFE1",
"A+	c #71A6C5",
"B+	c #7B8CB7",
"C+	c #F1DEF4",
"D+	c #A6AED6",
"E+	c #1D2A61",
"F+	c #1C255E",
"G+	c #1C2760",
"H+	c #1F2B67",
"I+	c #616271",
"J+	c #585974",
"K+	c #374A81",
"L+	c #C1BFEB",
"M+	c #C2C0EC",
"N+	c #4F5F91",
"O+	c #6B89AD",
"P+	c #B1E4E7",
"Q+	c #A3DCE3",
"R+	c #9EDAE2",
"S+	c #9BD9E1",
"T+	c #98DCE0",
"U+	c #7EB6D0",
"V+	c #8598C3",
"W+	c #D8CEF0",
"X+	c #C2C6EC",
"Y+	c #2B3F73",
"Z+	c #1B235B",
"`+	c #1E2964",
" @	c #303760",
".@	c #94949C",
"+@	c #1E2864",
"@@	c #727EB4",
"#@	c #CEC8EE",
"$@	c #BAB9E9",
"%@	c #5B6B9F",
"&@	c #6A8AAE",
"*@	c #B3E7E7",
"=@	c #B1E6E7",
"-@	c #9ADAE0",
";@	c #91D3DD",
">@	c #86B7D4",
",@	c #9EACDA",
"'@	c #B0B4E0",
")@	c #32457C",
"!@	c #1C235C",
"~@	c #1D2763",
"{@	c #1D2963",
"]@	c #222C60",
"^@	c #9D9D9D",
"/@	c #292F61",
"(@	c #1F3067",
"_@	c #929BCE",
":@	c #CAC7ED",
"<@	c #C2BFEB",
"[@	c #737FB5",
"}@	c #6B8BB3",
"|@	c #97C7DB",
"1@	c #9DD7E1",
"2@	c #9AD7E0",
"3@	c #97D6DF",
"4@	c #94D3DE",
"5@	c #91C7DD",
"6@	c #91B5D9",
"7@	c #B3B6E7",
"8@	c #D2C8EE",
"9@	c #B0B5E4",
"0@	c #2C3F76",
"a@	c #161C48",
"b@	c #231828",
"c@	c #1A1E3E",
"d@	c #1D255F",
"e@	c #656575",
"f@	c #787888",
"g@	c #1E2866",
"h@	c #1E2D64",
"i@	c #7A85BA",
"j@	c #C7C2EC",
"k@	c #B1B2E7",
"l@	c #A2AADC",
"m@	c #9FB0DD",
"n@	c #A2B9E2",
"o@	c #A6BDE4",
"p@	c #ACBAE6",
"q@	c #B9BCE9",
"r@	c #C7C0EC",
"s@	c #C3C0EC",
"t@	c #848EC0",
"u@	c #243870",
"v@	c #151D45",
"w@	c #381E1E",
"x@	c #715643",
"y@	c #9C8568",
"z@	c #4C4246",
"A@	c #8A8A8A",
"B@	c #484D6E",
"C@	c #1E2A66",
"D@	c #1C255C",
"E@	c #48588A",
"F@	c #969DCE",
"G@	c #BBBAEA",
"H@	c #C8C2EC",
"I@	c #C9C2EC",
"J@	c #C1BCEA",
"K@	c #ADAEE5",
"L@	c #818BBF",
"M@	c #3E4E82",
"N@	c #1C245E",
"O@	c #1C2460",
"P@	c #17214D",
"Q@	c #311D24",
"R@	c #816647",
"S@	c #B39C6B",
"T@	c #BFAC7D",
"U@	c #867260",
"V@	c #655959",
"W@	c #AFAFAF",
"X@	c #525470",
"Y@	c #2C3F74",
"Z@	c #4B5A8B",
"`@	c #5A689C",
" #	c #5D6DA1",
".#	c #556393",
"+#	c #3B4C7F",
"@#	c #1E2F66",
"##	c #1C275E",
"$#	c #1F2B69",
"%#	c #1A2458",
"&#	c #3D292A",
"*#	c #765838",
"=#	c #937B55",
"-#	c #B49F72",
";#	c #B39F79",
">#	c #6F5A4F",
",#	c #726A6A",
"'#	c #7D7D8D",
")#	c #293165",
"!#	c #1D2761",
"~#	c #1B2159",
"{#	c #1B2259",
"]#	c #404464",
"^#	c #97979B",
"/#	c #A6A6A6",
"(#	c #4B3029",
"_#	c #6E5030",
":#	c #7E6540",
"<#	c #98815A",
"[#	c #B6A072",
"}#	c #8B7661",
"|#	c #4F3B3D",
"1#	c #A09C9C",
"2#	c #4E506A",
"3#	c #202A6A",
"4#	c #373C63",
"5#	c #8A8A8E",
"6#	c #7C7878",
"7#	c #503228",
"8#	c #65482B",
"9#	c #735633",
"0#	c #7A5F40",
"a#	c #553C33",
"b#	c #4B2F25",
"c#	c #3F2323",
"d#	c #9E9E9E",
"e#	c #6D6D7D",
"f#	c #3D4163",
"g#	c #3A3F64",
"h#	c #3C4162",
"i#	c #4D5069",
"j#	c #8F8F93",
"k#	c #4D3939",
"l#	c #513427",
"m#	c #593C29",
"n#	c #4A2F24",
"o#	c #6C4E2E",
"p#	c #846436",
"q#	c #4D3027",
"r#	c #828080",
"s#	c #A7A7A7",
"t#	c #3F2423",
"u#	c #3A2020",
"v#	c #583A28",
"w#	c #6F502F",
"x#	c #61432B",
"y#	c #402624",
"z#	c #AEAEAE",
"A#	c #665C5C",
"B#	c #3D2121",
"C#	c #472B23",
"D#	c #432725",
"E#	c #625A5B",
"F#	c #412323",
"G#	c #3D2122",
"H#	c #584E4E",
"                        . + @ # $ % & *                         ",
"                  = - ; > , ' ' ' ) ! ~ { ] ^                   ",
"                / ( _ ' ' ' : < ' ' ' ' [ } | 1                 ",
"            2 3 4 ' ' 5 6 7 6 8 9 0 a ' ' ' b | c               ",
"          d e f ' g h i j ' ' ' ' k l m n ' ' o p q             ",
"          r s ' t u ' ' ' ' ' ' ' ' ' v e w ' x y | z           ",
"        A B C D u ' ' ' ' ' ' ' ' ' ' ' E F G ' o y H I         ",
"      J K L M N ' ' ' ' ' ' ' ' ' ' ' ' O P Q ' R S p T         ",
"      U V W X Y ' ' ' ' ' ' ' ' ' ' ' ' ' Z ` '  ...+.y @.      ",
"    #.$.%.&.*.=.' ' ' ' ' -.;.' ' ' ' -.;.7 >.,.: '.).S !.      ",
"    ~.{.].^./.=.' ' ' ' ' (.=.' ' ' ' (.=.4 _.:.' <.[.).}.      ",
"  |.1.2.3.4.' =.' ' ' ' 5.6.=.' ' ' 5.7.=.4 8.9.' 0.a.b.c.      ",
"  d.e.f.g.h.' =.' ' ' i.j.' =.' ' i.k.l.=.m.n.o.p.q.r.s.t.      ",
"  u.v.w.x.y.' =.' ' : z.A.B.=.) C.D.E.F.=.G.H.I.J.K.L.M.N.      ",
"  O.P.Q.R.S.' =.' < T.=.=.=.=.=.U.=.=.=.=.=.V.W.X.Y.Z.`. +      ",
"  .+++@+#+$+' =.B., ) w n 4 =.%+F.&+*+=+=.-+;+' >+,+'+)+!+      ",
"  ~+{+]+^+/+=.=.=.(+C._+:+l.=.<+[+}+|+1+=.2+3+4+5+,+6+Y.7+      ",
"  8+9+0+a+b+c+_ w n 4 d+e+F.f+g+h+i+j+k+l+m+' n+o+p+q+r+        ",
"    s+t+u+v+w+) n d+%+x+<+*+h+i+j+y+z+A+B+C+D+E+F+G+H+I+        ",
"    J+K+L+M+N+O+n e+<+P+g+=+Q+R+S+T+U+V+W+X+Y+Z+G+`+ @          ",
"    .@+@@@#@$@%@&@*@=@h+i+j+S+-@;@>@,@u+'@)@!@~@{@]@^@          ",
"      /@(@_@:@<@[@}@|@1@2@3@4@5@6@7@8@9@0@a@b@c@d@e@            ",
"      f@g@h@i@j@:@k@l@m@n@o@p@q@r@s@t@u@v@w@x@y@z@A@            ",
"        B@C@D@E@F@G@H@I@I@I@J@K@L@M@N@O@P@Q@R@S@T@U@V@W@        ",
"          X@C@!@G+Y@Z@`@ #.#+#@#!@Z+##G+$#%#&#*#=#-#;#>#,#      ",
"            '#)#!#!@~#~#{#~#Z+D@##G+`+`+]#^#/#(#_#:#<#[#}#|#1#  ",
"                '#2#3#`+`+`+`+C@H+C@4#5#      6#7#8#9#0#a#b#c#d#",
"                    e#2#f#g#h#i#e@j#            k#l#m#n#o#p#q#r#",
"                                                s#t#u#v#w#x#y#z#",
"                                                  A#B#n#C#D#E#  ",
"                                                      F#G#H#    ",
"                                                                "};
