/* XPM */
static const char * chart2_xpm[] = {
"24 24 351 2",
"  	c None",
". 	c #95B2BD",
"+ 	c #7BB5CD",
"@ 	c #71B5D1",
"# 	c #71B2D0",
"$ 	c #85AFC2",
"% 	c #9EB6C0",
"& 	c #70A7BE",
"* 	c #9AC3D0",
"= 	c #AACFDD",
"- 	c #D0E9EA",
"; 	c #E6F0F0",
"> 	c #E8F0F0",
", 	c #EAEEEE",
"' 	c #D4EAEB",
") 	c #ADD3E0",
"! 	c #72AEC7",
"~ 	c #629BB4",
"{ 	c #6194AF",
"] 	c #65ACCB",
"^ 	c #B5DBE1",
"/ 	c #DFEAEC",
"( 	c #D9EDEF",
"_ 	c #C3E2E9",
": 	c #C2E2EA",
"< 	c #BBE1E9",
"[ 	c #ADD7E3",
"} 	c #AED7E3",
"| 	c #E0E9EB",
"1 	c #D8E6EA",
"2 	c #8CC2D6",
"3 	c #4494B9",
"4 	c #3E8EBC",
"5 	c #73AECA",
"6 	c #C3E0E9",
"7 	c #D0E3EA",
"8 	c #B1DAE6",
"9 	c #C2E3E9",
"0 	c #E2F0F0",
"a 	c #EDEDED",
"b 	c #E7ECED",
"c 	c #BBDCE7",
"d 	c #7EBCD5",
"e 	c #BADFE7",
"f 	c #E9EDED",
"g 	c #82BFD6",
"h 	c #378AB6",
"i 	c #3E8BB6",
"j 	c #519EC3",
"k 	c #A5C9DE",
"l 	c #C8DBE8",
"m 	c #A3D1E2",
"n 	c #D5E4E9",
"o 	c #CDDEE5",
"p 	c #71B4CE",
"q 	c #B6DBE5",
"r 	c #D3E7EB",
"s 	c #3C92BC",
"t 	c #3A8CB5",
"u 	c #5A8AA4",
"v 	c #6193B3",
"w 	c #8CBED9",
"x 	c #CBD4EB",
"y 	c #88C1DB",
"z 	c #DBE6EA",
"A 	c #E1E1E1",
"B 	c #ABABAB",
"C 	c #7B7B7B",
"D 	c #6B6B6B",
"E 	c #7F7F7F",
"F 	c #C6C6C6",
"G 	c #B9D4D9",
"H 	c #76B6CE",
"I 	c #D6E4E9",
"J 	c #68ADCF",
"K 	c #3687B6",
"L 	c #4389B2",
"M 	c #4A9EC3",
"N 	c #CDCCED",
"O 	c #88B7D9",
"P 	c #BBDFE7",
"Q 	c #B5B5B5",
"R 	c #1E1E1E",
"S 	c #181818",
"T 	c #141414",
"U 	c #121212",
"V 	c #323232",
"W 	c #BEBEBE",
"X 	c #DCE7EA",
"Y 	c #70B0CD",
"Z 	c #B4D0DF",
"` 	c #A6C9DD",
" .	c #347BAE",
"..	c #3684B5",
"+.	c #7D8C97",
"@.	c #5088AF",
"#.	c #82B1D2",
"$.	c #B0B8E0",
"%.	c #72A5C9",
"&.	c #D8E2E8",
"*.	c #CBCBCB",
"=.	c #969696",
"-.	c #D5D5D5",
";.	c #E4E4E4",
">.	c #9F9F9F",
",.	c #0F0F0F",
"'.	c #777777",
").	c #DAEDEE",
"!.	c #7DB3CD",
"~.	c #89B7D4",
"{.	c #BBD0DC",
"].	c #326EA2",
"^.	c #3478AE",
"/.	c #55728B",
"(.	c #6B97B7",
"_.	c #A8BAE0",
":.	c #76A8D1",
"<.	c #8CB4CD",
"[.	c #EAEBEC",
"}.	c #797979",
"|.	c #E6F1F1",
"1.	c #C9EDEE",
"2.	c #8ABED2",
"3.	c #80AECF",
"4.	c #BFCCD7",
"5.	c #316597",
"6.	c #306AA0",
"7.	c #43688C",
"8.	c #678CB1",
"9.	c #B7BCE5",
"0.	c #5496C6",
"a.	c #A8CADC",
"b.	c #ECEEEE",
"c.	c #EAEFEF",
"d.	c #E6EBEC",
"e.	c #9A9F9F",
"f.	c #28292A",
"g.	c #A6B6B6",
"h.	c #C2EBEC",
"i.	c #B9E8EA",
"j.	c #84B3C8",
"k.	c #8CA8C9",
"l.	c #ABC1D5",
"m.	c #285187",
"n.	c #2B5790",
"o.	c #3D5B82",
"p.	c #6986AC",
"q.	c #B1B5E3",
"r.	c #567EAE",
"s.	c #B4C8D8",
"t.	c #E3F2F2",
"u.	c #DEF3F3",
"v.	c #D5EFEF",
"w.	c #9AAFAF",
"x.	c #303838",
"y.	c #748B8C",
"z.	c #BBE8E9",
"A.	c #B6E5E8",
"B.	c #AEE2E6",
"C.	c #729CB7",
"D.	c #B3BBD3",
"E.	c #8194BA",
"F.	c #24417A",
"G.	c #284C85",
"H.	c #465877",
"I.	c #657EA4",
"J.	c #AEB3E0",
"K.	c #516F9F",
"L.	c #A6B6CA",
"M.	c #E8F0F1",
"N.	c #E0F2F2",
"O.	c #D8F2F2",
"P.	c #D3F1F1",
"Q.	c #9AB4B4",
"R.	c #2F3939",
"S.	c #667D7E",
"T.	c #B2DDE0",
"U.	c #B2E4E7",
"V.	c #ACE0E5",
"W.	c #9DD2DB",
"X.	c #6786AD",
"Y.	c #CBCDDB",
"Z.	c #465988",
"`.	c #21356E",
" +	c #25407B",
".+	c #63687A",
"++	c #617295",
"@+	c #A4A9D6",
"#+	c #6678AD",
"$+	c #8198B2",
"%+	c #DCF0F2",
"&+	c #D3F0F1",
"*+	c #C6E6E7",
"=+	c #7E9595",
"-+	c #7B999B",
";+	c #AFDFE2",
">+	c #A7DFE4",
",+	c #A5E0E4",
"'+	c #75A4BF",
")+	c #8793B7",
"!+	c #B0B8D9",
"~+	c #1D2A62",
"{+	c #1E2E66",
"]+	c #223269",
"^+	c #919197",
"/+	c #525F84",
"(+	c #7F89BC",
"_+	c #A0A2D1",
":+	c #61739E",
"<+	c #C2DAE2",
"[+	c #CCEEEF",
"}+	c #96B5B5",
"|+	c #0E1111",
"1+	c #374647",
"2+	c #638082",
"3+	c #607F81",
"4+	c #5C7D80",
"5+	c #5A7C7F",
"6+	c #7EB2BE",
"7+	c #7B90B7",
"8+	c #BFBFDA",
"9+	c #606C98",
"0+	c #1C245E",
"a+	c #1D2963",
"b+	c #3C4368",
"c+	c #4D5171",
"d+	c #4B5889",
"e+	c #C0BDE8",
"f+	c #7D86B6",
"g+	c #7792B2",
"h+	c #C8EDEE",
"i+	c #86A8A9",
"j+	c #000000",
"k+	c #5D7791",
"l+	c #C4C1E5",
"m+	c #8C93BD",
"n+	c #273268",
"o+	c #1C2760",
"p+	c #252E62",
"q+	c #383F6F",
"r+	c #767FB2",
"s+	c #BEBDE8",
"t+	c #878FC0",
"u+	c #7999BA",
"v+	c #A4D4DC",
"w+	c #9FD4DA",
"x+	c #9BD2D9",
"y+	c #95CFD7",
"z+	c #91CCD6",
"A+	c #8ABDD1",
"B+	c #97ADD2",
"C+	c #C0BEE6",
"D+	c #7680B0",
"E+	c #242E5F",
"F+	c #1D2457",
"G+	c #222D63",
"H+	c #60657D",
"I+	c #505374",
"J+	c #2D3A73",
"K+	c #7D85B6",
"L+	c #BCBAE6",
"M+	c #9AA2D0",
"N+	c #95ABD4",
"O+	c #9EC1DE",
"P+	c #9EC8E1",
"Q+	c #9FC8E2",
"R+	c #A4C3E3",
"S+	c #B0BBE4",
"T+	c #B3B3E0",
"U+	c #7A84B5",
"V+	c #222A53",
"W+	c #382A34",
"X+	c #574B4C",
"Y+	c #45445E",
"Z+	c #77777F",
"`+	c #363D6A",
" @	c #29346D",
".@	c #5B6597",
"+@	c #A8ACDB",
"@@	c #BBBAE9",
"#@	c #BFC0EA",
"$@	c #BEBEE9",
"%@	c #B3B4E7",
"&@	c #868DBF",
"*@	c #4B558A",
"=@	c #242E69",
"-@	c #1E1F41",
";@	c #584034",
">@	c #A18961",
",@	c #9B8B6E",
"'@	c #786B63",
")@	c #9D9999",
"!@	c #424870",
"~@	c #252D63",
"{@	c #1F2B64",
"]@	c #344276",
"^@	c #475488",
"/@	c #4B588C",
"(@	c #3D4A7D",
"_@	c #233268",
":@	c #1C245C",
"<@	c #1C265E",
"[@	c #1C2761",
"}@	c #2C3568",
"|@	c #484459",
"1@	c #664D39",
"2@	c #917852",
"3@	c #A9946B",
"4@	c #8C765E",
"5@	c #756964",
"6@	c #3E446F",
"7@	c #474C72",
"8@	c #292F62",
"9@	c #1D255F",
"0@	c #1C255E",
"a@	c #1C255F",
"b@	c #1D2761",
"c@	c #242D63",
"d@	c #4A5074",
"e@	c #565972",
"f@	c #9E9EA0",
"g@	c #6D605D",
"h@	c #64462E",
"i@	c #7C613E",
"j@	c #937B54",
"k@	c #675044",
"l@	c #5E4A48",
"m@	c #8B8585",
"n@	c #575A75",
"o@	c #484C6C",
"p@	c #353B63",
"q@	c #343A63",
"r@	c #3E4467",
"s@	c #5B5E77",
"t@	c #676A80",
"u@	c #503832",
"v@	c #5B3E2A",
"w@	c #583D2B",
"x@	c #6A4D30",
"y@	c #60422C",
"z@	c #79716F",
"A@	c #8A8383",
"B@	c #422929",
"C@	c #4E3225",
"D@	c #62442B",
"E@	c #51382E",
"F@	c #8F8888",
"G@	c #513F3F",
"H@	c #442823",
"I@	c #452B28",
"J@	c #544545",
"                  . + @ # $ %                   ",
"            & * = - ; > , ' ) ! ~ {             ",
"          ] ^ / ( _ : < [ } | 1 2 3 4           ",
"        5 6 7 8 9 0 a a b c d e f g h i         ",
"      j k l m n a a a a a a o p q r s t u       ",
"    v w x y z A B C D E F a a G H I J K L       ",
"    M N O P a Q R S T U V W a X Y Z `  ...+.    ",
"  @.#.$.%.&.a *.=.-.;.>.,.'.a ).!.~.{.].^./.    ",
"  (._.:.<.[.a a a a a A S }.|.1.2.3.4.5.6.7.    ",
"  8.9.0.a.a a b.c.c.d.e.f.g.h.i.j.k.l.m.n.o.    ",
"  p.q.r.s.a b.t.u.v.w.x.y.z.A.B.C.D.E.F.G.H.    ",
"  I.J.K.L.M.N.O.P.Q.R.S.T.U.V.W.X.Y.Z.`. +.+    ",
"  ++@+#+$+%+&+*+=+R.-+;+B.>+,+'+)+!+~+{+]+^+    ",
"  /+(+_+:+<+[+}+|+1+2+3+4+5+6+7+8+9+0+a+b+      ",
"  c+d+e+f+g+h+i+j+j+j+j+j+j+k+l+m+n+o+p+        ",
"    q+r+s+t+u+v+w+x+y+z+A+B+C+D+E+F+G+H+        ",
"    I+J+K+L+M+N+O+P+Q+R+S+T+U+V+W+X+Y+Z+        ",
"      `+ @.@+@@@s+#@$@%@&@*@=@-@;@>@,@'@)@      ",
"        !@~@{@]@^@/@(@_@:@<@[@}@|@1@2@3@4@5@    ",
"          6@7@8@9@0@a@b@a+c@d@e@f@g@h@i@j@k@l@m@",
"              n@o@p@q@r@s@t@        u@v@w@x@y@z@",
"                                    A@B@C@D@E@F@",
"                                      G@H@I@J@  ",
"                                                "};
