/* XPM */
static const char * close_xpm[] = {
"24 24 188 2",
"  	c None",
". 	c #D13337",
"+ 	c #CF3236",
"@ 	c #D03236",
"# 	c #D43236",
"$ 	c #CE3235",
"% 	c #CC3235",
"& 	c #CB3235",
"* 	c #D23337",
"= 	c #DC3236",
"- 	c #ED3438",
"; 	c #EE4246",
"> 	c #E26A6D",
", 	c #DE7274",
"' 	c #E85256",
") 	c #EE3539",
"! 	c #DB3236",
"~ 	c #CE3236",
"{ 	c #CB3236",
"] 	c #DF393D",
"^ 	c #F2565A",
"/ 	c #EE9D9F",
"( 	c #F4D9D9",
"_ 	c #FBF1F1",
": 	c #FCF4F4",
"< 	c #F8E5E5",
"[ 	c #EBABAD",
"} 	c #EB6D70",
"| 	c #DA3F42",
"1 	c #C33538",
"2 	c #D43337",
"3 	c #E13D42",
"4 	c #F38588",
"5 	c #F2CED0",
"6 	c #F9E8E9",
"7 	c #FAEBEB",
"8 	c #FAEAEB",
"9 	c #F6DBDC",
"0 	c #F29EA1",
"a 	c #DA4A4D",
"b 	c #C13539",
"c 	c #E13C40",
"d 	c #F08F92",
"e 	c #F4D5D6",
"f 	c #F3CCCD",
"g 	c #EEB9BA",
"h 	c #F7DFE0",
"i 	c #F5D5D6",
"j 	c #F4D2D3",
"k 	c #ECA5A6",
"l 	c #DB484C",
"m 	c #CD3235",
"n 	c #DD383C",
"o 	c #F28082",
"p 	c #F2C9CB",
"q 	c #F2C6C7",
"r 	c #F7DFDF",
"s 	c #FFFFFF",
"t 	c #F1C1C2",
"u 	c #F3CCCE",
"v 	c #F4D0D1",
"w 	c #F3CACC",
"x 	c #F4CFD0",
"y 	c #F2C9CA",
"z 	c #EE9C9E",
"A 	c #D94144",
"B 	c #C73337",
"C 	c #EC575B",
"D 	c #ECB3B5",
"E 	c #F1C3C4",
"F 	c #FDF4F4",
"G 	c #F2C6C8",
"H 	c #F0C0C2",
"I 	c #F0BEBF",
"J 	c #F3CDCE",
"K 	c #EFBDBE",
"L 	c #E67275",
"M 	c #CD3236",
"N 	c #E88A8C",
"O 	c #EDB5B7",
"P 	c #EEB6B8",
"Q 	c #F0BDBE",
"R 	c #EDB4B6",
"S 	c #FEFAFA",
"T 	c #FAECEC",
"U 	c #E18C8E",
"V 	c #C43336",
"W 	c #EB373B",
"X 	c #E9A1A3",
"Y 	c #EAA6A8",
"Z 	c #FCF3F3",
"` 	c #F9E7E7",
" .	c #F05A5E",
"..	c #FF3B40",
"+.	c #C83235",
"@.	c #E94B4F",
"#.	c #E7989A",
"$.	c #EDB0B2",
"%.	c #FCF1F2",
"&.	c #FAD8D9",
"*.	c #EA8184",
"=.	c #FF3C41",
"-.	c #FF3C40",
";.	c #F3383D",
">.	c #E6595D",
",.	c #E48A8C",
"'.	c #E69092",
").	c #E69294",
"!.	c #EBA6A8",
"~.	c #FFDBDC",
"{.	c #FD5A5E",
"].	c #FA474B",
"^.	c #FF3D42",
"/.	c #F6393E",
"(.	c #D23236",
"_.	c #EA5054",
":.	c #E67478",
"<.	c #E78284",
"[.	c #E88689",
"}.	c #EA8284",
"|.	c #EB787B",
"1.	c #F5A7A9",
"2.	c #FF6165",
"3.	c #D13236",
"4.	c #EF4145",
"5.	c #F4575B",
"6.	c #F84D52",
"7.	c #FE878A",
"8.	c #FFE7E7",
"9.	c #FF6D71",
"0.	c #FF3E44",
"a.	c #F33A3E",
"b.	c #FC464A",
"c.	c #FD8C8E",
"d.	c #FFF4F4",
"e.	c #FF3E43",
"f.	c #FF4045",
"g.	c #FF4146",
"h.	c #C73235",
"i.	c #FE464B",
"j.	c #FE474C",
"k.	c #FF9699",
"l.	c #FF6468",
"m.	c #C03437",
"n.	c #F1484C",
"o.	c #F6565A",
"p.	c #FCD7D8",
"q.	c #F8666A",
"r.	c #F84E52",
"s.	c #F87F82",
"t.	c #FDEBEC",
"u.	c #FDD5D6",
"v.	c #CC3236",
"w.	c #D93F42",
"x.	c #ED6467",
"y.	c #EC6A6D",
"z.	c #F3ADAF",
"A.	c #FBE4E4",
"B.	c #EE7E80",
"C.	c #EE888A",
"D.	c #C23539",
"E.	c #CC3337",
"F.	c #D85053",
"G.	c #E3787A",
"H.	c #E57D80",
"I.	c #EFAFB1",
"J.	c #F9E0E1",
"K.	c #EA9698",
"L.	c #CB3337",
"M.	c #CD3639",
"N.	c #D65558",
"O.	c #E38386",
"P.	c #E7878A",
"Q.	c #CB3639",
"R.	c #CC3437",
"S.	c #D44D50",
"T.	c #E27A7C",
"U.	c #E78F92",
"V.	c #E89092",
"W.	c #CB3437",
"X.	c #CC3539",
"Y.	c #D3494C",
"Z.	c #D67274",
"`.	c #E17F81",
" +	c #E38587",
".+	c #CB3539",
"++	c #CA3539",
"@+	c #CC4043",
"                                                ",
"                . + @ # # $ % &                 ",
"            * * = - ; > , ' ) ! ~ {             ",
"          * ] ^ / ( _ : : : < [ } | $ 1         ",
"        2 3 4 5 6 7 7 7 7 8 8 8 9 0 a $ b       ",
"      * c d e f g h h h h h h i g j k l m       ",
"    + n o p q r s t u v v v w x s x y z A B     ",
"    + C D E h s s F G H E I J s s s v K L M     ",
"  % ! N O P s s s s : Q R f S s s s T [ U ! V   ",
"  % W X Y Y P Z s s s s x s s s s `  .....- +.  ",
"  $ @.#.#.#.#.$.%.s s s s s s s &.*.=.-...;.{   ",
"  # >.,.,.'.).).!.s s s s s s ~.{.].^.=.../.(.  ",
"  # _.:.:.<.[.}.|.1.s s s s s 2.^.^.^.^.=./.3.  ",
"  $ 4.5.5.5.5.6.7.s s s s s s 8.9.^.^.^.0.a.{   ",
"  % ) b.b.b.b.c.d.s s s s s s s 8.2.e.f.g.) h.  ",
"  & = i.j.j.k.s s s s ~.2.8.s s s s l.j.i.= m.  ",
"    ~ n.o.o.s s s s p.q.r.s.t.s s s u.o.n.v.    ",
"    { w.x.y.z.s s A.B.y.y.y.C.s s s C.x.w.D.    ",
"      E.F.G.H.I.J.H.H.H.H.H.H.K.J.K.G.F.L.      ",
"        M.N.O.P.P.P.P.P.P.P.P.P.P.O.N.Q.        ",
"          R.S.T.U.V.V.V.V.V.V.U.T.S.W.          ",
"            B X.Y.Z.`. + +`.Z.Y..+D.            ",
"                V +.++@+@+++h.m.                ",
"                                                "};
