/* XPM */
static const char * config_xpm[] = {
"24 24 109 2",
"  	c None",
". 	c #9C9C9C",
"+ 	c #B5B5B5",
"@ 	c #C0C0C0",
"# 	c #BDBDBD",
"$ 	c #898989",
"% 	c #949494",
"& 	c #D0D0D0",
"* 	c #F7F7F7",
"= 	c #FBFBFB",
"- 	c #F1F1F1",
"; 	c #CCCCCC",
"> 	c #6A6A6A",
", 	c #828282",
"' 	c #E3E3E3",
") 	c #FDFDFD",
"! 	c #FCFCFC",
"~ 	c #F0F0F0",
"{ 	c #BABABA",
"] 	c #6C6C6C",
"^ 	c #E1E1E1",
"/ 	c #FEFEFE",
"( 	c #F6F6F6",
"_ 	c #C5C5C5",
": 	c #5F5F5F",
"< 	c #F4F4F4",
"[ 	c #A7A7A7",
"} 	c #CECECE",
"| 	c #EAEAEA",
"1 	c #A3A3A3",
"2 	c #757575",
"3 	c #7A7A7A",
"4 	c #D5D5D5",
"5 	c #EFEFEF",
"6 	c #E9E9E9",
"7 	c #9D9D9D",
"8 	c #909090",
"9 	c #DDDDDD",
"0 	c #CFCFCF",
"a 	c #7C7C7C",
"b 	c #ACACAC",
"c 	c #888888",
"d 	c #C1C1C1",
"e 	c #D7D7D7",
"f 	c #D1D1D1",
"g 	c #C4C4C4",
"h 	c #AFAFAF",
"i 	c #9E9E9E",
"j 	c #A1A1A1",
"k 	c #A6A6A6",
"l 	c #A4A4A4",
"m 	c #D2D2D2",
"n 	c #DCDCDC",
"o 	c #D6D6D6",
"p 	c #CACACA",
"q 	c #BEBEBE",
"r 	c #B7B7B7",
"s 	c #B1B1B1",
"t 	c #939393",
"u 	c #5E5E5E",
"v 	c #A9A9A9",
"w 	c #CBCBCB",
"x 	c #B8B8B8",
"y 	c #999999",
"z 	c #797979",
"A 	c #ABABAB",
"B 	c #AEAEAE",
"C 	c #CDCDCD",
"D 	c #B2B2B2",
"E 	c #7F7F7F",
"F 	c #545454",
"G 	c #ADADAD",
"H 	c #C6C6C6",
"I 	c #BFBFBF",
"J 	c #C9C9C9",
"K 	c #8C8C8C",
"L 	c #777777",
"M 	c #4C4C4C",
"N 	c #C8C8C8",
"O 	c #D4D4D4",
"P 	c #C2C2C2",
"Q 	c #9B9B9B",
"R 	c #838383",
"S 	c #868686",
"T 	c #727272",
"U 	c #606060",
"V 	c #A8A8A8",
"W 	c #D8D8D8",
"X 	c #686868",
"Y 	c #DADADA",
"Z 	c #DBDBDB",
"` 	c #9F9F9F",
" .	c #D9D9D9",
"..	c #D3D3D3",
"+.	c #A0A0A0",
"@.	c #6E6E6E",
"#.	c #E0E0E0",
"$.	c #656565",
"%.	c #E6E6E6",
"&.	c #DEDEDE",
"*.	c #A2A2A2",
"=.	c #717171",
"-.	c #E2E2E2",
";.	c #E7E7E7",
">.	c #707070",
",.	c #C3C3C3",
"'.	c #5C5C5C",
").	c #B0B0B0",
"!.	c #989898",
"                            . + @ # $           ",
"                        % & * = - ; >           ",
"                      , ' ) ! ~ { ]             ",
"                      ^ / ! ( _ :               ",
"                    + < = ( ~ [                 ",
"                    } = ( ~ | 1             2 3 ",
"                    4 ( 5 6 ' #           3 7 8 ",
"                    } ~ 6 ' 9 0 7       a 7 b c ",
"                    d | ' 9 e f g h i j k b l 3 ",
"                  [ m ' n o & p g q r s b l t u ",
"                v ; } o o & w g q x s b k y z   ",
"              A g r q B C w g q x D A k . E F   ",
"            G H I n o J I # s s b k 7 K L M     ",
"          [ J N e o & O P Q 3 R S , T U         ",
"        V w p W e & O } 7 X                     ",
"      G f f n o f 4 p i :                       ",
"    G 4 Y Z o f W ; ` ]                         ",
"  B 4 9 Z o &  ...+.@.                          ",
"B Y #.n 4 f n 0 j $.                            ",
"d %.&.4 m #.m *.=.                              ",
"_ -.;.Y -.4 *.>.                                ",
"V w ..W ,.i '.                                  ",
"  j ).A !.>                                     ",
"                                                "};
