/* XPM */
static const char * copy_xpm[] = {
"24 24 146 2",
"  	c None",
". 	c #C1C1C1",
"+ 	c #A7A7A7",
"@ 	c #CBCBCB",
"# 	c #EAEAEA",
"$ 	c #E7E7E7",
"% 	c #DCDCDC",
"& 	c #A0A0A0",
"* 	c #727272",
"= 	c #CFCFCF",
"- 	c #FBFBFB",
"; 	c #FFFFFF",
"> 	c #FEFEFE",
", 	c #F8F8F8",
"' 	c #B8B8B8",
") 	c #D8D8D8",
"! 	c #7A7A7A",
"~ 	c #F7F7F7",
"{ 	c #999999",
"] 	c #C3C3C3",
"^ 	c #898989",
"/ 	c #2E2E2E",
"( 	c #FDFDFD",
"_ 	c #FAFAFA",
": 	c #CCCCCC",
"< 	c #868686",
"[ 	c #2D2D2D",
"} 	c #FCFCFC",
"| 	c #F4F4F4",
"1 	c #EBEBEB",
"2 	c #C8C8C8",
"3 	c #2C2C2C",
"4 	c #E6E6E6",
"5 	c #D6D6D6",
"6 	c #C2C2C2",
"7 	c #7D7D7D",
"8 	c #9B9B9B",
"9 	c #B3B3B3",
"0 	c #B7B7B7",
"a 	c #7C7C7C",
"b 	c #D0D0D0",
"c 	c #E4E4E4",
"d 	c #959595",
"e 	c #666666",
"f 	c #ECECEC",
"g 	c #E8E8E8",
"h 	c #ECF4EC",
"i 	c #D8E8D8",
"j 	c #F6F6F6",
"k 	c #C6C6C6",
"l 	c #636363",
"m 	c #D1D1D1",
"n 	c #B2D1B2",
"o 	c #9CC59C",
"p 	c #AEC6AE",
"q 	c #ACACAC",
"r 	c #B6B6B6",
"s 	c #6E6E6E",
"t 	c #3E3E3E",
"u 	c #9F9F9F",
"v 	c #B1D0B1",
"w 	c #AEDBAE",
"x 	c #C1DBC1",
"y 	c #C6DDC6",
"z 	c #EEEEEE",
"A 	c #A8A8A8",
"B 	c #656565",
"C 	c #3A3A3A",
"D 	c #CECECE",
"E 	c #F0F0F0",
"F 	c #AAC9AA",
"G 	c #94D394",
"H 	c #C6EDC6",
"I 	c #BEDABE",
"J 	c #C5DDC5",
"K 	c #8A8A8A",
"L 	c #343434",
"M 	c #BEBEBE",
"N 	c #D4D4D4",
"O 	c #D9D9D9",
"P 	c #9DBC9D",
"Q 	c #9AD39A",
"R 	c #C1EAC1",
"S 	c #DBF3DB",
"T 	c #BDDABD",
"U 	c #C5DCC5",
"V 	c #F5F5F5",
"W 	c #D5D5D5",
"X 	c #BDBDBD",
"Y 	c #B5B5B5",
"Z 	c #333333",
"` 	c #757575",
" .	c #606060",
"..	c #585858",
"+.	c #555555",
"@.	c #536E53",
"#.	c #64A664",
"$.	c #78C078",
"%.	c #7EC67E",
"&.	c #6E956E",
"*.	c #B1BCB1",
"=.	c #F9F9F9",
"-.	c #D7D7D7",
";.	c #CDCDCD",
">.	c #DADADA",
",.	c #989898",
"'.	c #2A482A",
").	c #447D44",
"!.	c #4F974F",
"~.	c #508050",
"{.	c #9FA69F",
"].	c #EFEFEF",
"^.	c #949494",
"/.	c #2D4B2D",
"(.	c #407040",
"_.	c #4A764A",
":.	c #949D94",
"<.	c #CACACA",
"[.	c #AAAAAA",
"}.	c #A2A2A2",
"|.	c #C5C5C5",
"1.	c #929292",
"2.	c #2E482E",
"3.	c #345434",
"4.	c #909890",
"5.	c #E0E0E0",
"6.	c #D3D3D3",
"7.	c #BFBFBF",
"8.	c #F2F2F2",
"9.	c #919191",
"0.	c #848484",
"a.	c #BBBBBB",
"b.	c #8F8F8F",
"c.	c #C9C9C9",
"d.	c #E2E2E2",
"e.	c #DFDFDF",
"f.	c #7E7E7E",
"g.	c #9E9E9E",
"h.	c #858585",
"i.	c #747474",
"j.	c #686868",
"k.	c #626262",
"l.	c #5F5F5F",
"m.	c #5D5D5D",
"n.	c #5B5B5B",
"o.	c #4E4E4E",
"                                                ",
"      . . . . . . +                             ",
"      @ # # # $ % & *                           ",
"      = - ; ; > , ' ) !                         ",
"      = - ; ; > ~ { ] ^ /                       ",
"      = - ; > ( _ : ' < [                       ",
"      = } ; > } - | 1 2 3                       ",
"      = - ; ; ( } 4 5 6 7 8 9 0 a               ",
"      = - ; ; > - b 4 c c c c . d e             ",
"      = f g ; h i = ( ; ; ( j = = k l           ",
"      = % m ; n o p ; ; ; > } ) q r s t         ",
"      = @ u b v w x y ; > } ( z ] A B C         ",
"      D | ~ E F G H I J > _ - _ | # K L         ",
"      M N O 5 P Q R S T U V W X Y N { Z         ",
"      `  ...+.@.#.$.%.&.*.=.g -.;.>.,.Z         ",
"              '.).!.~.{.].1 ] ^.^ . ^.Z         ",
"              /.(._.:.c c <.9 [.}.|.1.Z         ",
"              2.3.4.-., ].5.6.<.7.: 1.Z         ",
"                  = ~ 8.W q 9.^ 0.a.b.Z         ",
"                  c.d.e.-.= 2 ] M 0 f.Z         ",
"                  g.h.i.j.k. .l.m.n.o.Z         ",
"                                                ",
"                                                ",
"                                                "};
