/* XPM */
static const char * dasatree2_xpm[] = {
"24 24 101 2",
"  	c None",
". 	c #E4EB30",
"+ 	c #FFD804",
"@ 	c #F1F072",
"# 	c #DAE439",
"$ 	c #FFD30B",
"% 	c #FDED6A",
"& 	c #F7F891",
"* 	c #DCE251",
"= 	c #FFC80B",
"- 	c #FFDF4D",
"; 	c #FFE56D",
"> 	c #FDF79B",
", 	c #EBDC38",
"' 	c #FFCC02",
") 	c #FFDC3D",
"! 	c #FFDD54",
"~ 	c #FFE466",
"{ 	c #FFF6B1",
"] 	c #FACD00",
"^ 	c #FFD720",
"/ 	c #FFD739",
"( 	c #FFD851",
"_ 	c #FFE16B",
": 	c #FDF594",
"< 	c #ECDA3F",
"[ 	c #E8C400",
"} 	c #FFC90F",
"| 	c #FFCF29",
"1 	c #FFD239",
"2 	c #FFE156",
"3 	c #FEF077",
"4 	c #F9F114",
"5 	c #CCB600",
"6 	c #FAD300",
"7 	c #FFCA14",
"8 	c #FFDC1F",
"9 	c #FFDD24",
"0 	c #FFE641",
"a 	c #FFEC52",
"b 	c #FAF577",
"c 	c #EBFA00",
"d 	c #B8A800",
"e 	c #EAC600",
"f 	c #FFE012",
"g 	c #FFE612",
"h 	c #FFE224",
"i 	c #FAEF41",
"j 	c #F8EA4B",
"k 	c #E4EC65",
"l 	c #E2F50C",
"m 	c #A29C00",
"n 	c #D8BC00",
"o 	c #F8D200",
"p 	c #FFD802",
"q 	c #FFE409",
"r 	c #FFEB10",
"s 	c #FFEC22",
"t 	c #F5EA42",
"u 	c #F0F819",
"v 	c #C5D200",
"w 	c #818A00",
"x 	c #BEB200",
"y 	c #E0C800",
"z 	c #F0D600",
"A 	c #F2D800",
"B 	c #EEE500",
"C 	c #FCF300",
"D 	c #F2E900",
"E 	c #909A00",
"F 	c #607800",
"G 	c #96A400",
"H 	c #C4B800",
"I 	c #CFD200",
"J 	c #C5C800",
"K 	c #9BAE00",
"L 	c #8D9E00",
"M 	c #4B7200",
"N 	c #6B8A00",
"O 	c #A2A800",
"P 	c #A5B400",
"Q 	c #99AC00",
"R 	c #618600",
"S 	c #417000",
"T 	c #376600",
"U 	c #5D8000",
"V 	c #7B9200",
"W 	c #748E00",
"X 	c #497800",
"Y 	c #2D6600",
"Z 	c #2E6800",
"` 	c #507A00",
" .	c #608400",
"..	c #437800",
"+.	c #276A00",
"@.	c #357200",
"#.	c #407800",
"$.	c #267400",
"%.	c #247000",
"&.	c #247600",
"*.	c #247800",
"                                                ",
"                                                ",
"                .                               ",
"              + @ #                             ",
"              $ % & *                           ",
"              = - ; > ,                         ",
"              ' ) ! ~ { ,                       ",
"              ] ^ / ( _ : <                     ",
"              [ } | 1 2 _ 3 4                   ",
"              5 6 7 8 9 0 a b c                 ",
"              d e + f g h i j k l               ",
"              m n o p q r s t u v               ",
"              w x y z A B C D E                 ",
"              F G H I I J K L                   ",
"              M N O P Q R S                     ",
"              T U V W X Y                       ",
"              Z `  ...Z                         ",
"              +.@.#.$.                          ",
"              %.&.*.                            ",
"                *.                              ",
"                                                ",
"                                                ",
"                                                ",
"                                                "};
