/* XPM */
static const char * dasatree2e_xpm[] = {
"24 24 100 2",
"  	c None",
". 	c #FCE100",
"+ 	c #FFD306",
"@ 	c #FFD30B",
"# 	c #FED100",
"$ 	c #F4C800",
"% 	c #DEBC00",
"& 	c #CCB600",
"* 	c #B2AB00",
"= 	c #9EA000",
"- 	c #7A8600",
"; 	c #577400",
"> 	c #406A00",
", 	c #376600",
"' 	c #2E6800",
") 	c #276A00",
"! 	c #207200",
"~ 	c #E3E146",
"{ 	c #F4F279",
"] 	c #FFED5B",
"^ 	c #FFDF4B",
"/ 	c #FFDB36",
"( 	c #FFCC1F",
"_ 	c #FFC809",
": 	c #F6CA00",
"< 	c #E8C400",
"[ 	c #D0B900",
"} 	c #B5B800",
"| 	c #8FA000",
"1 	c #5E8200",
"2 	c #5B7E00",
"3 	c #497800",
"4 	c #357200",
"5 	c #277800",
"6 	c #D3E063",
"7 	c #FFF484",
"8 	c #FFE362",
"9 	c #FFDF4F",
"0 	c #FFD134",
"a 	c #FFD720",
"b 	c #FFD410",
"c 	c #FFD202",
"d 	c #F0D000",
"e 	c #DCC400",
"f 	c #C0B900",
"g 	c #769000",
"h 	c #608000",
"i 	c #337400",
"j 	c #144800",
"k 	c #E1E263",
"l 	c #FFF29B",
"m 	c #FFDF62",
"n 	c #FFDA2F",
"o 	c #FFE11D",
"p 	c #FFDA0F",
"q 	c #FEDD00",
"r 	c #EAD600",
"s 	c #CEC600",
"t 	c #98AA00",
"u 	c #648A00",
"v 	c #397400",
"w 	c #0F4000",
"x 	c #EBE064",
"y 	c #FFE16B",
"z 	c #FFDE46",
"A 	c #FFE012",
"B 	c #FFE402",
"C 	c #CCC400",
"D 	c #869A00",
"E 	c #407200",
"F 	c #1A3E00",
"G 	c #E5E368",
"H 	c #FFEA89",
"I 	c #FFE65D",
"J 	c #FFE539",
"K 	c #FFEC20",
"L 	c #FFF006",
"M 	c #E8DF00",
"N 	c #BBBE00",
"O 	c #3A6C00",
"P 	c #143400",
"Q 	c #E9D54C",
"R 	c #FFEA79",
"S 	c #FFEC4F",
"T 	c #F8ED3D",
"U 	c #FFFC19",
"V 	c #EEE500",
"W 	c #879C00",
"X 	c #E8E643",
"Y 	c #F9F16A",
"Z 	c #F8EA4B",
"` 	c #F5EE34",
" .	c #C3D000",
"..	c #405000",
"+.	c #D8E72A",
"@.	c #ECF162",
"#.	c #BFD600",
"$.	c #2D4000",
"%.	c #D4EA21",
"&.	c #334400",
"                                                ",
"                                                ",
"                                                ",
"                                                ",
"                                                ",
"                                                ",
"                                                ",
"      . + @ + # $ % & * = - ; > , ' ) !         ",
"      ~ { ] ^ / ( _ : < [ } | 1 2 3 4 5         ",
"        6 7 8 9 0 a b c d e f | g h i j         ",
"          k l m ^ n o p q r s t u v w           ",
"            x l y z a A B r C D E F             ",
"              G H I J K L M N O P               ",
"                Q R S T U V W P                 ",
"                  X Y Z `  ...                  ",
"                    +.@.#.$.                    ",
"                      %.&.                      ",
"                                                ",
"                                                ",
"                                                ",
"                                                ",
"                                                ",
"                                                ",
"                                                "};
