/* XPM */
static const char * dasatree4e_xpm[] = {
"24 24 105 2",
"  	c None",
". 	c #3F97C4",
"+ 	c #42A3CB",
"@ 	c #41A9D0",
"# 	c #3AADD3",
"$ 	c #33A7D2",
"% 	c #2B9ECE",
"& 	c #1D8CC6",
"* 	c #1479B9",
"= 	c #1065A7",
"- 	c #105290",
"; 	c #123E79",
"> 	c #122667",
", 	c #13165C",
"' 	c #171259",
") 	c #20135A",
"! 	c #23125D",
"~ 	c #2B1166",
"{ 	c #6A96C7",
"] 	c #96BDDF",
"^ 	c #78C5E9",
"/ 	c #62CCEF",
"( 	c #4CC8F1",
"_ 	c #32C2F1",
": 	c #24B4E9",
"< 	c #1FA0DC",
"[ 	c #1E93CF",
"} 	c #197DBC",
"| 	c #1661A7",
"1 	c #16468F",
"2 	c #122975",
"3 	c #122271",
"4 	c #12186B",
"5 	c #1F1265",
"6 	c #2C116A",
"7 	c #839AC8",
"8 	c #9ECCED",
"9 	c #71D7F8",
"0 	c #5BD6FA",
"a 	c #40D1FB",
"b 	c #2FC6F8",
"c 	c #2AB8ED",
"d 	c #27ABE2",
"e 	c #2297D3",
"f 	c #1E83C3",
"g 	c #1869AD",
"h 	c #144691",
"i 	c #123783",
"j 	c #112474",
"k 	c #1D1168",
"l 	c #1D0B42",
"m 	c #83A4CA",
"n 	c #AAE0F7",
"o 	c #70D7F9",
"p 	c #58D5F9",
"q 	c #3EC9F7",
"r 	c #36B7ED",
"s 	c #35AAE0",
"t 	c #2F98D4",
"u 	c #2985C6",
"v 	c #216CB2",
"w 	c #184A95",
"x 	c #122B7D",
"y 	c #181267",
"z 	c #1B093C",
"A 	c #83B3D4",
"B 	c #78D9F9",
"C 	c #5CC9F1",
"D 	c #3BB8EC",
"E 	c #38ABE1",
"F 	c #359AD4",
"G 	c #2A85C5",
"H 	c #2168B0",
"I 	c #163C89",
"J 	c #111366",
"K 	c #140B38",
"L 	c #87AFCE",
"M 	c #9BDAF4",
"N 	c #70CCF3",
"O 	c #56BAE9",
"P 	c #47A8E0",
"Q 	c #3C94D1",
"R 	c #2B7DC2",
"S 	c #1F5EA4",
"T 	c #111160",
"U 	c #120A2F",
"V 	c #6EAECF",
"W 	c #8ED2F1",
"X 	c #6EBBE7",
"Y 	c #60ACDD",
"Z 	c #4B98D4",
"` 	c #307CC3",
" .	c #1A4187",
"..	c #67A0CC",
"+.	c #87BCE4",
"@.	c #6CADDF",
"#.	c #5C9DD5",
"$.	c #3164A4",
"%.	c #0E1E47",
"&.	c #6182B8",
"*.	c #81ABDA",
"=.	c #3E5E9F",
"-.	c #0A143B",
";.	c #5E7BB5",
">.	c #0B163E",
"                                                ",
"                                                ",
"                                                ",
"                                                ",
"                                                ",
"                                                ",
"                                                ",
"      . + @ # $ % & * = - ; > , ' ) ! ~         ",
"      { ] ^ / ( _ : < [ } | 1 2 3 4 5 6         ",
"        7 8 9 0 a b c d e f g h i j k l         ",
"          m n o p q r s t u v w x y z           ",
"            A n B C D E F G H I J K             ",
"              L M N O P Q R S T U               ",
"                V W X Y Z `  .U                 ",
"                  ..+.@.#.$.%.                  ",
"                    &.*.=.-.                    ",
"                      ;.>.                      ",
"                                                ",
"                                                ",
"                                                ",
"                                                ",
"                                                ",
"                                                ",
"                                                "};
