/* XPM */
static const char * dasatree5e_xpm[] = {
"24 24 104 2",
"  	c None",
". 	c #843CC1",
"+ 	c #7F3FC8",
"@ 	c #7E3ECD",
"# 	c #7B37D0",
"$ 	c #7730CF",
"% 	c #752AC9",
"& 	c #711CC1",
"* 	c #7014B8",
"= 	c #7010A1",
"- 	c #6A1090",
"; 	c #5B1174",
"> 	c #630F64",
", 	c #58114C",
"' 	c #561044",
") 	c #57103F",
"! 	c #59103B",
"~ 	c #630E36",
"{ 	c #A867C4",
"] 	c #C593DC",
"^ 	c #AF75E6",
"/ 	c #9B5FEC",
"( 	c #9749EE",
"_ 	c #802FEE",
": 	c #7921E6",
"< 	c #791DD8",
"[ 	c #7B1EC9",
"} 	c #7618B7",
"| 	c #7514A3",
"1 	c #73148B",
"2 	c #6F1170",
"3 	c #6A126B",
"4 	c #68105A",
"5 	c #611047",
"6 	c #68103D",
"7 	c #BC80C5",
"8 	c #C99BEA",
"9 	c #AA6EF5",
"0 	c #9B58F7",
"a 	c #8C3DF8",
"b 	c #8B2CF5",
"c 	c #8327EA",
"d 	c #8024DF",
"e 	c #7F20CF",
"f 	c #7C1CBF",
"g 	c #7316A9",
"h 	c #74138C",
"i 	c #71107F",
"j 	c #6B116E",
"k 	c #640F49",
"l 	c #3F0823",
"m 	c #B280C7",
"n 	c #CDA7F4",
"o 	c #A76DF6",
"p 	c #9955F6",
"q 	c #8E3BF4",
"r 	c #8D33EA",
"s 	c #8B32DD",
"t 	c #812CD1",
"u 	c #8628C1",
"v 	c #7D1FAE",
"w 	c #7A1793",
"x 	c #761277",
"y 	c #640F4B",
"z 	c #39061D",
"A 	c #AE80D1",
"B 	c #AC75F6",
"C 	c #9C59EE",
"D 	c #8F38E9",
"E 	c #8935DE",
"F 	c #8832D1",
"G 	c #7B21AA",
"H 	c #731584",
"I 	c #630E52",
"J 	c #350824",
"K 	c #B184CB",
"L 	c #C098F1",
"M 	c #AE6DF0",
"N 	c #9C53E6",
"O 	c #9A44DD",
"P 	c #9139CE",
"Q 	c #8B2BBC",
"R 	c #791E9F",
"S 	c #5C0F4B",
"T 	c #2C071D",
"U 	c #9D6BCC",
"V 	c #BA8BEE",
"W 	c #AC6BE4",
"X 	c #A65DDA",
"Y 	c #9F48D1",
"Z 	c #8D2FBE",
"` 	c #6F1A82",
" .	c #A664C9",
"..	c #BD84E1",
"+.	c #AD69DC",
"@.	c #AB59D2",
"#.	c #84309F",
"$.	c #3E0B44",
"%.	c #A55EB5",
"&.	c #BD7ED7",
"*.	c #8E3C9B",
"=.	c #380737",
"-.	c #A55BB2",
";.	c #39083B",
"                                                ",
"                                                ",
"                                                ",
"                                                ",
"                                                ",
"                                                ",
"                                                ",
"      . + @ # $ % & * = - ; > , ' ) ! ~         ",
"      { ] ^ / ( _ : < [ } | 1 2 3 4 5 6         ",
"        7 8 9 0 a b c d e f g h i j k l         ",
"          m n o p q r s t u v w x y z           ",
"            A n B C D E F u G H I J             ",
"              K L M N O P Q R S T               ",
"                U V W X Y Z ` T                 ",
"                   ...+.@.#.$.                  ",
"                    %.&.*.=.                    ",
"                      -.;.                      ",
"                                                ",
"                                                ",
"                                                ",
"                                                ",
"                                                ",
"                                                ",
"                                                "};
