/* XPM */
static const char * dasatree5_xpm[] = {
"24 24 103 2",
"  	c None",
". 	c #A75EBF",
"+ 	c #7E3EC7",
"@ 	c #BD8CD9",
"# 	c #A964BB",
"$ 	c #7B3FCC",
"% 	c #B684E5",
"& 	c #D4A6E5",
"* 	c #B070C5",
"= 	c #7A3AD1",
"- 	c #A363EA",
"; 	c #B37AF3",
"> 	c #D2AEEB",
", 	c #9B60C5",
"' 	c #7933D0",
") 	c #9650ED",
"! 	c #9F5FF6",
"~ 	c #A971F6",
"{ 	c #D9BEF3",
"] 	c #782CCD",
"^ 	c #8233EE",
"/ 	c #8F41F8",
"( 	c #955AF7",
"_ 	c #AC75F6",
": 	c #CEA7EC",
"< 	c #9D61CC",
"[ 	c #7621C6",
"} 	c #7D25EA",
"| 	c #8430F7",
"1 	c #8F43F6",
"2 	c #A167F0",
"3 	c #AC78F3",
"4 	c #BB8EE9",
"5 	c #9450BF",
"6 	c #7012BA",
"7 	c #841EDB",
"8 	c #8028ED",
"9 	c #8A33EC",
"0 	c #913BEA",
"a 	c #A65AE7",
"b 	c #B16CE7",
"c 	c #C390E3",
"d 	c #9A4BB0",
"e 	c #6C10A7",
"f 	c #7C1ECB",
"g 	c #7D24E1",
"h 	c #8D32E1",
"i 	c #9133E0",
"j 	c #9546DF",
"k 	c #AC61DC",
"l 	c #AD69DC",
"m 	c #C281D2",
"n 	c #A151B2",
"o 	c #650E93",
"p 	c #7618BF",
"q 	c #7F23D4",
"r 	c #842FD4",
"s 	c #8F34D5",
"t 	c #8F3FD2",
"u 	c #9D4FD4",
"v 	c #AC62D7",
"w 	c #A352C1",
"x 	c #86339E",
"y 	c #5C1277",
"z 	c #7215A8",
"A 	c #7E1FC0",
"B 	c #8229C6",
"C 	c #822CC5",
"D 	c #8B2BC2",
"E 	c #9837C6",
"F 	c #8B37BC",
"G 	c #6C0F8A",
"H 	c #601068",
"I 	c #70148F",
"J 	c #7315AE",
"K 	c #8222AF",
"L 	c #7C20A7",
"M 	c #7B1994",
"N 	c #6F1489",
"O 	c #5F1356",
"P 	c #701475",
"Q 	c #711394",
"R 	c #7B189C",
"S 	c #781794",
"T 	c #70156F",
"U 	c #5F1051",
"V 	c #561044",
"W 	c #6D126C",
"X 	c #6F1081",
"Y 	c #72107D",
"Z 	c #68105C",
"` 	c #54123A",
" .	c #57103F",
"..	c #68115E",
"+.	c #711172",
"@.	c #681058",
"#.	c #59103B",
"$.	c #630E48",
"%.	c #681056",
"&.	c #640F3D",
"*.	c #5F1039",
"=.	c #660F3C",
"-.	c #68103D",
"                                                ",
"                                                ",
"                .                               ",
"              + @ #                             ",
"              $ % & *                           ",
"              = - ; > ,                         ",
"              ' ) ! ~ { ,                       ",
"              ] ^ / ( _ : <                     ",
"              [ } | 1 2 3 4 5                   ",
"              6 7 8 9 0 a b c d                 ",
"              e f g h i j k l m n               ",
"              o p q r s t u v w x               ",
"              y z A B C D E F G                 ",
"              H I J K K L M N                   ",
"              O P Q R S T U                     ",
"              V W X Y Z `                       ",
"               ...+.@. .                        ",
"              #.$.%.&.                          ",
"              *.=.-.                            ",
"                -.                              ",
"                                                ",
"                                                ",
"                                                ",
"                                                "};
