/* XPM */
static const char * dasa_folder_e_xpm[] = {
"24 24 350 2",
"  	c None",
". 	c #FFD222",
"+ 	c #FFCB06",
"@ 	c #FFC706",
"# 	c #FFC504",
"$ 	c #FFC204",
"% 	c #FFC302",
"& 	c #FFE37C",
"* 	c #FFE47B",
"= 	c #FFE274",
"- 	c #FFDE6A",
"; 	c #FFDB63",
"> 	c #FFCD45",
", 	c #C8970A",
"' 	c #E4AA00",
") 	c #FFE37D",
"! 	c #FFE684",
"~ 	c #FFE37B",
"{ 	c #FFE174",
"] 	c #FFDD6A",
"^ 	c #FFDA63",
"/ 	c #FFD656",
"( 	c #F5BF35",
"_ 	c #D6A10C",
": 	c #EEAE00",
"< 	c #FFE47C",
"[ 	c #FFE788",
"} 	c #FFE584",
"| 	c #FFE27B",
"1 	c #FFE074",
"2 	c #FFDC6A",
"3 	c #FFD963",
"4 	c #FFD456",
"5 	c #FFCE43",
"6 	c #F5BC2F",
"7 	c #CB9409",
"8 	c #CE9300",
"9 	c #E6A100",
"0 	c #DE9A00",
"a 	c #DC9500",
"b 	c #D98F00",
"c 	c #D28800",
"d 	c #CA8200",
"e 	c #BE7B00",
"f 	c #B77900",
"g 	c #FFDC5B",
"h 	c #FFE68A",
"i 	c #FFE384",
"j 	c #FFE07B",
"k 	c #FFDE74",
"l 	c #FFDA6A",
"m 	c #FFD663",
"n 	c #FFD256",
"o 	c #FFCB44",
"p 	c #FFC636",
"q 	c #FFC028",
"r 	c #FFB813",
"s 	c #FFB306",
"t 	c #F9AB00",
"u 	c #EC9F00",
"v 	c #E29500",
"w 	c #D88C00",
"x 	c #CC8300",
"y 	c #C27C00",
"z 	c #936000",
"A 	c #FFDB5C",
"B 	c #FFE58A",
"C 	c #FFE284",
"D 	c #FFDF7B",
"E 	c #FFDC74",
"F 	c #FFD86A",
"G 	c #FFD563",
"H 	c #FFD156",
"I 	c #FFC944",
"J 	c #FFC336",
"K 	c #FFBD28",
"L 	c #FFB613",
"M 	c #FFB106",
"N 	c #F9A900",
"O 	c #EC9C00",
"P 	c #E29300",
"Q 	c #D88900",
"R 	c #CC8000",
"S 	c #C27A00",
"T 	c #935F00",
"U 	c #FFDA5A",
"V 	c #FFE48A",
"W 	c #FFE186",
"X 	c #FFE6A2",
"Y 	c #FEEFC6",
"Z 	c #FFEAB8",
"` 	c #FFE7AB",
" .	c #FFE3A4",
"..	c #FFDE98",
"+.	c #FFD98D",
"@.	c #FFD382",
"#.	c #FFCE75",
"$.	c #FFC86A",
"%.	c #FDC05E",
"&.	c #FAB551",
"*.	c #F8AC46",
"=.	c #F5A53A",
"-.	c #F2992D",
";.	c #F09121",
">.	c #E48316",
",.	c #DD7802",
"'.	c #CD8700",
").	c #FFD75B",
"!.	c #FFE38A",
"~.	c #FFE391",
"{.	c #FFF2D5",
"].	c #FDFAF3",
"^.	c #FEF5E0",
"/.	c #FFF3DB",
"(.	c #FFF2D6",
"_.	c #FFEFD0",
":.	c #FFEBC7",
"<.	c #FFE8C2",
"[.	c #FFE4B8",
"}.	c #FFDCAD",
"|.	c #FFD5A1",
"1.	c #FFCD8F",
"2.	c #FFC480",
"3.	c #FFBB70",
"4.	c #FFAF5A",
"5.	c #FFA448",
"6.	c #FF9A3B",
"7.	c #F18B15",
"8.	c #D48E00",
"9.	c #FFD55B",
"0.	c #FFE28A",
"a.	c #FFE396",
"b.	c #FEF9ED",
"c.	c #FEF2D7",
"d.	c #FFF0D0",
"e.	c #FFEECB",
"f.	c #FFE9C3",
"g.	c #FFE5BC",
"h.	c #FFE1B4",
"i.	c #FFDCA9",
"j.	c #FFD59C",
"k.	c #FFCE8F",
"l.	c #FFC581",
"m.	c #FFBA6F",
"n.	c #FFB15E",
"o.	c #FFA74C",
"p.	c #FF9E3B",
"q.	c #FF9229",
"r.	c #EB8700",
"s.	c #FFD45C",
"t.	c #FFE18A",
"u.	c #FFE299",
"v.	c #FEF3DA",
"w.	c #FEF3DF",
"x.	c #FFECC8",
"y.	c #FFEAC0",
"z.	c #FFE7BB",
"A.	c #FFDFB1",
"B.	c #FFDBA8",
"C.	c #FFD49C",
"D.	c #FFCD8E",
"E.	c #FFC47F",
"F.	c #FFBC6F",
"G.	c #FFB15D",
"H.	c #FFA950",
"I.	c #FF9E3E",
"J.	c #FF952A",
"K.	c #FF8F1F",
"L.	c #FA8712",
"M.	c #D78400",
"N.	c #FFD25B",
"O.	c #FFDF8A",
"P.	c #FFEBB9",
"Q.	c #FEFAF0",
"R.	c #FFF6E4",
"S.	c #FFF1D8",
"T.	c #FFEFCF",
"U.	c #FFECCA",
"V.	c #FFE6C0",
"W.	c #FFE1B6",
"X.	c #FFD39A",
"Y.	c #FFCC8E",
"Z.	c #FFB96F",
"`.	c #FFB05C",
" +	c #FFA64B",
".+	c #FF9837",
"++	c #FE932C",
"@+	c #F78310",
"#+	c #C07A00",
"$+	c #FFD05B",
"%+	c #FFDE8C",
"&+	c #FFEABF",
"*+	c #FDF8EC",
"=+	c #FEF2D8",
"-+	c #FFEBC8",
";+	c #FFE8BF",
">+	c #FFE3B5",
",+	c #FFDCA8",
"'+	c #FFD498",
")+	c #FFCC8A",
"!+	c #FFC27A",
"~+	c #FFBA6A",
"{+	c #FFA64A",
"]+	c #FF9C39",
"^+	c #FF922A",
"/+	c #FF8A1A",
"(+	c #FD830E",
"_+	c #E27802",
":+	c #A86F00",
"<+	c #FFCE5B",
"[+	c #FFDE8F",
"}+	c #FEEDCC",
"|+	c #FDF4E2",
"1+	c #FFE7BF",
"2+	c #FFDDAB",
"3+	c #FFD9A0",
"4+	c #FFD594",
"5+	c #FFCB84",
"6+	c #FFC276",
"7+	c #FFB966",
"8+	c #FFB055",
"9+	c #FFA647",
"0+	c #FF9F3A",
"a+	c #FF9727",
"b+	c #FF8C1A",
"c+	c #FD8811",
"d+	c #F7820C",
"e+	c #EC7C07",
"f+	c #CE7301",
"g+	c #906100",
"h+	c #FFCC5B",
"i+	c #FFDF9B",
"j+	c #FDF3DD",
"k+	c #FCF4E2",
"l+	c #FEEBC6",
"m+	c #FFE6B7",
"n+	c #FFDFAD",
"o+	c #FFD89E",
"p+	c #FFCF8C",
"q+	c #FFC77E",
"r+	c #FFBF70",
"s+	c #FFB660",
"t+	c #FFAD52",
"u+	c #FFA546",
"v+	c #FE9A36",
"w+	c #FD912B",
"x+	c #FB8B21",
"y+	c #F98213",
"z+	c #EF7B07",
"A+	c #C27000",
"B+	c #694701",
"C+	c #FFC959",
"D+	c #FEDE9C",
"E+	c #FBF2D8",
"F+	c #FCEDCC",
"G+	c #FFE2AC",
"H+	c #FFD898",
"I+	c #FFD08A",
"J+	c #FFCA7E",
"K+	c #FFBE6B",
"L+	c #FFB45D",
"M+	c #FFAC4E",
"N+	c #FFA13D",
"O+	c #FF982E",
"P+	c #FF8E22",
"Q+	c #FE8613",
"R+	c #FA800C",
"S+	c #F77E06",
"T+	c #F27900",
"U+	c #DF7400",
"V+	c #AC6700",
"W+	c #FFC955",
"X+	c #FEDB96",
"Y+	c #FCEECD",
"Z+	c #FEDFA8",
"`+	c #FFD18B",
" @	c #FFC778",
".@	c #FFBE68",
"+@	c #FFB95C",
"@@	c #FFAF4C",
"#@	c #FFA63F",
"$@	c #FF9E34",
"%@	c #FF9623",
"&@	c #FF8E17",
"*@	c #FA850F",
"=@	c #F67D09",
"-@	c #EC7606",
";@	c #E97503",
">@	c #E57500",
",@	c #CC7100",
"'@	c #A26300",
")@	c #FFC652",
"!@	c #FDDE9E",
"~@	c #FBE6B8",
"{@	c #FDDDA3",
"]@	c #FDD38E",
"^@	c #FECA7E",
"/@	c #FFC472",
"(@	c #FFBD64",
"_@	c #FFB251",
":@	c #FFAB44",
"<@	c #FCA338",
"[@	c #F8992D",
"}@	c #F79023",
"|@	c #F58617",
"1@	c #F37B09",
"2@	c #F17B03",
"3@	c #EA7600",
"4@	c #DE6F00",
"5@	c #C26A00",
"6@	c #9C5C00",
"7@	c #FFBC35",
"8@	c #FFC145",
"9@	c #FEBB38",
"0@	c #FCB837",
"a@	c #FBB131",
"b@	c #F9AC29",
"c@	c #F5A322",
"d@	c #F09A18",
"e@	c #EB8F0A",
"f@	c #E88C03",
"g@	c #DD8600",
"h@	c #D27E00",
"i@	c #CB7A00",
"j@	c #C57600",
"k@	c #BD7100",
"l@	c #B76F00",
"m@	c #B16900",
"n@	c #AB6400",
"o@	c #A36100",
"p@	c #905500",
"q@	c #A47808",
"r@	c #9B6D03",
"s@	c #9B6B00",
"t@	c #9D6B00",
"u@	c #9C6700",
"v@	c #9C6A00",
"w@	c #9E6800",
"x@	c #9C6600",
"y@	c #9A6400",
"z@	c #996200",
"A@	c #976000",
"B@	c #945D00",
"C@	c #935A00",
"D@	c #925800",
"E@	c #905600",
"F@	c #8E5500",
"G@	c #8C5300",
"H@	c #8C5100",
"I@	c #884D00",
"                                                ",
"                                                ",
"        . + @ # $ %                             ",
"      & * = - ; > , '                           ",
"    ) ! ~ { ] ^ / ( _ :                         ",
"  < [ } | 1 2 3 4 5 6 7 8 9 0 a b c d e f       ",
"  g h i j k l m n o p q r s t u v w x y z       ",
"  A B C D E F G H I J K L M N O P Q R S T       ",
"  U V W X Y Z `  ...+.@.#.$.%.&.*.=.-.;.>.,.'.  ",
"  ).!.~.{.].^./.(._.:.<.[.}.|.1.2.3.4.5.6.7.8.  ",
"  9.0.a.(.b.c.d.e.f.g.h.i.j.k.l.m.n.o.p.q.r.    ",
"  s.t.u.v.w.x.y.z.A.B.C.D.E.F.G.H.I.J.K.L.M.    ",
"  N.O.P.Q.R.S.T.U.V.W.B.X.Y.E.Z.`. +.+++@+#+    ",
"  $+%+&+*+=+-+;+>+,+'+)+!+~+`.{+]+^+/+(+_+:+    ",
"  <+[+}+|+1+2+3+4+5+6+7+8+9+0+a+b+c+d+e+f+g+    ",
"  h+i+j+k+l+m+n+o+p+q+r+s+t+u+v+w+x+y+z+A+B+    ",
"  C+D+E+F+G+H+I+J+K+L+M+N+O+P+Q+R+S+T+U+V+      ",
"  W+X+Y+Z+`+ @.@+@@@#@$@%@&@*@=@-@;@>@,@'@      ",
"  )@!@~@{@]@^@/@(@_@:@<@[@}@|@1@2@3@4@5@6@      ",
"  7@8@9@0@a@b@c@d@e@f@g@h@i@j@k@l@m@n@o@p@      ",
"  q@r@s@t@u@v@w@x@y@z@A@B@C@D@E@F@G@H@H@I@      ",
"                                                ",
"                                                ",
"                                                "};
