/* XPM */
static const char * dasatree3_xpm[] = {
"24 24 106 2",
"  	c None",
". 	c #6BC362",
"+ 	c #71CB42",
"@ 	c #9DDD90",
"# 	c #69BF68",
"$ 	c #76D042",
"% 	c #A4E987",
"& 	c #B2E9A9",
"* 	c #7EC974",
"= 	c #77D53E",
"- 	c #98EE66",
"; 	c #A9F77D",
"> 	c #C1EFB1",
", 	c #7BC964",
"' 	c #70D436",
") 	c #91F153",
"! 	c #9FFA62",
"~ 	c #A8FA74",
"{ 	c #D2F7C2",
"] 	c #7CC964",
"^ 	c #66D22E",
"/ 	c #7FF237",
"( 	c #8FFC45",
"_ 	c #9EFB5E",
": 	c #A9FA78",
"< 	c #C0F0AB",
"[ 	c #82D064",
"} 	c #56CC22",
"| 	c #73EE28",
"1 	c #84FB34",
"2 	c #8DFA46",
"3 	c #9CF46A",
"4 	c #A8F77C",
"5 	c #ADED91",
"6 	c #69C353",
"7 	c #40BE15",
"8 	c #5EE020",
"9 	c #73F12B",
"0 	c #77F036",
"a 	c #7AEE3F",
"b 	c #89EB5D",
"c 	c #95EB70",
"d 	c #A5E794",
"e 	c #51B54D",
"f 	c #33AD11",
"g 	c #53D31E",
"h 	c #67E528",
"i 	c #6CE535",
"j 	c #6EE437",
"k 	c #77E349",
"l 	c #81E064",
"m 	c #83E06D",
"n 	c #8AD685",
"o 	c #55B659",
"p 	c #289910",
"q 	c #48C41B",
"r 	c #5CDA24",
"s 	c #62D832",
"t 	c #66D937",
"u 	c #66D643",
"v 	c #6FD852",
"w 	c #7BDB65",
"x 	c #5EC555",
"y 	c #3AA336",
"z 	c #1A7F12",
"A 	c #33AD17",
"B 	c #4CC81F",
"C 	c #52CC2B",
"D 	c #54CB2E",
"E 	c #4DC82D",
"F 	c #52CA3B",
"G 	c #4FC03A",
"H 	c #1A9011",
"I 	c #126B1A",
"J 	c #1E9516",
"K 	c #36B219",
"L 	c #3BB623",
"M 	c #3AB523",
"N 	c #32AD21",
"O 	c #23981C",
"P 	c #1C9014",
"Q 	c #136027",
"R 	c #147D1C",
"S 	c #1F9A15",
"T 	c #24A01A",
"U 	c #1F991A",
"V 	c #187529",
"W 	c #13642E",
"X 	c #135A31",
"Y 	c #137324",
"Z 	c #128615",
"` 	c #12831C",
" .	c #126C2B",
"..	c #135639",
"+.	c #135B39",
"@.	c #136E2B",
"#.	c #127921",
"$.	c #126D30",
"%.	c #135C39",
"&.	c #125E3F",
"*.	c #126738",
"=.	c #126D36",
"-.	c #12694A",
";.	c #126448",
">.	c #126A4C",
",.	c #126D52",
"                                                ",
"                                                ",
"                .                               ",
"              + @ #                             ",
"              $ % & *                           ",
"              = - ; > ,                         ",
"              ' ) ! ~ { ]                       ",
"              ^ / ( _ : < [                     ",
"              } | 1 2 3 4 5 6                   ",
"              7 8 9 0 a b c d e                 ",
"              f g h i j k l m n o               ",
"              p q r s t u v w x y               ",
"              z A B C D E F G H                 ",
"              I J K L M N O P                   ",
"              Q R S T U V W                     ",
"              X Y Z `  ...                      ",
"              +.@.#.$.%.                        ",
"              &.*.=.-.                          ",
"              ;.>.,.                            ",
"                ,.                              ",
"                                                ",
"                                                ",
"                                                ",
"                                                "};
