/* XPM */
static const char * dasa_xpm[] = {
"24 24 254 2",
"  	c None",
". 	c #8AABEE",
"+ 	c #6F84A9",
"@ 	c #A3C4F9",
"# 	c #A0C0F8",
"$ 	c #9CBDF7",
"% 	c #9AB9F6",
"& 	c #96B6F5",
"* 	c #8EAFF2",
"= 	c #84A5F0",
"- 	c #6D93ED",
"; 	c #E7EFFC",
"> 	c #9BB1E1",
", 	c #9EA3B2",
"' 	c #FEFEFE",
") 	c #F7F9FE",
"! 	c #ECF1FD",
"~ 	c #D2DEF9",
"{ 	c #80A1EF",
"] 	c #E0EEFE",
"^ 	c #E0E9FB",
"/ 	c #889ED8",
"( 	c #B0B5C2",
"_ 	c #E0E7FA",
": 	c #83A2EE",
"< 	c #F4F8FE",
"[ 	c #E4F0FE",
"} 	c #C7DFFE",
"| 	c #DCE4F9",
"1 	c #728AD2",
"2 	c #B3B7C6",
"3 	c #DEE6FA",
"4 	c #7F9EED",
"5 	c #EFF5FE",
"6 	c #F1F7FE",
"7 	c #DCEBFE",
"8 	c #C7E0FE",
"9 	c #E0E6F9",
"0 	c #768BD0",
"a 	c #A7ACBB",
"b 	c #DFE6FA",
"c 	c #7C9BEC",
"d 	c #E1EBFD",
"e 	c #DEE8FB",
"f 	c #CEDBF9",
"g 	c #B2C4F4",
"h 	c #9CAEED",
"i 	c #5770CE",
"j 	c #9499AF",
"k 	c #E5EBFA",
"l 	c #8AA5ED",
"m 	c #89AADB",
"n 	c #88A0CC",
"o 	c #7C92C6",
"p 	c #7489C5",
"q 	c #6E82C5",
"r 	c #6578C0",
"s 	c #737FB2",
"t 	c #999AA3",
"u 	c #F9F9F9",
"v 	c #EBEBEB",
"w 	c #D8D8D8",
"x 	c #BCBCBC",
"y 	c #B0B0B0",
"z 	c #B3B3B3",
"A 	c #B5B7BE",
"B 	c #7D8CBA",
"C 	c #95AAC9",
"D 	c #C4C6CA",
"E 	c #CBCACA",
"F 	c #CFCFCF",
"G 	c #D7D6D6",
"H 	c #D7D7D7",
"I 	c #D3D3D3",
"J 	c #D5D5D5",
"K 	c #B8B8B8",
"L 	c #999999",
"M 	c #787878",
"N 	c #686868",
"O 	c #606060",
"P 	c #616262",
"Q 	c #55575E",
"R 	c #525357",
"S 	c #A6C8FB",
"T 	c #ECF3FD",
"U 	c #F5F5F5",
"V 	c #AAAAAA",
"W 	c #7A7A7A",
"X 	c #626262",
"Y 	c #727272",
"Z 	c #676767",
"` 	c #535353",
" .	c #7F7F7F",
"..	c #5D5D5D",
"+.	c #585858",
"@.	c #5B5B5B",
"#.	c #85B1F8",
"$.	c #D9E6FC",
"%.	c #A9A9A9",
"&.	c #6F6F6F",
"*.	c #414141",
"=.	c #868686",
"-.	c #EAEAEA",
";.	c #C1C1C1",
">.	c #757575",
",.	c #5F5F5F",
"'.	c #636363",
").	c #B1CBF9",
"!.	c #ECECEC",
"~.	c #B7B7B7",
"{.	c #7E7E7E",
"].	c #929292",
"^.	c #B6B6B6",
"/.	c #E1E1E1",
"(.	c #D4D4D4",
"_.	c #C2C2C2",
":.	c #F4F4F4",
"<.	c #C5C5C5",
"[.	c #7C7C7C",
"}.	c #A5A5A5",
"|.	c #6E6E6E",
"1.	c #83ABF4",
"2.	c #F9FBFD",
"3.	c #D9D9D9",
"4.	c #9A9A9A",
"5.	c #707070",
"6.	c #3C3C3C",
"7.	c #5E5E5E",
"8.	c #C9C9C9",
"9.	c #9D9D9D",
"0.	c #696969",
"a.	c #5A5A5A",
"b.	c #759FF2",
"c.	c #CCDBFA",
"d.	c #F7FAFE",
"e.	c #F6F9FE",
"f.	c #B8BABC",
"g.	c #848485",
"h.	c #ADADAD",
"i.	c #FEC5C5",
"j.	c #FBC0BB",
"k.	c #9B9B9B",
"l.	c #FDFDFD",
"m.	c #9E9E9E",
"n.	c #ABABAB",
"o.	c #A5BFF5",
"p.	c #E8F2FE",
"q.	c #9FA8B1",
"r.	c #7B7D7E",
"s.	c #969696",
"t.	c #FEAAAA",
"u.	c #FB4541",
"v.	c #949494",
"w.	c #E9E9E9",
"x.	c #FCFCFC",
"y.	c #E6E6E6",
"z.	c #EDEDED",
"A.	c #AEAEAE",
"B.	c #8AAAF1",
"C.	c #EAF1FC",
"D.	c #E7F1FE",
"E.	c #A3ACB7",
"F.	c #79797A",
"G.	c #767676",
"H.	c #888888",
"I.	c #E8DADA",
"J.	c #AD7F9C",
"K.	c #818EAB",
"L.	c #CECECE",
"M.	c #EFEFEF",
"N.	c #737373",
"O.	c #C0C0C0",
"P.	c #7A9DEE",
"Q.	c #D0DCF9",
"R.	c #E5F1FE",
"S.	c #AFB8C3",
"T.	c #818181",
"U.	c #747474",
"V.	c #777777",
"W.	c #5C7096",
"X.	c #945F83",
"Y.	c #F6EFED",
"Z.	c #797979",
"`.	c #BBBBBB",
" +	c #6F93EC",
".+	c #BECEF6",
"++	c #C3CAD4",
"@+	c #909090",
"#+	c #A6A6A6",
"$+	c #DCDCDC",
"%+	c #FD8E8C",
"&+	c #FCC1BE",
"*+	c #C7C7C7",
"=+	c #B0C3F4",
"-+	c #E8F1FE",
";+	c #CBD6E4",
">+	c #A7A7A7",
",+	c #FECACA",
"'+	c #FE9696",
")+	c #FEF7F7",
"!+	c #B1B1B1",
"~+	c #919191",
"{+	c #ABBEF2",
"]+	c #E6F0FE",
"^+	c #CDE1FB",
"/+	c #A6B1C0",
"(+	c #A4A5A6",
"_+	c #7D7D7D",
":+	c #CACACA",
"<+	c #E2E2E2",
"[+	c #E9B6B6",
"}+	c #E5E5E5",
"|+	c #8F8F8F",
"1+	c #AFAFAF",
"2+	c #808080",
"3+	c #B0C2F3",
"4+	c #E5F0FE",
"5+	c #D1E5FE",
"6+	c #BFCEE1",
"7+	c #AEB0B3",
"8+	c #B9B9B9",
"9+	c #A8A8A8",
"0+	c #DADADA",
"a+	c #E8E8E8",
"b+	c #FEC7C7",
"c+	c #B45654",
"d+	c #6184E7",
"e+	c #BAC9F4",
"f+	c #F8FBFE",
"g+	c #E3ECFB",
"h+	c #BCCAF3",
"i+	c #7687C0",
"j+	c #A2A3A7",
"k+	c #8D8D8D",
"l+	c #F0F0F0",
"m+	c #A0A0A0",
"n+	c #FEF9F9",
"o+	c #EB837D",
"p+	c #A3A3A3",
"q+	c #D0D0D0",
"r+	c #BABABA",
"s+	c #5076E3",
"t+	c #5F81E5",
"u+	c #6484E4",
"v+	c #4166DE",
"w+	c #3E63DD",
"x+	c #A1A1A1",
"y+	c #BFBFBF",
"z+	c #CBCBCB",
"A+	c #E0E0E0",
"B+	c #D0CFCF",
"C+	c #B2B2B2",
"D+	c #878787",
"E+	c #939393",
"              . + @ # $ % & * = -               ",
"            ; > , ' ' ' ' ) ! ~ {               ",
"          ] ^ / ( ' ' ' ' ' ' _ :               ",
"      < [ } | 1 2 ' ' ' ' ' ' 3 4               ",
"    5 6 7 8 9 0 a ' ' ' ' ' ' b c               ",
"    d e f g h i j ' ' ' ' ' ' k l               ",
"  m n o p q r s t u v w x y z A B               ",
"  C D E F G H H I J K L M N O P Q R             ",
"  S T ' ' ' ' U I V W X O Y Z `  ...+.@.        ",
"  #.$.' ' ' u J %.&.N *.V H =.@.-.;.>.,.'.      ",
"    ).' ' ' !.~.{.N V ].^./.(._.:.<.[.}.|.,.    ",
"    1.2.' ' 3.4.5.6.7.8.:.u ' ' ' V 9.%.0.N a.  ",
"    b.c.d.e.f.g.|.h.M 3.' i.j.u ~.k.l.m.n.[.0.  ",
"      o.e.p.q.r.s.' ' ' ' t.u.F v.w.x.y.z.A.&.  ",
"      B.C.D.E.F.G.H.' ' ' I.J.K.L.l.' M.N.O.[.  ",
"      P.Q.R.S.T.[.U.' L.N.V.W.X.Y.' ' M.Z.`.H.  ",
"       +.+D.++@+#+$+y.M.M.' ' %+&+' ' ' ' *+H.  ",
"        =+-+;+>+@+G.%.' ' ' ' ,+'+)+' y H !+~+  ",
"        {+]+^+/+(+_+:+w.<+' ' )+'+[+}+|+4.1+2+  ",
"        3+4+5+6+7+8+H 9+V ' 0+a+b+c+^.a+8.9+    ",
"      d+e+f+g+h+i+j+~.k+l+' N m+n+o+p+q+r+      ",
"      s+t+u+v+w+    x+O.y+J %.z+A+B+:+C+        ",
"                      D+y y z ^.^.C+E+          ",
"                                                "};
