/* XPM */
static const char * dasa_folder_xpm[] = {
"24 24 328 2",
"  	c None",
". 	c #FAC400",
"+ 	c #F9BE00",
"@ 	c #F9BD00",
"# 	c #F9BC00",
"$ 	c #FFED59",
"% 	c #FFF487",
"& 	c #FFF489",
"* 	c #FFF48A",
"= 	c #F2C518",
"- 	c #D88F00",
"; 	c #EEB11C",
"> 	c #FFF37F",
", 	c #FFEE6F",
"' 	c #EEBF20",
") 	c #DB9300",
"! 	c #FFED56",
"~ 	c #FFF27F",
"{ 	c #FFED6F",
"] 	c #F2C218",
"^ 	c #CC7A00",
"/ 	c #DD8B00",
"( 	c #E99600",
"_ 	c #E38D00",
": 	c #E38B00",
"< 	c #E38900",
"[ 	c #DB7B00",
"} 	c #D26F00",
"| 	c #C96300",
"1 	c #B85400",
"2 	c #FFD300",
"3 	c #FFED6A",
"4 	c #FFFACA",
"5 	c #FFF7A5",
"6 	c #FFF062",
"7 	c #FFEE56",
"8 	c #FFEC49",
"9 	c #FFE93E",
"0 	c #FFE736",
"a 	c #FFE52F",
"b 	c #FFE226",
"c 	c #FFDF22",
"d 	c #FFDC1E",
"e 	c #FFD610",
"f 	c #FFD30D",
"g 	c #FFCF0A",
"h 	c #FFCD0A",
"i 	c #FFC305",
"j 	c #BA6B00",
"k 	c #531C00",
"l 	c #FFEC6A",
"m 	c #FFFCE1",
"n 	c #FFFAC5",
"o 	c #FFF7AD",
"p 	c #FFF59A",
"q 	c #FFF48F",
"r 	c #FFF284",
"s 	c #FFEF73",
"t 	c #FFEE6C",
"u 	c #FFEC65",
"v 	c #FFE852",
"w 	c #FFE64B",
"x 	c #FFE443",
"y 	c #FFDF35",
"z 	c #FFDC2F",
"A 	c #FFD829",
"B 	c #FFD21A",
"C 	c #FFC30D",
"D 	c #BA6E00",
"E 	c #561D00",
"F 	c #FFE840",
"G 	c #FFFCDD",
"H 	c #FFF8BC",
"I 	c #FFF6AB",
"J 	c #FFF494",
"K 	c #FFF389",
"L 	c #FFF17F",
"M 	c #FFED65",
"N 	c #FFEC5F",
"O 	c #FFEA59",
"P 	c #FFE23B",
"Q 	c #FFE034",
"R 	c #FFDA2A",
"S 	c #FFD724",
"T 	c #FFD31E",
"U 	c #FFBE0B",
"V 	c #FEB005",
"W 	c #B66B00",
"X 	c #541D00",
"Y 	c #FFD200",
"Z 	c #FFEA5A",
"` 	c #FFFDEF",
" .	c #FFFBD6",
"..	c #FFF9C8",
"+.	c #FFF8BD",
"@.	c #FFF7B4",
"#.	c #FFF6AA",
"$.	c #FFF293",
"%.	c #FFF18D",
"&.	c #FFEF87",
"*.	c #FFEB6C",
"=.	c #FFE862",
"-.	c #FFE658",
";.	c #FFE14B",
">.	c #FFDD43",
",.	c #FFD93B",
"'.	c #FFCB20",
").	c #FEB710",
"!.	c #BB6A00",
"~.	c #511C00",
"{.	c #FFE84A",
"].	c #FFFCE6",
"^.	c #FFF9C6",
"/.	c #FFF8B4",
"(.	c #FFF6A8",
"_.	c #FFF49F",
":.	c #FFF495",
"<.	c #FFF084",
"[.	c #FFEE7B",
"}.	c #FFEC72",
"|.	c #FFE861",
"1.	c #FFE558",
"2.	c #FFE24F",
"3.	c #FFDB3C",
"4.	c #FFD634",
"5.	c #FFD12C",
"6.	c #FFC019",
"7.	c #FEAD0C",
"8.	c #BA6700",
"9.	c #461700",
"0.	c #FFE740",
"a.	c #FFFBD9",
"b.	c #FFF7B1",
"c.	c #FFF496",
"d.	c #FFF286",
"e.	c #FFF07C",
"f.	c #FFEE71",
"g.	c #FFEC67",
"h.	c #FFE95E",
"i.	c #FFE654",
"j.	c #FFE146",
"k.	c #FFDD3D",
"l.	c #FFD833",
"m.	c #FFD226",
"n.	c #FFC91E",
"o.	c #FFBC15",
"p.	c #FFB30D",
"q.	c #FB9D06",
"r.	c #B35F00",
"s.	c #401500",
"t.	c #FFFDE9",
"u.	c #FFFAD0",
"v.	c #FFF8BB",
"w.	c #FFF5AB",
"x.	c #FFF2A0",
"y.	c #FFF094",
"z.	c #FFEC7F",
"A.	c #FFE977",
"B.	c #FFE76F",
"C.	c #FFE25C",
"D.	c #FFDD51",
"E.	c #FFD745",
"F.	c #FFCC33",
"G.	c #FFC92A",
"H.	c #FFC422",
"I.	c #FFC01A",
"J.	c #FCA80D",
"K.	c #B35D00",
"L.	c #3F1500",
"M.	c #FFD100",
"N.	c #FFFCDE",
"O.	c #FFF5A0",
"P.	c #FFEF84",
"Q.	c #FFEC76",
"R.	c #FFE96B",
"S.	c #FFE45D",
"T.	c #FFE053",
"U.	c #FFDC49",
"V.	c #FFD73B",
"W.	c #FFD233",
"X.	c #FFCC2A",
"Y.	c #FFBE1C",
"Z.	c #FFBA18",
"`.	c #FFB813",
" +	c #FFB20D",
".+	c #F79606",
"++	c #AD5300",
"@+	c #FFD000",
"#+	c #FFFBD3",
"$+	c #FFF5A2",
"%+	c #FFF077",
"&+	c #FFED68",
"*+	c #FFEA5D",
"=+	c #FFE754",
"-+	c #FFE147",
";+	c #FFDD3E",
">+	c #FFD835",
",+	c #FFD22A",
"'+	c #FFC920",
")+	c #FFBC16",
"!+	c #FFB30E",
"~+	c #FFAE0C",
"{+	c #FFAB0A",
"]+	c #FEA507",
"^+	c #F18603",
"/+	c #A24A00",
"(+	c #FFE85A",
"_+	c #FFFCE5",
":+	c #FFF8C0",
"<+	c #FFF39C",
"[+	c #FFF08C",
"}+	c #FFEE81",
"|+	c #FFEA75",
"1+	c #FFE462",
"2+	c #FFE059",
"3+	c #FFDD4F",
"4+	c #FFD43E",
"5+	c #FFCE36",
"6+	c #FFCA2F",
"7+	c #FFC221",
"8+	c #FFBE1B",
"9+	c #FFB914",
"0+	c #FEAE0B",
"a+	c #F59106",
"b+	c #9E4800",
"c+	c #FFCF00",
"d+	c #FFE64A",
"e+	c #FFFBD8",
"f+	c #FFF5AA",
"g+	c #FFEF7B",
"h+	c #FFEB65",
"i+	c #FFE75D",
"j+	c #FFE14D",
"k+	c #FFD83A",
"l+	c #FFD433",
"m+	c #FFCF2A",
"n+	c #FFC31D",
"o+	c #FFBA15",
"p+	c #FFB40F",
"q+	c #FFAE0A",
"r+	c #FFA907",
"s+	c #FEA305",
"t+	c #FC9100",
"u+	c #EB7700",
"v+	c #943E00",
"w+	c #3A1300",
"x+	c #FECA00",
"y+	c #FFE235",
"z+	c #FFF8C3",
"A+	c #FFF07F",
"B+	c #FFE959",
"C+	c #FFE343",
"D+	c #FFDF3D",
"E+	c #FFD933",
"F+	c #FFD126",
"G+	c #FFCC21",
"H+	c #FFC81D",
"I+	c #FFB911",
"J+	c #FFB10B",
"K+	c #FFAB08",
"L+	c #FFA505",
"M+	c #FEA004",
"N+	c #FD9702",
"O+	c #FA8700",
"P+	c #E16B00",
"Q+	c #8A3700",
"R+	c #300F00",
"S+	c #FEC900",
"T+	c #FFE44F",
"U+	c #FFF4AC",
"V+	c #FFF196",
"W+	c #FFEC78",
"X+	c #FFEA6C",
"Y+	c #FFE762",
"Z+	c #FFE257",
"`+	c #FFD744",
" @	c #FFD13C",
".@	c #FFCE37",
"+@	c #FEC225",
"@@	c #FEBB1E",
"#@	c #FDB417",
"$@	c #FBA80E",
"%@	c #F99C07",
"&@	c #F88E01",
"*@	c #F48900",
"=@	c #E37000",
"-@	c #883500",
";@	c #2C0F00",
">@	c #FEC800",
",@	c #FED210",
"'@	c #F6C91C",
")@	c #EDBD1D",
"!@	c #EAB91E",
"~@	c #E9B51E",
"{@	c #E7B01B",
"]@	c #E4A815",
"^@	c #DE960A",
"/@	c #DA8903",
"(@	c #D58201",
"_@	c #CD7700",
":@	c #C86D00",
"<@	c #C26300",
"[@	c #BA5700",
"}@	c #B55100",
"|@	c #B04B00",
"1@	c #A24000",
"2@	c #8F3500",
"3@	c #612400",
"4@	c #AD6B00",
"5@	c #915200",
"6@	c #834504",
"7@	c #7D3D04",
"8@	c #793904",
"9@	c #743604",
"0@	c #6E3204",
"a@	c #682F03",
"b@	c #622B02",
"c@	c #602801",
"d@	c #5E2600",
"e@	c #5A2400",
"f@	c #582200",
"g@	c #562000",
"h@	c #521D00",
"i@	c #4D1B00",
"j@	c #481900",
"k@	c #421800",
"l@	c #3F1600",
"m@	c #371300",
"                                                ",
"                                                ",
"          . + + @ #                             ",
"        $ % & * * = - ;                         ",
"      $ > > > > > , ' )                         ",
"    ! > > > > > ~ ~ { ] ^ / ( _ : < [ } | 1     ",
"  2 3 4 5 > 6 7 8 9 0 a b c d e f g h i j k     ",
"  2 l m n o p q r s t u v w x y z A B C D E     ",
"  2 F G H I J K L M N O x P Q R S T U V W X     ",
"  Y Z `  ...+.@.#.$.%.&.*.=.-.;.>.,.'.).!.~.    ",
"  Y {.].^./.(._.:.<.[.}.|.1.2.3.4.5.6.7.8.9.    ",
"  Y 0.a.b.c.d.e.f.g.h.i.j.k.l.m.n.o.p.q.r.s.    ",
"  Y Z t.u.v.w.x.y.z.A.B.C.D.E.F.G.H.I.J.K.L.    ",
"  M.{.N.H O.P.Q.R.S.T.U.V.W.X.Y.Z.`. +.+++L.    ",
"  @+{.#+$+%+&+*+=+-+;+>+,+'+)+!+~+{+]+^+/+L.    ",
"  @+(+_+:+<+[+}+|+1+2+3+4+5+6+7+8+9+0+a+b+L.    ",
"  c+d+e+f+g+h+i+j+k+l+m+n+o+p+q+r+s+t+u+v+w+    ",
"  x+y+z+A+B+C+D+E+F+G+H+I+J+K+L+M+N+O+P+Q+R+    ",
"  S+T+U+V+W+X+Y+Z+`+ @.@+@@@#@$@%@&@*@=@-@;@    ",
"  >@,@'@)@!@~@{@]@^@/@(@_@:@<@[@}@|@1@2@3@;@    ",
"  4@5@6@7@8@9@0@a@b@c@d@e@f@g@h@i@j@k@l@m@;@    ",
"                                                ",
"                                                ",
"                                                "};
