/* XPM */
static char * eclipse_xpm[] = {
"24 24 205 2",
"  	c None",
". 	c #989898",
"+ 	c #919191",
"@ 	c #898989",
"# 	c #858585",
"$ 	c #AFAFAF",
"% 	c #BDBDBD",
"& 	c #DCDCDC",
"* 	c #E2E2E2",
"= 	c #F2F2F2",
"- 	c #CDCDCD",
"; 	c #DADADA",
"> 	c #5B5B5B",
", 	c #BCBCBC",
"' 	c #DDDDDD",
") 	c #E1E1E1",
"! 	c #E0E0E0",
"~ 	c #EBEBEB",
"{ 	c #B9B9B9",
"] 	c #B6B6B6",
"^ 	c #EDEDED",
"/ 	c #BABABA",
"( 	c #DEDEDE",
"_ 	c #999999",
": 	c #FDFDFD",
"< 	c #C9C9C9",
"[ 	c #A5A5A5",
"} 	c #7A7A7A",
"| 	c #707070",
"1 	c #616161",
"2 	c #AEAEAE",
"3 	c #C3C3C3",
"4 	c #DFDFDF",
"5 	c #D8D8D8",
"6 	c #C0C0C0",
"7 	c #9F9F9F",
"8 	c #8C8C8C",
"9 	c #7C7C7C",
"0 	c #747474",
"a 	c #6E6E6D",
"b 	c #686868",
"c 	c #606060",
"d 	c #515151",
"e 	c #B8B8B8",
"f 	c #BBBBBB",
"g 	c #B7B7B7",
"h 	c #848484",
"i 	c #8D8D8E",
"j 	c #8B8B8A",
"k 	c #82828C",
"l 	c #7B7B84",
"m 	c #6B6B74",
"n 	c #55555F",
"o 	c #535353",
"p 	c #525252",
"q 	c #474747",
"r 	c #BFBFBF",
"s 	c #EAEAEA",
"t 	c #DBDBDB",
"u 	c #B4B4B4",
"v 	c #8B8B8B",
"w 	c #A0A084",
"x 	c #95958D",
"y 	c #88888F",
"z 	c #A8A85B",
"A 	c #909151",
"B 	c #838444",
"C 	c #9FA032",
"D 	c #63634B",
"E 	c #515153",
"F 	c #464646",
"G 	c #C7C7C7",
"H 	c #E9E9E9",
"I 	c #D7D7D7",
"J 	c #B4B4B5",
"K 	c #848485",
"L 	c #CDCE41",
"M 	c #A1A176",
"N 	c #83838A",
"O 	c #606061",
"P 	c #555460",
"Q 	c #95953A",
"R 	c #D4D518",
"S 	c #686849",
"T 	c #444445",
"U 	c #CECECE",
"V 	c #E7E7E7",
"W 	c #D6D6D6",
"X 	c #7E7E7E",
"Y 	c #94947A",
"Z 	c #858584",
"` 	c #79796B",
" .	c #74755B",
"..	c #606062",
"+.	c #5C5C5B",
"@.	c #4B4B5C",
"#.	c #E6E70F",
"$.	c #AAAB2C",
"%.	c #454543",
"&.	c #E6E6E6",
"*.	c #D5D5D5",
"=.	c #B5B5B5",
"-.	c #777777",
";.	c #808081",
">.	c #747476",
",.	c #85864F",
"'.	c #AAAB37",
").	c #585864",
"!.	c #5B5B5A",
"~.	c #47475D",
"{.	c #E4E510",
"].	c #CCCC1C",
"^.	c #4A4A3E",
"/.	c #E5E5E5",
"(.	c #D3D3D3",
"_.	c #D4D4D4",
":.	c #737373",
"<.	c #69695D",
"[.	c #696959",
"}.	c #5B5B5D",
"|.	c #545459",
"1.	c #717146",
"2.	c #E3E411",
"3.	c #CECF1B",
"4.	c #4B4B3D",
"5.	c #E3E3E3",
"6.	c #D2D2D2",
"7.	c #676767",
"8.	c #5F5F60",
"9.	c #666659",
"0.	c #5E5E5C",
"a.	c #58585B",
"b.	c #575759",
"c.	c #515156",
"d.	c #C0C121",
"e.	c #DBDC15",
"f.	c #B2B328",
"g.	c #43433F",
"h.	c #EEEEEE",
"i.	c #D0D0D0",
"j.	c #585858",
"k.	c #5D5D55",
"l.	c #999937",
"m.	c #7B7B45",
"n.	c #797943",
"o.	c #BEBF21",
"p.	c #DDDE14",
"q.	c #D2D219",
"r.	c #747444",
"s.	c #3D3D40",
"t.	c #F7F7F7",
"u.	c #D1D1D1",
"v.	c #4E4E4E",
"w.	c #505050",
"x.	c #4F4F50",
"y.	c #58584D",
"z.	c #9B9C2E",
"A.	c #C8C91A",
"B.	c #D0D016",
"C.	c #B3B424",
"D.	c #747442",
"E.	c #4E4E54",
"F.	c #3E3E3E",
"G.	c #FFFFFF",
"H.	c #CCCCCC",
"I.	c #666666",
"J.	c #6D6D6D",
"K.	c #6C6C6C",
"L.	c #69696A",
"M.	c #6C6C62",
"N.	c #6B6B5E",
"O.	c #62625D",
"P.	c #535356",
"Q.	c #4F4F4F",
"R.	c #2D2D2D",
"S.	c #CACACA",
"T.	c #DBDBDA",
"U.	c #D9D9D9",
"V.	c #E1E1E0",
"W.	c #F4F4F4",
"X.	c #9A9A9A",
"Y.	c #ACACAC",
"Z.	c #B0B0B0",
"`.	c #C4C4C4",
" +	c #CBCBCB",
".+	c #C8C8C8",
"++	c #8E8E8E",
"@+	c #A8A8A8",
"#+	c #A3A3A3",
"$+	c #8F8F8F",
"%+	c #8A8A8A",
"&+	c #818181",
"*+	c #939393",
"=+	c #A6A6A6",
"-+	c #808080",
";+	c #949494",
">+	c #979797",
",+	c #9B9B9B",
"'+	c #B1B1B1",
")+	c #A4A4A4",
"!+	c #E4E4E4",
"~+	c #EFEFEF",
"{+	c #F1F1F1",
"]+	c #A1A1A1",
"^+	c #7F7F7F",
"                                . + @           ",
"                      # $ % & * = - ;           ",
"              > , ' ) ! ~ ! { ] ^ / (           ",
"        + _ ) : * < , [ } | 1 2 ^ / (           ",
"    3 4 5 6 7 8 9 9 0 a b c d e ~ f &           ",
"    ; g h i 8 j k l m n o p q r s f t           ",
"    5 u v w x y z A B C D E F G H f 5           ",
"    I J K L M N a O P Q R S T U V f I           ",
"    W u X Y Z `  ...+.@.#.$.%.I &., W           ",
"    *.=.-.;.>.,.'.).!.~.{.].^.( /., (.          ",
"    _.g | :.O <.[.}.|.1.2.3.4.&.5.f 6.          ",
"    (.e 7.8.9.0.a.b.c.d.e.f.g.h.) f i.          ",
"    6.e > j.k.l.m.n.o.p.q.r.s.t.! f U           ",
"    u./ v.w.x.y.z.A.B.C.D.E.F.G.( , H.          ",
"    i., I.J.K.L.7.M.N.O.P.Q.R.G.' , S.          ",
"    U 4 ( t t t T.U.& V.s W.G.H ' , <           ",
"    X.Y.Z./ `. +6.W t t ' ( ) * V .+ +          ",
"                    ++2 @+#+8 $+%+# &+          ",
"                    *+r 6 < =+                  ",
"          -+%+;+>+,+/ / g r '+                  ",
"      )+^ ( t 5 I (.U < U.!+#                   ",
"        6 /.s ~+= {+= ^ H.}                     ",
"              ]+Y.'+$ ^+                        ",
"                                                "};
