/* XPM */
static const char * edit_xpm[] = {
"24 24 379 2",
"  	c None",
". 	c #6280BE",
"+ 	c #6886C2",
"@ 	c #7390C8",
"# 	c #809BCF",
"$ 	c #8BA1CD",
"% 	c #778EC8",
"& 	c #7B92CD",
"* 	c #839BD4",
"= 	c #849CD4",
"- 	c #8AA2D7",
"; 	c #829AD2",
"> 	c #95ABDC",
", 	c #93AADA",
"' 	c #A1B5E1",
") 	c #ABBFE5",
"! 	c #B8C8E8",
"~ 	c #D9E4F8",
"{ 	c #ECF2FC",
"] 	c #F8FBFE",
"^ 	c #FDFEFF",
"/ 	c #415375",
"( 	c #505EB0",
"_ 	c #7F86E2",
": 	c #8DA4E4",
"< 	c #91ACE5",
"[ 	c #98B1E7",
"} 	c #9CB6EA",
"| 	c #A1BBED",
"1 	c #829ED7",
"2 	c #627FBE",
"3 	c #7994CC",
"4 	c #5D7BB8",
"5 	c #6B86BE",
"6 	c #7E96C7",
"7 	c #8BA1CC",
"8 	c #B4C4E1",
"9 	c #ACBBD9",
"0 	c #E0E9F6",
"a 	c #EDF3FC",
"b 	c #F4F8FD",
"c 	c #F8FCFF",
"d 	c #3F5173",
"e 	c #535BB6",
"f 	c #787EED",
"g 	c #81A2ED",
"h 	c #88ABEE",
"i 	c #8EAFF0",
"j 	c #97B5F0",
"k 	c #9CB8F0",
"l 	c #7695D1",
"m 	c #4768AC",
"n 	c #4969AC",
"o 	c #627EB9",
"p 	c #4464A5",
"q 	c #718BBF",
"r 	c #8AA0CC",
"s 	c #AABCDD",
"t 	c #B0BFDE",
"u 	c #D8E2F4",
"v 	c #E0E8F4",
"w 	c #E4EAF3",
"x 	c #DAE1ED",
"y 	c #344769",
"z 	c #5365B7",
"A 	c #798DED",
"B 	c #80A2ED",
"C 	c #87A9EE",
"D 	c #8CACEF",
"E 	c #95B3F0",
"F 	c #99B6EE",
"G 	c #6888C7",
"H 	c #4466AC",
"I 	c #7290CB",
"J 	c #607FBD",
"K 	c #869FD2",
"L 	c #8FA6D5",
"M 	c #9EB1D9",
"N 	c #A6B7D9",
"O 	c #ACBBD8",
"P 	c #B5C1D9",
"Q 	c #B4C0D4",
"R 	c #B9C3D6",
"S 	c #A1AABA",
"T 	c #5470B6",
"U 	c #7A9CED",
"V 	c #7DA3ED",
"W 	c #85AAEE",
"X 	c #8AADEF",
"Y 	c #8DAEEF",
"Z 	c #8DACEA",
"` 	c #7897D6",
" .	c #7A96D0",
"..	c #8CA4D3",
"+.	c #92A6CD",
"@.	c #9DADCC",
"#.	c #A7B4CC",
"$.	c #AEB8CC",
"%.	c #B4BDD0",
"&.	c #B5BED1",
"*.	c #BCC5D5",
"=.	c #D3D9DF",
"-.	c #DBE0E6",
";.	c #B6BBC0",
">.	c #3F5E9B",
",.	c #6689D0",
"'.	c #6C8ED1",
").	c #7391CC",
"!.	c #7D96C8",
"~.	c #8095C0",
"{.	c #6C83B1",
"].	c #8E9DBA",
"^.	c #8C99B6",
"/.	c #7A8BAF",
"(.	c #8796B6",
"_.	c #8F9FBD",
":.	c #8E9FC0",
"<.	c #8397BE",
"[.	c #91A2C5",
"}.	c #AEBAD3",
"|.	c #ADBAD3",
"1.	c #D8DCE4",
"2.	c #D7DDE6",
"3.	c #B7BDC3",
"4.	c #727D8F",
"5.	c #8590A0",
"6.	c #AAB1BC",
"7.	c #C3C8CE",
"8.	c #A2ACBF",
"9.	c #6077A5",
"0.	c #5D75A5",
"a.	c #5871A6",
"b.	c #5F76AB",
"c.	c #7A8DB8",
"d.	c #AEBBD3",
"e.	c #90A2C5",
"f.	c #A1B0CD",
"g.	c #AEBBD2",
"h.	c #B1BDD3",
"i.	c #A7B4CE",
"j.	c #B6C1D5",
"k.	c #BBC5D8",
"l.	c #B4BAC3",
"m.	c #8B9093",
"n.	c #979C9F",
"o.	c #AFB3B8",
"p.	c #CCCFD2",
"q.	c #B6BDC9",
"r.	c #9CA7BE",
"s.	c #A8B4CB",
"t.	c #A8B6D1",
"u.	c #ADB9D2",
"v.	c #B0BBD3",
"w.	c #AEBCD4",
"x.	c #B5C3D8",
"y.	c #C1C8D8",
"z.	c #CACFDC",
"A.	c #D1D7E1",
"B.	c #D9DEE6",
"C.	c #DEE3EA",
"D.	c #C2C6CC",
"E.	c #8A8E92",
"F.	c #969BA0",
"G.	c #A4A9AE",
"H.	c #B4BBC9",
"I.	c #9AA6BF",
"J.	c #A6B2CA",
"K.	c #B5C0D7",
"L.	c #BEC8DC",
"M.	c #C9D1E2",
"N.	c #D7DCE7",
"O.	c #E3E9F0",
"P.	c #E3DADC",
"Q.	c #DEB2B2",
"R.	c #DFB1B1",
"S.	c #E6D1D3",
"T.	c #E6EAEE",
"U.	c #E4E7EB",
"V.	c #E5E8ED",
"W.	c #CDD0D5",
"X.	c #8D9094",
"Y.	c #979DA2",
"Z.	c #9AA0A6",
"`.	c #C0C6D1",
" +	c #C0C8D5",
".+	c #E4E7EE",
"++	c #F0F2F6",
"@+	c #F4F5F7",
"#+	c #F5F6F7",
"$+	c #F3F7F9",
"%+	c #EAE3E4",
"&+	c #D69F9F",
"*+	c #D28D8D",
"=+	c #DAA2A2",
"-+	c #E4CCCE",
";+	c #E8EBEF",
">+	c #E6E9ED",
",+	c #E6E9EE",
"'+	c #D5DADF",
")+	c #8E9196",
"!+	c #9CA0A6",
"~+	c #8C9399",
"{+	c #CED3D8",
"]+	c #E3E6E9",
"^+	c #F9FAFB",
"/+	c #F8F9FA",
"(+	c #F7F8F9",
"_+	c #F4F9FA",
":+	c #EFEFF0",
"<+	c #D19393",
"[+	c #CA7B7B",
"}+	c #D18D8D",
"|+	c #D79B9B",
"1+	c #E3C9CB",
"2+	c #E9ECF0",
"3+	c #E8EBEE",
"4+	c #E0E4E8",
"5+	c #909398",
"6+	c #A9ADB1",
"7+	c #91969B",
"8+	c #CBD0D5",
"9+	c #EBEEF1",
"0+	c #FCFCFD",
"a+	c #FAFBFC",
"b+	c #F8FAFC",
"c+	c #F1EAEB",
"d+	c #CF8989",
"e+	c #C06363",
"f+	c #DEB7B7",
"g+	c #D7A0A0",
"h+	c #D49292",
"i+	c #E1C3C4",
"j+	c #E9ECEF",
"k+	c #EBEDF0",
"l+	c #EAECF0",
"m+	c #54595C",
"n+	c #8E9296",
"o+	c #B9BDC1",
"p+	c #A4A9AD",
"q+	c #C8CCD1",
"r+	c #F0F3F5",
"s+	c #FEFEFE",
"t+	c #FCFDFD",
"u+	c #F6F3F3",
"v+	c #D69D9D",
"w+	c #BC5555",
"x+	c #D59D9D",
"y+	c #E8D3D3",
"z+	c #D39393",
"A+	c #D18B8B",
"B+	c #D8A3A3",
"C+	c #E5CCCD",
"D+	c #EBF2F6",
"E+	c #EDEFF3",
"F+	c #717579",
"G+	c #8D9095",
"H+	c #C5C8CC",
"I+	c #BFC2C4",
"J+	c #C6CBCF",
"K+	c #F2F4F7",
"L+	c #FEFFFF",
"M+	c #E1B5B6",
"N+	c #BB5454",
"O+	c #B95050",
"P+	c #C87676",
"Q+	c #C67373",
"R+	c #C87474",
"S+	c #CE8585",
"T+	c #D59898",
"U+	c #E5CBCB",
"V+	c #EDF4F8",
"W+	c #EDF0F2",
"X+	c #F2F4F6",
"Y+	c #8D9195",
"Z+	c #8C9095",
"`+	c #CACED2",
" @	c #C8CCCF",
".@	c #C2C6C9",
"+@	c #F7F9FB",
"@@	c #FDFDFE",
"#@	c #FFFFFF",
"$@	c #CF8686",
"%@	c #B94F4F",
"&@	c #BF5D5D",
"*@	c #C56F6F",
"=@	c #D18F8F",
"-@	c #CB7C7C",
";@	c #E0BABA",
">@	c #F2F5F7",
",@	c #F1F3F5",
"'@	c #EFF1F3",
")@	c #F5F7F9",
"!@	c #8F9398",
"~@	c #C8CDD2",
"{@	c #C9CCCE",
"]@	c #C3C6C9",
"^@	c #F7F9FA",
"/@	c #FCFDFE",
"(@	c #E3B8B8",
"_@	c #DEADAD",
":@	c #EBCDCD",
"<@	c #F4E7E7",
"[@	c #F8F2F3",
"}@	c #DDABAB",
"|@	c #DCAFB0",
"1@	c #E4D4D7",
"2@	c #EFF2F5",
"3@	c #F0F1F4",
"4@	c #F2F4F5",
"5@	c #F3F5F7",
"6@	c #C3C7CA",
"7@	c #8E959A",
"8@	c #C0C4C9",
"9@	c #C6C9CC",
"0@	c #CACCCE",
"a@	c #F2F3F4",
"b@	c #FDFAFA",
"c@	c #FAF9FB",
"d@	c #DCE2ED",
"e@	c #EDF0F5",
"f@	c #F6F7FA",
"g@	c #D6DDEA",
"h@	c #BEC9DC",
"i@	c #AEBBD5",
"j@	c #B9C5DB",
"k@	c #E3E7EF",
"l@	c #F9FBFC",
"m@	c #DDDFE1",
"n@	c #868C91",
"o@	c #B2B6BA",
"p@	c #B1B4B7",
"q@	c #D7D9DA",
"r@	c #DFE0E1",
"s@	c #E7EBF3",
"t@	c #7A8FBB",
"u@	c #8DA0C5",
"v@	c #6982B4",
"w@	c #7A90BD",
"x@	c #97A8CA",
"y@	c #B1BDD6",
"z@	c #C2CADA",
"A@	c #CED2D9",
"B@	c #ACAFB0",
"C@	c #737577",
"D@	c #73787C",
"E@	c #A8AEB4",
"F@	c #A4A8AB",
"G@	c #E4E5E6",
"H@	c #D1D3D5",
"I@	c #C8D1E4",
"J@	c #BDC8DE",
"K@	c #AAB6D1",
"L@	c #B9C0CD",
"M@	c #AAAEB4",
"N@	c #9EA0A2",
"O@	c #838587",
"P@	c #656A6D",
"Q@	c #A0A4A8",
"R@	c #E8EAEB",
"S@	c #CED0D2",
"T@	c #F8F8F9",
"U@	c #FAFAFA",
"V@	c #D4D6D7",
"W@	c #9A9C9E",
"X@	c #727375",
"Y@	c #9CA2A7",
"Z@	c #989DA1",
"`@	c #DEE0E1",
" #	c #DDDFE0",
".#	c #E1E1E2",
"+#	c #E1E1E1",
"@#	c #A7A8AA",
"##	c #555658",
"$#	c #666B6F",
"%#	c #767B7F",
"&#	c #A3A7AA",
"*#	c #959799",
"=#	c #87898B",
"-#	c #5E6061",
"                                . + @ # $       ",
"            % & * = - ; > , ' ) ! ~ { ] ^ /     ",
"  ( _ : < [ } | 1 2 3 4 5 6 7 8 9 0 a b c d     ",
"  e f g h i j k l m n o p q r s t u v w x y     ",
"  z A B C D E F G H I J K L M N O P Q R S       ",
"  T U V W X Y Z `  ...+.@.#.$.%.&.*.=.-.;.      ",
"  >.,.'.).!.~.{.].^./.(._.:.<.[.}.|.1.2.3.      ",
"    4.5.6.7.8.9.0.a.b.c.d.e.f.g.h.i.j.k.l.      ",
"    m.n.o.p.q.r.s.t.u.v.d.w.x.y.z.A.B.C.D.      ",
"    E.F.G.H.I.J.K.L.M.N.O.P.Q.R.S.T.U.V.W.      ",
"    X.Y.Z.`. +.+++@+#+$+%+&+*+=+-+;+>+,+'+      ",
"    )+!+~+{+]+^+/+(+_+:+<+[+}+|+1+2+3+;+4+      ",
"    5+6+7+8+9+0+a+b+c+d+e+f+g+h+i+j+k+l+;+m+    ",
"    n+o+p+q+r+s+t+u+v+w+x+y+z+A+B+C+D+9+E+F+    ",
"    G+H+I+J+K+s+L+M+N+O+P+Q+R+S+T+U+V+W+X+Y+    ",
"    Z+`+ @.@+@@@#@$@%@&@*@=@[+-@;@>@,@'@)@6+    ",
"    !@~@{@]@^@/@#@(@_@:@<@[@}@|@1@2@3@4@5@6@    ",
"    7@8@9@0@a@L+#@b@c@d@e@f@g@h@i@j@k@/+l@m@    ",
"    n@o@p@q@r@#@#@#@s@t@u@v@w@x@y@z@A@0@B@C@    ",
"    D@E@F@G@H@s+#@#@#@I@J@K@L@M@N@O@            ",
"    P@p+Q@R@S@T@#@#@U@V@W@X@                    ",
"      Y@Z@`@ #.#+#@###                          ",
"      $#%#&#*#=#-#                              ",
"                                                "};
