/* XPM */
static const char * ephem_xpm[] = {
"24 24 220 2",
"  	c None",
". 	c #7C7C7C",
"+ 	c #A2A2A2",
"@ 	c #A1A1A1",
"# 	c #A0A0A1",
"$ 	c #A0A0A0",
"% 	c #9F9FA0",
"& 	c #9E9E9F",
"* 	c #9D9D9F",
"= 	c #99999B",
"- 	c #9D9D9E",
"; 	c #969697",
"> 	c #636363",
", 	c #A3A3A3",
"' 	c #FCFCFD",
") 	c #F8F8FA",
"! 	c #F5F5F8",
"~ 	c #F2F2F6",
"{ 	c #F0F0F4",
"] 	c #ECECF1",
"^ 	c #EAEAEF",
"/ 	c #E7E7ED",
"( 	c #E3E3EB",
"_ 	c #E0E0E9",
": 	c #ACACB2",
"< 	c #D0D0D8",
"[ 	c #DDDDE6",
"} 	c #DFDFE8",
"| 	c #E1E1E9",
"1 	c #E3E3EA",
"2 	c #E5E5EB",
"3 	c #E6E6ED",
"4 	c #E8E8EE",
"5 	c #EAEAF0",
"6 	c #DEDEE0",
"7 	c #777777",
"8 	c #A5A5A5",
"9 	c #FAFAFC",
"0 	c #F6F6F8",
"a 	c #F1F1F4",
"b 	c #EEEEF2",
"c 	c #E5E5EC",
"d 	c #E2E2E9",
"e 	c #DEDEE6",
"f 	c #D8D8E2",
"g 	c #C7C7D2",
"h 	c #5C5C60",
"i 	c #8C8C93",
"j 	c #D0D0DC",
"k 	c #D2D2DE",
"l 	c #D6D6E0",
"m 	c #DADAE4",
"n 	c #DCDCE6",
"o 	c #E1E1EA",
"p 	c #DBDBDE",
"q 	c #787878",
"r 	c #A6A6A7",
"s 	c #CFCFDA",
"t 	c #87878D",
"u 	c #BEBEC9",
"v 	c #DCDCDF",
"w 	c #7A7A7A",
"x 	c #A8A8A8",
"y 	c #D4D4E0",
"z 	c #929298",
"A 	c #CECEDB",
"B 	c #DBDBE4",
"C 	c #DCDCE0",
"D 	c #AAAAAA",
"E 	c #EDEDF2",
"F 	c #D5D5E0",
"G 	c #DCDCE5",
"H 	c #DFDFE7",
"I 	c #7D7D7D",
"J 	c #ACACAC",
"K 	c #F6F6F9",
"L 	c #F1F1F5",
"M 	c #EAE9EF",
"N 	c #E9C1C6",
"O 	c #E9A4AA",
"P 	c #E5AAB0",
"Q 	c #DACBD4",
"R 	c #929299",
"S 	c #CFCFDB",
"T 	c #E2E2EA",
"U 	c #DDDDE0",
"V 	c #7F7F7F",
"W 	c #AEAEAE",
"X 	c #EDC3C8",
"Y 	c #EF888C",
"Z 	c #E9A5AA",
"` 	c #E8989E",
" .	c #E6858C",
"..	c #D7C5D0",
"+.	c #DDDDE1",
"@.	c #818181",
"#.	c #AFAFAF",
"$.	c #EEE2E6",
"%.	c #F47D80",
"&.	c #E7D5DB",
"*.	c #E2A0A8",
"=.	c #E19098",
"-.	c #928E94",
";.	c #DEDEE1",
">.	c #828282",
",.	c #B1B1B1",
"'.	c #F2ECEF",
").	c #F49C9F",
"!.	c #EEB9BE",
"~.	c #DEDEE7",
"{.	c #DAD1DB",
"].	c #E38B92",
"^.	c #997277",
"/.	c #DEDEE2",
"(.	c #858585",
"_.	c #B3B3B3",
":.	c #F3D2D5",
"<.	c #F3989B",
"[.	c #EBDEE3",
"}.	c #DEA5AE",
"|.	c #B16065",
"1.	c #D2D2DA",
"2.	c #DFDFE2",
"3.	c #868686",
"4.	c #C8C8C9",
"5.	c #B1B1B3",
"6.	c #C0898B",
"7.	c #C0797C",
"8.	c #A9A9AC",
"9.	c #A6A6AA",
"0.	c #A4A4A8",
"a.	c #A1A1A7",
"b.	c #9D9DA4",
"c.	c #9C959C",
"d.	c #BC3E41",
"e.	c #9A949C",
"f.	c #9999A0",
"g.	c #9A9AA2",
"h.	c #9C9CA3",
"i.	c #9F9FA5",
"j.	c #A0A0A6",
"k.	c #AC949A",
"l.	c #7D7174",
"m.	c #7E7E81",
"n.	c #C8C8CA",
"o.	c #888888",
"p.	c #B2B2B2",
"q.	c #F3F3F5",
"r.	c #ECECEF",
"s.	c #E8E6E9",
"t.	c #E4E4E8",
"u.	c #E1E1E6",
"v.	c #DCDCE2",
"w.	c #D8D8E0",
"x.	c #D5D5DD",
"y.	c #D0D0D9",
"z.	c #CCCCD7",
"A.	c #A3787F",
"B.	c #DB7C84",
"C.	c #C8C8D4",
"D.	c #CACAD6",
"E.	c #CDCDD7",
"F.	c #D2D2DB",
"G.	c #D7C4CC",
"H.	c #E4888E",
"I.	c #A2878B",
"J.	c #DADADE",
"K.	c #878787",
"L.	c #D8D8E3",
"M.	c #929198",
"N.	c #E4737A",
"O.	c #D4BDC8",
"P.	c #E4ABB2",
"Q.	c #E9949A",
"R.	c #E1DDE5",
"S.	c #B0B0B0",
"T.	c #D99FA9",
"U.	c #DE9099",
"V.	c #DAD8E1",
"W.	c #ED7075",
"X.	c #E2C8D0",
"Y.	c #848484",
"Z.	c #D1C1CD",
"`.	c #E1838B",
" +	c #DCA7B0",
".+	c #DACED8",
"++	c #E98086",
"@+	c #E3B3BB",
"#+	c #ADADAD",
"$+	c #D5BAC5",
"%+	c #E3828A",
"&+	c #E38F97",
"*+	c #E6888E",
"=+	c #E69096",
"-+	c #808080",
";+	c #ABABAC",
">+	c #D6C2CD",
",+	c #DCB2BB",
"'+	c #DDBAC2",
")+	c #DBD4DD",
"!+	c #EEEEEF",
"~+	c #ECECED",
"{+	c #EAEAEB",
"]+	c #E7E7EA",
"^+	c #E5E5E8",
"/+	c #E3E3E6",
"(+	c #E1E1E5",
"_+	c #DFDFE4",
":+	c #DDDDE2",
"<+	c #DBDBE1",
"[+	c #B8B8BC",
"}+	c #D7D7DE",
"|+	c #D9D9DF",
"1+	c #DADAE0",
"2+	c #DFDFE3",
"3+	c #E0E0E4",
"4+	c #D4D4D6",
"5+	c #737373",
"6+	c #6B6B6B",
"7+	c #4C4C4C",
". + @ # # $ % % & & * = - - - & & & & & % % ; > ",
", ' ) ! ~ { ] ^ / ( _ : < [ } | 1 2 3 4 5 ] 6 7 ",
"8 9 0 a b 5 c d e f g h i j k l f m n } o c p q ",
"r 9 0 a b 5 c d e f s t u j k l f m n } o c v w ",
"x 9 0 a b 5 c d e f y z A j k l f B n } o c C . ",
"D 9 0 a E ^ 2 | e f y z A j k F f m G H | c C I ",
"J 9 K L b M N O P Q y R S j k l f m n } T c U V ",
"W 9 0 a b X Y Z `  ...z A j k l f m G } o c +.@.",
"#.9 0 a $.%.&.d e *.=.-.A j k l f m n } o c ;.>.",
",.9 K '.).!.c d ~.{.].^.A j k l f m n } T c /.(.",
"_.9 0 :.<.[.c d e f }.|.A j k l f m n } 1.1 2.3.",
"J 4.5.6.7.8.9.0.a.b.c.d.e.f.g.h.b.i.j.k.l.m.n.o.",
"p.q.r.s.t.u.v.w.x.y.z.A.B.C.D.E.y.F.G.H.I.: J.K.",
"p.9 K L b 5 c d e L.y M.N.O.k l f B P.Q.R.c 2.(.",
"S.9 0 a b 5 c d e f y z T.U.k l f V.W.X.o c /.Y.",
"W 9 0 a E ^ 2 d e f y z Z.`. +F .+++@+} | c ;.>.",
"#+9 0 a b ^ c d e f y z A $+%+&+*+=+n } o c +.-+",
";+9 0 a b 5 c d e f y z A j >+,+'+)+n } o c U V ",
"D 9 0 a b 5 c d e f y z A j k l f m n } o c C I ",
"x 9 0 a b 5 c | e f y z A j k F f m G H | c v . ",
"r 9 0 a b 5 c d e f y z A j k l f m n } o c v w ",
"8 9 0 a E ^ 2 | e f y z A j k F f m n } | c p q ",
"- !+~+{+]+^+/+(+_+:+<+[+}+|+1+<+v./.2+3+(+/+4+5+",
"6+I I I I I I I I I I . I I I I I I I I I I 7 7+"};
