/* XPM */
static char * goto_xpm[] = {
"24 24 217 2",
"  	c None",
". 	c #B2B2B2",
"+ 	c #BBBBBB",
"@ 	c #BABABA",
"# 	c #B5B5B5",
"$ 	c #FFFFFF",
"% 	c #D4D4D4",
"& 	c #B9B9B9",
"* 	c #FDFDFD",
"= 	c #F8F8F8",
"- 	c #F9F9F9",
"; 	c #FAFAFA",
"> 	c #FBFBFB",
", 	c #FCFCFC",
"' 	c #FEFEFE",
") 	c #D2D2D2",
"! 	c #F7F7F7",
"~ 	c #D5D5D5",
"{ 	c #F6F6F6",
"] 	c #F4F4F4",
"^ 	c #F5F5F5",
"/ 	c #DBDBDA",
"( 	c #B8B8B8",
"_ 	c #F3F3F3",
": 	c #EBEBEC",
"< 	c #808283",
"[ 	c #3D3C3D",
"} 	c #9C9B9C",
"| 	c #9F9E9E",
"1 	c #3D3C3E",
"2 	c #6F7172",
"3 	c #F2F2F2",
"4 	c #F6F7F7",
"5 	c #AEAEAE",
"6 	c #626365",
"7 	c #343436",
"8 	c #5A5A5D",
"9 	c #494749",
"0 	c #F7F8F7",
"a 	c #C9C9C9",
"b 	c #4A4749",
"c 	c #39383A",
"d 	c #3A3B3E",
"e 	c #F1F1F1",
"f 	c #E5E5E6",
"g 	c #7E7F81",
"h 	c #58595B",
"i 	c #666667",
"j 	c #7E7E7F",
"k 	c #747476",
"l 	c #413F42",
"m 	c #A0A1A0",
"n 	c #68696A",
"o 	c #A1A2A2",
"p 	c #666668",
"q 	c #545557",
"r 	c #F0F0F0",
"s 	c #A9ACAD",
"t 	c #636465",
"u 	c #505053",
"v 	c #48494D",
"w 	c #595A5E",
"x 	c #79797A",
"y 	c #312F30",
"z 	c #343233",
"A 	c #656668",
"B 	c #343234",
"C 	c #9FA2A4",
"D 	c #CACACA",
"E 	c #79797D",
"F 	c #5E5E60",
"G 	c #595859",
"H 	c #545254",
"I 	c #636263",
"J 	c #49474A",
"K 	c #2C2A2A",
"L 	c #68696B",
"M 	c #6A6A6C",
"N 	c #312F2F",
"O 	c #606061",
"P 	c #565658",
"Q 	c #7F7F82",
"R 	c #DADADA",
"S 	c #4E5050",
"T 	c #939395",
"U 	c #929293",
"V 	c #727071",
"W 	c #464444",
"X 	c #3C3A3C",
"Y 	c #555356",
"Z 	c #4B4B4C",
"` 	c #828386",
" .	c #838487",
"..	c #4F4F51",
"+.	c #737272",
"@.	c #7A7A7C",
"#.	c #4C4D4E",
"$.	c #575758",
"%.	c #B6B6B6",
"&.	c #8E8F8F",
"*.	c #A8A5A9",
"=.	c #9E9E9E",
"-.	c #A09D9F",
";.	c #A4A2A4",
">.	c #858386",
",.	c #424141",
"'.	c #3D3B3C",
").	c #525152",
"!.	c #666669",
"~.	c #434343",
"{.	c #656568",
"].	c #A6A3A6",
"^.	c #A29FA1",
"/.	c #A7A5A8",
"(.	c #363637",
"_.	c #7E7E7E",
":.	c #767375",
"<.	c #3F3141",
"[.	c #2E1133",
"}.	c #39123F",
"|.	c #3D0E43",
"1.	c #5A305F",
"2.	c #696268",
"3.	c #444446",
"4.	c #6D6F71",
"5.	c #6D6F72",
"6.	c #6F7071",
"7.	c #5A305E",
"8.	c #431649",
"9.	c #29092E",
"0.	c #403241",
"a.	c #716F71",
"b.	c #525251",
"c.	c #605161",
"d.	c #673671",
"e.	c #82498D",
"f.	c #895293",
"g.	c #D6C3DA",
"h.	c #4B0B54",
"i.	c #756F75",
"j.	c #464345",
"k.	c #66686A",
"l.	c #6C6D70",
"m.	c #474747",
"n.	c #501258",
"o.	c #7F458A",
"p.	c #895393",
"q.	c #D6C2D8",
"r.	c #622F6C",
"s.	c #615362",
"t.	c #343433",
"u.	c #494949",
"v.	c #7A5F7B",
"w.	c #7A4083",
"x.	c #915B9C",
"y.	c #9D6DA7",
"z.	c #9F72A9",
"A.	c #723D7A",
"B.	c #7D757D",
"C.	c #383A39",
"D.	c #4A494A",
"E.	c #545454",
"F.	c #555555",
"G.	c #4B4B4B",
"H.	c #393A3A",
"I.	c #733E7B",
"J.	c #8D5899",
"K.	c #9D6DA8",
"L.	c #A275AC",
"M.	c #793F82",
"N.	c #7B607C",
"O.	c #313130",
"P.	c #4A4A4A",
"Q.	c #6D586E",
"R.	c #905A9B",
"S.	c #A577AE",
"T.	c #8E579A",
"U.	c #773F80",
"V.	c #736574",
"W.	c #4D4D4C",
"X.	c #E1E1E1",
"Y.	c #E3E3E3",
"Z.	c #DDDDDD",
"`.	c #4E4E4E",
" +	c #736474",
".+	c #90599B",
"++	c #8F589A",
"@+	c #733F7C",
"#+	c #6F5A70",
"$+	c #2D2D2D",
"%+	c #8A8A8A",
"&+	c #777677",
"*+	c #633B66",
"=+	c #6E5475",
"-+	c #7C5484",
";+	c #4A1950",
">+	c #643A67",
",+	c #818081",
"'+	c #D8D8D8",
")+	c #828082",
"!+	c #643B67",
"~+	c #6F5475",
"{+	c #643C67",
"]+	c #6A6969",
"^+	c #4D4D4D",
"/+	c #7A7C79",
"(+	c #B3B2B3",
"_+	c #B4B3B4",
":+	c #B0B1B0",
"<+	c #7A7C7A",
"[+	c #585857",
"}+	c #9C9C9C",
"|+	c #9A9A9A",
"1+	c #9B9B9B",
"2+	c #5A5A5A",
"3+	c #777977",
"4+	c #767976",
". + @ @ @ @ @ @ @ @ @ @ @ @ @ @ #               ",
"@ $ $ $ $ $ $ $ $ $ $ $ $ $ $ $ %               ",
"& * = - - ; > , * ' ' ' * , ; - )               ",
"& , = = = - ; > , * * ' $ ' , , %               ",
"& > ! ! = - ; ; > , * * ' $ ' * ~               ",
"& ; { ! ! = - ; ; > , * ' ' ' ' ~               ",
"& ; { { { ! = - - ; > , * * ' $ ~               ",
"& - ] ^ ^ { ! = - ; ; > , * * $ ~               ",
"& = ] ] ^ ^ ! * $ * - ; > , $ $ /               ",
"( ! _ _ ] ! : < [ } ' ; > $ | 1 2               ",
"( ! 3 ] 4 5 6 7 8 9 0 a a ; b 8 c d             ",
"( ^ e f g h i j k l m n n o l k j p q n         ",
"( ^ r s t u v w x y z A A B y x w v u A C       ",
"( - D E q F G H I J K L M N J I H G O P Q       ",
"& R i S T U V W X Y Z `  ...Y X W +.x @.#.$.    ",
"%.&.*.=.-.;.>.,.'.).!.~.~.{.).'.,.>.].^.| /.(.  ",
"_.:.<.[.}.|.1.2.3.4.5.6.6.5.4.3.2.7.8.}.9.0.a.  ",
"b.c.d.e.f.g.h.i.j.k.l.m.m.l.k.j.i.n.o.p.q.r.s.t.",
"u.v.w.x.y.z.A.B.C.D.E.% % F.G.H.B.I.J.K.L.M.N.O.",
"P.Q.I.R.S.T.U.V.W.R X.3 _ Y.Z.`. +U..+S.++@+#+$+",
"%+&+*+=+-+;+>+,+% $ $ $ $ $ $ '+)+!+;+-+~+{+]+  ",
"5 ^+/+(+_+:+<+[+}+|+|+|+1+1+1+=.2+3+:+_+(+4+    ",
"                                                ",
"                                                "};
