/* XPM */
static const char * graphicaldasa_xpm[] = {
"24 24 321 2",
"  	c None",
". 	c #344678",
"+ 	c #7580A4",
"@ 	c #838CAD",
"# 	c #808AAB",
"$ 	c #7D87AA",
"% 	c #7A84A8",
"& 	c #7681A6",
"* 	c #747FA4",
"= 	c #707BA2",
"- 	c #6E79A0",
"; 	c #6A769F",
"> 	c #67749D",
", 	c #63709B",
"' 	c #616E99",
") 	c #5D6C97",
"! 	c #5B6996",
"~ 	c #576694",
"{ 	c #546392",
"] 	c #516190",
"^ 	c #4E5E8E",
"/ 	c #49598A",
"( 	c #304274",
"_ 	c #54638D",
": 	c #BABDD2",
"< 	c #B4B7CE",
"[ 	c #B0B4CC",
"} 	c #ABAFC9",
"| 	c #A7ABC7",
"1 	c #A1A6C3",
"2 	c #9EA4C1",
"3 	c #989EBE",
"4 	c #949CBC",
"5 	c #8F97B9",
"6 	c #8B93B7",
"7 	c #858EB4",
"8 	c #818BB1",
"9 	c #7C87AE",
"0 	c #7883AB",
"a 	c #727EA9",
"b 	c #6E7AA6",
"c 	c #6977A3",
"d 	c #6573A0",
"e 	c #5E6D9B",
"f 	c #3E507F",
"g 	c #152447",
"h 	c #3E4F7E",
"i 	c #142345",
"j 	c #5B6A92",
"k 	c #D0D2E0",
"l 	c #CDCFDE",
"m 	c #CACDDC",
"n 	c #C7CADB",
"o 	c #C4C7D9",
"p 	c #C0C4D7",
"q 	c #BEC2D6",
"r 	c #BABED4",
"s 	c #B8BCD2",
"t 	c #B4B9D0",
"u 	c #B1B7CE",
"v 	c #ADB3CC",
"w 	c #ABB1CB",
"x 	c #A8AFC9",
"y 	c #A5ACC7",
"z 	c #A1A9C5",
"A 	c #9EA6C4",
"B 	c #9BA4C2",
"C 	c #97A0BF",
"D 	c #909ABA",
"E 	c #606D92",
"F 	c #132142",
"G 	c #6A789B",
"H 	c #FEFEFE",
"I 	c #FFFFFF",
"J 	c #FBFBFC",
"K 	c #F3F3F6",
"L 	c #A4AABC",
"M 	c #132141",
"N 	c #FCFAFB",
"O 	c #F5E4E5",
"P 	c #F1D5D8",
"Q 	c #EBC4C7",
"R 	c #E6B5B9",
"S 	c #E1A8AC",
"T 	c #E1A6AB",
"U 	c #E3ACB1",
"V 	c #F5E3E5",
"W 	c #FDFDFD",
"X 	c #F2F2F5",
"Y 	c #A1A7B9",
"Z 	c #131F40",
"` 	c #FAF7F8",
" .	c #EFCFD2",
"..	c #E4B0B4",
"+.	c #D7898F",
"@.	c #CD6A71",
"#.	c #C34A53",
"$.	c #C0424B",
"%.	c #C44F57",
"&.	c #F6F6F7",
"*.	c #A0A5B7",
"=.	c #131F3F",
"-.	c #69779B",
";.	c #F8F7F8",
">.	c #F4E1E2",
",.	c #EBC3C5",
"'.	c #DE9BA0",
").	c #D37C82",
"!.	c #C7565F",
"~.	c #C1464E",
"{.	c #E5BFC3",
"].	c #F6F7FA",
"^.	c #F8F9FB",
"/.	c #FBFCFC",
"(.	c #F7F7F9",
"_.	c #9EA3B5",
":.	c #121E3D",
"<.	c #68769A",
"[.	c #F2F1F5",
"}.	c #CAC7D6",
"|.	c #BDB5C8",
"1.	c #B0A0B7",
"2.	c #A791A9",
"3.	c #9B7D98",
"4.	c #93718E",
"5.	c #8A6888",
"6.	c #846384",
"7.	c #7F6385",
"8.	c #8583A6",
"9.	c #8A95B8",
"0.	c #A8B0CA",
"a.	c #E6E8EF",
"b.	c #F7F6F8",
"c.	c #9DA1B3",
"d.	c #121E3B",
"e.	c #EFEFF3",
"f.	c #B7BAD0",
"g.	c #A9AEC8",
"h.	c #9DA3C1",
"i.	c #949BBC",
"j.	c #8991B5",
"k.	c #7F89B0",
"l.	c #7480A9",
"m.	c #6A77A4",
"n.	c #606E9D",
"o.	c #5C6B9C",
"p.	c #8691B5",
"q.	c #DDDFE9",
"r.	c #F6F6F8",
"s.	c #9A9FB1",
"t.	c #111D39",
"u.	c #EEEEF1",
"v.	c #BDBEC7",
"w.	c #B0B2BE",
"x.	c #A5A7B8",
"y.	c #9D9FB4",
"z.	c #9295AD",
"A.	c #8A8EA8",
"B.	c #7F84A1",
"C.	c #767D9D",
"D.	c #6C7396",
"E.	c #666F93",
"F.	c #5F6C98",
"G.	c #5C6B9B",
"H.	c #F5F5F7",
"I.	c #989DAE",
"J.	c #111C38",
"K.	c #EEEDE2",
"L.	c #D5C64B",
"M.	c #D2BB3A",
"N.	c #D2AE37",
"O.	c #D1A335",
"P.	c #D19632",
"Q.	c #D09231",
"R.	c #D09031",
"S.	c #D09030",
"T.	c #D08F30",
"U.	c #D08F2F",
"V.	c #D4BD9E",
"W.	c #D8D8DE",
"X.	c #DBDEE8",
"Y.	c #DCDFE9",
"Z.	c #E5E8EF",
"`.	c #F7F8FA",
" +	c #F4F4F6",
".+	c #969AAC",
"++	c #101B36",
"@+	c #677599",
"#+	c #EDECE0",
"$+	c #D6CA45",
"%+	c #D5BE33",
"&+	c #D4B331",
"*+	c #D4A82F",
"=+	c #D49B2D",
"-+	c #D5942B",
";+	c #D5932B",
">+	c #EAD0A8",
",+	c #F7F4F0",
"'+	c #FAFAFC",
")+	c #FCFCFD",
"!+	c #9599AB",
"~+	c #101A34",
"{+	c #EAEBE2",
"]+	c #CACF5B",
"^+	c #BABF3A",
"/+	c #AFAE2A",
"(+	c #ACA328",
"_+	c #A99426",
":+	c #A68A23",
"<+	c #A38021",
"[+	c #A27C21",
"}+	c #A17C21",
"|+	c #AFA777",
"1+	c #B8C1AA",
"2+	c #BBC5B2",
"3+	c #C0CAB8",
"4+	c #E1E5DE",
"5+	c #F7F8F8",
"6+	c #9598AA",
"7+	c #101A33",
"8+	c #E8EBE8",
"9+	c #BCD697",
"0+	c #8FBE56",
"a+	c #69A422",
"b+	c #60941E",
"c+	c #55831A",
"d+	c #4D7517",
"e+	c #446314",
"f+	c #3E5A12",
"g+	c #3D5912",
"h+	c #3F5D1B",
"i+	c #406021",
"j+	c #416122",
"k+	c #506C33",
"l+	c #AEBBA3",
"m+	c #EEF0EF",
"n+	c #F9F9FB",
"o+	c #FAFAFB",
"p+	c #9498A9",
"q+	c #0F1932",
"r+	c #667499",
"s+	c #E8EAEC",
"t+	c #D2E4C0",
"u+	c #A5CC7E",
"v+	c #6EAD31",
"w+	c #5D9B21",
"x+	c #51891B",
"y+	c #497B18",
"z+	c #3F6816",
"A+	c #375C13",
"B+	c #345612",
"C+	c #436224",
"D+	c #A8B59B",
"E+	c #ECEEEC",
"F+	c #F8F8FA",
"G+	c #F9F9FA",
"H+	c #ECECF1",
"I+	c #9497A8",
"J+	c #0E1830",
"K+	c #E8E9ED",
"L+	c #E1EADB",
"M+	c #C3DAAE",
"N+	c #98C272",
"O+	c #87B35B",
"P+	c #7DA656",
"Q+	c #769C54",
"R+	c #708F52",
"S+	c #6A8550",
"T+	c #667F4F",
"U+	c #667E4F",
"V+	c #677F4F",
"W+	c #678050",
"X+	c #72895D",
"Y+	c #BBC5B4",
"Z+	c #EDEEEE",
"`+	c #E5E5EB",
" @	c #9397A7",
".@	c #0E172E",
"+@	c #5D6D93",
"@@	c #EFF0F3",
"#@	c #F8F8F9",
"$@	c #F7F7F8",
"%@	c #F5F4F6",
"&@	c #F3F3F4",
"*@	c #F1F1F3",
"=@	c #F0F0F2",
"-@	c #EFEFF1",
";@	c #ECECF0",
">@	c #E7E7EB",
",@	c #E4E4E9",
"'@	c #E7E6EA",
")@	c #E3E3E9",
"!@	c #E1E1E8",
"~@	c #E2E2E8",
"{@	c #DFDFE5",
"]@	c #D6D6DE",
"^@	c #868A9B",
"/@	c #0D162C",
"(@	c #2E4170",
"_@	c #5A6990",
":@	c #657297",
"<@	c #647296",
"[@	c #637195",
"}@	c #627095",
"|@	c #616F94",
"1@	c #616E93",
"2@	c #606E93",
"3@	c #5F6D92",
"4@	c #5E6B90",
"5@	c #5C698D",
"6@	c #5B678A",
"7@	c #596587",
"8@	c #576383",
"9@	c #566281",
"0@	c #55607E",
"a@	c #555F7C",
"b@	c #545D78",
"c@	c #535B75",
"d@	c #505871",
"e@	c #323C56",
"f@	c #080E1C",
"                                                ",
"                                                ",
"                                                ",
". + @ # $ % & * = - ; > , ' ) ! ~ { ] ^ / (     ",
"_ : < [ } | 1 2 3 4 5 6 7 8 9 0 a b c d e f g   ",
"_ : < [ } | 1 2 3 4 5 6 7 8 9 0 a b c d e h i   ",
"j k l m n o p q r s t u v w x y z A B C D E F   ",
"G H H I I I I I I I I I I I I I I I I J K L M   ",
"G N O P Q R S T T T U V I I I I I I I W X Y Z   ",
"G `  ...+.@.#.$.$.$.%.Q I I I I I I I W &.*.=.  ",
"-.;.>.,.'.).!.~.$.$.%.{.].].].].].].^./.(._.:.  ",
"<.[.}.|.1.2.3.4.5.6.7.8.9.9.9.9.9.9.0.a.b.c.d.  ",
"<.e.f.g.h.i.j.k.l.m.n.o.o.o.o.o.o.o.p.q.r.s.t.  ",
"<.u.v.w.x.y.z.A.B.C.D.E.F.G.o.o.o.o.p.q.H.I.J.  ",
"<.K.L.M.N.O.P.Q.R.S.T.U.V.W.X.X.Y.Y.Z.`. +.+++  ",
"@+#+$+%+&+*+=+-+;+;+;+;+>+,+'+J )+H H H K !+~+  ",
"@+{+]+^+/+(+_+:+<+[+}+}+|+1+2+3+4+5+)+W X 6+7+  ",
"@+8+9+0+a+b+c+d+e+f+g+g+h+i+j+k+l+m+n+o+e.p+q+  ",
"r+s+t+u+v+w+x+y+z+A+B+B+B+B+B+C+D+E+F+G+H+I+J+  ",
"r+K+L+M+N+O+P+Q+R+S+T+U+U+V+W+X+Y+Z+r.&.`+ @.@  ",
"+@@@#@$@H.H.H.%@&@*@=@-@;@>@,@'@)@!@~@{@]@^@/@  ",
"(@_@:@<@[@}@|@1@2@3@4@5@6@7@8@9@0@a@b@c@d@e@f@  ",
"                                                ",
"                                                "};
