/* XPM */
static const char * help_xpm[] = {
"24 24 235 2",
"  	c None",
". 	c #397AFF",
"+ 	c #3879FF",
"@ 	c #3678FF",
"# 	c #3476FF",
"$ 	c #3276FF",
"% 	c #3B7CFF",
"& 	c #3C7DFF",
"* 	c #4482FF",
"= 	c #598EFA",
"- 	c #709DF9",
"; 	c #729EF9",
"> 	c #5B8FFA",
", 	c #3F7EFF",
"' 	c #3477FF",
") 	c #2F73FF",
"! 	c #4381FF",
"~ 	c #6094FE",
"{ 	c #9BBBFC",
"] 	c #D7E4FD",
"^ 	c #EDF2FD",
"/ 	c #E8EEFC",
"( 	c #E7EEFC",
"_ 	c #E0EAFD",
": 	c #AFC7F9",
"< 	c #6D9BF7",
"[ 	c #3D7CFD",
"} 	c #2B71FF",
"| 	c #4884FC",
"1 	c #8AB0FD",
"2 	c #C8DAFD",
"3 	c #DEE8FD",
"4 	c #D1DEF8",
"5 	c #D7E2F8",
"6 	c #DEE6F8",
"7 	c #DCE6F8",
"8 	c #D5E1F8",
"9 	c #D7E3FA",
"0 	c #D4E2FE",
"a 	c #9CBAF9",
"b 	c #4680F6",
"c 	c #286EFF",
"d 	c #4180FF",
"e 	c #8FB3FC",
"f 	c #D0E0FE",
"g 	c #D1E0FD",
"h 	c #C0D1F5",
"i 	c #EDF2FC",
"j 	c #F6F9FD",
"k 	c #FFFFFF",
"l 	c #F2F5FD",
"m 	c #E3EBFA",
"n 	c #CEDDFA",
"o 	c #D5E3FF",
"p 	c #A2BEF6",
"q 	c #437EF7",
"r 	c #266DFF",
"s 	c #4280FF",
"t 	c #80A9FD",
"u 	c #C1D5FE",
"v 	c #C6D8FE",
"w 	c #C3D4F7",
"x 	c #F1F5FC",
"y 	c #FCFDFF",
"z 	c #F2F6FF",
"A 	c #F0F5FF",
"B 	c #F6F9FF",
"C 	c #FEFFFF",
"D 	c #E4EBFA",
"E 	c #C9DAFD",
"F 	c #C5D8FF",
"G 	c #8EB1FA",
"H 	c #3476FD",
"I 	c #588FFE",
"J 	c #A8C4FD",
"K 	c #BCD2FF",
"L 	c #B8CFFC",
"M 	c #D7E2F9",
"N 	c #FEFEFF",
"O 	c #E4EDFF",
"P 	c #C1D5FF",
"Q 	c #BCD3FF",
"R 	c #C7DAFE",
"S 	c #EFF4FD",
"T 	c #FDFEFF",
"U 	c #CEDEFF",
"V 	c #B2CCFE",
"W 	c #5C8FFA",
"X 	c #226BFF",
"Y 	c #7FA8FC",
"Z 	c #ACC7FF",
"` 	c #AEC8FF",
" .	c #B2CAFD",
"..	c #E0E8FA",
"+.	c #F5F8FF",
"@.	c #C2D6FF",
"#.	c #A9C4FC",
"$.	c #D0DDF5",
"%.	c #CFDFFF",
"&.	c #A9C5FE",
"*.	c #95B7FC",
"=.	c #6F9CF8",
"-.	c #246CFF",
";.	c #91B5FD",
">.	c #9DBDFF",
",.	c #A2C0FE",
"'.	c #CEDEFE",
").	c #D2E1FF",
"!.	c #9FBFFF",
"~.	c #9DBDFE",
"{.	c #A0BBF1",
"].	c #E8EEF9",
"^.	c #FAFCFF",
"/.	c #94B6FC",
"(.	c #5A8FFD",
"_.	c #548DFF",
":.	c #1E68FF",
"<.	c #4B86FE",
"[.	c #8EB3FF",
"}.	c #90B4FF",
"|.	c #98BAFF",
"1.	c #A6C4FF",
"2.	c #94B8FF",
"3.	c #9EBAF3",
"4.	c #D9E3F5",
"5.	c #FBFCFE",
"6.	c #CFDEFC",
"7.	c #689AFE",
"8.	c #3D7DFF",
"9.	c #1D67FF",
"0.	c #3779FF",
"a.	c #568DFB",
"b.	c #82ACFF",
"c.	c #85A8EE",
"d.	c #E3EAF8",
"e.	c #FEFEFE",
"f.	c #7BA5FB",
"g.	c #568EFF",
"h.	c #1B66FF",
"i.	c #3578FF",
"j.	c #548BFC",
"k.	c #709FFF",
"l.	c #79A1F4",
"m.	c #D9E3F7",
"n.	c #E0E9FD",
"o.	c #6B9BFB",
"p.	c #1A65FE",
"q.	c #3376FF",
"r.	c #4884FF",
"s.	c #6396FF",
"t.	c #6296FF",
"u.	c #6195FE",
"v.	c #92B2F5",
"w.	c #F0F3FA",
"x.	c #D9E5FE",
"y.	c #7DA7FC",
"z.	c #5890FF",
"A.	c #3C7DFE",
"B.	c #1A65FD",
"C.	c #5D92FF",
"D.	c #5E93FE",
"E.	c #5C92FF",
"F.	c #5B91FF",
"G.	c #99B8F8",
"H.	c #F5F7FB",
"I.	c #F9FBFF",
"J.	c #A6C3FE",
"K.	c #3174FE",
"L.	c #1A64FB",
"M.	c #5C91FE",
"N.	c #5E93FF",
"O.	c #86ACFA",
"P.	c #DBE6FD",
"Q.	c #D4E2FF",
"R.	c #7DA8FF",
"S.	c #5A90FE",
"T.	c #1C66FD",
"U.	c #4D86FD",
"V.	c #6698FF",
"W.	c #6798FB",
"X.	c #9FBCF8",
"Y.	c #6B9BFE",
"Z.	c #4380FC",
"`.	c #3A7AFC",
" +	c #6798FA",
".+	c #719FFF",
"++	c #709EFD",
"@+	c #96B5F3",
"#+	c #E2EAF9",
"$+	c #E6EDFC",
"%+	c #A7C4FE",
"&+	c #72A0FF",
"*+	c #6496FA",
"=+	c #2B6FFA",
"-+	c #427EF9",
";+	c #6F9DF8",
">+	c #7AA6FF",
",+	c #78A4FB",
"'+	c #B8CDF8",
")+	c #CBDCFF",
"!+	c #81ABFF",
"~+	c #3675F5",
"{+	c #1A64FA",
"]+	c #276EFF",
"^+	c #79A3F7",
"/+	c #83ADFF",
"(+	c #83ACFE",
"_+	c #A6C3FD",
":+	c #E9F0FF",
"<+	c #B1CBFF",
"[+	c #86AEFF",
"}+	c #77A1F6",
"|+	c #3A77F4",
"1+	c #256CFF",
"2+	c #3B7AF9",
"3+	c #6695F3",
"4+	c #8AAFFB",
"5+	c #91B5FF",
"6+	c #9FBEFF",
"7+	c #A1BFFF",
"8+	c #93B6FF",
"9+	c #8AAFFA",
"0+	c #6291F0",
"a+	c #3373F6",
"b+	c #216AFF",
"c+	c #3072F7",
"d+	c #5E8DEB",
"e+	c #6D99F2",
"f+	c #76A2FD",
"g+	c #76A2FC",
"h+	c #6C98F1",
"i+	c #5B8AE9",
"j+	c #2A6CF5",
"k+	c #1C66FF",
"l+	c #1A64FD",
"                                                ",
"                  . + + @ # $                   ",
"              % & * = - ; > , ' )               ",
"          % ! ~ { ] ^ / ( ( _ : < [ }           ",
"        % | 1 2 3 4 5 6 7 7 8 9 0 a b c         ",
"      % d e f g h i j k k k l m n o p q r       ",
"      s t u v w x k y z A B C k D E F G H       ",
"    % I J K L M k N O P Q R S k T U K V W X     ",
"    & Y Z `  ...k +.@.` ` #.$.k k %.&.*.=.-.    ",
"  . ! ;.>.>.,.'.A ).!.>.~.{.].k ^./.(._._.# :.  ",
"  + <.[.}.}.}.|.1.2.}.}.3.4.5.N 6.7._._._.8.9.  ",
"  0.a.b.b.b.b.b.b.b.b.c.d.e.k _ f.g._._._.* h.  ",
"  i.j.k.k.k.k.k.k.k.l.m.k y n.o._._._._._.* p.  ",
"  q.r.s.s.s.s.s.t.u.v.w.k x.y.z.z.z.z.z.z.A.B.  ",
"  $ d C.D.D.C.E.E.F.G.H.I.J.C.F.F.F.F.F.F.K.L.  ",
"    q.M.N.N.N.N.N.N.O.P.Q.R.N.N.N.N.N.N.S.T.    ",
"    ) U.V.V.V.V.V.V.W.X.G.Y.V.V.V.V.V.V.Z.L.    ",
"      `. +.+.+.+.+++@+#+$+%+&+.+.+.+.+*+=+      ",
"      } -+;+>+>+>+,+'+C k )+!+>+>+>+< ~+{+      ",
"        ]+q ^+/+/+(+_+O :+<+[+/+/+}+|+{+        ",
"          1+2+3+4+[.5+6+7+8+[.9+0+a+{+          ",
"              b+c+d+e+f+g+h+i+j+L.              ",
"                  :.k+h.p.l+L.                  ",
"                                                "};
