/* XPM */
static char * hora_xpm[] = {
"24 24 192 2",
"  	c None",
". 	c #B7B7B7",
"+ 	c #B6B6B6",
"@ 	c #B5B5B5",
"# 	c #ABAEB1",
"$ 	c #58739A",
"% 	c #A7A7A7",
"& 	c #F0F0F0",
"* 	c #F3F3F3",
"= 	c #F2F2F2",
"- 	c #E8E8E8",
"; 	c #CFCFCF",
"> 	c #6B82A4",
", 	c #1F5CB5",
"' 	c #306FCE",
") 	c #A3A3A3",
"! 	c #D1D1D1",
"~ 	c #CECECE",
"{ 	c #E1E1E1",
"] 	c #F4F4F4",
"^ 	c #EBEBEB",
"/ 	c #DDDDDD",
"( 	c #D2CFCA",
"_ 	c #6D7F9A",
": 	c #295EB0",
"< 	c #4585EB",
"[ 	c #3367BA",
"} 	c #969696",
"| 	c #B4B4B4",
"1 	c #BDBDBD",
"2 	c #B2B2B2",
"3 	c #BBBBBB",
"4 	c #FAFAFA",
"5 	c #F5F5F5",
"6 	c #E5E5E5",
"7 	c #CBCBCA",
"8 	c #BDBAB6",
"9 	c #536D92",
"0 	c #1F58AC",
"a 	c #4380E0",
"b 	c #5087E1",
"c 	c #3463AD",
"d 	c #5A5A5A",
"e 	c #939393",
"f 	c #DCDCDC",
"g 	c #ABABAB",
"h 	c #C9C9C9",
"i 	c #A9A9A9",
"j 	c #FBFBFB",
"k 	c #CDCDCD",
"l 	c #B8B7B6",
"m 	c #A3A4A6",
"n 	c #22539D",
"o 	c #2664C1",
"p 	c #3571CD",
"q 	c #6A9EF5",
"r 	c #416FB6",
"s 	c #8D8D8D",
"t 	c #D6D6D6",
"u 	c #868686",
"v 	c #AEAEAE",
"w 	c #C6C6C6",
"x 	c #F8F8F8",
"y 	c #B6B5B5",
"z 	c #B0ADA8",
"A 	c #3E659D",
"B 	c #1E5BB5",
"C 	c #1F57A9",
"D 	c #1F519B",
"E 	c #3E71C1",
"F 	c #7B7B7B",
"G 	c #A4A4A4",
"H 	c #D5D5D5",
"I 	c #FFFFFF",
"J 	c #FDFDFD",
"K 	c #E9E9E9",
"L 	c #B6B2AC",
"M 	c #54729E",
"N 	c #3D6297",
"O 	c #6C7D95",
"P 	c #858D9A",
"Q 	c #89929F",
"R 	c #65758D",
"S 	c #BABABA",
"T 	c #A6A6A6",
"U 	c #929292",
"V 	c #C8C8C8",
"W 	c #999999",
"X 	c #EEEEEE",
"Y 	c #D3D3D3",
"Z 	c #BEBEBE",
"` 	c #B7B7B6",
" .	c #A8ABAF",
"..	c #AFAFAE",
"+.	c #B3B1B1",
"@.	c #B7B5B4",
"#.	c #C1C0BF",
"$.	c #9C9C9B",
"%.	c #CDCCCC",
"&.	c #C7C6C6",
"*.	c #E2E2E2",
"=.	c #DFDFDF",
"-.	c #CCCCCC",
";.	c #A1A1A1",
">.	c #D9D9D9",
",.	c #E0E0E0",
"'.	c #C8C9C9",
").	c #C6C6C5",
"!.	c #C5C5C6",
"~.	c #C7C7C7",
"{.	c #9C9C9C",
"].	c #B7B8B8",
"^.	c #DFDCDC",
"/.	c #DBD4D4",
"(.	c #E7E8E8",
"_.	c #DEDEDE",
":.	c #E7E7E7",
"<.	c #888888",
"[.	c #DBDBDB",
"}.	c #D8D8D8",
"|.	c #9F9F9F",
"1.	c #C5C5C5",
"2.	c #E3E3E3",
"3.	c #DFDBDB",
"4.	c #DBD3D3",
"5.	c #DEDDDD",
"6.	c #C1C1C1",
"7.	c #E4E4E4",
"8.	c #B1B1B1",
"9.	c #F9F9F9",
"0.	c #F1F1F1",
"a.	c #EAEAEA",
"b.	c #DADADA",
"c.	c #D4D4D4",
"d.	c #E6E6E6",
"e.	c #DDD5D5",
"f.	c #D1CCCC",
"g.	c #BBBCBC",
"h.	c #979797",
"i.	c #F6F6F6",
"j.	c #858585",
"k.	c #D8D9D9",
"l.	c #D0D2D2",
"m.	c #B3A6A6",
"n.	c #B79393",
"o.	c #EAECEC",
"p.	c #E4E5E5",
"q.	c #949494",
"r.	c #989898",
"s.	c #CACACA",
"t.	c #C4C4C4",
"u.	c #9E9E9E",
"v.	c #DFD5D5",
"w.	c #EDEDED",
"x.	c #848484",
"y.	c #E5E7E7",
"z.	c #D2D2D2",
"A.	c #B8B8B8",
"B.	c #757575",
"C.	c #ADADAD",
"D.	c #9B9B9B",
"E.	c #6F6F6F",
"F.	c #D0D0D0",
"G.	c #EFEFEF",
"H.	c #D7D7D7",
"I.	c #B0B0B0",
"J.	c #9A9A9A",
"K.	c #7E7E7E",
"L.	c #7C7C7C",
"M.	c #AFAFAF",
"N.	c #696969",
"O.	c #A2A2A2",
"P.	c #BFBFBF",
"Q.	c #AAAAAA",
"R.	c #C2C2C2",
"S.	c #A5A5A5",
"T.	c #7D7D7D",
"U.	c #959595",
"V.	c #BCBCBC",
"W.	c #B9B9B9",
"X.	c #A0A0A0",
"Y.	c #909090",
"Z.	c #B3B3B3",
"`.	c #A8A8A8",
" +	c #676767",
".+	c #707070",
"++	c #727272",
"@+	c #737373",
"#+	c #747474",
"$+	c #6D6D6D",
"%+	c #6C6C6C",
"&+	c #6A6A6A",
"                                                ",
"          . + + @ . # $                         ",
"        % & * = = & - ; > , '                   ",
"        ) ! ~ { ] * ^ / ( _ : < [               ",
"        } | 1 2 3 4 5 6 7 8 9 0 a b c           ",
"      d e f g h i & j - k l m n o p q r         ",
"        s t u v w x j - k y z A B C D E         ",
"        e v F G H I J K ~ + L M N O P Q R       ",
"      i S T U V W ) K X Y Z `  ...+.@.#.$.      ",
"    %.&.*.- =.^ t -.;.>.,.; '.).!.w ~.h {.      ",
"  ].^./.(._.h - :.- ;.<.f :.=.[.}.H ! k |.      ",
"% 1.2.3.4.5.6.K 7.6 f 8.% 9.0.a.2.b.Y -.|.      ",
"8.c.d.d.e.f.g.a.7.6 :./ h.0.i.X 7.b.; V |.      ",
"j.8.- k.l.m.n.o.p.:.V q.r.2.5 ^ { t s.t.u.      ",
"U f d.7.7.2.v.7.6 6 { / W b.w.7.>.; 1.Z u.      ",
"x.u.{ 6 7.7.y.7.7.7.f 2.e / 6 [.z.V Z A.{.      ",
"  B.Y w.6 7.7.7.:.2.c.C.|.,.b.z.s.6.. 8.D.      ",
"  E.F.S ,.- K 7.! G.-.u V H.F.h 6.A.I.g J.      ",
"    K.L.k ! 1.K t ; u M.! -.w 6.S 2 g T W       ",
"      N.|.v O.P.;.u Q.~.1.R.Z A.2 g S.O.r.      ",
"        T.D.U.r.S.A.P.Z V.W.@ I.Q.S.X.{.h.      ",
"        Y.A.. A.A.. @ | Z.I.C.`.S.;.{.r.h.      ",
"         +.+E..+++@+@+#+#+#+@+.+E.$+%+&+.+      ",
"                                                "};
