/* XPM */
static const char * info_xpm[] = {
"24 24 394 2",
"  	c None",
". 	c #8A9FC1",
"+ 	c #7289AF",
"@ 	c #536F9B",
"# 	c #4B6998",
"$ 	c #4B6897",
"% 	c #55709C",
"& 	c #758CB1",
"* 	c #8FA2C2",
"= 	c #6882AB",
"- 	c #6380AF",
"; 	c #839EC7",
"> 	c #B8C6DD",
", 	c #CDD8E9",
"' 	c #D7E0EE",
") 	c #D5DFEE",
"! 	c #CAD6E7",
"~ 	c #AEBFD9",
"{ 	c #7593C1",
"] 	c #5B7AAA",
"^ 	c #637DA7",
"/ 	c #667DA2",
"( 	c #42659C",
"_ 	c #97AED2",
": 	c #D1DBEC",
"< 	c #E8EDF8",
"[ 	c #F0F3F9",
"} 	c #EEF2F9",
"| 	c #EEF2F8",
"1 	c #EFF2F9",
"2 	c #EFF3F9",
"3 	c #E4EBF6",
"4 	c #C9D6E9",
"5 	c #7D9AC9",
"6 	c #395E99",
"7 	c #6C85AD",
"8 	c #5C7CB0",
"9 	c #B5C7E3",
"0 	c #DFE6F1",
"a 	c #D9E1EF",
"b 	c #E3E9F4",
"c 	c #EBF0F7",
"d 	c #E1E7F2",
"e 	c #D8E0EE",
"f 	c #DAE1EF",
"g 	c #DDE4F1",
"h 	c #9CB4D9",
"i 	c #486CA6",
"j 	c #768CAF",
"k 	c #677EA3",
"l 	c #597BB1",
"m 	c #ACC0DE",
"n 	c #CAD5E9",
"o 	c #C5D2E6",
"p 	c #C6D2E6",
"q 	c #C4D1E6",
"r 	c #DDE4F0",
"s 	c #F9FAFC",
"t 	c #FFFFFF",
"u 	c #F4F6FA",
"v 	c #D3DCEB",
"w 	c #C8D4E9",
"x 	c #90AAD3",
"y 	c #456AA4",
"z 	c #4367A0",
"A 	c #9AB2D8",
"B 	c #B6C6E1",
"C 	c #B4C4DF",
"D 	c #B4C4E0",
"E 	c #B1C2DF",
"F 	c #E5EBF5",
"G 	c #FDFEFE",
"H 	c #D6DEEC",
"I 	c #B2C3DF",
"J 	c #B4C5E1",
"K 	c #7B9ACC",
"L 	c #436499",
"M 	c #5D7AA8",
"N 	c #7091C5",
"O 	c #A2B7D9",
"P 	c #9EB4D7",
"Q 	c #9EB4D8",
"R 	c #9FB5D8",
"S 	c #9FB5D9",
"T 	c #9CB4D8",
"U 	c #C1D0E7",
"V 	c #F2F5FA",
"W 	c #FCFCFD",
"X 	c #E7ECF4",
"Y 	c #AEC0DB",
"Z 	c #9DB4D7",
"` 	c #A0B5D9",
" .	c #4D76B7",
"..	c #47689E",
"+.	c #4F73AA",
"@.	c #7E9ECC",
"#.	c #8DA8D2",
"$.	c #8DA8D3",
"%.	c #8DAAD3",
"&.	c #8DAAD4",
"*.	c #8EABD5",
"=.	c #AAC0DE",
"-.	c #BECEE5",
";.	c #9EB5D7",
">.	c #88A5CF",
",.	c #8DA9D4",
"'.	c #8FAAD3",
").	c #8EA9D3",
"!.	c #85A2CF",
"~.	c #7796C9",
"{.	c #537DBD",
"].	c #3F68A5",
"^.	c #507BB7",
"/.	c #789ACC",
"(.	c #7B9CCC",
"_.	c #7C9CCD",
":.	c #7C9DCD",
"<.	c #7C9ECE",
"[.	c #7B9DCE",
"}.	c #7599CC",
"|.	c #769ACD",
"1.	c #789CCE",
"2.	c #7B9ECF",
"3.	c #7C9FCF",
"4.	c #7D9FCF",
"5.	c #7296CA",
"6.	c #5983C1",
"7.	c #3C6CB4",
"8.	c #2C60AE",
"9.	c #275CAC",
"0.	c #2A5AA0",
"a.	c #7691B7",
"b.	c #4E7EBC",
"c.	c #678EC7",
"d.	c #668DC6",
"e.	c #668EC7",
"f.	c #678FC8",
"g.	c #6690C8",
"h.	c #6D95CB",
"i.	c #ABC2E1",
"j.	c #D0DDEE",
"k.	c #D8E3F1",
"l.	c #E2EAF5",
"m.	c #EAF0F8",
"n.	c #A7BFDF",
"o.	c #648FC8",
"p.	c #5987C5",
"q.	c #3E72BB",
"r.	c #2862B2",
"s.	c #235DAF",
"t.	c #255DAF",
"u.	c #255EAE",
"v.	c #265DAE",
"w.	c #235EAB",
"x.	c #7E98BD",
"y.	c #4E71A4",
"z.	c #4578BA",
"A.	c #5582C1",
"B.	c #5483C2",
"C.	c #5484C3",
"D.	c #5584C3",
"E.	c #5585C4",
"F.	c #5888C6",
"G.	c #7BA1D2",
"H.	c #CAD9ED",
"I.	c #FBFCFE",
"J.	c #FCFDFE",
"K.	c #A0BAD9",
"L.	c #3C73BB",
"M.	c #2C68B7",
"N.	c #2764B5",
"O.	c #2764B4",
"P.	c #2763B3",
"Q.	c #2762B2",
"R.	c #2760B1",
"S.	c #265FB0",
"T.	c #2062B0",
"U.	c #7091BB",
"V.	c #4069A0",
"W.	c #3872B8",
"X.	c #4477BD",
"Y.	c #4378BF",
"Z.	c #4379C0",
"`.	c #447AC1",
" +	c #447BC2",
".+	c #417AC1",
"++	c #6694CE",
"@+	c #E5EDF7",
"#+	c #FBFCFD",
"$+	c #90AFD5",
"%+	c #2867B6",
"&+	c #2869B9",
"*+	c #2968B9",
"=+	c #2867B8",
"-+	c #2865B6",
";+	c #2865B5",
">+	c #2763B4",
",+	c #2762B3",
"'+	c #1F64B3",
")+	c #698DB8",
"!+	c #426CA3",
"~+	c #2467B4",
"{+	c #2F6BB9",
"]+	c #2F6DBB",
"^+	c #306EBB",
"/+	c #306FBC",
"(+	c #3070BD",
"_+	c #3071BE",
":+	c #3071BF",
"<+	c #4C84C8",
"[+	c #DDE7F4",
"}+	c #8EAFD5",
"|+	c #286BB9",
"1+	c #2A6CBD",
"2+	c #296BBC",
"3+	c #296BBA",
"4+	c #2969BA",
"5+	c #2968B8",
"6+	c #2867B7",
"7+	c #2765B6",
"8+	c #1C67B5",
"9+	c #6D92BC",
"0+	c #5A7FAD",
"a+	c #1C67B3",
"b+	c #296ABA",
"c+	c #2A6BBA",
"d+	c #2A6CBC",
"e+	c #2A6EBD",
"f+	c #2A6FBE",
"g+	c #2B70BF",
"h+	c #2B71C0",
"i+	c #4784C9",
"j+	c #DCE8F5",
"k+	c #8FB0D6",
"l+	c #2A6EBC",
"m+	c #2A70C0",
"n+	c #2A6FBF",
"o+	c #2A6EBE",
"p+	c #2A6BBC",
"q+	c #2868B9",
"r+	c #1B68B4",
"s+	c #7F9EC2",
"t+	c #7498BE",
"u+	c #1F6DB5",
"v+	c #296EBD",
"w+	c #2C72C2",
"x+	c #2E73C3",
"y+	c #2F74C3",
"z+	c #4D88CC",
"A+	c #DDE8F5",
"B+	c #93B2D7",
"C+	c #3073BF",
"D+	c #2D73C3",
"E+	c #2B71C1",
"F+	c #2B6FBF",
"G+	c #286CBC",
"H+	c #1E68AF",
"I+	c #86A2C2",
"J+	c #3576B4",
"K+	c #2971C0",
"L+	c #2B70C0",
"M+	c #3075C4",
"N+	c #3578C6",
"O+	c #397AC7",
"P+	c #3B7BC8",
"Q+	c #588FD0",
"R+	c #DFEAF6",
"S+	c #98B6D8",
"T+	c #3C7AC3",
"U+	c #3C7CC8",
"V+	c #3378C5",
"W+	c #2B72C2",
"X+	c #2971BF",
"Y+	c #3971AE",
"Z+	c #4475AC",
"`+	c #3179C0",
" @	c #2F75C4",
".@	c #3478C6",
"+@	c #3A7BC7",
"@@	c #407FC9",
"#@	c #4381CA",
"$@	c #4582CB",
"%@	c #6194D3",
"&@	c #E1EBF6",
"*@	c #9CB8DA",
"=@	c #4680C7",
"-@	c #4683CC",
";@	c #4281CA",
">@	c #3E7EC9",
",@	c #387AC7",
"'@	c #3277C5",
")@	c #2E74C3",
"!@	c #337DC3",
"~@	c #638CBA",
"{@	c #6F8CB6",
"]@	c #4683BE",
"^@	c #3D80CB",
"/@	c #3E7EC8",
"(@	c #4481CA",
"_@	c #4A85CC",
":@	c #4E87CE",
"<@	c #6899D5",
"[@	c #E4EDF8",
"}@	c #A7C0DD",
"|@	c #4F85C9",
"1@	c #5189CF",
"2@	c #4D87CE",
"3@	c #4884CC",
"4@	c #417FC9",
"5@	c #3879C6",
"6@	c #397FC8",
"7@	c #457DB7",
"8@	c #5878A9",
"9@	c #4E89C7",
"0@	c #4E89CF",
"a@	c #4F88CE",
"b@	c #558CD1",
"c@	c #5A8FD2",
"d@	c #7EA7DC",
"e@	c #CCDBF0",
"f@	c #F4F7FB",
"g@	c #F5F7FB",
"h@	c #E9EFF6",
"i@	c #ABC4E5",
"j@	c #5F91D0",
"k@	c #578ED2",
"l@	c #548CD1",
"m@	c #4D81C1",
"n@	c #5784B9",
"o@	c #5682B2",
"p@	c #52688F",
"q@	c #6A8DBB",
"r@	c #5C8FCB",
"s@	c #6095D5",
"t@	c #5E91D3",
"u@	c #6495D5",
"v@	c #8AAEE0",
"w@	c #A3BCDF",
"x@	c #9FB9DB",
"y@	c #9FB9DC",
"z@	c #9FB8DB",
"A@	c #A0B9DC",
"B@	c #9BB5D9",
"C@	c #6591CA",
"D@	c #6193D4",
"E@	c #5D91D5",
"F@	c #588BC8",
"G@	c #5D8CC6",
"H@	c #567FBB",
"I@	c #6A8BBC",
"J@	c #6693CC",
"K@	c #7AA7DF",
"L@	c #6E9CD9",
"M@	c #709CD9",
"N@	c #749ED8",
"O@	c #769FD8",
"P@	c #77A0DA",
"Q@	c #77A0D9",
"R@	c #759ED9",
"S@	c #739DD7",
"T@	c #6E9BD6",
"U@	c #7AA8E1",
"V@	c #608BC2",
"W@	c #8196BA",
"X@	c #688ABE",
"Y@	c #8BABDC",
"Z@	c #90B1E3",
"`@	c #88ACE2",
" #	c #8AAEE3",
".#	c #8BAEE3",
"+#	c #8AADE2",
"@#	c #88ABE2",
"##	c #90B2E3",
"$#	c #86A7D9",
"%#	c #6C8EC1",
"&#	c #7187AB",
"*#	c #90A2BE",
"=#	c #95A8C8",
"-#	c #89A0CA",
";#	c #7B98CC",
">#	c #819ED3",
",#	c #8CA7DA",
"'#	c #8AA6D9",
")#	c #809DD2",
"!#	c #7B98CD",
"~#	c #8EA5CC",
"{#	c #92A6C6",
"]#	c #9BABC5",
"^#	c #9DACC8",
"/#	c #A4B2CC",
"(#	c #A3B2CD",
"_#	c #A4B2CD",
":#	c #A3B2CC",
"<#	c #ACB8CF",
"                . + @ # $ % & *                 ",
"            = - ; > , ' ) ! ~ { ] ^             ",
"        / ( _ : < [ } | 1 1 2 3 4 5 6           ",
"      7 8 9 0 a ' a b c d e e e f g h i j       ",
"    k l m n o p q r s t u v q p p p w x y       ",
"    z A B C D D E F t t G H I D D D D J K L     ",
"  M N O P Q R S T U V W X Y Z S S R Q R `  ...  ",
"  +.@.#.#.$.%.%.&.*.=.-.;.>.,.&.%.'.).!.~.{.].  ",
"  ^./.(._.:.<.[.}.|.1.2.3.4.3.4.<.5.6.7.8.9.0.  ",
"a.b.c.d.e.f.g.h.i.j.k.l.m.n.o.p.q.r.s.t.u.v.w.x.",
"y.z.A.B.C.D.E.F.G.H.I.t J.K.L.M.N.O.P.Q.R.S.T.U.",
"V.W.X.Y.Z.Z.`. +.+++@+t #+$+%+&+*+=+-+;+>+,+'+)+",
"!+~+{+]+^+/+(+_+:+<+[+t #+}+|+1+2+3+4+5+6+7+8+9+",
"0+a+b+c+d+e+f+g+h+i+j+t #+k+l+m+n+o+1+p+4+q+r+s+",
"t+u+v+o+g+h+w+x+y+z+A+t #+B+C+y+D+E+F+o+1+G+H+I+",
"  J+K+L+D+M+N+O+P+Q+R+t #+S+T+U+O+V+y+W+m+X+Y+  ",
"  Z+`+ @.@+@@@#@$@%@&@t #+*@=@-@;@>@,@'@)@!@~@  ",
"  {@]@^@/@(@_@:@:@<@[@t J.}@|@1@2@3@4@5@6@7@    ",
"    8@9@0@a@b@c@d@e@f@g@g@h@i@j@k@l@m@n@o@p@    ",
"      q@r@s@t@u@v@w@x@y@z@A@B@C@D@E@F@G@H@      ",
"        I@J@K@L@M@N@O@P@Q@R@S@T@L@U@V@H@        ",
"          W@X@Y@Z@`@ #.#.#+#@###$#%#&#          ",
"            *#=#-#;#>#,#'#)#!#~#{#]#            ",
"                  ^#/#(#_#:#<#                  "};
