/* XPM */
static const char * mahadasa_xpm[] = {
"24 24 333 2",
"  	c None",
". 	c #0686F7",
"+ 	c #007FF4",
"@ 	c #007DF4",
"# 	c #007BF4",
"$ 	c #0077F3",
"% 	c #74BDFF",
"& 	c #92C9FF",
"* 	c #94C8FF",
"= 	c #93C8FF",
"- 	c #93C7FF",
"; 	c #2688F0",
"> 	c #0260CC",
", 	c #227AE5",
"' 	c #8FC9FF",
") 	c #8FC8FF",
"! 	c #8FC6FF",
"~ 	c #8FC5FF",
"{ 	c #7FBAFF",
"] 	c #2D84EB",
"^ 	c #025ED0",
"/ 	c #71BDFF",
"( 	c #8FC4FF",
"_ 	c #8FC2FF",
": 	c #7FB7FF",
"< 	c #267EF0",
"[ 	c #004FBE",
"} 	c #0051CD",
"| 	c #0053D8",
"1 	c #004ED4",
"2 	c #004CD4",
"3 	c #0048D4",
"4 	c #0042CC",
"5 	c #003CC1",
"6 	c #0034B6",
"7 	c #0030AE",
"8 	c #048BFF",
"9 	c #71BBFF",
"0 	c #BFDEFF",
"a 	c #A7D2FF",
"b 	c #7FBBFF",
"c 	c #77B6FF",
"d 	c #6FB1FF",
"e 	c #63A7FF",
"f 	c #5FA3FF",
"g 	c #5B9FFF",
"h 	c #5397FF",
"i 	c #5193FF",
"j 	c #4F90FF",
"k 	c #3F82FF",
"l 	c #397BFF",
"m 	c #3374FF",
"n 	c #3370FF",
"o 	c #2363FF",
"p 	c #0533B0",
"q 	c #000620",
"r 	c #0489FF",
"s 	c #71B9FF",
"t 	c #DCEDFF",
"u 	c #C1DEFF",
"v 	c #AFD6FF",
"w 	c #9FCBFF",
"x 	c #98C6FF",
"y 	c #92C2FF",
"z 	c #85B9FF",
"A 	c #81B4FF",
"B 	c #7DB0FF",
"C 	c #71A7FF",
"D 	c #6CA1FF",
"E 	c #679CFF",
"F 	c #5B91FF",
"G 	c #558AFF",
"H 	c #4F82FF",
"I 	c #457AFF",
"J 	c #3269FF",
"K 	c #0831AD",
"L 	c #000000",
"M 	c #0487FF",
"N 	c #59ADFF",
"O 	c #D0E6FF",
"P 	c #B6D8FF",
"Q 	c #ABD1FF",
"R 	c #9BC8FF",
"S 	c #94C3FF",
"T 	c #8DBEFF",
"U 	c #80B4FF",
"V 	c #7CAFFF",
"W 	c #78A8FF",
"X 	c #689EFF",
"Y 	c #6297FF",
"Z 	c #5B90FF",
"` 	c #5389FF",
" .	c #4D80FF",
"..	c #4779FF",
"+.	c #3368FF",
"@.	c #1F56FF",
"#.	c #0327A1",
"$.	c #0484FF",
"%.	c #67B2FF",
"&.	c #EBF4FF",
"*.	c #CEE3FF",
"=.	c #C1DDFF",
"-.	c #B3D4FF",
";.	c #ADCFFF",
">.	c #A8CAFF",
",.	c #9AC0FF",
"'.	c #96BBFF",
").	c #92B6FF",
"!.	c #83ABFF",
"~.	c #7CA5FF",
"{.	c #749EFF",
"].	c #6B95FF",
"^.	c #658CFF",
"/.	c #6084FF",
"(.	c #4C76FF",
"_.	c #3663FE",
":.	c #0829AB",
"<.	c #0483FF",
"[.	c #5CACFF",
"}.	c #DEECFF",
"|.	c #C0DBFF",
"1.	c #A7CBFF",
"2.	c #A1C6FF",
"3.	c #9BC2FF",
"4.	c #8DB7FF",
"5.	c #89B1FF",
"6.	c #85ACFF",
"7.	c #77A2FF",
"8.	c #729CFF",
"9.	c #6D96FF",
"0.	c #5F89FF",
"a.	c #5A83FF",
"b.	c #567DFF",
"c.	c #426CFF",
"d.	c #2955FC",
"e.	c #0422A5",
"f.	c #037FFF",
"g.	c #59A7FF",
"h.	c #CFE2FF",
"i.	c #B0D0FF",
"j.	c #9FC6FF",
"k.	c #8FBCFF",
"l.	c #8BB7FF",
"m.	c #87B3FF",
"n.	c #7DAAFF",
"o.	c #76A3FF",
"p.	c #6F9BFF",
"q.	c #6290FF",
"r.	c #5D89FF",
"s.	c #5781FF",
"t.	c #4D78FF",
"u.	c #4670FF",
"v.	c #3F67FF",
"w.	c #3059FF",
"x.	c #1C44F6",
"y.	c #021C98",
"z.	c #0379FF",
"A.	c #66AAFF",
"B.	c #E5EDFF",
"C.	c #C6DBFF",
"D.	c #B1CFFF",
"E.	c #A7C7FF",
"F.	c #A2C3FF",
"G.	c #9EBEFF",
"H.	c #8FB2FF",
"I.	c #8AACFF",
"J.	c #84A6FF",
"K.	c #779AFF",
"L.	c #7395FF",
"M.	c #6F91FF",
"N.	c #5F83FF",
"O.	c #587AFF",
"P.	c #5172FF",
"Q.	c #3F61FF",
"R.	c #254AFA",
"S.	c #031CA0",
"T.	c #0376FF",
"U.	c #5CA3FF",
"V.	c #D5E4FF",
"W.	c #B8D2FF",
"X.	c #A2C4FF",
"Y.	c #92B9FF",
"Z.	c #8CB3FF",
"`.	c #87AEFF",
" +	c #7AA1FF",
".+	c #739AFF",
"++	c #6D94FF",
"@+	c #6389FF",
"#+	c #5D83FF",
"$+	c #577CFF",
"%+	c #476CFF",
"&+	c #4164FF",
"*+	c #3C5EFF",
"=+	c #2B4FFF",
"-+	c #163AF5",
";+	c #001799",
">+	c #0371FF",
",+	c #5DA0FF",
"'+	c #C9DCFF",
")+	c #A5C5FF",
"!+	c #89B2FF",
"~+	c #7FAAFF",
"{+	c #77A3FF",
"]+	c #6F9AFF",
"^+	c #6791FF",
"/+	c #5780FF",
"(+	c #4F78FF",
"_+	c #4970FF",
":+	c #4268FF",
"<+	c #3458FF",
"[+	c #2C51FF",
"}+	c #244AFF",
"|+	c #163BFF",
"1+	c #0B2DEA",
"2+	c #001284",
"3+	c #036CFF",
"4+	c #66A1FF",
"5+	c #DEE7FF",
"6+	c #BDD2FF",
"7+	c #9FBEFF",
"8+	c #90B4FF",
"9+	c #8BADFF",
"0+	c #86A5FF",
"a+	c #7798FF",
"b+	c #7393FF",
"c+	c #6F8FFF",
"d+	c #6282FF",
"e+	c #5B7AFF",
"f+	c #5472FF",
"g+	c #4665FF",
"h+	c #3E5CFF",
"i+	c #3754FF",
"j+	c #2C4AFE",
"k+	c #1634EF",
"l+	c #00128D",
"m+	c #0367FF",
"n+	c #5C98FF",
"o+	c #CEDDFF",
"p+	c #ADC7FF",
"q+	c #8CB0FF",
"r+	c #7DA3FF",
"s+	c #789EFF",
"t+	c #7397FF",
"u+	c #6387FF",
"v+	c #5E81FF",
"w+	c #597AFF",
"x+	c #496BFF",
"y+	c #4364FF",
"z+	c #3E5EFF",
"A+	c #2D4EFF",
"B+	c #2747FF",
"C+	c #2141FF",
"D+	c #1534FE",
"E+	c #0B26E5",
"F+	c #000F7E",
"G+	c #0161FE",
"H+	c #4F8EFF",
"I+	c #BCCFFF",
"J+	c #8FB0FF",
"K+	c #749DFF",
"L+	c #6790FF",
"M+	c #638AFF",
"N+	c #5277FF",
"O+	c #4E71FF",
"P+	c #496AFF",
"Q+	c #395BFF",
"R+	c #3455FF",
"S+	c #2F4EFF",
"T+	c #1739FF",
"U+	c #1334FF",
"V+	c #0F2FFE",
"W+	c #0B27F2",
"X+	c #051FD7",
"Y+	c #000D75",
"Z+	c #005BFE",
"`+	c #6196FF",
" @	c #ABC4FF",
".@	c #9AB6FF",
"+@	c #89A9FF",
"@@	c #819EFF",
"#@	c #7996FF",
"$@	c #718EFF",
"%@	c #6280FF",
"&@	c #5B78FF",
"*@	c #5570FF",
"=@	c #4462FF",
"-@	c #405CFC",
";@	c #3B55F9",
">@	c #2F49F6",
",@	c #2943F5",
"'@	c #233CF4",
")@	c #1932ED",
"!@	c #0C24DA",
"~@	c #000D7B",
"{@	c #0055FE",
"]@	c #2168FE",
"^@	c #2C62E7",
"/@	c #2E5BD5",
"(@	c #305AD7",
"_@	c #2E54D7",
":@	c #294CD4",
"<@	c #2444D2",
"[@	c #1837CB",
"}@	c #1030C7",
"|@	c #0928C3",
"1@	c #001BBE",
"2@	c #0019B5",
"3@	c #0017AC",
"4@	c #0014A3",
"5@	c #0013A0",
"6@	c #00129D",
"7@	c #00108B",
"8@	c #000E82",
"9@	c #000851",
"0@	c #0041D4",
"a@	c #002D9A",
"b@	c #001F74",
"c@	c #001968",
"d@	c #001666",
"e@	c #001253",
"f@	c #000F50",
"g@	c #000D4D",
"h@	c #000B43",
"i@	c #000839",
"j@	c #00062E",
"k@	c #000421",
"l@	c #000420",
"m@	c #00041D",
"n@	c #00031B",
"o@	c #00031A",
"p@	c #000318",
"q@	c #000216",
"r@	c #00020F",
"                                                ",
"                                                ",
"          . + @ # $                             ",
"        % & * = - ; > ,                         ",
"      % ' ) ! ~ ~ { ] ^                         ",
"    / ' ) ! ~ ( ( _ : < [ } | 1 2 3 4 5 6 7     ",
"  8 9 0 a ~ b c d e f g h i j k l m n o p q     ",
"  r s t u v w x y z A B C D E F G H I J K L     ",
"  M N O P Q R S T U V W X Y Z `  ...+.@.#.L     ",
"  $.%.&.*.=.-.;.>.,.'.).!.~.{.].^./.(._.:.L     ",
"  <.[.}.|.-.1.2.3.4.5.6.7.8.9.0.a.b.c.d.e.L     ",
"  f.g.h.i.j.k.l.m.n.o.p.q.r.s.t.u.v.w.x.y.L     ",
"  z.A.B.C.D.E.F.G.H.I.J.K.L.M.N.O.P.Q.R.S.L     ",
"  T.U.V.W.X.Y.Z.`. +.+++@+#+$+%+&+*+=+-+;+L     ",
"  >+,+'+)+!+~+{+]+^+0./+(+_+:+<+[+}+|+1+2+L     ",
"  3+4+5+6+7+8+9+0+a+b+c+d+e+f+g+h+i+j+k+l+L     ",
"  m+n+o+p+q+r+s+t+u+v+w+x+y+z+A+B+C+D+E+F+L     ",
"  G+H+I+J+K+L+M+N.N+O+P+Q+R+S+T+U+V+W+X+Y+L     ",
"  Z+`+ @.@+@@@#@$@%@&@*@=@-@;@>@,@'@)@!@~@L     ",
"  {@]@^@/@(@_@:@<@[@}@|@1@2@3@4@5@6@7@8@9@L     ",
"  0@a@b@c@d@e@f@g@h@i@j@k@l@m@n@o@o@p@q@r@L     ",
"                                                ",
"                                                ",
"                                                "};
