/* XPM */
static const char * mahadasa_e_xpm[] = {
"24 24 313 2",
"  	c None",
". 	c #2A78F8",
"+ 	c #1064F7",
"@ 	c #1067F6",
"# 	c #1167F4",
"$ 	c #0C5AF7",
"% 	c #80B0F9",
"& 	c #80A8FA",
"* 	c #79A4FB",
"= 	c #6F9DFB",
"- 	c #6898FB",
"; 	c #4E91F6",
"> 	c #0D4BC4",
", 	c #0249E3",
"' 	c #84B3F9",
") 	c #88ADFA",
"! 	c #5E8EF8",
"~ 	c #3D7DEB",
"{ 	c #0E4BD4",
"] 	c #0047EE",
"^ 	c #84B3F8",
"/ 	c #8FB3FA",
"( 	c #4F82F2",
"_ 	c #3675ED",
": 	c #0A44CB",
"< 	c #013ACE",
"[ 	c #0144E5",
"} 	c #0040DE",
"| 	c #0040DC",
"1 	c #0043DA",
"2 	c #003FD2",
"3 	c #0039CA",
"4 	c #0032BF",
"5 	c #0028B7",
"6 	c #659CF5",
"7 	c #90B3FA",
"8 	c #87ADFA",
"9 	c #5082F2",
"0 	c #467AEE",
"a 	c #3D72E9",
"b 	c #3167E3",
"c 	c #295CDE",
"d 	c #2256D9",
"e 	c #1A4ED3",
"f 	c #1348CF",
"g 	c #0E43C9",
"h 	c #083CC3",
"i 	c #0434BF",
"j 	c #011F92",
"k 	c #689AF4",
"l 	c #3267E3",
"m 	c #295DDE",
"n 	c #011F93",
"o 	c #6899F1",
"p 	c #8BB1F9",
"q 	c #AAC7F8",
"r 	c #CDDDFA",
"s 	c #BED3F8",
"t 	c #B4CBF8",
"u 	c #ACC5F7",
"v 	c #A0BDF5",
"w 	c #96B7F5",
"x 	c #8CB3F4",
"y 	c #82ABF4",
"z 	c #78A5F3",
"A 	c #6D9EF1",
"B 	c #5F95ED",
"C 	c #548EEA",
"D 	c #4A84E6",
"E 	c #3D79E1",
"F 	c #336FDE",
"G 	c #2B65D0",
"H 	c #0D51D5",
"I 	c #0128CE",
"J 	c #6B9CEF",
"K 	c #96B8F9",
"L 	c #DCE8FA",
"M 	c #F7F8FB",
"N 	c #E7EEF9",
"O 	c #E0E9F9",
"P 	c #DDE6F9",
"Q 	c #D5E1F9",
"R 	c #CEDDF9",
"S 	c #C8DBF9",
"T 	c #BFD6FA",
"U 	c #B4D0F8",
"V 	c #A9C8F7",
"W 	c #9BBEF4",
"X 	c #8FB7F0",
"Y 	c #82ADED",
"Z 	c #70A1EA",
"` 	c #6296E6",
" .	c #578EE3",
"..	c #255EE0",
"+.	c #0422D0",
"@.	c #6C9CEF",
"#.	c #9DBCF9",
"$.	c #DDE8FA",
"%.	c #F1F5FB",
"&.	c #DFE9F8",
"*.	c #D7E3F8",
"=.	c #D2E0F8",
"-.	c #C9DBF8",
";.	c #C2D8F8",
">.	c #BBD3F9",
",.	c #B0CCF9",
"'.	c #A5C6F6",
").	c #9ABEF5",
"!.	c #8CB6F2",
"~.	c #7FADEF",
"{.	c #72A3EB",
"].	c #6396E8",
"^.	c #568BE4",
"/.	c #4781E1",
"(.	c #0C41DF",
"_.	c #6D9DEE",
":.	c #A4C3F6",
"<.	c #E2ECF9",
"[.	c #E6EFF9",
"}.	c #D1E0F7",
"|.	c #C9DAF7",
"1.	c #C3D7F7",
"2.	c #B8D2F7",
"3.	c #AFCEF8",
"4.	c #A4C8F8",
"5.	c #97BFF6",
"6.	c #8AB8F4",
"7.	c #7DAEF2",
"8.	c #6EA2EF",
"9.	c #6299EC",
"0.	c #548FE8",
"a.	c #4681E4",
"b.	c #3C79E3",
"c.	c #2668E5",
"d.	c #072DD0",
"e.	c #6F9DEB",
"f.	c #C3D6F7",
"g.	c #F4F7FC",
"h.	c #EAF0FA",
"i.	c #DDE8F9",
"j.	c #D6E2F9",
"k.	c #CFDEF9",
"l.	c #C6D9F9",
"m.	c #BDD4F8",
"n.	c #B1CDF6",
"o.	c #A6C5F4",
"p.	c #9BBDF2",
"q.	c #8FB4EF",
"r.	c #82ABEC",
"s.	c #739FE8",
"t.	c #6695E5",
"u.	c #558AE2",
"v.	c #4A7FE0",
"w.	c #2465E3",
"x.	c #0122BD",
"y.	c #92B4FA",
"z.	c #C9DBF5",
"A.	c #F2F5FA",
"B.	c #E0E9F8",
"C.	c #CFDEF8",
"D.	c #C6D8F7",
"E.	c #BED3F7",
"F.	c #B1CCF6",
"G.	c #A3C3F5",
"H.	c #96BBF2",
"I.	c #89B1F0",
"J.	c #7CA9ED",
"K.	c #6194E7",
"L.	c #548AE4",
"M.	c #4982E1",
"N.	c #3874E1",
"O.	c #2B6BE1",
"P.	c #0A48DB",
"Q.	c #0116A8",
"R.	c #96B8F8",
"S.	c #D4E2F6",
"T.	c #E9F0F9",
"U.	c #C7DAF7",
"V.	c #B4CFF5",
"W.	c #AAC7F5",
"X.	c #A0C1F5",
"Y.	c #91B7F3",
"Z.	c #85B1F0",
"`.	c #78A8ED",
" +	c #699CEB",
".+	c #5D94E8",
"++	c #528AE6",
"@+	c #447DE3",
"#+	c #3675E4",
"$+	c #2767E7",
"%+	c #1D5EE5",
"&+	c #1554DF",
"*+	c #0436CC",
"=+	c #02128F",
"-+	c #6D9CEC",
";+	c #A4C2F7",
">+	c #E6ECF7",
",+	c #E9EEF8",
"'+	c #CFDBF5",
")+	c #C2D3F5",
"!+	c #B8CEF4",
"~+	c #ABC4F1",
"{+	c #9DBAEF",
"]+	c #91B3EC",
"^+	c #86ABEA",
"/+	c #79A2E7",
"(+	c #6D9AE5",
"_+	c #6291E3",
":+	c #5285E2",
"<+	c #477CE0",
"[+	c #3E73DD",
"}+	c #336BDA",
"|+	c #2158D7",
"1+	c #052BBD",
"2+	c #081361",
"3+	c #6D9CEB",
"4+	c #AAC4F2",
"5+	c #E2E7F4",
"6+	c #D6E0F4",
"7+	c #BACCF2",
"8+	c #A8C1F0",
"9+	c #9CBBEF",
"0+	c #90B2ED",
"a+	c #80A8EA",
"b+	c #73A1E8",
"c+	c #6797E6",
"d+	c #598DE3",
"e+	c #4E85E0",
"f+	c #427DE0",
"g+	c #316FE1",
"h+	c #2866DF",
"i+	c #1F5DDF",
"j+	c #1352E0",
"k+	c #0840D7",
"l+	c #001FAD",
"m+	c #6C98E8",
"n+	c #A5BFEF",
"o+	c #D9E0F3",
"p+	c #B7CBF0",
"q+	c #9CBCEE",
"r+	c #8BB0EC",
"s+	c #7EA8EA",
"t+	c #6595E6",
"u+	c #5A8DE3",
"v+	c #5187E1",
"w+	c #457BDE",
"x+	c #3873E0",
"y+	c #2767E3",
"z+	c #1B5EE4",
"A+	c #1255E0",
"B+	c #0E4EDF",
"C+	c #0944DC",
"D+	c #0431C9",
"E+	c #001AA2",
"F+	c #6E97E4",
"G+	c #B0C5ED",
"H+	c #C6D3EF",
"I+	c #B4C7ED",
"J+	c #A4BCEA",
"K+	c #96B4E8",
"L+	c #8AABE7",
"M+	c #7EA0E4",
"N+	c #6E96E2",
"O+	c #608CE2",
"P+	c #5381E1",
"Q+	c #4777DE",
"R+	c #3E6EDA",
"S+	c #3769D6",
"T+	c #295FD4",
"U+	c #1E53D6",
"V+	c #144BD6",
"W+	c #0D44D1",
"X+	c #042EBE",
"Y+	c #001A9C",
"Z+	c #5382E2",
"`+	c #5582EF",
" @	c #4373F2",
".@	c #4272F1",
"+@	c #3D6EEF",
"@@	c #3566EC",
"#@	c #2F61E7",
"$@	c #2658E2",
"%@	c #1B4EDC",
"&@	c #0F41DC",
"*@	c #0536D9",
"=@	c #0030D3",
"-@	c #0029CC",
";@	c #0026C5",
">@	c #0021BD",
",@	c #001FB8",
"'@	c #001FB1",
")@	c #001FAB",
"!@	c #001BA3",
"~@	c #001891",
"{@	c #12339C",
"]@	c #052799",
"^@	c #00229B",
"/@	c #00229D",
"(@	c #00249C",
"_@	c #001F9D",
":@	c #001E9E",
"<@	c #001E9D",
"[@	c #001D9A",
"}@	c #001B99",
"|@	c #001A97",
"1@	c #001994",
"2@	c #001893",
"3@	c #001892",
"4@	c #001890",
"5@	c #00178E",
"6@	c #00178D",
"7@	c #00188C",
"8@	c #001988",
"                                                ",
"                                                ",
"        . + @ # # $                             ",
"      % & * = - ; > ,                           ",
"    ' ) & * = - ! ~ { ]                         ",
"  ^ / ) & * = - ! ( _ : < [ } | 1 2 3 4 5       ",
"  6 7 8 & * = - ! 9 0 a b c d e f g h i j       ",
"  k 7 8 & * = - ! 9 0 a l m d e f g h i n       ",
"  o 7 p q r s t u v w x y z A B C D E F G H I   ",
"  J 7 K L M N O P Q R S T U V W X Y Z `  ...+.  ",
"  @.7 #.$.%.&.*.=.-.;.>.,.'.).!.~.{.].^./.(.    ",
"  _.7 :.<.[.}.|.1.2.3.4.5.6.7.8.9.0.a.b.c.d.    ",
"  e.7 f.g.h.i.j.k.l.m.n.o.p.q.r.s.t.u.v.w.x.    ",
"  e.y.z.A.B.C.D.E.F.G.H.I.J.Z K.L.M.N.O.P.Q.    ",
"  e.R.S.T.U.V.W.X.Y.Z.`. +.+++@+#+$+%+&+*+=+    ",
"  -+;+>+,+'+)+!+~+{+]+^+/+(+_+:+<+[+}+|+1+2+    ",
"  3+4+5+6+7+8+9+0+a+b+c+d+e+f+g+h+i+j+k+l+      ",
"  m+n+o+p+q+r+s+s.t+u+v+w+x+y+z+A+B+C+D+E+      ",
"  F+G+H+I+J+K+L+M+N+O+P+Q+R+S+T+U+V+W+X+Y+      ",
"  Z+`+ @.@+@@@#@$@%@&@*@=@-@;@>@,@'@)@!@~@      ",
"  {@]@^@/@(@_@:@<@[@}@|@1@2@3@4@5@6@7@7@8@      ",
"                                                ",
"                                                ",
"                                                "};
