/* XPM */
static const char * maitreya_xpm[] = {
"32 32 1017 2",
"  	c None",
". 	c #9ECEC7",
"+ 	c #709674",
"@ 	c #889568",
"# 	c #AA9D6A",
"$ 	c #A08269",
"% 	c #64635D",
"& 	c #443F3D",
"* 	c #64544E",
"= 	c #423F3C",
"- 	c #A69566",
"; 	c #8D7058",
"> 	c #8C655D",
", 	c #9C6D63",
"' 	c #9D6E61",
") 	c #9C7363",
"! 	c #9A7160",
"~ 	c #977061",
"{ 	c #906E5F",
"] 	c #715C54",
"^ 	c #5B4E4A",
"/ 	c #48433E",
"( 	c #45413E",
"_ 	c #42403E",
": 	c #505B5E",
"< 	c #91806F",
"[ 	c #544C46",
"} 	c #70B1D1",
"| 	c #87A29A",
"1 	c #6A8B8D",
"2 	c #7EB7A1",
"3 	c #93B682",
"4 	c #C5D1A3",
"5 	c #B1BF90",
"6 	c #919F68",
"7 	c #A7B37D",
"8 	c #799486",
"9 	c #7D6C5D",
"0 	c #443E3D",
"a 	c #4C4341",
"b 	c #5A4A49",
"c 	c #504541",
"d 	c #745850",
"e 	c #8C6861",
"f 	c #91675F",
"g 	c #A17767",
"h 	c #B78F73",
"i 	c #D1AE84",
"j 	c #DEB98C",
"k 	c #DDBB8A",
"l 	c #D3AD83",
"m 	c #B18B6D",
"n 	c #937361",
"o 	c #655349",
"p 	c #544743",
"q 	c #45423E",
"r 	c #57594F",
"s 	c #736153",
"t 	c #6B574F",
"u 	c #7CC5EA",
"v 	c #7DA3A7",
"w 	c #769EA9",
"x 	c #80CFEA",
"y 	c #82CBD3",
"z 	c #AACCB1",
"A 	c #BDC391",
"B 	c #99AC83",
"C 	c #7FA584",
"D 	c #8C9E93",
"E 	c #8C968D",
"F 	c #766D59",
"G 	c #413D3A",
"H 	c #554944",
"I 	c #584744",
"J 	c #7A5C54",
"K 	c #916F5F",
"L 	c #AE8B6F",
"M 	c #E7CDA5",
"N 	c #FBF0CE",
"O 	c #E8DDC3",
"P 	c #887C69",
"Q 	c #796C5D",
"R 	c #EEE0BC",
"S 	c #FAE8B2",
"T 	c #E5C591",
"U 	c #AC876D",
"V 	c #766054",
"W 	c #4C4543",
"X 	c #4B4240",
"Y 	c #735B52",
"Z 	c #716F68",
"` 	c #81CBEF",
" .	c #8CB1B1",
"..	c #779499",
"+.	c #7ED4FB",
"@.	c #84C9C3",
"#.	c #B3C9A6",
"$.	c #ABB08E",
"%.	c #B1CBB6",
"&.	c #79CCED",
"*.	c #91C4D3",
"=.	c #81918E",
"-.	c #96A092",
";.	c #403D39",
">.	c #4B4540",
",.	c #5D4A48",
"'.	c #8D6B5A",
").	c #B49374",
"!.	c #F1DBB0",
"~.	c #FFFCEA",
"{.	c #FDFCFA",
"].	c #817D72",
"^.	c #4E453E",
"/.	c #393833",
"(.	c #7D7574",
"_.	c #FBF6F3",
":.	c #FFF9D6",
"<.	c #E9CB90",
"[.	c #A3826D",
"}.	c #665650",
"|.	c #4C4441",
"1.	c #614F49",
"2.	c #707C76",
"3.	c #80CDEE",
"4.	c #8EB2A8",
"5.	c #7F8C80",
"6.	c #7ECFF3",
"7.	c #7FD4F9",
"8.	c #ABD3B8",
"9.	c #94BAA8",
"0.	c #709486",
"a.	c #78C1D8",
"b.	c #8BC1CC",
"c.	c #6F887F",
"d.	c #7DB9C8",
"e.	c #525851",
"f.	c #43403B",
"g.	c #604F4A",
"h.	c #A27D67",
"i.	c #E6CB9F",
"j.	c #FEFDED",
"k.	c #FCFCFA",
"l.	c #74716A",
"m.	c #443C39",
"n.	c #544740",
"o.	c #52483F",
"p.	c #413E37",
"q.	c #706463",
"r.	c #FBF6F6",
"s.	c #FFF8D1",
"t.	c #DAB884",
"u.	c #836859",
"v.	c #504643",
"w.	c #4C443F",
"x.	c #70817E",
"y.	c #7DC9EA",
"z.	c #83A7A4",
"A.	c #7F9F97",
"B.	c #7EC7E1",
"C.	c #7DD4FB",
"D.	c #A6DAD8",
"E.	c #8BADB8",
"F.	c #7BB0AB",
"G.	c #77B1B1",
"H.	c #7EB9C4",
"I.	c #728F80",
"J.	c #73B5CE",
"K.	c #789086",
"L.	c #3A3836",
"M.	c #5B4B47",
"N.	c #B5937A",
"O.	c #FBF0D3",
"P.	c #FFFEFE",
"Q.	c #C2C3BC",
"R.	c #3C3A38",
"S.	c #897664",
"T.	c #BFA684",
"U.	c #BDA37D",
"V.	c #7C6A53",
"W.	c #343431",
"X.	c #D8CED0",
"Y.	c #FFFEF8",
"Z.	c #F8E4AD",
"`.	c #A18069",
" +	c #564A45",
".+	c #4B423F",
"++	c #7EA0A6",
"@+	c #7ECCED",
"#+	c #7FA49D",
"$+	c #798883",
"%+	c #7ECCE9",
"&+	c #7CD4FC",
"*+	c #A1E1FC",
"=+	c #9BDEFA",
"-+	c #81D6FA",
";+	c #82D6FB",
">+	c #83C3D3",
",+	c #70968A",
"'+	c #72B6D4",
")+	c #94A09B",
"!+	c #383734",
"~+	c #5C4D46",
"{+	c #CEAD88",
"]+	c #FEFBE5",
"^+	c #FFFFFF",
"/+	c #CBCDC4",
"(+	c #504C44",
"_+	c #BFA386",
":+	c #DEC09F",
"<+	c #D7B78F",
"[+	c #AF8A6C",
"}+	c #4E463E",
"|+	c #F4EDEE",
"1+	c #FAEDC1",
"2+	c #A88A6F",
"3+	c #534A44",
"4+	c #544641",
"5+	c #7DAAB8",
"6+	c #7FCDEF",
"7+	c #88B1AF",
"8+	c #81A39A",
"9+	c #7CC9E8",
"0+	c #80D5FC",
"a+	c #A1E1FD",
"b+	c #9FE0FC",
"c+	c #80D6FA",
"d+	c #7ED6FA",
"e+	c #7FC8DF",
"f+	c #6D9695",
"g+	c #73B8D6",
"h+	c #719499",
"i+	c #363532",
"j+	c #544742",
"k+	c #C59F80",
"l+	c #FDF8DD",
"m+	c #FCF5E9",
"n+	c #D1BC9F",
"o+	c #B59676",
"p+	c #D7B28D",
"q+	c #C39C72",
"r+	c #AF8667",
"s+	c #C38F72",
"t+	c #FEF8F7",
"u+	c #FAECC3",
"v+	c #A7826B",
"w+	c #4A423D",
"x+	c #524842",
"y+	c #87ABB3",
"z+	c #88D2F2",
"A+	c #7CA8A8",
"B+	c #83A7A0",
"C+	c #7EC7E0",
"D+	c #80D6FB",
"E+	c #9DE0FC",
"F+	c #7FD5FB",
"G+	c #7CD3FA",
"H+	c #83CFEE",
"I+	c #6D948E",
"J+	c #77BEDA",
"K+	c #5E8B91",
"L+	c #323331",
"M+	c #463F3A",
"N+	c #A07D69",
"O+	c #F8E8C2",
"P+	c #FFFFFB",
"Q+	c #FEFEFA",
"R+	c #F2D5AD",
"S+	c #F0D0AB",
"T+	c #E6C095",
"U+	c #DDAB7F",
"V+	c #E9B688",
"W+	c #E2AF93",
"X+	c #FFFEF5",
"Y+	c #F4E0B1",
"Z+	c #947260",
"`+	c #413D39",
" @	c #9A846C",
".@	c #CDB5A6",
"+@	c #C7BAAE",
"@@	c #7A7873",
"#@	c #78877F",
"$@	c #81A7B4",
"%@	c #80D5FB",
"&@	c #9EDFFD",
"*@	c #9ADEFC",
"=@	c #7DD4FC",
"-@	c #7AD1FD",
";@	c #7FD1F6",
">@	c #68908C",
",@	c #71B9DA",
"'@	c #639CA8",
")@	c #343631",
"!@	c #363431",
"~@	c #705B50",
"{@	c #DAB78E",
"]@	c #FEF7DA",
"^@	c #FFFFFE",
"/@	c #F3DEC2",
"(@	c #EAC698",
"_@	c #E7AD87",
":@	c #E5A179",
"<@	c #E19E78",
"[@	c #F0D4C4",
"}@	c #FFFEFB",
"|@	c #FEF4CB",
"1@	c #D4AB83",
"2@	c #665249",
"3@	c #3E3B36",
"4@	c #C6AE90",
"5@	c #D2B896",
"6@	c #D0B591",
"7@	c #A89277",
"8@	c #988372",
"9@	c #69564F",
"0@	c #789AAC",
"a@	c #B0C1C3",
"b@	c #9CDEFC",
"c@	c #81D3FB",
"d@	c #7AD1FC",
"e@	c #7BCFF2",
"f@	c #618085",
"g@	c #79C7E7",
"h@	c #8EB8BC",
"i@	c #333431",
"j@	c #353531",
"k@	c #4B433D",
"l@	c #957161",
"m@	c #E8C595",
"n@	c #FDF2D0",
"o@	c #F9EFDD",
"p@	c #EDCCA7",
"q@	c #E0AF85",
"r@	c #D7956E",
"s@	c #DB9973",
"t@	c #EAB2A3",
"u@	c #F8D7AD",
"v@	c #D0A982",
"w@	c #866457",
"x@	c #423C37",
"y@	c #403A34",
"z@	c #C6AE8A",
"A@	c #DBBF99",
"B@	c #D4BB89",
"C@	c #AC8E6F",
"D@	c #A27E69",
"E@	c #A77869",
"F@	c #C6A18B",
"G@	c #B18A7D",
"H@	c #E3DBCF",
"I@	c #D2C3B7",
"J@	c #86A9BE",
"K@	c #7EC9E7",
"L@	c #A0AB9E",
"M@	c #E4D2B7",
"N@	c #CDBC96",
"O@	c #32332F",
"P@	c #302F2C",
"Q@	c #3C3A33",
"R@	c #8D7860",
"S@	c #E4BC89",
"T@	c #F2CB95",
"U@	c #F0CD9E",
"V@	c #F3D4B2",
"W@	c #F2CDA2",
"X@	c #E7B081",
"Y@	c #E48A6A",
"Z@	c #EB876A",
"`@	c #EC8F6D",
" #	c #E68C6D",
".#	c #AB7C62",
"+#	c #524B3F",
"@#	c #3E3A36",
"##	c #BCA479",
"$#	c #C7AC79",
"%#	c #C8B27C",
"&#	c #A28768",
"*#	c #A37C65",
"=#	c #C2A07F",
"-#	c #6C5E50",
";#	c #5C5752",
">#	c #F0DFD0",
",#	c #D9C2AA",
"'#	c #BDA590",
")#	c #E4D7C1",
"!#	c #D8C4A8",
"~#	c #E0C8AA",
"{#	c #C0B69B",
"]#	c #343530",
"^#	c #353430",
"/#	c #C6AE8F",
"(#	c #FDDDB6",
"_#	c #FCD9AC",
":#	c #F9D7AB",
"<#	c #FBD8B2",
"[#	c #F4D3AF",
"}#	c #E8BC92",
"|#	c #EB9876",
"1#	c #F09D71",
"2#	c #EC9C6F",
"3#	c #F5A778",
"4#	c #F0906F",
"5#	c #F0A277",
"6#	c #E1A172",
"7#	c #4B453D",
"8#	c #9F8C6B",
"9#	c #B59D7C",
"0#	c #9F8E73",
"a#	c #9A907A",
"b#	c #887F6D",
"c#	c #66675B",
"d#	c #3D443B",
"e#	c #4D4C48",
"f#	c #D7C9BC",
"g#	c #E4D8C8",
"h#	c #EDDEC8",
"i#	c #F0DBB8",
"j#	c #DAC198",
"k#	c #D8C7A9",
"l#	c #B7AE95",
"m#	c #32322E",
"n#	c #6F665A",
"o#	c #FBD7B5",
"p#	c #FCDEBB",
"q#	c #F9D8B4",
"r#	c #FBDBB9",
"s#	c #FCDAB8",
"t#	c #F4BE94",
"u#	c #F1AC7E",
"v#	c #F5BE7F",
"w#	c #F7B677",
"x#	c #F0AB75",
"y#	c #F6B17F",
"z#	c #EC9672",
"A#	c #FCB678",
"B#	c #8D6C55",
"C#	c #6F5F4E",
"D#	c #897B5E",
"E#	c #7E7257",
"F#	c #716C50",
"G#	c #605B47",
"H#	c #5F5E4B",
"I#	c #5A5242",
"J#	c #7C6D5C",
"K#	c #86807D",
"L#	c #E3DBCC",
"M#	c #ECDCC9",
"N#	c #D2BFA4",
"O#	c #DBCBB2",
"P#	c #9E9271",
"Q#	c #968A6C",
"R#	c #3D3C36",
"S#	c #A08D7A",
"T#	c #F4CFA7",
"U#	c #E6B186",
"V#	c #E6B490",
"W#	c #F4CCAA",
"X#	c #F9CB97",
"Y#	c #FCD695",
"Z#	c #FBD08F",
"`#	c #F9CC82",
" $	c #F8B677",
".$	c #EFAC7C",
"+$	c #FAB079",
"@$	c #EF9B72",
"#$	c #ED946E",
"$$	c #FCB877",
"%$	c #AF8560",
"&$	c #6B5C57",
"*$	c #BFA098",
"=$	c #C4A490",
"-$	c #BD9F89",
";$	c #A28272",
">$	c #AC9085",
",$	c #998181",
"'$	c #A78E87",
")$	c #70746E",
"!$	c #74736E",
"~$	c #D2C6B1",
"{$	c #C0C0A9",
"]$	c #AFAC8F",
"^$	c #99997F",
"/$	c #A7A586",
"($	c #393934",
"_$	c #CBB49D",
":$	c #F6D5AF",
"<$	c #E6B88C",
"[$	c #B77863",
"}$	c #F8A873",
"|$	c #F8BE7D",
"1$	c #F8C78D",
"2$	c #F8C280",
"3$	c #F8B473",
"4$	c #F3AE76",
"5$	c #EDB788",
"6$	c #F4A778",
"7$	c #F0A776",
"8$	c #E8876C",
"9$	c #FBB778",
"0$	c #C68D65",
"a$	c #4A4543",
"b$	c #8D989B",
"c$	c #8B9597",
"d$	c #92A0A2",
"e$	c #899699",
"f$	c #A68A7C",
"g$	c #A07063",
"h$	c #737364",
"i$	c #ADADAF",
"j$	c #94999F",
"k$	c #A8AFB0",
"l$	c #CBD0D4",
"m$	c #DADDDE",
"n$	c #E0E6E5",
"o$	c #B3B0A7",
"p$	c #47463F",
"q$	c #F3D4B7",
"r$	c #FCE2C3",
"s$	c #DDB08B",
"t$	c #BF6F5B",
"u$	c #DD7E64",
"v$	c #EE966B",
"w$	c #EF9C70",
"x$	c #F3A877",
"y$	c #F9B278",
"z$	c #EC9C72",
"A$	c #EDAF82",
"B$	c #EC9A76",
"C$	c #EAA57D",
"D$	c #E08B6F",
"E$	c #F3B17A",
"F$	c #E99E7A",
"G$	c #494540",
"H$	c #B2B6BA",
"I$	c #C4D0D1",
"J$	c #BCC5C6",
"K$	c #8C9C9C",
"L$	c #94A5A9",
"M$	c #9BA7A5",
"N$	c #9BA19A",
"O$	c #97A7A7",
"P$	c #7E979B",
"Q$	c #8BABB3",
"R$	c #9BB9CA",
"S$	c #BDD2E0",
"T$	c #DDE9F2",
"U$	c #7D7F79",
"V$	c #786C5E",
"W$	c #FDE0C1",
"X$	c #FEE3C2",
"Y$	c #AC866A",
"Z$	c #9F7D66",
"`$	c #C77561",
" %	c #E38A6B",
".%	c #EA926E",
"+%	c #E9946E",
"@%	c #F6B37A",
"#%	c #E48C6C",
"$%	c #E7A273",
"%%	c #DF8A73",
"&%	c #D88B71",
"*%	c #EAA77D",
"=%	c #E69D75",
"-%	c #EDA77B",
";%	c #706555",
">%	c #89868C",
",%	c #D0DFE4",
"'%	c #758C7A",
")%	c #728F73",
"!%	c #9AA49B",
"~%	c #B3BAB4",
"{%	c #94A28E",
"]%	c #BACBCB",
"^%	c #9FC1CA",
"/%	c #A6C6D3",
"(%	c #B7D2E0",
"_%	c #D1E5EE",
":%	c #CCE1EA",
"<%	c #575C58",
"[%	c #9A8570",
"}%	c #F5D5B5",
"|%	c #EBBF99",
"1%	c #665045",
"2%	c #827564",
"3%	c #BB7160",
"4%	c #D98164",
"5%	c #E48568",
"6%	c #EA9A6F",
"7%	c #E9A176",
"8%	c #E28F72",
"9%	c #E8A07E",
"0%	c #DB8E74",
"a%	c #CC7C69",
"b%	c #DE9272",
"c%	c #EBAE7E",
"d%	c #F8BA7E",
"e%	c #C5997B",
"f%	c #675B59",
"g%	c #8E9179",
"h%	c #7D8B6C",
"i%	c #586A57",
"j%	c #6E805F",
"k%	c #5C6855",
"l%	c #74856C",
"m%	c #939284",
"n%	c #978779",
"o%	c #7D8B8B",
"p%	c #6B7972",
"q%	c #ACB0AF",
"r%	c #CBD7DB",
"s%	c #40413C",
"t%	c #9A836C",
"u%	c #EACBA5",
"v%	c #F0CEA7",
"w%	c #C3A986",
"x%	c #655C4D",
"y%	c #A66E5E",
"z%	c #D07B69",
"A%	c #E78C6F",
"B%	c #EA966F",
"C%	c #F09E73",
"D%	c #E79B76",
"E%	c #D37E6A",
"F%	c #CA7E6A",
"G%	c #A06A5E",
"H%	c #C89271",
"I%	c #E6A175",
"J%	c #E69A75",
"K%	c #E1A37E",
"L%	c #505749",
"M%	c #67795A",
"N%	c #6E7A5C",
"O%	c #727D5D",
"P%	c #78835E",
"Q%	c #68775E",
"R%	c #79836C",
"S%	c #A1A599",
"T%	c #616D61",
"U%	c #5C5E4A",
"V%	c #837D5B",
"W%	c #535548",
"X%	c #73675A",
"Y%	c #333331",
"Z%	c #48403B",
"`%	c #C79E7D",
" &	c #EECBA8",
".&	c #F7D6B2",
"+&	c #D6B891",
"@&	c #8E7863",
"#&	c #C77A67",
"$&	c #E68E6D",
"%&	c #E18E6D",
"&&	c #EC9770",
"*&	c #D8866E",
"=&	c #A06C5B",
"-&	c #92675A",
";&	c #C68D67",
">&	c #F1B97C",
",&	c #F5B476",
"'&	c #F5AE79",
")&	c #CB8F72",
"!&	c #4D4B46",
"~&	c #4A4841",
"{&	c #515346",
"]&	c #6E795B",
"^&	c #5E7258",
"/&	c #776D67",
"(&	c #CB949E",
"_&	c #F7F7F4",
":&	c #959C91",
"<&	c #59684D",
"[&	c #6A7F5A",
"}&	c #3E4239",
"|&	c #413E39",
"1&	c #4C493D",
"2&	c #76634D",
"3&	c #93755A",
"4&	c #CE9E79",
"5&	c #DBA988",
"6&	c #F7CAA4",
"7&	c #EBC7A0",
"8&	c #C39474",
"9&	c #D79978",
"0&	c #E4B890",
"a&	c #DDAF85",
"b&	c #DBA97E",
"c&	c #C5A680",
"d&	c #D59E74",
"e&	c #F2B477",
"f&	c #F4B279",
"g&	c #EBA973",
"h&	c #E49A73",
"i&	c #BA8369",
"j&	c #7B6C5B",
"k&	c #3B3A35",
"l&	c #44473C",
"m&	c #554C41",
"n&	c #5B594A",
"o&	c #786A61",
"p&	c #D5929F",
"q&	c #B2B7AA",
"r&	c #474A3E",
"s&	c #505645",
"t&	c #59694D",
"u&	c #3F443A",
"v&	c #8F6A56",
"w&	c #EC9C71",
"x&	c #F2A66E",
"y&	c #F2A86F",
"z&	c #EFA674",
"A&	c #D99B71",
"B&	c #C88768",
"C&	c #C99578",
"D&	c #D8AE81",
"E&	c #CDA380",
"F&	c #EBC297",
"G&	c #F0C691",
"H&	c #DFB684",
"I&	c #E5BF8F",
"J&	c #CC9C74",
"K&	c #EBA372",
"L&	c #E39C72",
"M&	c #E1926F",
"N&	c #C07E66",
"O&	c #B78C6A",
"P&	c #C4996F",
"Q&	c #968567",
"R&	c #3F3E36",
"S&	c #534F43",
"T&	c #D2868D",
"U&	c #826958",
"V&	c #626958",
"W&	c #979985",
"X&	c #617051",
"Y&	c #707456",
"Z&	c #4B5242",
"`&	c #5E5144",
" *	c #E58B67",
".*	c #FDB473",
"+*	c #F8AE72",
"@*	c #F0AD71",
"#*	c #E7A576",
"$*	c #D58E6A",
"%*	c #CD8969",
"&*	c #986F56",
"**	c #C9926C",
"=*	c #D4A27B",
"-*	c #D4A37B",
";*	c #DEAF82",
">*	c #ECC995",
",*	c #E3BB86",
"'*	c #D1A87E",
")*	c #BE946E",
"!*	c #A97C62",
"~*	c #C18F6B",
"{*	c #F1BA7F",
"]*	c #FDC77F",
"^*	c #FDBE7F",
"/*	c #F6B279",
"(*	c #8A775D",
"_*	c #777C5F",
":*	c #7B5D58",
"<*	c #65624C",
"[*	c #8F8066",
"}*	c #808071",
"|*	c #717F5C",
"1*	c #949475",
"2*	c #857963",
"3*	c #A07068",
"4*	c #E18965",
"5*	c #FCAE72",
"6*	c #FCB474",
"7*	c #FCB976",
"8*	c #FBBF79",
"9*	c #FCC67F",
"0*	c #F5B774",
"a*	c #F3BF79",
"b*	c #F2BA76",
"c*	c #F0B374",
"d*	c #D39869",
"e*	c #CF966E",
"f*	c #EBC396",
"g*	c #F0C999",
"h*	c #F4CA9C",
"i*	c #F4C995",
"j*	c #EEBA87",
"k*	c #E9B583",
"l*	c #F2AA74",
"m*	c #FDB474",
"n*	c #FDB072",
"o*	c #EA996D",
"p*	c #DC9192",
"q*	c #6E5650",
"r*	c #707A57",
"s*	c #91685F",
"t*	c #8F7169",
"u*	c #AFA590",
"v*	c #737256",
"w*	c #4F5644",
"x*	c #A4686E",
"y*	c #E5969D",
"z*	c #BF7761",
"A*	c #E99969",
"B*	c #EEA06B",
"C*	c #F2A56B",
"D*	c #F5A669",
"E*	c #F2A168",
"F*	c #F4A46C",
"G*	c #F8A772",
"H*	c #D98767",
"I*	c #AE765C",
"J*	c #9D6C58",
"K*	c #C0855E",
"L*	c #CE8B66",
"M*	c #D4956C",
"N*	c #D09069",
"O*	c #E29D71",
"P*	c #F0A574",
"Q*	c #FAA873",
"R*	c #E58965",
"S*	c #C97B76",
"T*	c #F393A0",
"U*	c #AA6D6F",
"V*	c #64644E",
"W*	c #7D7160",
"X*	c #6E725D",
"Y*	c #787B6D",
"Z*	c #595E45",
"`*	c #AA7776",
" =	c #F18D86",
".=	c #F99397",
"+=	c #DE9A99",
"@=	c #C78568",
"#=	c #DF8F64",
"$=	c #E19163",
"%=	c #E29164",
"&=	c #EA8F64",
"*=	c #E88D61",
"==	c #DF8561",
"-=	c #CC7E62",
";=	c #9F6B56",
">=	c #BF8B63",
",=	c #C59569",
"'=	c #C98660",
")=	c #EC9B6E",
"!=	c #ECA070",
"~=	c #F1A572",
"{=	c #ECA073",
"]=	c #E5946C",
"^=	c #E08E6E",
"/=	c #C57A6A",
"(=	c #C87F83",
"_=	c #EF95AE",
":=	c #EA8A96",
"<=	c #EE8D99",
"[=	c #C47E83",
"}=	c #60544A",
"|=	c #726C71",
"1=	c #787569",
"2=	c #424136",
"3=	c #8F675F",
"4=	c #F99B96",
"5=	c #F58D86",
"6=	c #F894A1",
"7=	c #F79AA1",
"8=	c #DCA3A3",
"9=	c #9C776B",
"0=	c #AE8374",
"a=	c #7C5C4C",
"b=	c #8E6552",
"c=	c #8A6653",
"d=	c #855E4D",
"e=	c #CF8663",
"f=	c #EAA16F",
"g=	c #E9A471",
"h=	c #C98667",
"i=	c #A36B58",
"j=	c #C17D64",
"k=	c #B97460",
"l=	c #BD7F74",
"m=	c #D79BA2",
"n=	c #C8888E",
"o=	c #F1A2B8",
"p=	c #F18FA5",
"q=	c #EC8AA1",
"r=	c #EB8691",
"s=	c #F49BAB",
"t=	c #8D6765",
"u=	c #6E705B",
"v=	c #807870",
"w=	c #838273",
"x=	c #48473F",
"y=	c #604E4B",
"z=	c #A26B6E",
"A=	c #F0949A",
"B=	c #F28A94",
"C=	c #F0858E",
"D=	c #F490A4",
"E=	c #F593A5",
"F=	c #F5A0B6",
"G=	c #E2A1AB",
"H=	c #D197A5",
"I=	c #E1B4C1",
"J=	c #A28385",
"K=	c #BB8B8B",
"L=	c #EDB4BE",
"M=	c #EDB1B1",
"N=	c #B17E80",
"O=	c #CEA0AB",
"P=	c #EBB3C4",
"Q=	c #CA8D9D",
"R=	c #E7A7C0",
"S=	c #F09DB9",
"T=	c #F090A1",
"U=	c #E98CA6",
"V=	c #E7828E",
"W=	c #E98D9D",
"X=	c #F1A0AD",
"Y=	c #9A6F6F",
"Z=	c #7E7961",
"`=	c #989672",
" -	c #7F8069",
".-	c #6D6D6D",
"+-	c #787861",
"@-	c #6F745C",
"#-	c #705D5C",
"$-	c #B17F89",
"%-	c #C97F91",
"&-	c #E990A0",
"*-	c #EA859D",
"=-	c #E58194",
"--	c #E27F96",
";-	c #E78397",
">-	c #E58AAA",
",-	c #E491AF",
"'-	c #E690AE",
")-	c #EA9BBC",
"!-	c #E895AD",
"~-	c #F6A5BF",
"{-	c #F094AD",
"]-	c #F196B8",
"^-	c #E58FAA",
"/-	c #E187A0",
"(-	c #E585A2",
"_-	c #E68499",
":-	c #E68596",
"<-	c #EA8CA3",
"[-	c #EB9CAE",
"}-	c #AA7578",
"|-	c #AF8B84",
"1-	c #A08E83",
"2-	c #92906F",
"3-	c #8E8D6C",
"4-	c #787768",
"5-	c #6A6B72",
"6-	c #56545A",
"7-	c #7D7B71",
"8-	c #6C6B70",
"9-	c #7D7980",
"0-	c #7B6D7C",
"a-	c #9F778C",
"b-	c #A66F87",
"c-	c #DE98B1",
"d-	c #E897B6",
"e-	c #E788A4",
"f-	c #E485A0",
"g-	c #E486A3",
"h-	c #E684A2",
"i-	c #E5839D",
"j-	c #E4869C",
"k-	c #EA89A6",
"l-	c #E88392",
"m-	c #E1859C",
"n-	c #E488A3",
"o-	c #E38797",
"p-	c #E391A9",
"q-	c #EFA9C0",
"r-	c #D394A0",
"s-	c #9A7879",
"t-	c #B9958F",
"u-	c #817B6A",
"v-	c #9F9B81",
"w-	c #9B9880",
"x-	c #84846D",
"y-	c #5A5351",
"z-	c #514F51",
"A-	c #646564",
"B-	c #353739",
"C-	c #36373A",
"D-	c #3F3C3F",
"E-	c #5E554F",
"F-	c #8B856D",
"G-	c #777870",
"H-	c #534A4E",
"I-	c #DEA0AC",
"J-	c #E98F9D",
"K-	c #8C6165",
"L-	c #F4B7C9",
"M-	c #F5AFC3",
"N-	c #B67682",
"O-	c #D58DA2",
"P-	c #F2ABC2",
"Q-	c #F1A3B3",
"R-	c #C8838A",
"S-	c #D197A7",
"T-	c #E7ADBF",
"U-	c #DDB2C8",
"V-	c #675C5B",
"W-	c #85766C",
"X-	c #8C8072",
"Y-	c #848472",
"Z-	c #818071",
"`-	c #757568",
" ;	c #858474",
".;	c #7D7C6E",
"+;	c #585354",
"@;	c #4D4B49",
"#;	c #4C4C4C",
". + @ # $ % & * = - ; > , ' ) ! ~ { ] ^ / ( _ : < [ } | 1 2 3 4 ",
"5 6 7 8 9 0 a b c d e f g h i j k l m n o p q r s t u v w x y z ",
"A B C D E F G H I J K L M N O P Q R S T U V W X Y Z `  ...+.@.#.",
"$.%.&.*.=.-.;.>.,.'.).!.~.{.].^./.(._.:.<.[.}.|.1.2.3.4.5.6.7.8.",
"9.0.a.b.c.d.e.f.g.h.i.j.k.l.m.n.o.p.q.r.s.t.u.v.w.x.y.z.A.B.C.D.",
"E.F.G.H.I.J.K.L.M.N.O.P.Q.R.S.T.U.V.W.X.Y.Z.`. +.+++@+#+$+%+&+*+",
"=+-+;+>+,+'+)+!+~+{+]+^+/+(+_+:+<+[+}+|+^+1+2+3+4+5+6+7+8+9+0+a+",
"b+c+d+e+f+g+h+i+j+k+l+^+m+n+o+p+q+r+s+t+^+u+v+w+x+y+z+A+B+C+D+a+",
"E+F+G+H+I+J+K+L+M+N+O+P+Q+R+S+T+U+V+W+^+X+Y+Z+`+ @.@+@@@#@$@%@&@",
"*@=@-@;@>@,@'@)@!@~@{@]@^@/@(@_@:@<@[@}@|@1@2@3@4@5@6@7@8@9@0@a@",
"b@c@d@e@f@g@h@i@j@k@l@m@n@o@p@q@r@s@t@u@v@w@x@y@z@A@B@C@D@E@F@G@",
"H@I@J@K@L@M@N@O@P@Q@R@S@T@U@V@W@X@Y@Z@`@ #.#+#@###$#%#&#*#=#-#;#",
">#,#'#)#!#~#{#]#^#/#(#_#:#<#[#}#|#1#2#3#4#5#6#7#8#9#0#a#b#c#d#e#",
"f#g#h#i#j#k#l#m#n#o#p#q#r#s#t#u#v#w#x#y#z#5#A#B#C#D#E#F#G#H#I#J#",
"K#L#M#N#O#P#Q#R#S#T#U#V#W#X#Y#Z#`# $.$+$@$#$$$%$&$*$=$-$;$>$,$'$",
")$!$~${$]$^$/$($_$:$<$[$}$|$1$2$3$4$5$6$7$8$9$0$a$b$c$d$e$f$g$h$",
"i$j$k$l$m$n$o$p$q$r$s$t$u$v$w$x$y$z$A$B$C$D$E$F$G$H$I$J$K$L$M$N$",
"O$P$Q$R$S$T$U$V$W$X$Y$Z$`$ %.%+%@%#%$%%%&%*%=%-%;%>%,%'%)%!%~%{%",
"]%^%/%(%_%:%<%[%}%|%1%2%3%4%5%6%7%8%9%0%a%b%c%d%e%f%g%h%i%j%k%l%",
"m%n%o%p%q%r%s%t%u%v%w%x%y%z%A%B%C%D%E%F%G%H%I%J%K%L%M%N%O%P%Q%R%",
"S%T%U%V%W%X%Y%Z%`% &.&+&@&#&$&%&&&*&=&-&;&>&,&'&)&!&~&{&]&^&/&(&",
"_&:&<&[&}&|&1&2&3&4&5&6&7&8&9&0&a&b&c&d&e&f&g&h&i&j&k&l&m&n&o&p&",
"q&r&s&t&u&v&w&x&y&z&A&B&C&D&E&F&G&H&I&J&K&L&M&N&O&P&Q&R&S&T&U&V&",
"W&X&Y&Z&`& *.*+*@*#*$*%*&***=*-*;*>*,*'*)*!*~*{*]*^*/*(*_*:*<*[*",
"}*|*1*2*3*4*5*6*7*8*9*0*a*b*c*d*e*f*g*h*i*j*k*l*m*n*o*p*q*r*s*t*",
"u*v*w*x*y*z*A*B*C*C*D*E*F*G*H*I*J*K*L*M*N*O*P*+$Q*R*S*T*U*V*W*X*",
"Y*Z*`* =.=+=@=#=$=%=&=*===-=;=>=,='=)=!=~={=]=^=/=(=_=:=<=[=}=|=",
"1=2=3=4=5=6=7=8=9=0=a=b=c=d=e=f=g=h=i=j=k=l=m=n=o=p=q=r=s=t=u=v=",
"w=x=y=z=A=B=C=D=E=F=G=H=I=J=K=L=M=N=O=P=Q=R=S=T=U=V=W=X=Y=Z=`= -",
".-+-@-#-$-%-&-*-=---;->-,-'-)-!-~-{-]-^-/-(-_-:-<-[-}-|-1-2-3-4-",
"5-6-7-8-9-0-a-b-c-d-e-f-g-h-i-j-k-l-m-n-o-p-q-r-s-t-u-v-w-x-y-z-",
"A-B-C-D-E-F-G-H-I-J-K-L-M-N-O-P-Q-R-S-T-U-V-W-X-Y-Z-`- ;.;+;@;#;"};
