/* XPM */
static const char * mview_xpm[] = {
"24 24 163 2",
"  	c None",
". 	c #E5E5EB",
"+ 	c #EEEEF2",
"@ 	c #EEEDF2",
"# 	c #D8D8DF",
"$ 	c #BEBFC6",
"% 	c #FFFFFF",
"& 	c #FDFCFD",
"* 	c #F9F8FA",
"= 	c #F4F4F6",
"- 	c #F3F3F6",
"; 	c #E1E0E8",
"> 	c #CFD0D6",
", 	c #A8A9B2",
"' 	c #FCFBFD",
") 	c #F5F4F7",
"! 	c #F1F0F4",
"~ 	c #E2E2E8",
"{ 	c #EAEAEF",
"] 	c #CACAD1",
"^ 	c #AAAAB3",
"/ 	c #FEFDFE",
"( 	c #FAF9FB",
"_ 	c #F6F6F8",
": 	c #F1F1F5",
"< 	c #C6C6CD",
"[ 	c #CFCFD5",
"} 	c #C7C7CF",
"| 	c #ACADB5",
"1 	c #9798A0",
"2 	c #EEEDF1",
"3 	c #FEFEFE",
"4 	c #FBFAFC",
"5 	c #F7F7F9",
"6 	c #DCDCE1",
"7 	c #D6D6DD",
"8 	c #CDCDD5",
"9 	c #C2C2CA",
"0 	c #8A8B93",
"a 	c #F8F8FA",
"b 	c #E0DFE6",
"c 	c #DAD9E1",
"d 	c #CDCDD6",
"e 	c #A4A5AB",
"f 	c #C4C4C9",
"g 	c #D4D3DB",
"h 	c #B4B5BD",
"i 	c #FCFBFC",
"j 	c #EFEFF2",
"k 	c #E6E5EB",
"l 	c #E1E0E7",
"m 	c #DFDEE5",
"n 	c #D1D1D8",
"o 	c #AEAEB3",
"p 	c #DADADB",
"q 	c #F8F8F9",
"r 	c #CDCED4",
"s 	c #F1F1F4",
"t 	c #EBEAEE",
"u 	c #E5E4EA",
"v 	c #E3E3E9",
"w 	c #D6D5DC",
"x 	c #ADAEB3",
"y 	c #D7D6D9",
"z 	c #F0F0F4",
"A 	c #E1E1E7",
"B 	c #B8B9C1",
"C 	c #A6A7B0",
"D 	c #F9F9FA",
"E 	c #ECECF0",
"F 	c #EAE9EE",
"G 	c #E9E8ED",
"H 	c #E7E6EC",
"I 	c #D8D8DE",
"J 	c #AEAEB2",
"K 	c #D8D8D9",
"L 	c #F6F5F7",
"M 	c #D5D5DC",
"N 	c #E3E3E7",
"O 	c #AFAFB8",
"P 	c #9E9FA8",
"Q 	c #FEFEFF",
"R 	c #FAFAFB",
"S 	c #F0F0F3",
"T 	c #EAEAEE",
"U 	c #DADAE0",
"V 	c #ADAEB2",
"W 	c #D9D9DA",
"X 	c #F2F1F5",
"Y 	c #C6C6CE",
"Z 	c #C0C0C8",
"` 	c #B8B9C2",
" .	c #FDFDFD",
"..	c #F7F6F8",
"+.	c #F5F5F7",
"@.	c #F2F2F5",
"#.	c #EDEDF1",
"$.	c #EBEAEF",
"%.	c #E9E9ED",
"&.	c #DCDBE1",
"*.	c #F8F7F9",
"=.	c #F3F3F5",
"-.	c #E2E1E8",
";.	c #D9D8E0",
">.	c #CCCCD4",
",.	c #EDECF0",
"'.	c #DAD9DB",
").	c #FCFCFD",
"!.	c #F8F7FA",
"~.	c #DEDDE5",
"{.	c #D1D0D8",
"].	c #F9F9FB",
"^.	c #F7F6F9",
"/.	c #DCDCE2",
"(.	c #ADADB2",
"_.	c #D8D7D9",
":.	c #EBEBEF",
"<.	c #E4E4EA",
"[.	c #D5D4DB",
"}.	c #ACADB1",
"|.	c #D6D6D7",
"1.	c #E8E8ED",
"2.	c #E8E7EC",
"3.	c #D7D7DE",
"4.	c #F7F7F8",
"5.	c #ECECEF",
"6.	c #DEDDE2",
"7.	c #ABABB1",
"8.	c #D1D1D3",
"9.	c #EFEFF3",
"0.	c #ECEBF0",
"a.	c #D9D9DF",
"b.	c #D3D3D8",
"c.	c #D2D3D7",
"d.	c #D1D1D6",
"e.	c #D0D0D6",
"f.	c #CECFD4",
"g.	c #CECED4",
"h.	c #CDCDD3",
"i.	c #C4C5CB",
"j.	c #A9AAB0",
"k.	c #DBDBE1",
"l.	c #818187",
"m.	c #A9A9AD",
"n.	c #B3B3B5",
"o.	c #B4B4B7",
"p.	c #D8D8DA",
"q.	c #F3F2F5",
"r.	c #DEDDE1",
"s.	c #EEEEEF",
"t.	c #E7E7E9",
"u.	c #E7E6E9",
"v.	c #EFEEF1",
"w.	c #EDECF1",
"x.	c #E9E9EB",
"y.	c #E8E8EB",
"z.	c #E6E6EA",
"A.	c #E6E5E9",
"B.	c #E5E5E8",
"C.	c #E2E3E6",
"D.	c #E1E2E5",
"E.	c #E0E0E4",
"F.	c #D4D4D9",
"                                                ",
"  . + + @ + + @ + # $                           ",
"  @ % % % & * = - ; > ,                         ",
"  @ % % % ' * ) ! ~ { ] ^                       ",
"  @ % % % / ( _ : < [ } | 1                     ",
"  2 % % % 3 4 5 : 6 7 8 9 0                     ",
"  + % % % 3 ' a - { b c d e f . . . g h         ",
"  2 % % % 3 i _ j k l m n o p 4 q 5 ; r ,       ",
"  @ % % / ' a s t k u v w x y a - z ; A B C     ",
"  + % 3 3 D s @ E F G H I J K ( L s M N I O P   ",
"  @ % Q R = ! S + E T G U V W 4 5 X ] Y Z ` 0   ",
"  2 %  ...+.@.z + #.$.%.&.x p 4 *.=.E -.;.>.0   ",
"  @ % ( ..L =.: z + ,.T 6 V '.).!.z k b ~.{.0   ",
"  @ % ].^.L = @.z + ,.T /.(._.* @.:.k <.~ [.0   ",
"  @ % 5 _ +.=.: z + E T /.}.|.- @ :.1.2.k 3.0   ",
"  2 3 D a 4.+.- : S @ 5.6.7.8.z 9.+ 0.T 1.a.0   ",
"  ] b.c.c.c.d.d.e.f.g.h.i.j.8.@.z + #.$.%.k.0   ",
"                  l.m.n.J o.p.q.! z + E %.&.0   ",
"                    r.s.t.u.v.= @.z + w.{ /.0   ",
"                    @ % a _ +.=.X z + E T 6 0   ",
"                    @ 3 5 _ = =.! 9.@ 0.T 6 0   ",
"                    6 x.y.y.y.z.A.B.C.D.E.F.0   ",
"                    1 0 0 0 0 0 0 0 0 0 0 0     ",
"                                                "};
