/* XPM */
static const char * nav_left_xpm[] = {
"24 24 105 2",
"  	c None",
". 	c #618CC2",
"+ 	c #6788BE",
"@ 	c #8FB9DC",
"# 	c #41A2CA",
"$ 	c #739BC8",
"% 	c #A9C8E8",
"& 	c #87C7E8",
"* 	c #42A9CF",
"= 	c #639EC8",
"- 	c #B1D6EE",
"; 	c #7DD5F6",
"> 	c #66C8ED",
", 	c #3DAFD4",
"' 	c #63A1C8",
") 	c #C1E4F6",
"! 	c #74D8F9",
"~ 	c #62D7F9",
"{ 	c #53C9F0",
"] 	c #36A9D3",
"^ 	c #64A8CF",
"/ 	c #AAD7EF",
"( 	c #78D9F9",
"_ 	c #5DD7FA",
": 	c #44D2FB",
"< 	c #36C3F1",
"[ 	c #2EA1D1",
"} 	c #5392C2",
"| 	c #91CDEC",
"1 	c #7BD5F6",
"2 	c #6ACEF3",
"3 	c #46CDF9",
"4 	c #33CDFA",
"5 	c #28BCED",
"6 	c #2291CB",
"7 	c #4D76B4",
"8 	c #93C2E6",
"9 	c #6FC0EA",
"0 	c #5DBDEA",
"a 	c #3EB9ED",
"b 	c #36B9EF",
"c 	c #2BBBF0",
"d 	c #20A2DF",
"e 	c #147BBD",
"f 	c #5474B5",
"g 	c #84A6D5",
"h 	c #6CADDF",
"i 	c #64ACDF",
"j 	c #49AEE2",
"k 	c #36ACE3",
"l 	c #35ACE4",
"m 	c #27ACE4",
"n 	c #1E94D1",
"o 	c #116CAC",
"p 	c #3561A2",
"q 	c #5587C4",
"r 	c #65A4DA",
"s 	c #52A0D7",
"t 	c #429CD5",
"u 	c #37A1D8",
"v 	c #329FD7",
"w 	c #24A0D9",
"x 	c #1A85C3",
"y 	c #105997",
"z 	c #10498F",
"A 	c #3A7FBF",
"B 	c #3A84C9",
"C 	c #2C83C7",
"D 	c #2E8DC9",
"E 	c #2A8CCB",
"F 	c #1F89C6",
"G 	c #1768AC",
"H 	c #12427D",
"I 	c #14488F",
"J 	c #1C5097",
"K 	c #2166AC",
"L 	c #236EB4",
"M 	c #186EB1",
"N 	c #154B94",
"O 	c #112A6A",
"P 	c #121463",
"Q 	c #172974",
"R 	c #1A4C97",
"S 	c #1A559F",
"T 	c #155098",
"U 	c #14317B",
"V 	c #131A5F",
"W 	c #201255",
"X 	c #121A6B",
"Y 	c #113182",
"Z 	c #123885",
"` 	c #132572",
" .	c #161259",
"..	c #1E125B",
"+.	c #12146B",
"@.	c #122777",
"#.	c #131B6C",
"$.	c #1E135A",
"%.	c #2A1168",
"&.	c #14126B",
"*.	c #191166",
"=.	c #23125D",
"-.	c #2F126B",
";.	c #2D1269",
">.	c #291263",
"                                                ",
"                                                ",
"                              .                 ",
"                            + @ #               ",
"                          $ % & *               ",
"                        = - ; > ,               ",
"                      ' ) ! ~ { ]               ",
"                    ^ / ( _ : < [               ",
"                  } | 1 2 3 4 5 6               ",
"                7 8 9 0 a b c d e               ",
"              f g h i j k l m n o               ",
"              p q r s t u v w x y               ",
"                z A B C D E F G H               ",
"                  I J K L L M N O               ",
"                    P Q R S T U V               ",
"                      W X Y Z `  .              ",
"                        ..+.@.#.$.              ",
"                          %.&.*.=.              ",
"                            -.;.>.              ",
"                              -.                ",
"                                                ",
"                                                ",
"                                                ",
"                                                "};
