/* XPM */
static const char * nav_up_xpm[] = {
"24 24 105 2",
"  	c None",
". 	c #5474B5",
"+ 	c #3561A2",
"@ 	c #4D76B4",
"# 	c #84A6D5",
"$ 	c #5587C4",
"% 	c #10498F",
"& 	c #5392C2",
"* 	c #93C2E6",
"= 	c #6CADDF",
"- 	c #65A4DA",
"; 	c #3A7FBF",
"> 	c #14488F",
", 	c #64A8CF",
"' 	c #91CDEC",
") 	c #6FC0EA",
"! 	c #64ACDF",
"~ 	c #52A0D7",
"{ 	c #3A84C9",
"] 	c #1C5097",
"^ 	c #121463",
"/ 	c #63A1C8",
"( 	c #AAD7EF",
"_ 	c #7BD5F6",
": 	c #5DBDEA",
"< 	c #49AEE2",
"[ 	c #429CD5",
"} 	c #2C83C7",
"| 	c #2166AC",
"1 	c #172974",
"2 	c #201255",
"3 	c #639EC8",
"4 	c #C1E4F6",
"5 	c #78D9F9",
"6 	c #6ACEF3",
"7 	c #3EB9ED",
"8 	c #36ACE3",
"9 	c #37A1D8",
"0 	c #2E8DC9",
"a 	c #236EB4",
"b 	c #1A4C97",
"c 	c #121A6B",
"d 	c #1E125B",
"e 	c #739BC8",
"f 	c #B1D6EE",
"g 	c #74D8F9",
"h 	c #5DD7FA",
"i 	c #46CDF9",
"j 	c #36B9EF",
"k 	c #35ACE4",
"l 	c #329FD7",
"m 	c #2A8CCB",
"n 	c #1A559F",
"o 	c #113182",
"p 	c #12146B",
"q 	c #2A1168",
"r 	c #6788BE",
"s 	c #A9C8E8",
"t 	c #7DD5F6",
"u 	c #62D7F9",
"v 	c #44D2FB",
"w 	c #33CDFA",
"x 	c #2BBBF0",
"y 	c #27ACE4",
"z 	c #24A0D9",
"A 	c #1F89C6",
"B 	c #186EB1",
"C 	c #155098",
"D 	c #123885",
"E 	c #122777",
"F 	c #14126B",
"G 	c #2F126B",
"H 	c #618CC2",
"I 	c #8FB9DC",
"J 	c #87C7E8",
"K 	c #66C8ED",
"L 	c #53C9F0",
"M 	c #36C3F1",
"N 	c #28BCED",
"O 	c #20A2DF",
"P 	c #1E94D1",
"Q 	c #1A85C3",
"R 	c #1768AC",
"S 	c #154B94",
"T 	c #14317B",
"U 	c #132572",
"V 	c #131B6C",
"W 	c #191166",
"X 	c #2D1269",
"Y 	c #41A2CA",
"Z 	c #42A9CF",
"` 	c #3DAFD4",
" .	c #36A9D3",
"..	c #2EA1D1",
"+.	c #2291CB",
"@.	c #147BBD",
"#.	c #116CAC",
"$.	c #105997",
"%.	c #12427D",
"&.	c #112A6A",
"*.	c #131A5F",
"=.	c #161259",
"-.	c #1E135A",
";.	c #23125D",
">.	c #291263",
"                                                ",
"                                                ",
"                                                ",
"                                                ",
"                                                ",
"                                                ",
"                                                ",
"                    . +                         ",
"                  @ # $ %                       ",
"                & * = - ; >                     ",
"              , ' ) ! ~ { ] ^                   ",
"            / ( _ : < [ } | 1 2                 ",
"          3 4 5 6 7 8 9 0 a b c d               ",
"        e f g h i j k l m a n o p q             ",
"      r s t u v w x y z A B C D E F G           ",
"    H I J K L M N O P Q R S T U V W X G         ",
"      Y Z `  ...+.@.#.$.%.&.*.=.-.;.>.          ",
"                                                ",
"                                                ",
"                                                ",
"                                                ",
"                                                ",
"                                                ",
"                                                "};
