/* XPM */
static const char * nav_down_xpm[] = {
"24 24 105 2",
"  	c None",
". 	c #41A2CA",
"+ 	c #42A9CF",
"@ 	c #3DAFD4",
"# 	c #36A9D3",
"$ 	c #2EA1D1",
"% 	c #2291CB",
"& 	c #147BBD",
"* 	c #116CAC",
"= 	c #105997",
"- 	c #12427D",
"; 	c #112A6A",
"> 	c #131A5F",
", 	c #161259",
"' 	c #1E135A",
") 	c #23125D",
"! 	c #291263",
"~ 	c #618CC2",
"{ 	c #8FB9DC",
"] 	c #87C7E8",
"^ 	c #66C8ED",
"/ 	c #53C9F0",
"( 	c #36C3F1",
"_ 	c #28BCED",
": 	c #20A2DF",
"< 	c #1E94D1",
"[ 	c #1A85C3",
"} 	c #1768AC",
"| 	c #154B94",
"1 	c #14317B",
"2 	c #132572",
"3 	c #131B6C",
"4 	c #191166",
"5 	c #2D1269",
"6 	c #2F126B",
"7 	c #6788BE",
"8 	c #A9C8E8",
"9 	c #7DD5F6",
"0 	c #62D7F9",
"a 	c #44D2FB",
"b 	c #33CDFA",
"c 	c #2BBBF0",
"d 	c #27ACE4",
"e 	c #24A0D9",
"f 	c #1F89C6",
"g 	c #186EB1",
"h 	c #155098",
"i 	c #123885",
"j 	c #122777",
"k 	c #14126B",
"l 	c #739BC8",
"m 	c #B1D6EE",
"n 	c #74D8F9",
"o 	c #5DD7FA",
"p 	c #46CDF9",
"q 	c #36B9EF",
"r 	c #35ACE4",
"s 	c #329FD7",
"t 	c #2A8CCB",
"u 	c #236EB4",
"v 	c #1A559F",
"w 	c #113182",
"x 	c #12146B",
"y 	c #2A1168",
"z 	c #639EC8",
"A 	c #C1E4F6",
"B 	c #78D9F9",
"C 	c #6ACEF3",
"D 	c #3EB9ED",
"E 	c #36ACE3",
"F 	c #37A1D8",
"G 	c #2E8DC9",
"H 	c #1A4C97",
"I 	c #121A6B",
"J 	c #1E125B",
"K 	c #63A1C8",
"L 	c #AAD7EF",
"M 	c #7BD5F6",
"N 	c #5DBDEA",
"O 	c #49AEE2",
"P 	c #429CD5",
"Q 	c #2C83C7",
"R 	c #2166AC",
"S 	c #172974",
"T 	c #201255",
"U 	c #64A8CF",
"V 	c #91CDEC",
"W 	c #6FC0EA",
"X 	c #64ACDF",
"Y 	c #52A0D7",
"Z 	c #3A84C9",
"` 	c #1C5097",
" .	c #121463",
"..	c #5392C2",
"+.	c #93C2E6",
"@.	c #6CADDF",
"#.	c #65A4DA",
"$.	c #3A7FBF",
"%.	c #14488F",
"&.	c #4D76B4",
"*.	c #84A6D5",
"=.	c #5587C4",
"-.	c #10498F",
";.	c #5474B5",
">.	c #3561A2",
"                                                ",
"                                                ",
"                                                ",
"                                                ",
"                                                ",
"                                                ",
"                                                ",
"      . + @ # $ % & * = - ; > , ' ) !           ",
"    ~ { ] ^ / ( _ : < [ } | 1 2 3 4 5 6         ",
"      7 8 9 0 a b c d e f g h i j k 6           ",
"        l m n o p q r s t u v w x y             ",
"          z A B C D E F G u H I J               ",
"            K L M N O P Q R S T                 ",
"              U V W X Y Z `  .                  ",
"                ..+.@.#.$.%.                    ",
"                  &.*.=.-.                      ",
"                    ;.>.                        ",
"                                                ",
"                                                ",
"                                                ",
"                                                ",
"                                                ",
"                                                ",
"                                                "};
