/* XPM */
static char * new_xpm[] = {
"24 24 156 2",
"  	c None",
". 	c #8D8D8D",
"+ 	c #909090",
"@ 	c #939393",
"# 	c #8F8F8F",
"$ 	c #8A8A8A",
"% 	c #868686",
"& 	c #808080",
"* 	c #7B7B7B",
"= 	c #767676",
"- 	c #707070",
"; 	c #6A6A6E",
"> 	c #78775F",
", 	c #979347",
"' 	c #AFAA36",
") 	c #B7B130",
"! 	c #B2AC30",
"~ 	c #A3A3A3",
"{ 	c #F6F6F6",
"] 	c #F3F3F3",
"^ 	c #F0F0F0",
"/ 	c #F1F1F1",
"( 	c #EEEEEE",
"_ 	c #EDEDED",
": 	c #ECECEE",
"< 	c #EBEADC",
"[ 	c #EDEAAB",
"} 	c #F0EB83",
"| 	c #F2EB66",
"1 	c #F3EC59",
"2 	c #F5EE61",
"3 	c #BFBA3B",
"4 	c #A0A0A0",
"5 	c #DBDBDB",
"6 	c #DADADA",
"7 	c #E2E2E2",
"8 	c #DFDFDF",
"9 	c #E0E0E0",
"0 	c #E1E1E1",
"a 	c #E1E1E0",
"b 	c #E8E5B2",
"c 	c #F0EB7D",
"d 	c #F6EE52",
"e 	c #FBF239",
"f 	c #FBF344",
"g 	c #FFF540",
"h 	c #DED62D",
"i 	c #FFF614",
"j 	c #9E9E9E",
"k 	c #F4F4F4",
"l 	c #DDDDDD",
"m 	c #E4E4E4",
"n 	c #E3E3E3",
"o 	c #E6E5D4",
"p 	c #EEEA98",
"q 	c #F6EF5E",
"r 	c #FCF341",
"s 	c #FCF66D",
"t 	c #FDF88B",
"u 	c #FEF982",
"v 	c #F1E948",
"w 	c #FFF419",
"x 	c #FEF311",
"y 	c #9C9C9C",
"z 	c #F5F5F5",
"A 	c #DEDEDE",
"B 	c #E6E6E6",
"C 	c #E5E5E5",
"D 	c #E5E5E6",
"E 	c #E9E7CF",
"F 	c #F0EC8A",
"G 	c #F8F050",
"H 	c #FCF452",
"I 	c #FDF898",
"J 	c #FEFBD2",
"K 	c #FFFBBC",
"L 	c #F2ED6D",
"M 	c #FFF525",
"N 	c #FFF313",
"O 	c #999999",
"P 	c #E7E7E7",
"Q 	c #E9E8D0",
"R 	c #F2ED8B",
"S 	c #FDF552",
"T 	c #FEFBD3",
"U 	c #FEF313",
"V 	c #969696",
"W 	c #E8E8E8",
"X 	c #EAE9D8",
"Y 	c #F0EC9A",
"Z 	c #F7F05F",
"` 	c #FDF66E",
" .	c #FEF983",
"..	c #F1EA48",
"+.	c #929292",
"@.	c #FAFAFA",
"#.	c #B6B6B6",
"$.	c #E9E9E9",
"%.	c #EAEAE8",
"&.	c #EFECB9",
"*.	c #F4EF81",
"=.	c #F9F153",
"-.	c #FCF33A",
";.	c #FDF445",
">.	c #FFF640",
",.	c #DED62C",
"'.	c #FFF613",
").	c #8E8E8E",
"!.	c #F7F7F7",
"~.	c #EAEAEA",
"{.	c #EBEBEB",
"].	c #EBEBEC",
"^.	c #EDECE0",
"/.	c #F0EDAE",
"(.	c #F5EF85",
"_.	c #F8F169",
":.	c #F8F05C",
"<.	c #FFF868",
"[.	c #B7B13B",
"}.	c #8B8B8B",
"|.	c #ECECEC",
"1.	c #EDECEC",
"2.	c #EDEDEF",
"3.	c #EDEDE4",
"4.	c #F0EEC8",
"5.	c #F2EFAC",
"6.	c #F3EF9D",
"7.	c #FFFCB3",
"8.	c #848154",
"9.	c #878787",
"0.	c #F8F8F8",
"a.	c #EEEEEF",
"b.	c #EFEFEA",
"c.	c #EFEEE8",
"d.	c #FEFEF9",
"e.	c #666665",
"f.	c #848484",
"g.	c #F9F9F9",
"h.	c #EFEFEF",
"i.	c #FEFEFE",
"j.	c #636363",
"k.	c #F2F2F2",
"l.	c #FFFFFF",
"m.	c #626262",
"n.	c #7C7C7C",
"o.	c #5F5F5F",
"p.	c #787878",
"q.	c #FDFDFD",
"r.	c #B8B8B8",
"s.	c #737373",
"t.	c #6B6B6B",
"u.	c #686868",
"v.	c #646464",
"w.	c #343434",
"x.	c #333333",
"y.	c #353535",
"                                                ",
"        . + @ # $ % & * = - ; > , ' ) !         ",
"      ~ { ] ^ ] / ^ ^ ( _ : < [ } | 1 2 3       ",
"      4 ] 5 6 7 8 8 9 0 0 a b c d e f g h i     ",
"      j k 8 l m 0 7 n m m o p q r s t u v w x   ",
"      y z 8 A B 7 m m C D E F G H I J K L M N   ",
"      O z 9 8 P m C C B P Q R G S I T K L M U   ",
"      V { C 9 P C B P P W X Y Z r ` t  ...w x   ",
"      +.@.#.m W B P W W $.%.&.*.=.-.;.>.,.'.    ",
"      ).!.$.0 $.P W $.~.{.].^./.(._.:.<.[.      ",
"      }.!.m 7 ~.W $.~.{.|.1.2.3.4.5.6.7.8.      ",
"      9.0.C 7 {.$.~.{.|._ ( ( a.( b.c.d.e.      ",
"      f.g.B m |.~.{.|._ ( h.^ ^ ^ ^ ^ i.j.      ",
"      & g.B m |.~.|._ ( h.^ / / k./ / l.m.      ",
"      n.g.~.m _ {._ ( h./ / k.k.] k.k.l.o.      ",
"      p.q.r.$.|.{._ h.^ / k.k k z z ] l.o.      ",
"      s.g._ C _ |.( h.^ k.k z z { { z l.o.      ",
"      - @.W B ( |.( ^ / ] k z !.!.!.{ l.o.      ",
"      t.@.W B ( |.( ^ / ] k { 0.g.0.{ l.o.      ",
"      u.@.W B ( |.( ^ / ] k { !.0.0.{ l.o.      ",
"      v.@.W C _ |._ h./ k.k z !.!.!.z l.o.      ",
"      v.{.n 0 m n n n n n n n n n n n {.j.      ",
"        w.x.w.x.x.x.x.x.x.x.x.x.x.x.x.y.        ",
"                                                "};
