/* XPM */
static const char * now_xpm[] = {
"24 24 174 2",
"  	c None",
". 	c #00C9E6",
"+ 	c #00C6E1",
"@ 	c #3CD9F4",
"# 	c #1BD3F0",
"$ 	c #04C9E8",
"% 	c #8FEAFB",
"& 	c #73E3F9",
"* 	c #00C5E4",
"= 	c #1FCFEF",
"- 	c #A6EEFE",
"; 	c #9DECFD",
"> 	c #15CCEC",
", 	c #00C6E5",
"' 	c #48DAF5",
") 	c #B1F1FE",
"! 	c #A8EFFF",
"~ 	c #3AD6F3",
"{ 	c #0DC8E8",
"] 	c #6CE3FD",
"^ 	c #A8F0FF",
"/ 	c #66E3FC",
"( 	c #0BC9E8",
"_ 	c #1BCCF0",
": 	c #83E7FE",
"< 	c #99EBFE",
"[ 	c #98ECFE",
"} 	c #80E7FE",
"| 	c #1ACBEF",
"1 	c #00C1E4",
"2 	c #00C1E9",
"3 	c #42D7FB",
"4 	c #86E4FF",
"5 	c #88E4FF",
"6 	c #41D6FB",
"7 	c #00C4ED",
"8 	c #00C1EA",
"9 	c #00BEE6",
"0 	c #02C0ED",
"a 	c #14C7F6",
"b 	c #1CC8FA",
"c 	c #25C9F9",
"d 	c #32CDFB",
"e 	c #33D0FF",
"f 	c #3ED3FF",
"g 	c #51D7FF",
"h 	c #78E0FE",
"i 	c #77E0FE",
"j 	c #77DDFE",
"k 	c #75DCFE",
"l 	c #59D6FE",
"m 	c #47D5FF",
"n 	c #46D5FF",
"o 	c #45D5FF",
"p 	c #3DD3FF",
"q 	c #30CFFF",
"r 	c #1CCAFE",
"s 	c #03C2F2",
"t 	c #04BFED",
"u 	c #28C7F9",
"v 	c #52D2FE",
"w 	c #67D7FE",
"x 	c #6AD8FE",
"y 	c #69D8FE",
"z 	c #68D8FE",
"A 	c #66D6FE",
"B 	c #65D6FE",
"C 	c #64D6FE",
"D 	c #63D6FE",
"E 	c #5AD4FE",
"F 	c #3FCCFE",
"G 	c #14C4F5",
"H 	c #00BDEB",
"I 	c #00BEEC",
"J 	c #0DBCFA",
"K 	c #23BFFF",
"L 	c #3DC7FF",
"M 	c #56CEFF",
"N 	c #58CFFF",
"O 	c #57CEFF",
"P 	c #55CEFF",
"Q 	c #54CEFF",
"R 	c #47CAFF",
"S 	c #29C1FF",
"T 	c #14BDFF",
"U 	c #06BBF6",
"V 	c #00BFEA",
"W 	c #00BEEB",
"X 	c #00B8F6",
"Y 	c #01AFFE",
"Z 	c #04ADFF",
"` 	c #12B2FF",
" .	c #1EB6FF",
"..	c #2AB9FF",
"+.	c #29B9FF",
"@.	c #2FBCFF",
"#.	c #2ABAFF",
"$.	c #28B9FF",
"%.	c #24B8FF",
"&.	c #18B4FF",
"*.	c #08AFFF",
"=.	c #01ACFF",
"-.	c #01B1FD",
";.	c #00B9F4",
">.	c #00BEEA",
",.	c #00BAEC",
"'.	c #00B6F4",
").	c #01AAFE",
"!.	c #01A8FF",
"~.	c #01A9FD",
"{.	c #00B8F3",
"].	c #00B2F5",
"^.	c #01A5FF",
"/.	c #01A4FF",
"(.	c #01A3FF",
"_.	c #00B1F5",
":.	c #00B3F3",
"<.	c #009FFD",
"[.	c #019AFF",
"}.	c #019EFE",
"|.	c #00B5F3",
"1.	c #00B0F4",
"2.	c #0196FE",
"3.	c #0193FF",
"4.	c #0198FF",
"5.	c #0194FF",
"6.	c #00ACF6",
"7.	c #00AAF7",
"8.	c #018CFF",
"9.	c #018DFF",
"0.	c #019FFF",
"a.	c #01A0FF",
"b.	c #00A0FA",
"c.	c #009BFC",
"d.	c #0188FF",
"e.	c #018FFF",
"f.	c #019CFF",
"g.	c #01A3FD",
"h.	c #01A5FD",
"i.	c #018AFF",
"j.	c #008BFE",
"k.	c #00BAF5",
"l.	c #00BBF5",
"m.	c #0188FE",
"n.	c #0183FF",
"o.	c #0195FE",
"p.	c #00AAFB",
"q.	c #00BAF7",
"r.	c #00BEF5",
"s.	c #00AEFA",
"t.	c #018BFF",
"u.	c #0184FF",
"v.	c #0182FF",
"w.	c #00ADF8",
"x.	c #00ADF7",
"y.	c #017CFF",
"z.	c #0091FE",
"A.	c #00AEF9",
"B.	c #00B7F8",
"C.	c #009FFC",
"D.	c #0189FF",
"E.	c #0180FF",
"F.	c #009AFB",
"G.	c #009CFC",
"H.	c #0185FE",
"I.	c #009AFD",
"J.	c #00B9F9",
"K.	c #00A9FC",
"L.	c #0191FE",
"M.	c #00A5FD",
"N.	c #00A4FC",
"O.	c #00B7FA",
"P.	c #00B0FB",
"Q.	c #00A6FD",
"                                                ",
"                      . +                       ",
"                      @ #                       ",
"                    $ % & *                     ",
"                    = - ; >                     ",
"                  , ' ) ! ~                     ",
"                  { ] ^ ^ / (                   ",
"                  _ : < [ } |                   ",
"        1 1 1 1 2 3 4 5 5 4 6 7 8 8 9 1 1 1     ",
"  0 a b c d e f g h i i j j k l m n o p q r s   ",
"  t u v w x y y z z w w w A A B B C D E F G H   ",
"    I J K L M N N O M M M P P Q Q R S T U V     ",
"      W X Y Z `  ...+.@.#.$.%.&.*.=.-.;.>.      ",
"        ,.'.).!.!.!.!.!.!.!.!.!.!.~.{.          ",
"            ].^././././././././.(._.            ",
"            :.<.[.[.[.[.[.[.[.[.}.|.            ",
"            1.2.3.3.3.4.4.5.3.3.3.6.            ",
"            7.8.8.9.5.0.a.4.9.8.8.b.            ",
"            c.d.d.e.f.g.h.}.5.i.d.j.k.          ",
"          l.m.n.d.o.p.q.r.s.}.t.u.v.w.          ",
"          x.y.u.z.A.        B.C.D.E.F.          ",
"          G.H.I.J.            J.K.L.L.          ",
"          M.N.O.                  P.Q.          ",
"                                                "};
