/* XPM */
static const char * open_xpm[] = {
"24 24 304 2",
"  	c None",
". 	c #9598AF",
"+ 	c #B8BBCC",
"@ 	c #84889E",
"# 	c #9DA1B5",
"$ 	c #B5B9C9",
"% 	c #E6E7EE",
"& 	c #F1F2F7",
"* 	c #B8BBCA",
"= 	c #A8ACBE",
"- 	c #D3D5DF",
"; 	c #F2F2F6",
"> 	c #F2F2F8",
", 	c #F0F0F4",
"' 	c #E2E3EA",
") 	c #9498AE",
"! 	c #9AAECA",
"~ 	c #CDDBE5",
"{ 	c #C7D6E3",
"] 	c #C1D3E1",
"^ 	c #BDCFDF",
"/ 	c #AAC2D8",
"( 	c #6584AF",
"_ 	c #989BB0",
": 	c #BCBFCE",
"< 	c #E6E7EC",
"[ 	c #F9F9FB",
"} 	c #F5F5F9",
"| 	c #F1F1F7",
"1 	c #EDEDF3",
"2 	c #C5C7D5",
"3 	c #686E88",
"4 	c #AFC1D5",
"5 	c #E1F1F5",
"6 	c #D8EBF2",
"7 	c #D4E9F0",
"8 	c #CFE6EF",
"9 	c #C8DFEA",
"0 	c #AFC2D5",
"a 	c #A3ABC1",
"b 	c #E0E1E8",
"c 	c #FEFEFE",
"d 	c #FCFCFE",
"e 	c #F7F7FB",
"f 	c #EAEAF0",
"g 	c #F7F7F9",
"h 	c #979DB5",
"i 	c #47567D",
"j 	c #ADC0D5",
"k 	c #CADEEA",
"l 	c #B6C1D2",
"m 	c #C8CBD8",
"n 	c #EDEDF1",
"o 	c #FFFFFF",
"p 	c #EBEBF1",
"q 	c #D9DAE5",
"r 	c #757E9D",
"s 	c #ABBFD5",
"t 	c #E0F0F4",
"u 	c #D7EAF1",
"v 	c #C5D5E1",
"w 	c #B5BDCD",
"x 	c #E4E6EC",
"y 	c #F9FAFB",
"z 	c #E6E8F0",
"A 	c #BAC3D6",
"B 	c #A2AEC8",
"C 	c #A4B1CA",
"D 	c #7786A9",
"E 	c #384E7A",
"F 	c #A8BCD2",
"G 	c #D6E9F0",
"H 	c #BBC6D5",
"I 	c #E0E2E8",
"J 	c #EFEFF5",
"K 	c #92A3C2",
"L 	c #5F7DA9",
"M 	c #87A0C5",
"N 	c #88A1C6",
"O 	c #8098C0",
"P 	c #758FB9",
"Q 	c #516E9F",
"R 	c #2A447A",
"S 	c #A6BBD2",
"T 	c #DEEFF4",
"U 	c #B5C9D9",
"V 	c #91A1BD",
"W 	c #B5C3D7",
"X 	c #B3C1D7",
"Y 	c #B3C0D5",
"Z 	c #B2BFD4",
"` 	c #AFBCD3",
" .	c #ACBAD2",
"..	c #AAB8D0",
"+.	c #9AA8C6",
"@.	c #6E88B2",
"#.	c #A2BAD8",
"$.	c #99B7DD",
"%.	c #92B2DA",
"&.	c #93B3DB",
"*.	c #8EAFD8",
"=.	c #6282B6",
"-.	c #3D5793",
";.	c #1F335F",
">.	c #A2B8D0",
",.	c #88A5C6",
"'.	c #8CA2C2",
").	c #B7C6DB",
"!.	c #B5C4D9",
"~.	c #B1C1D7",
"{.	c #ADBED5",
"].	c #A8BBD4",
"^.	c #A5B7D3",
"/.	c #A1B4D1",
"(.	c #9FB3D1",
"_.	c #AFC6DF",
":.	c #7EA4D4",
"<.	c #7CA3D4",
"[.	c #7FA5D5",
"}.	c #6D8FC3",
"|.	c #344C90",
"1.	c #2A407E",
"2.	c #9FB6CF",
"3.	c #DDEEF3",
"4.	c #C2D9E6",
"5.	c #7995BB",
"6.	c #D9E2EB",
"7.	c #E3E8EF",
"8.	c #EEF4F6",
"9.	c #EDF9F9",
"0.	c #D1E4EF",
"a.	c #C2D9EA",
"b.	c #B0CAE4",
"c.	c #A1BDDD",
"d.	c #92B1D8",
"e.	c #83A5D3",
"f.	c #789CCE",
"g.	c #7295CA",
"h.	c #6785BD",
"i.	c #4A63A2",
"j.	c #30438A",
"k.	c #2B3C83",
"l.	c #253971",
"m.	c #9DB4CD",
"n.	c #A7C1D7",
"o.	c #8AA2C2",
"p.	c #EBF3F7",
"q.	c #E3EDF3",
"r.	c #D7E3EB",
"s.	c #E1F0F3",
"t.	c #CCE0EE",
"u.	c #B8CFE6",
"v.	c #A4BEDE",
"w.	c #8EAAD4",
"x.	c #7B99CB",
"y.	c #6B8AC3",
"z.	c #5C7AB8",
"A.	c #5470B0",
"B.	c #4861A2",
"C.	c #384D92",
"D.	c #2E428A",
"E.	c #2B3A85",
"F.	c #2A3D82",
"G.	c #223468",
"H.	c #99B1CD",
"I.	c #DBEEF3",
"J.	c #829FC2",
"K.	c #AEBFD4",
"L.	c #F0F9FA",
"M.	c #C4D8E6",
"N.	c #BED4E6",
"O.	c #B2CAE4",
"P.	c #A1BADD",
"Q.	c #92ADD6",
"R.	c #809DCC",
"S.	c #6F8DC5",
"T.	c #607EBC",
"U.	c #5171B1",
"V.	c #415CA1",
"W.	c #385398",
"X.	c #354E95",
"Y.	c #2E428C",
"Z.	c #293D7D",
"`.	c #96AFCC",
" +	c #D4E8F0",
".+	c #6683AE",
"++	c #D9E4ED",
"@+	c #E1F0F5",
"#+	c #C6DFEC",
"$+	c #B7D2E7",
"%+	c #A5BEDB",
"&+	c #A7C0DF",
"*+	c #9CB7DC",
"=+	c #8CA9D4",
"-+	c #7A98CA",
";+	c #6988C1",
">+	c #5272B4",
",+	c #3C5CA4",
"'+	c #3B5BA3",
")+	c #3A569E",
"!+	c #365298",
"~+	c #273C77",
"{+	c #93ADCB",
"]+	c #A8C0D8",
"^+	c #839CBD",
"/+	c #E1EFF5",
"(+	c #C5DCEB",
"_+	c #BAD3E8",
":+	c #ACC4E0",
"<+	c #9DB5D7",
"[+	c #9BB4D9",
"}+	c #8BA7D1",
"|+	c #7793C7",
"1+	c #5E7EB8",
"2+	c #4A6BAE",
"3+	c #4667AA",
"4+	c #4361A5",
"5+	c #405A9C",
"6+	c #3B5397",
"7+	c #32458C",
"8+	c #2C3E82",
"9+	c #23346B",
"0+	c #91ABC9",
"a+	c #6B8BB3",
"b+	c #C6D1E2",
"c+	c #F6FAFC",
"d+	c #F5F9FB",
"e+	c #F2F7FA",
"f+	c #ECF1F8",
"g+	c #E5EBF3",
"h+	c #DBE1EB",
"i+	c #D7DDE9",
"j+	c #D0D6E4",
"k+	c #C7CDDD",
"l+	c #BBC2D5",
"m+	c #B5BDD1",
"n+	c #AFB6CD",
"o+	c #ABB1C7",
"p+	c #A6ABC2",
"q+	c #A0A5BC",
"r+	c #9A9FB8",
"s+	c #4A5D8E",
"t+	c #6D8CB7",
"u+	c #6280AC",
"v+	c #FDFDFD",
"w+	c #F8F8FA",
"x+	c #F2F2F4",
"y+	c #E8E8EC",
"z+	c #E2E2E6",
"A+	c #DDDDE3",
"B+	c #D8D8DE",
"C+	c #D2D2DA",
"D+	c #CDCDD5",
"E+	c #C8C8D0",
"F+	c #C2C2CC",
"G+	c #A8ACBC",
"H+	c #435489",
"I+	c #4E70A2",
"J+	c #9DB0CD",
"K+	c #FBFBFD",
"L+	c #F5F5F7",
"M+	c #F0F0F2",
"N+	c #EBEBEF",
"O+	c #E4E4E8",
"P+	c #DFDFE5",
"Q+	c #DBDBE1",
"R+	c #D5D5DB",
"S+	c #CFCFD7",
"T+	c #CACAD2",
"U+	c #C4C4CE",
"V+	c #8B94AF",
"W+	c #324376",
"X+	c #3E5E94",
"Y+	c #CBD5E3",
"Z+	c #F2F3F4",
"`+	c #EAEAEC",
" @	c #E2E2E4",
".@	c #D7D8DB",
"+@	c #CFCFD3",
"@@	c #C6C7CA",
"#@	c #BCBDC2",
"$@	c #B4B5BA",
"%@	c #B0B1B6",
"&@	c #A9ABB1",
"*@	c #687396",
"=@	c #202F5E",
"-@	c #34548A",
";@	c #546E9A",
">@	c #5D759D",
",@	c #5B729D",
"'@	c #5B719B",
")@	c #597099",
"!@	c #566D98",
"~@	c #546994",
"{@	c #4F6691",
"]@	c #4E638E",
"^@	c #485E8A",
"/@	c #3D5483",
"(@	c #2A4078",
"_@	c #273B75",
":@	c #263A74",
"<@	c #263874",
"[@	c #263872",
"}@	c #25346F",
"                                                ",
"                                                ",
"                            . + @               ",
"                        # $ % & *               ",
"                      = - ; > , ' )             ",
"  ! ~ { ] ^ / (   _ : < [ } | 1 > 2 3           ",
"  4 5 6 7 8 9 0 a b c d e } | 1 f g h i         ",
"  j 5 6 7 k l m n o c d e } | 1 f p q r         ",
"  s t u v w x y o o c d e } | z A B C D E       ",
"  F t G H I o o o o c d e } J K L M M N O P Q R ",
"  S T 6 U V W W X Y Z `  ...+.@.#.$.%.&.*.=.-.;.",
"  >.T 7 ,.'.X ).!.~.{.].^./.(._.%.:.<.[.}.|.1.  ",
"  2.3.4.5.6.7.8.9.T 0.a.b.c.d.e.f.g.h.i.j.k.l.  ",
"  m.3.n.o.p.q.r.s.t.u.v.w.x.y.z.A.B.C.D.E.F.G.  ",
"  H.I.J.K.L.t M.N.O.P.Q.R.S.T.U.V.W.X.Y.E.Z.    ",
"  `. +.+++@+#+$+%+&+*+=+-+;+>+,+'+)+!+Y.E.~+    ",
"  {+]+^+/+0.(+_+:+<+[+}+|+1+2+3+4+5+6+7+8+9+    ",
"  0+a+b+c+d+e+f+g+h+i+j+k+l+m+n+o+p+q+r+s+      ",
"  t+u+o o o o v+w+x+n y+z+A+B+C+D+E+F+G+H+      ",
"  I+J+o o o o o K+L+M+N+O+P+Q+R+S+T+U+V+W+      ",
"  X+Y+o o o o o v+Z+`+ @.@+@@@#@$@%@&@*@=@      ",
"  -@;@>@,@,@'@)@!@~@{@]@^@/@(@_@:@<@[@}@        ",
"                                                ",
"                                                "};
