/* XPM */
static const char * partner_xpm[] = {
"24 24 418 2",
"  	c None",
". 	c #C37E58",
"+ 	c #D2B28D",
"@ 	c #E0D096",
"# 	c #D9C182",
"$ 	c #D5B876",
"% 	c #D19D66",
"& 	c #C7855E",
"* 	c #EBD9BA",
"= 	c #ECDCBD",
"- 	c #E6D3A9",
"; 	c #CA9454",
"> 	c #D6B774",
", 	c #DFC7A2",
"' 	c #DBBF94",
") 	c #D0AD72",
"! 	c #C88044",
"~ 	c #EFE0C7",
"{ 	c #F6F0E0",
"] 	c #F6F5E2",
"^ 	c #F6F6E1",
"/ 	c #F1F0D0",
"( 	c #E7DDAD",
"_ 	c #BD8150",
": 	c #D5AE8F",
"< 	c #E0C7BB",
"[ 	c #EFDDD2",
"} 	c #DDBCAD",
"| 	c #C99552",
"1 	c #EBD8B9",
"2 	c #EAE3B7",
"3 	c #D1B75D",
"4 	c #D3C064",
"5 	c #E2DE99",
"6 	c #EAEBB9",
"7 	c #E8E8B0",
"8 	c #DDD28B",
"9 	c #C6AF9C",
"0 	c #BE967F",
"a 	c #BDB5BC",
"b 	c #D1C2C3",
"c 	c #D5C1B3",
"d 	c #B9A59F",
"e 	c #C69267",
"f 	c #E1CA97",
"g 	c #D9BC7B",
"h 	c #D7B571",
"i 	c #D1B35F",
"j 	c #D1C15E",
"k 	c #DBDB84",
"l 	c #DEDF90",
"m 	c #DCDD89",
"n 	c #D4B968",
"o 	c #CCB097",
"p 	c #E5D7CB",
"q 	c #D7D5D7",
"r 	c #EFEBEA",
"s 	c #D6C9BC",
"t 	c #BFB5B0",
"u 	c #CCA88B",
"v 	c #B59479",
"w 	c #E9DCB2",
"x 	c #E4D5A0",
"y 	c #E8D2B0",
"z 	c #EBD7B7",
"A 	c #DBBE80",
"B 	c #D0BD5C",
"C 	c #D1CF61",
"D 	c #D6D772",
"E 	c #DDD386",
"F 	c #B18866",
"G 	c #F8EFE8",
"H 	c #EBDFD5",
"I 	c #F5EBDF",
"J 	c #D9BFA6",
"K 	c #F0E8E0",
"L 	c #E6D7C7",
"M 	c #C9A98D",
"N 	c #DFCF91",
"O 	c #E0D392",
"P 	c #B9C2A0",
"Q 	c #D7E0D0",
"R 	c #F6EDE1",
"S 	c #C1C09C",
"T 	c #C7BD80",
"U 	c #C6B07D",
"V 	c #B39A78",
"W 	c #B6906E",
"X 	c #E5CAA9",
"Y 	c #CBB28E",
"Z 	c #CEB49B",
"` 	c #C69E70",
" .	c #DCC097",
"..	c #D3AF91",
"+.	c #A0693C",
"@.	c #C8AB6C",
"#.	c #D2D2B9",
"$.	c #E3E3D3",
"%.	c #F4E8D9",
"&.	c #ECD7BE",
"*.	c #E4CDB6",
"=.	c #C6A790",
"-.	c #B38C68",
";.	c #AC8059",
">.	c #DEC198",
",.	c #CAA65D",
"'.	c #B48042",
").	c #C79C49",
"!.	c #D0A862",
"~.	c #C59877",
"{.	c #B1957E",
"].	c #C9B298",
"^.	c #E6D4C3",
"/.	c #F0E2D0",
"(.	c #D0B8A2",
"_.	c #D5B29B",
":.	c #D3B39A",
"<.	c #AE7576",
"[.	c #CA9555",
"}.	c #BD9777",
"|.	c #BD9E83",
"1.	c #D1BAA5",
"2.	c #C6A281",
"3.	c #D5AF8F",
"4.	c #9D6740",
"5.	c #B8887B",
"6.	c #BC9064",
"7.	c #D3AE95",
"8.	c #D5A29B",
"9.	c #D99F97",
"0.	c #C28E5E",
"a.	c #C69861",
"b.	c #D0B35A",
"c.	c #A5907E",
"d.	c #AF8B71",
"e.	c #AB8063",
"f.	c #B19379",
"g.	c #9D714C",
"h.	c #D8AA9F",
"i.	c #C8A55B",
"j.	c #C09653",
"k.	c #C38F6F",
"l.	c #BD8360",
"m.	c #BF9546",
"n.	c #CFB956",
"o.	c #D0BD5B",
"p.	c #D0B65C",
"q.	c #999999",
"r.	c #D9D9DA",
"s.	c #C3C1C0",
"t.	c #BC817D",
"u.	c #BE726B",
"v.	c #C1B9B4",
"w.	c #908E8E",
"x.	c #E9DBB3",
"y.	c #EEE6C4",
"z.	c #ECE5BF",
"A.	c #E3D99F",
"B.	c #D0B75A",
"C.	c #CAAC4D",
"D.	c #B58F5D",
"E.	c #BF956A",
"F.	c #C3A647",
"G.	c #D0C35A",
"H.	c #D0C55A",
"I.	c #D0C05A",
"J.	c #B8B8B8",
"K.	c #F2F2F2",
"L.	c #FFFFFF",
"M.	c #E9E4E4",
"N.	c #C76A6A",
"O.	c #CA7D7D",
"P.	c #CECECE",
"Q.	c #BFC1C0",
"R.	c #CCB26F",
"S.	c #E5E2BB",
"T.	c #D9DEAE",
"U.	c #CBC363",
"V.	c #D0BF5A",
"W.	c #CDB850",
"X.	c #C5A877",
"Y.	c #DBBB98",
"Z.	c #BA8C49",
"`.	c #C4AE49",
" +	c #CEC959",
".+	c #D0C25A",
"++	c #D3D3D3",
"@+	c #F9F9F9",
"#+	c #F3E7E7",
"$+	c #C6898A",
"%+	c #F2E9EA",
"&+	c #EFF3F2",
"*+	c #B8CBC1",
"=+	c #9CB4A4",
"-+	c #6EA882",
";+	c #4D924E",
">+	c #8DAB6A",
",+	c #8EB783",
"'+	c #83B159",
")+	c #C1B34D",
"!+	c #BA9057",
"~+	c #B57E7D",
"{+	c #B87B87",
"]+	c #A65F74",
"^+	c #AC6F76",
"/+	c #C2978C",
"(+	c #BC7B7C",
"_+	c #FEFEFE",
":+	c #FCFAFA",
"<+	c #DFBABA",
"[+	c #B27C76",
"}+	c #B6CBBA",
"|+	c #A4C4AE",
"1+	c #ABD3B3",
"2+	c #C0E5C1",
"3+	c #7DC08A",
"4+	c #60B173",
"5+	c #59B26A",
"6+	c #5AB36B",
"7+	c #56B76A",
"8+	c #866F7F",
"9+	c #CC98C3",
"0+	c #D3A4CF",
"a+	c #D7A7D3",
"b+	c #DEB5DD",
"c+	c #E6CAE9",
"d+	c #E4C2E8",
"e+	c #BD73C0",
"f+	c #914D50",
"g+	c #BA7C77",
"h+	c #799D6F",
"i+	c #7FCB86",
"j+	c #78B375",
"k+	c #7AAB7A",
"l+	c #71B87D",
"m+	c #42A65A",
"n+	c #35A050",
"o+	c #729970",
"p+	c #97AF89",
"q+	c #489A4E",
"r+	c #8FA594",
"s+	c #F6E6F0",
"t+	c #F8E7F7",
"u+	c #F7E2F6",
"v+	c #F5DCF4",
"w+	c #F3D7F3",
"x+	c #EFCEF1",
"y+	c #CF9ED2",
"z+	c #D4B2AA",
"A+	c #ECD7D8",
"B+	c #AF625B",
"C+	c #5C834B",
"D+	c #6B995B",
"E+	c #B0A57B",
"F+	c #BBAF8F",
"G+	c #9F9D7F",
"H+	c #9FAB8D",
"I+	c #99B594",
"J+	c #C9BD9D",
"K+	c #D9C994",
"L+	c #ABA47C",
"M+	c #C3A88B",
"N+	c #D5B7B3",
"O+	c #F0DBEB",
"P+	c #F5DDF5",
"Q+	c #F4DAF4",
"R+	c #F3D6F3",
"S+	c #F0CDF0",
"T+	c #D4A1D8",
"U+	c #CC9DA7",
"V+	c #E2BEBE",
"W+	c #C64E4C",
"X+	c #B1544C",
"Y+	c #B5A48F",
"Z+	c #D9BBA2",
"`+	c #EDD8C4",
" @	c #B2B292",
".@	c #CDBE9F",
"+@	c #E8CEB3",
"@@	c #DEC3A1",
"#@	c #C4A768",
"$@	c #DBB48A",
"%@	c #C19C7B",
"&@	c #C3AA98",
"*@	c #F1E6EA",
"=@	c #FAEFFA",
"-@	c #F7E5F7",
";@	c #F0CCF0",
">@	c #DEB5E8",
",@	c #B265A9",
"'@	c #FDFDFD",
")@	c #DDB6B6",
"!@	c #CC4C4C",
"~@	c #C03E3E",
"{@	c #CDB8B2",
"]@	c #BC8F61",
"^@	c #D3B593",
"/@	c #C3CBB1",
"(@	c #D5CDB7",
"_@	c #ECE1D2",
":@	c #D9BEA1",
"<@	c #C8B495",
"[@	c #D0B18C",
"}@	c #B26F44",
"|@	c #C280A4",
"1@	c #E4C6EC",
"2@	c #E2C1EC",
"3@	c #E0BFEC",
"4@	c #D9B7EA",
"5@	c #CDADE5",
"6@	c #C49CE1",
"7@	c #A457BC",
"8@	c #FBFBFB",
"9@	c #F8F9F9",
"0@	c #E4CFCF",
"a@	c #C35454",
"b@	c #BD5E5E",
"c@	c #E2DBDC",
"d@	c #E5C8B1",
"e@	c #C49454",
"f@	c #C09F7E",
"g@	c #CEB397",
"h@	c #CDB398",
"i@	c #C7A587",
"j@	c #C9A179",
"k@	c #BE894F",
"l@	c #C87259",
"m@	c #B45FBC",
"n@	c #CE9DE1",
"o@	c #D8B3E9",
"p@	c #D5AEE8",
"q@	c #CEA2E3",
"r@	c #C293DB",
"s@	c #AC6BCC",
"t@	c #F7F7FA",
"u@	c #FAFBFD",
"v@	c #FAFBFB",
"w@	c #EEE7E7",
"x@	c #BD8484",
"y@	c #D6BBBB",
"z@	c #ECEEEF",
"A@	c #ECE6E5",
"B@	c #9F9399",
"C@	c #61737F",
"D@	c #8A7B6C",
"E@	c #B29071",
"F@	c #AD8968",
"G@	c #7B6254",
"H@	c #9C6950",
"I@	c #AD5CD0",
"J@	c #E0B8EB",
"K@	c #E3BBEC",
"L@	c #DAB2E9",
"M@	c #BB7DD7",
"N@	c #B09057",
"O@	c #B39969",
"P@	c #B49D7B",
"Q@	c #BDB6AE",
"R@	c #C7C3BD",
"S@	c #D2C7BC",
"T@	c #D8CFC6",
"U@	c #B4BAC4",
"V@	c #6E98BE",
"W@	c #A8E0E6",
"X@	c #8EBACF",
"Y@	c #A2AAB5",
"Z@	c #ADA7A7",
"`@	c #6883B2",
" #	c #4B6EB7",
".#	c #F1D7F3",
"+#	c #E3BDEC",
"@#	c #D9B5EA",
"##	c #BD82D9",
"$#	c #9B8B76",
"%#	c #9E8C71",
"&#	c #917D67",
"*#	c #828691",
"=#	c #828289",
"-#	c #786151",
";#	c #7C6356",
">#	c #727A88",
",#	c #82B0CB",
"'#	c #9CCEDF",
")#	c #A3D8E5",
"!#	c #90BED5",
"~#	c #81A9CC",
"{#	c #8AB1D4",
"]#	c #82A6D4",
"^#	c #4D69B1",
"/#	c #A445C5",
"(#	c #F6E2F6",
"_#	c #F3D4F2",
":#	c #E8BFED",
"<#	c #D4B3E9",
"[#	c #C198DB",
"}#	c #A057C5",
"|#	c #859ED4",
"1#	c #859DD0",
"2#	c #7C94CB",
"3#	c #5A74B6",
"4#	c #3E57A8",
"5#	c #36418F",
"6#	c #363B84",
"7#	c #586EA3",
"8#	c #88B4D1",
"9#	c #7BA6C9",
"0#	c #A2D3E4",
"a#	c #9DCBE3",
"b#	c #96BFE0",
"c#	c #789CCE",
"d#	c #81A1D6",
"e#	c #7492CF",
"f#	c #AD6AC3",
"g#	c #F7E4F7",
"h#	c #E8BEEC",
"i#	c #D2B1E9",
"j#	c #C9A9E5",
"k#	c #A75ACE",
"                    .                           ",
"          + @ # $ % &           * = -           ",
"        ; > , ' ) !         ~ { ] ^ / (         ",
"        _ : < [ } |       1 2 3 4 5 6 7 8       ",
"      9 0 a b c d e       f g h i j k l m n     ",
"      o p q r s t u v     w x y z A B C D E     ",
"      F G H I J K L M     N O P Q R S T U V     ",
"      W X Y Z `  ...+.      @.#.$.%.&.*.=.-.    ",
"      ;.>.,.'.).!.~.      {.].^./.(._.:.<.[.    ",
"        }.|.1.2.3.4.        5.6.7.8.9.0.a.b.    ",
"        c.d.e.f.g.          h.i.j.k.l.m.n.o.p.  ",
"    q.r.s.t.u.v.w.    x.y.z.A.B.C.D.E.F.G.H.I.  ",
"  J.K.L.M.N.O.P.Q.    R.S.T.U.V.W.X.Y.Z.`. +.+  ",
"++@+L.L.#+$+%+&+*+=+-+;+>+,+'+)+!+~+{+]+^+/+(+  ",
"_+L.L.:+<+[+}+|+1+2+3+4+5+6+7+8+9+0+a+b+c+d+e+f+",
"L.L.L.#+g+h+i+j+k+l+m+n+o+p+q+r+s+t+u+v+w+x+y+z+",
"L.L.L.A+B+C+D+E+F+G+H+I+J+K+L+M+N+O+P+Q+R+S+T+U+",
"L.L.L.V+W+X+Y+Z+`+ @.@+@@@#@$@%@&@*@=@-@Q+;@>@,@",
"L._+'@)@!@~@{@]@^@/@(@_@:@<@[@}@|@1@2@3@4@5@6@7@",
"'@8@9@0@a@b@c@d@e@f@g@h@i@j@k@l@m@n@o@p@q@r@s@  ",
"t@u@v@w@x@y@z@A@B@C@D@E@F@G@H@    I@J@K@J@L@M@  ",
"N@O@P@Q@R@S@T@U@V@W@X@Y@Z@`@ #      .#w++#@###  ",
"$#%#&#*#=#-#;#>#,#'#)#!#~#{#]#^#  /#(#_#:#<#[#}#",
"|#1#2#3#4#5#6#7#8#9#0#a#b#c#d#e#  f#g#S+h#i#j#k#"};
