/* XPM */
static const char * print_xpm[] = {
"24 24 268 2",
"  	c None",
". 	c #C7C7D3",
"+ 	c #CECED9",
"@ 	c #CECED8",
"# 	c #BDBDCA",
"$ 	c #F0F0F3",
"% 	c #FFFFFF",
"& 	c #FDFDFE",
"* 	c #FAFCFD",
"= 	c #F9FBFD",
"- 	c #DDDEE5",
"; 	c #FCFDFE",
"> 	c #F6F9FC",
", 	c #F4F8FC",
"' 	c #DBDCE3",
") 	c #EFEFF2",
"! 	c #F8FAFC",
"~ 	c #F5F8FB",
"{ 	c #F2F6FA",
"] 	c #F1F6FA",
"^ 	c #D8D9E1",
"/ 	c #EEEEF0",
"( 	c #EEF4F9",
"_ 	c #EEF4F8",
": 	c #D5D6DD",
"< 	c #EDEDEF",
"[ 	c #F5F9FB",
"} 	c #EBF2F7",
"| 	c #E9F0F6",
"1 	c #D2D3DA",
"2 	c #EAEBEE",
"3 	c #FBFDFE",
"4 	c #F8FAFD",
"5 	c #F4F9FB",
"6 	c #EEF3F9",
"7 	c #EAF1F7",
"8 	c #E5ECF4",
"9 	c #E6ECF3",
"0 	c #CFD0D7",
"a 	c #96969B",
"b 	c #E8E9EC",
"c 	c #F8FBFD",
"d 	c #F4F8FB",
"e 	c #E1E8F1",
"f 	c #E3E8F0",
"g 	c #CDCED4",
"h 	c #7D7D81",
"i 	c #8A8A8E",
"j 	c #B7B7BF",
"k 	c #BCBCC4",
"l 	c #A3A3A8",
"m 	c #E6E8EB",
"n 	c #DEE4ED",
"o 	c #E1E5ED",
"p 	c #C9CAD1",
"q 	c #B1B1B5",
"r 	c #BEBEC6",
"s 	c #B1B1B8",
"t 	c #7D7D80",
"u 	c #949499",
"v 	c #D5D5DD",
"w 	c #E1E1E9",
"x 	c #E2E2EA",
"y 	c #E4E4EB",
"z 	c #9499A2",
"A 	c #D7DEE9",
"B 	c #DEE9F5",
"C 	c #D5E2F2",
"D 	c #CEDEF0",
"E 	c #C5D7ED",
"F 	c #C4D5EB",
"G 	c #C7D5EA",
"H 	c #C9D5E8",
"I 	c #D1DAEA",
"J 	c #C0C7D4",
"K 	c #B3B4B9",
"L 	c #DDDDE6",
"M 	c #DEDEE7",
"N 	c #C7C7CF",
"O 	c #7F7F82",
"P 	c #C3C3C9",
"Q 	c #E4E4EC",
"R 	c #E8E8ED",
"S 	c #91A8C3",
"T 	c #CBDFF2",
"U 	c #D0E2F4",
"V 	c #D5E5F5",
"W 	c #D9E8F6",
"X 	c #DEEBF7",
"Y 	c #DAEAF7",
"Z 	c #D4E5F6",
"` 	c #CFE2F4",
" .	c #C8DEF3",
"..	c #C0D8F1",
"+.	c #A2AEBB",
"@.	c #CFCFDC",
"#.	c #C9CBD7",
"$.	c #B7C6CA",
"%.	c #D1D1DD",
"&.	c #A0A0A8",
"*.	c #858587",
"=.	c #E4E4EA",
"-.	c #E1E1E4",
";.	c #94BEE4",
">.	c #C0E4FC",
",.	c #C0E3FC",
"'.	c #BFE3FC",
").	c #B7E0FC",
"!.	c #ABDBFC",
"~.	c #9DD5FB",
"{.	c #9AD4FB",
"].	c #99D3FB",
"^.	c #98D3FB",
"/.	c #97D3FB",
"(.	c #7AA1C4",
"_.	c #D6D6E1",
":.	c #C4CAD3",
"<.	c #91B0AD",
"[.	c #C0C0CA",
"}.	c #828284",
"|.	c #EBEBF0",
"1.	c #ECECF0",
"2.	c #EAEAEF",
"3.	c #E3E3EA",
"4.	c #C8CBCF",
"5.	c #7DC5F8",
"6.	c #84CDFE",
"7.	c #72C5FE",
"8.	c #4EB7FD",
"9.	c #3EB0FD",
"0.	c #3DB0FD",
"a.	c #3994DC",
"b.	c #E0E0E6",
"c.	c #DADAE3",
"d.	c #D9D9E3",
"e.	c #D6D6DF",
"f.	c #77777A",
"g.	c #878789",
"h.	c #EDEDF1",
"i.	c #E5E5EB",
"j.	c #E1E1E8",
"k.	c #9FB5CC",
"l.	c #5EBAFE",
"m.	c #30A7FE",
"n.	c #119AFE",
"o.	c #0A97FE",
"p.	c #0C8CF1",
"q.	c #D9D9DD",
"r.	c #E0E0E7",
"s.	c #DADAE1",
"t.	c #737376",
"u.	c #76767C",
"v.	c #C3C3D2",
"w.	c #DCDCE4",
"x.	c #EAEAEE",
"y.	c #E9E9EE",
"z.	c #7BA7D9",
"A.	c #208FFF",
"B.	c #0382FF",
"C.	c #0080FF",
"D.	c #007FFD",
"E.	c #BCC6D4",
"F.	c #E9E9ED",
"G.	c #E6E6EB",
"H.	c #CFCFDB",
"I.	c #B2B2C0",
"J.	c #636368",
"K.	c #75757C",
"L.	c #B2B2C6",
"M.	c #B4B4C7",
"N.	c #B4C1DB",
"O.	c #7BA2DC",
"P.	c #6495DB",
"Q.	c #548EDE",
"R.	c #4789E6",
"S.	c #3F88EC",
"T.	c #3A89F4",
"U.	c #3C88F2",
"V.	c #4188EA",
"W.	c #498AE4",
"X.	c #5890DD",
"Y.	c #6998DB",
"Z.	c #81A5DC",
"`.	c #C6CADA",
" +	c #BDBDCD",
".+	c #B3B3C6",
"++	c #A6A6B7",
"@+	c #616166",
"#+	c #737379",
"$+	c #B6B6C8",
"%+	c #B9B9CB",
"&+	c #B7B7C9",
"*+	c #A6A6B6",
"=+	c #9A9AA8",
"-+	c #9D9DAA",
";+	c #A3A3AE",
">+	c #A6A6B0",
",+	c #A9A9B3",
"'+	c #ADADB4",
")+	c #ACACB5",
"!+	c #A8A8B2",
"~+	c #A5A5B0",
"{+	c #A2A2AE",
"]+	c #9C9CA9",
"^+	c #9B9BA9",
"/+	c #ACACBC",
"(+	c #A6A6B5",
"_+	c #5F5F64",
":+	c #747479",
"<+	c #B9B9C7",
"[+	c #BDBDCB",
"}+	c #7B7B81",
"|+	c #4C4C4E",
"1+	c #505053",
"2+	c #909099",
"3+	c #A7A7B2",
"4+	c #5D5D61",
"5+	c #B7B7C1",
"6+	c #C7C7D2",
"7+	c #858589",
"8+	c #656566",
"9+	c #C9C9C9",
"0+	c #CACACA",
"a+	c #BCBCBC",
"b+	c #5E5E5F",
"c+	c #9A9AA0",
"d+	c #CDCDD9",
"e+	c #A4A4AB",
"f+	c #AAAAB1",
"g+	c #DCDCE5",
"h+	c #D9D9E2",
"i+	c #BFBFC6",
"j+	c #C1C1C6",
"k+	c #EDEDED",
"l+	c #ECECED",
"m+	c #EEEEEF",
"n+	c #AAAAB2",
"o+	c #CBCBD1",
"p+	c #D7D7E0",
"q+	c #8E8E92",
"r+	c #C9C9D0",
"s+	c #D2D2DD",
"t+	c #FEFEFE",
"u+	c #FAFAFC",
"v+	c #F9F9FB",
"w+	c #DBDBE2",
"x+	c #D5D5DE",
"y+	c #D9D9E1",
"z+	c #B3B3B9",
"A+	c #6E6E70",
"B+	c #F5F5F7",
"C+	c #FAFAFB",
"D+	c #F6F6F8",
"E+	c #F2F2F5",
"F+	c #E5E5E9",
"G+	c #818189",
"H+	c #D8D8E0",
"I+	c #FEFEFF",
"J+	c #FCFCFD",
"K+	c #F9F9FA",
"L+	c #F3F3F6",
"M+	c #B2B2BA",
"N+	c #DADAE2",
"O+	c #D1D1DA",
"P+	c #CECED5",
"Q+	c #CACAD1",
"R+	c #C6C6CD",
"S+	c #9A9AA3",
"              . + + + + + + @ @ #               ",
"              $ % % % % % & * = -               ",
"              $ % % % % ; = > , '               ",
"              ) % % % ; ! ~ { ] ^               ",
"              / % % ; = ~ { ( _ :               ",
"              < % ; = [ { ( } | 1               ",
"              2 3 4 5 ] 6 7 8 9 0               ",
"            a b c d ] ( 7 8 e f g h             ",
"      i j k l m > ] ( } 8 e n o p q r s t       ",
"  u v w x y z A B C D E F G H I J K L L M N O   ",
"  P y Q Q R S T U V W X Y Z `  ...+.@.#.$.%.&.  ",
"*.=.R R R -.;.>.,.'.).!.~.{.].^./.(._.:.<.%.[.  ",
"}.|.1.2.3.4.5.6.7.8.9.0.0.0.0.0.0.a.b.c.d.c.e.f.",
"g.h.h.i.j.k.l.m.n.o.o.o.o.o.o.o.o.p.q.j.r.j.s.t.",
"u.v.w.x.y.z.A.B.C.C.C.C.C.C.C.C.C.D.E.F.G.H.I.J.",
"K.L.L.M.v.N.O.P.Q.R.S.T.U.V.W.X.Y.Z.`. +.+L.++@+",
"#+$+%+&+*+=+=+-+;+>+,+'+)+!+~+{+]+=+^+/+%+%+(+_+",
":+<+v.[+}+|+|+|+|+|+|+|+|+|+|+|+|+|+1+2+v.v.3+4+",
"  5+@.6+7+8+9+0+0+0+0+0+0+0+0+0+0+a+b+c+d+@.e+  ",
"  f+g+h+i+j+k+k+k+k+k+k+k+k+k+k+l+m+n+o+g+p+u   ",
"  q+r+x s+|.% % % % % % % % % t+u+v+w+x+y+z+A+  ",
"        n+B+% % % % % % % % t+C+D+E+F+G+        ",
"        H+& % % % % % % % I+J+K+D+L+$ M+        ",
"        . N+N+N+N+N+N+N+N+h+e.O+P+Q+R+S+        "};
