/* XPM */
static const char * quickprint_xpm[] = {
"24 24 337 2",
"  	c None",
". 	c #C6C6D2",
"+ 	c #CFCFD9",
"@ 	c #CFC9C9",
"# 	c #CAB085",
"$ 	c #EDEDF2",
"% 	c #FFFFFF",
"& 	c #FDFDFE",
"* 	c #FAFCFD",
"= 	c #FADFA8",
"- 	c #FCBD0E",
"; 	c #FDCC0C",
"> 	c #FCCC0C",
", 	c #FBC50A",
"' 	c #F9AC02",
") 	c #EDEDF1",
"! 	c #FCFDFE",
"~ 	c #F9FBFD",
"{ 	c #F6F9FC",
"] 	c #F8C759",
"^ 	c #FDD913",
"/ 	c #FFF91C",
"( 	c #FCDC13",
"_ 	c #F7AC03",
": 	c #EBEBEF",
"< 	c #F8FAFC",
"[ 	c #F5F8FB",
"} 	c #F2EFE6",
"| 	c #FAB60C",
"1 	c #FDEE19",
"2 	c #FEF91D",
"3 	c #FDF31B",
"4 	c #F9C00B",
"5 	c #EAEAEE",
"6 	c #F2F6FA",
"7 	c #F2D496",
"8 	c #F9C30E",
"9 	c #FDF51C",
"0 	c #FEF61C",
"a 	c #FBE115",
"b 	c #F5A804",
"c 	c #E9E9EC",
"d 	c #F5F9FB",
"e 	c #EFF1F1",
"f 	c #F3B949",
"g 	c #FBDC14",
"h 	c #F7C40D",
"i 	c #E7E7EA",
"j 	c #F9FAFD",
"k 	c #EEF3F9",
"l 	c #EDDCB8",
"m 	c #F3B225",
"n 	c #FDEF1A",
"o 	c #FDF01A",
"p 	c #FDEC19",
"q 	c #F19C01",
"r 	c #939398",
"s 	c #E4E4E8",
"t 	c #F1F6FA",
"u 	c #EEF4F9",
"v 	c #EAF0F3",
"w 	c #ECC67E",
"x 	c #F6C212",
"y 	c #FCEC1A",
"z 	c #FCEC19",
"A 	c #FCE918",
"B 	c #F5BA0A",
"C 	c #F4B80A",
"D 	c #F3B409",
"E 	c #ED9300",
"F 	c #909094",
"G 	c #B9B9C1",
"H 	c #BEBEC6",
"I 	c #A7A7AB",
"J 	c #E2E3E6",
"K 	c #EBF2F7",
"L 	c #E5E8E8",
"M 	c #EBB860",
"N 	c #F1A304",
"O 	c #F2AB07",
"P 	c #F3B90E",
"Q 	c #FAE117",
"R 	c #FBE618",
"S 	c #FBE518",
"T 	c #F2BB0E",
"U 	c #D58709",
"V 	c #949498",
"W 	c #D4D4DC",
"X 	c #E1E1E9",
"Y 	c #E2E2EA",
"Z 	c #E3E3EA",
"` 	c #989DA6",
" .	c #D1D9E5",
"..	c #DAE7F4",
"+.	c #D1E0F1",
"@.	c #CADBEF",
"#.	c #C1D4EC",
"$.	c #BFD2EA",
"%.	c #C6CFDA",
"&.	c #CDCAC2",
"*.	c #D8B885",
"=.	c #F0AA0D",
"-.	c #F9DC15",
";.	c #F6CA11",
">.	c #E9A223",
",.	c #CAC4C2",
"'.	c #818185",
").	c #BFBFC5",
"!.	c #E4E4EC",
"~.	c #E8E8EF",
"{.	c #91A7C0",
"].	c #CEE1F3",
"^.	c #D2E4F5",
"/.	c #D7E8F6",
"(.	c #DBEAF7",
"_.	c #DFEDF8",
":.	c #DDECF8",
"<.	c #D6E8F6",
"[.	c #D1E5F5",
"}.	c #DFB466",
"|.	c #F4BC0E",
"1.	c #FBE117",
"2.	c #F8D714",
"3.	c #E9A617",
"4.	c #C0B07E",
"5.	c #D2D2DE",
"6.	c #A1A1A9",
"7.	c #8A8A8C",
"8.	c #E2E2E8",
"9.	c #E8E8EE",
"0.	c #E5E5E9",
"a.	c #8FBADF",
"b.	c #BEE4FC",
"c.	c #BEE3FC",
"d.	c #BDE3FC",
"e.	c #B4DFFC",
"f.	c #A7DAFC",
"g.	c #99D4FB",
"h.	c #97D3FB",
"i.	c #9DCFEA",
"j.	c #EAA015",
"k.	c #F7D012",
"l.	c #FAE016",
"m.	c #F0B20E",
"n.	c #D6A656",
"o.	c #97AFA4",
"p.	c #D2D2DD",
"q.	c #C2C2CB",
"r.	c #828284",
"s.	c #EBEBF0",
"t.	c #ECECF0",
"u.	c #EAEAEF",
"v.	c #E4E4EA",
"w.	c #CECFD3",
"x.	c #77C0F6",
"y.	c #82CCFE",
"z.	c #70C4FE",
"A.	c #4AB5FD",
"B.	c #3BAFFD",
"C.	c #3AAFFD",
"D.	c #3BAFFC",
"E.	c #929F83",
"F.	c #EEAF0D",
"G.	c #FADC16",
"H.	c #F9DB15",
"I.	c #EA9706",
"J.	c #E89911",
"K.	c #E79B16",
"L.	c #E39629",
"M.	c #D9C1A4",
"N.	c #77777A",
"O.	c #7F7F81",
"P.	c #EEEEF2",
"Q.	c #E5E5EC",
"R.	c #E1E1E8",
"S.	c #ACBBCD",
"T.	c #5CB8FE",
"U.	c #30A6FE",
"V.	c #0F99FE",
"W.	c #0996FE",
"X.	c #1B96EA",
"Y.	c #B48C3A",
"Z.	c #EAA80C",
"`.	c #EEBB11",
" +	c #F7D314",
".+	c #F6CB12",
"++	c #F5C811",
"@+	c #EEB10C",
"#+	c #E39936",
"$+	c #DACBBD",
"%+	c #737375",
"&+	c #707075",
"*+	c #C0C0D0",
"=+	c #D7D7E0",
"-+	c #E8E8ED",
";+	c #82A9D6",
">+	c #208FFF",
",+	c #0381FF",
"'+	c #0080FF",
")+	c #097FF6",
"!+	c #608194",
"~+	c #8A8267",
"{+	c #CC8E21",
"]+	c #F3C712",
"^+	c #F9D614",
"/+	c #E79608",
"(+	c #D0B69D",
"_+	c #B2B2BF",
":+	c #636368",
"<+	c #717177",
"[+	c #B1B1C5",
"}+	c #B2B2C6",
"|+	c #B3B3C6",
"1+	c #BEBECE",
"2+	c #BAC4DA",
"3+	c #88A9DC",
"4+	c #729CD9",
"5+	c #5E92DB",
"6+	c #4D8CE1",
"7+	c #4389E8",
"8+	c #3D89F0",
"9+	c #3E88ED",
"0+	c #4589E6",
"a+	c #4F8CE0",
"b+	c #798EAC",
"c+	c #DC9917",
"d+	c #F5C911",
"e+	c #F6CC12",
"f+	c #E79F0F",
"g+	c #C89A67",
"h+	c #A6A6B7",
"i+	c #616166",
"j+	c #727278",
"k+	c #B2B2C3",
"l+	c #B9B9CB",
"m+	c #B8B8CA",
"n+	c #A5A5B4",
"o+	c #9595A3",
"p+	c #9797A4",
"q+	c #9C9CA8",
"r+	c #A0A0AA",
"s+	c #A2A2AC",
"t+	c #A6A6AF",
"u+	c #A4A4AE",
"v+	c #A1A1AC",
"w+	c #9F9FAA",
"x+	c #B99570",
"y+	c #EAA109",
"z+	c #F7CD12",
"A+	c #ECAD0D",
"B+	c #D4933F",
"C+	c #BDB3B5",
"D+	c #A6A6B5",
"E+	c #5F5F64",
"F+	c #75757A",
"G+	c #B4B4C1",
"H+	c #C3C3D2",
"I+	c #BEBECD",
"J+	c #7E7E85",
"K+	c #4A4A4D",
"L+	c #4B4B4D",
"M+	c #A46C23",
"N+	c #EBA90B",
"O+	c #F4C210",
"P+	c #CC7C0D",
"Q+	c #AA927B",
"R+	c #C3C2D1",
"S+	c #A6A6B2",
"T+	c #5D5D61",
"U+	c #B2B2BC",
"V+	c #D0D0DD",
"W+	c #C9C9D5",
"X+	c #8B8B8F",
"Y+	c #656566",
"Z+	c #CFCFCF",
"`+	c #D1D1D1",
" @	c #D1D0CF",
".@	c #DF8F1C",
"+@	c #EEAE0C",
"@@	c #E3900C",
"#@	c #936F46",
"$@	c #9A9AA0",
"%@	c #CDCDDA",
"&@	c #CFCFDC",
"*@	c #A4A4AC",
"=@	c #A5A5AB",
"-@	c #DBDBE4",
";@	c #DBDBE3",
">@	c #C4C4CB",
",@	c #C1C1C7",
"'@	c #EFEFEF",
")@	c #ECE1D4",
"!@	c #E08505",
"~@	c #E69809",
"{@	c #E7A758",
"]@	c #B1AFB4",
"^@	c #CCCCD2",
"/@	c #DCDCE5",
"(@	c #D7D7DF",
"_@	c #89898B",
":@	c #C0C0C7",
"<@	c #D8D8DF",
"[@	c #D1D1DD",
"}@	c #E9E9EE",
"|@	c #F3D1AA",
"1@	c #DD7D05",
"2@	c #E29534",
"3@	c #F2DFCB",
"4@	c #DDDDE4",
"5@	c #D2D2D9",
"6@	c #ADADB2",
"7@	c #6B6B6C",
"8@	c #F4F4F6",
"9@	c #FFFEFE",
"0@	c #E7A75F",
"a@	c #DB7F1A",
"b@	c #ECCCAB",
"c@	c #F2F2F5",
"d@	c #E6E6EA",
"e@	c #84848C",
"f@	c #FDFDFD",
"g@	c #FCF7F1",
"h@	c #E0903B",
"i@	c #E8B37C",
"j@	c #F6F2F1",
"k@	c #F4F4F7",
"l@	c #F2F2F4",
"m@	c #B4B4BB",
"n@	c #BFBFCD",
"o@	c #D2D2DB",
"p@	c #D0CED5",
"q@	c #C8AC98",
"r@	c #C7C0C2",
"s@	c #C5C5CE",
"t@	c #C1C1CA",
"u@	c #BCBCC5",
"v@	c #95959E",
"              . + + + + + + + @ #               ",
"              $ % % % % % & * = - ; > , '       ",
"              ) % % % % ! ~ { ] ^ / / ( _       ",
"              : % % % ! < [ } | 1 2 3 4         ",
"              5 % % ! ~ [ 6 7 8 9 0 a b         ",
"              c % ! ~ d 6 e f g 3 3 h           ",
"              i ! j d 6 k l m n o p q           ",
"            r s ~ [ t u v w x y z A B C D E     ",
"      F G H I J { t u K L M N O P Q R S T U     ",
"  V W X Y Z `  ...+.@.#.$.%.&.*.=.-.S ;.>.,.'.  ",
"  ).!.!.!.~.{.].^./.(._.:.<.[.}.|.1.2.3.4.5.6.  ",
"7.8.9.9.9.0.a.b.c.d.e.f.g.h.i.j.k.l.m.n.o.p.q.  ",
"r.s.t.u.v.w.x.y.z.A.B.C.C.D.E.F.G.H.I.J.K.L.M.N.",
"O.t.P.Q.R.S.T.U.V.W.W.W.W.X.Y.Z.`. +.+++@+#+$+%+",
"&+*+=+-+5 ;+>+,+'+'+'+'+'+)+!+~+{+]+^+;./+(+_+:+",
"<+[+}+|+1+2+3+4+5+6+7+8+9+0+a+b+c+d+e+f+g+}+h+i+",
"j+k+l+m+n+o+o+p+q+r+s+t+u+v+w+x+y+z+A+B+C+l+D+E+",
"F+G+H+I+J+K+K+L+L+L+L+L+L+L+L+M+N+O+P+Q+R+H+S+T+",
"  U+V+W+X+Y+Z+`+`+`+`+`+`+`+ @.@+@@@#@$@%@&@*@  ",
"  =@-@;@>@,@'@'@'@'@'@'@'@'@)@!@~@{@]@^@/@(@V   ",
"  _@:@<@[@}@% % % % % % % % |@1@2@3@4@+ 5@6@7@  ",
"        t+8@% % % % % % % 9@0@a@b@c@d@e@        ",
"        (@f@% % % % % % % g@h@i@j@k@l@m@        ",
"        n@o@o@o@o@o@o@o@o@p@q@r@s@t@u@v@        "};
