/* XPM */
static const char * quit_xpm[] = {
"24 24 285 2",
"  	c None",
". 	c #A82716",
"+ 	c #B13D2B",
"@ 	c #B8513D",
"# 	c #B9533F",
"$ 	c #B8523E",
"% 	c #B8523D",
"& 	c #B8513B",
"* 	c #B8503B",
"= 	c #B7503A",
"- 	c #B74F39",
"; 	c #B64F38",
"> 	c #B64E37",
", 	c #B64D36",
"' 	c #B54C35",
") 	c #B54C34",
"! 	c #B44831",
"~ 	c #AE3824",
"{ 	c #A72615",
"] 	c #A62212",
"^ 	c #C06852",
"/ 	c #CE8D73",
"( 	c #CD896C",
"_ 	c #C98061",
": 	c #C88060",
"< 	c #C97F5F",
"[ 	c #C97F5E",
"} 	c #C87F5D",
"| 	c #C87F5C",
"1 	c #C87E5C",
"2 	c #C87F5B",
"3 	c #C77E5B",
"4 	c #C8805C",
"5 	c #C67A57",
"6 	c #B9583C",
"7 	c #C16852",
"8 	c #CD896A",
"9 	c #BC5C39",
"0 	c #BA5632",
"a 	c #BA5935",
"b 	c #BB5C37",
"c 	c #BC5F39",
"d 	c #BD613B",
"e 	c #BE633D",
"f 	c #BE653F",
"g 	c #BF6841",
"h 	c #C06A43",
"i 	c #C26D45",
"j 	c #C26F49",
"k 	c #C3724A",
"l 	c #C4744D",
"m 	c #C4764F",
"n 	c #C67A53",
"o 	c #C9845D",
"p 	c #B9553A",
"q 	c #A72515",
"r 	c #BA5834",
"s 	c #BD613A",
"t 	c #C77653",
"u 	c #D69478",
"v 	c #DEA68E",
"w 	c #DEA78E",
"x 	c #D69576",
"y 	c #C87B56",
"z 	c #C57952",
"A 	c #C67C54",
"B 	c #C77E57",
"C 	c #C37350",
"D 	c #AD3521",
"E 	c #BB5C36",
"F 	c #C36D4A",
"G 	c #E5B5A1",
"H 	c #F3E1DA",
"I 	c #FBF0EC",
"J 	c #FEF9F6",
"K 	c #FEF8F6",
"L 	c #FAEFE9",
"M 	c #F3E1D9",
"N 	c #E3AF96",
"O 	c #C57851",
"P 	c #C77E56",
"Q 	c #C87F58",
"R 	c #C57954",
"S 	c #B1422A",
"T 	c #CE8465",
"U 	c #F3DED4",
"V 	c #FFFFFF",
"W 	c #FEFBFA",
"X 	c #F7E9E3",
"Y 	c #F1DDD4",
"Z 	c #F1DED5",
"` 	c #FAEEE9",
" .	c #FFFDFC",
"..	c #EFD8CC",
"+.	c #CF8F6D",
"@.	c #C88059",
"#.	c #C8825C",
"$.	c #C57953",
"%.	c #B2432A",
"&.	c #C97F60",
"*.	c #C5714F",
"=.	c #FCF0EA",
"-.	c #E0B29C",
";.	c #D18B6A",
">.	c #CC8260",
",.	c #CC8360",
"'.	c #D6987A",
").	c #E5BEAA",
"!.	c #FFFDFA",
"~.	c #F0D9CD",
"{.	c #C9855E",
"].	c #C47852",
"^.	c #B14229",
"/.	c #C98060",
"(.	c #E6BEAB",
"_.	c #D99D81",
":.	c #C36F48",
"<.	c #CE8665",
"[.	c #EED4C7",
"}.	c #EACCBD",
"|.	c #C97E58",
"1.	c #C77C56",
"2.	c #E2B9A1",
"3.	c #FFFEFA",
"4.	c #E0AF93",
"5.	c #CA8760",
"6.	c #C47752",
"7.	c #B14128",
"8.	c #B7513B",
"9.	c #CC8160",
"0.	c #F6E7E1",
"a.	c #FDFAF8",
"b.	c #DCAB94",
"c.	c #D89B7D",
"d.	c #FBF1EC",
"e.	c #F6E7E0",
"f.	c #D08D6A",
"g.	c #CA835E",
"h.	c #E8C6B3",
"i.	c #F4E6DD",
"j.	c #CF916C",
"k.	c #CA8963",
"l.	c #C47651",
"m.	c #B03F26",
"n.	c #B7503B",
"o.	c #DB9F86",
"p.	c #FDF6F3",
"q.	c #F4E4DC",
"r.	c #CB805D",
"s.	c #C26F48",
"t.	c #D99D7F",
"u.	c #F6E8E0",
"v.	c #D08F6D",
"w.	c #DBA587",
"x.	c #FAF0EA",
"y.	c #DAA688",
"z.	c #CC8C66",
"A.	c #B03E26",
"B.	c #DFB09C",
"C.	c #FFFEFD",
"D.	c #F0DBD2",
"E.	c #C3704A",
"F.	c #D99E81",
"G.	c #F6E8E1",
"H.	c #D1916F",
"I.	c #D49876",
"J.	c #F7EAE3",
"K.	c #FCF4EF",
"L.	c #DFAF93",
"M.	c #CE8F6A",
"N.	c #C47550",
"O.	c #B03D24",
"P.	c #DFB29D",
"Q.	c #F0DCD2",
"R.	c #C4744C",
"S.	c #DAA083",
"T.	c #F6E9E1",
"U.	c #D29371",
"V.	c #C9865F",
"W.	c #D59A79",
"X.	c #F7EBE4",
"Y.	c #E0B297",
"Z.	c #CF936F",
"`.	c #C47450",
" +	c #B03B23",
".+	c #C06B43",
"++	c #DEA88D",
"@+	c #FEF8F5",
"#+	c #F5E5DD",
"$+	c #CD8663",
"%+	c #DAA284",
"&+	c #FBF2ED",
"*+	c #F6E9E2",
"=+	c #D29674",
"-+	c #CA8861",
";+	c #DCAA8D",
">+	c #FAF1EC",
",+	c #DEAE93",
"'+	c #D19674",
")+	c #AF3A22",
"!+	c #D39071",
"~+	c #F8ECE6",
"{+	c #FDFAF9",
"]+	c #DFB19B",
"^+	c #DBA486",
"/+	c #D39876",
"(+	c #CC8D67",
"_+	c #E8C8B5",
":+	c #D69F7E",
"<+	c #D29A78",
"[+	c #C47351",
"}+	c #AF3921",
"|+	c #E9CABB",
"1+	c #FDF2ED",
"2+	c #DCA78A",
"3+	c #D59978",
"4+	c #F2DED2",
"5+	c #EDD4C6",
"6+	c #D0926E",
"7+	c #CB8B65",
"8+	c #E5C2AC",
"9+	c #FFFEFC",
"0+	c #EBC6B0",
"a+	c #D39B78",
"b+	c #D49D7D",
"c+	c #C37251",
"d+	c #AE3820",
"e+	c #CC8562",
"f+	c #F9EAE3",
"g+	c #FBEFE8",
"h+	c #E0B6A0",
"i+	c #D29473",
"j+	c #D49978",
"k+	c #D29572",
"l+	c #D8A182",
"m+	c #E5C2AE",
"n+	c #F3E2D7",
"o+	c #D59D7C",
"p+	c #D59F81",
"q+	c #C37151",
"r+	c #AE361F",
"s+	c #D9A184",
"t+	c #F9EBE4",
"u+	c #FDFBF9",
"v+	c #F2E2D9",
"w+	c #F3E3DA",
"x+	c #F9EEE8",
"y+	c #FEFCFB",
"z+	c #F5E5DB",
"A+	c #DBAB8E",
"B+	c #D5A081",
"C+	c #D6A385",
"D+	c #C47151",
"E+	c #AD351E",
"F+	c #C57951",
"G+	c #CF8E6B",
"H+	c #EBC9B4",
"I+	c #FDF8F4",
"J+	c #FFFCFA",
"K+	c #FDF7F3",
"L+	c #ECC8B2",
"M+	c #D6A080",
"N+	c #D5A082",
"O+	c #D6A386",
"P+	c #D8A78B",
"Q+	c #BF6445",
"R+	c #AC321D",
"S+	c #C67B53",
"T+	c #D59B79",
"U+	c #E2B69C",
"V+	c #E6C1AA",
"W+	c #E7C3AC",
"X+	c #E4B9A0",
"Y+	c #D8A485",
"Z+	c #D6A186",
"`+	c #B74F30",
" @	c #AA2B18",
".@	c #C9845C",
"+@	c #C57253",
"@@	c #AF3920",
"#@	c #A72413",
"$@	c #B1432A",
"%@	c #B13F26",
"&@	c #AF3B22",
"*@	c #AE371F",
"                                                ",
"      . + @ # $ % & * = - ; > , ' ) ! ~ {       ",
"    ] ^ / ( _ : : < < [ } | 1 2 3 3 4 5 6 ]     ",
"  . 7 8 9 0 a b c d e f g h i j k l m n o p q   ",
"  + / 9 0 r b c s t u v w x y k l m z A B C D   ",
"  @ ( 0 r E c F G H I J K L M N n O A P Q R S   ",
"  # _ a b c T U V W X Y Z `  .V ..+.B @.#.$.%.  ",
"  $ &.b c *.U V =.-.;.>.,.'.).!.V ~.o #.{.].^.  ",
"  % /.c s (.V =._.:.<.[.}.|.1.2.3.V 4.{.5.6.7.  ",
"  8.< d 9.0.a.b.i j c.d.e.f.A g.h. .i.j.k.l.m.  ",
"  n.< e o.p.q.r.s.k t.d.u.v.P @.w.d.x.y.z.l.A.  ",
"  = [ f B.C.D.E.k l F.d.G.H.Q #.I.J.K.L.M.N.O.  ",
"  - } g P.C.Q.R.l m S.d.T.U.#.V.W.X.K.Y.Z.`. +  ",
"  ; | .+++@+#+$+m z %+&+*+=+{.-+;+&+>+,+'+`.)+  ",
"  > 1 i !+~+{+]+O A ^+&+*+/+5.(+_+ .T.:+<+[+}+  ",
"  , 2 j k |+V 1+2+B 3+4+5+6+7+8+9+V 0+a+b+c+d+  ",
"  ' 3 k l e+f+V g+h+i+j+k+l+m+9+V n+o+b+p+q+r+  ",
"  ) 3 l m O s+t+V u+*+v+w+x+y+V z+A+b+B+C+D+E+  ",
"  ! 4 m F+A B G+H+J.I+!.J+K+X.L+M+b+N+O+P+Q+R+  ",
"  ~ 5 S+A P @.#.{.T+U+V+W+X+Y+a+b+p+O+P+Z+`+ @  ",
"  { 6 .@B Q #.{.5.k.z.M.Z.'+<+b+B+C+P+Z++@@@#@  ",
"    ] p C R $.].6.l.l.N.`.`.[+c+q+D+Q+`+@@]     ",
"      q D $@%.^.7.%@A.O. +&@}+d+*@E+R+ @#@      ",
"                                                "};
