/* XPM */
static const char * save_xpm[] = {
"24 24 339 2",
"  	c None",
". 	c #ACADC2",
"+ 	c #A6A6BE",
"@ 	c #A4A4BC",
"# 	c #9F9FB8",
"$ 	c #9A9AB4",
"% 	c #9494AF",
"& 	c #8D8DAA",
"* 	c #8787A6",
"= 	c #8181A2",
"- 	c #7A7A9C",
"; 	c #757598",
"> 	c #6F6F94",
", 	c #68688F",
"' 	c #62628B",
") 	c #5C5C86",
"! 	c #51517E",
"~ 	c #38396D",
"{ 	c #ADADC3",
"] 	c #E7EAF0",
"^ 	c #E1E5EC",
"/ 	c #F7F8FA",
"( 	c #A2AEC5",
"_ 	c #A7B3C8",
": 	c #BFC7D7",
"< 	c #FFFFFF",
"[ 	c #EBEDF2",
"} 	c #ABB6CA",
"| 	c #676B92",
"1 	c #A6A8BE",
"2 	c #DDE2EA",
"3 	c #D3D8E3",
"4 	c #F4F5F8",
"5 	c #C2CAD9",
"6 	c #233F75",
"7 	c #425A89",
"8 	c #7D8EAE",
"9 	c #E3E7EE",
"0 	c #8F9EB9",
"a 	c #838AA9",
"b 	c #1A1A55",
"c 	c #A1A2BB",
"d 	c #D9DEE8",
"e 	c #CDD4E0",
"f 	c #F2F4F7",
"g 	c #C5CCDB",
"h 	c #3E5786",
"i 	c #7183A6",
"j 	c #A4AFC6",
"k 	c #E2E6ED",
"l 	c #8998B6",
"m 	c #777E9E",
"n 	c #1B1B55",
"o 	c #9A9BB5",
"p 	c #D3DAE4",
"q 	c #C7CEDC",
"r 	c #F0F2F6",
"s 	c #D0D6E2",
"t 	c #6A7DA2",
"u 	c #9BA8C0",
"v 	c #C2CADA",
"w 	c #E0E4EB",
"x 	c #7B8AA9",
"y 	c #676D90",
"z 	c #181853",
"A 	c #9496B1",
"B 	c #CFD5E1",
"C 	c #C1CAD8",
"D 	c #EFF1F5",
"E 	c #CCD3E0",
"F 	c #EBEEF3",
"G 	c #FEFEFE",
"H 	c #D2D6E0",
"I 	c #6B7A9B",
"J 	c #5E6489",
"K 	c #161651",
"L 	c #8F90AD",
"M 	c #CAD1DF",
"N 	c #BCC4D6",
"O 	c #D9DEE7",
"P 	c #E1E5ED",
"Q 	c #E0E4EC",
"R 	c #DEE3EB",
"S 	c #DCE1E9",
"T 	c #DBE0E9",
"U 	c #D8DDE6",
"V 	c #D6DBE5",
"W 	c #D4DAE4",
"X 	c #D2D8E3",
"Y 	c #C2C7D5",
"Z 	c #9DA5BC",
"` 	c #627194",
" .	c #575D82",
"..	c #14144F",
"+.	c #8889A8",
"@.	c #C5CDDB",
"#.	c #B5BFD1",
"$.	c #B1BBCF",
"%.	c #ACB7CC",
"&.	c #A8B3C8",
"*.	c #A4B0C6",
"=.	c #9EABC3",
"-.	c #9AA7C0",
";.	c #96A4BE",
">.	c #919FBB",
",.	c #8C9BB7",
"'.	c #8695B3",
").	c #7B8BAA",
"!.	c #6E7D9E",
"~.	c #677497",
"{.	c #606D92",
"].	c #5A688D",
"^.	c #4E557B",
"/.	c #12124E",
"(.	c #8284A4",
"_.	c #C0C9D8",
":.	c #B0BACE",
"<.	c #ACB7CB",
"[.	c #A6B2C8",
"}.	c #A2AEC6",
"|.	c #99A6C0",
"1.	c #94A2BD",
"2.	c #8F9DB8",
"3.	c #8695B2",
"4.	c #7E8DAC",
"5.	c #7584A4",
"6.	c #6B799A",
"7.	c #657396",
"8.	c #5F6D91",
"9.	c #58678C",
"0.	c #536287",
"a.	c #484E75",
"b.	c #11114D",
"c.	c #7C7EA0",
"d.	c #BCC5D5",
"e.	c #AAB6CB",
"f.	c #B3BDD0",
"g.	c #ACB8CC",
"h.	c #9BA6BF",
"i.	c #939FB9",
"j.	c #8B97B2",
"k.	c #8490AC",
"l.	c #7F8AA8",
"m.	c #7883A3",
"n.	c #737D9E",
"o.	c #6D7899",
"p.	c #616E90",
"q.	c #4C5B81",
"r.	c #414770",
"s.	c #0F0F4B",
"t.	c #75779A",
"u.	c #B7C0D2",
"v.	c #E8EBF1",
"w.	c #FBFBFC",
"x.	c #F2F2F6",
"y.	c #E9E9EE",
"z.	c #E4E4EB",
"A.	c #DFDFE8",
"B.	c #D9D9E3",
"C.	c #D5D5DF",
"D.	c #D0D0DC",
"E.	c #CACAD8",
"F.	c #C5C5D4",
"G.	c #C0C0D1",
"H.	c #9EA1B9",
"I.	c #45537A",
"J.	c #394069",
"K.	c #0D0D49",
"L.	c #707297",
"M.	c #B2BCCF",
"N.	c #E6E9EF",
"O.	c #F7F7F9",
"P.	c #EFEFF3",
"Q.	c #E3E3EA",
"R.	c #DDDDE6",
"S.	c #D3D3DE",
"T.	c #CECEDB",
"U.	c #CACAD7",
"V.	c #C3C3D3",
"W.	c #BFBFD0",
"X.	c #BABACC",
"Y.	c #989BB4",
"Z.	c #3F4D75",
"`.	c #343A63",
" +	c #0C0C48",
".+	c #696B92",
"++	c #AEB8CD",
"@+	c #99A6BF",
"#+	c #DEE1E9",
"$+	c #C9C9DF",
"%+	c #C4C4DB",
"&+	c #C0C0D8",
"*+	c #BBBBD4",
"=+	c #B7B7D1",
"-+	c #B3B3CD",
";+	c #AEAEC9",
">+	c #AAAAC6",
",+	c #A6A6C3",
"'+	c #A1A1BF",
")+	c #9D9DBC",
"!+	c #9999B8",
"~+	c #9195AF",
"{+	c #394770",
"]+	c #2E355E",
"^+	c #0A0A46",
"/+	c #62658D",
"(+	c #A8B3C9",
"_+	c #8E9BB7",
":+	c #D1D4E0",
"<+	c #D6D6E4",
"[+	c #D2D2E0",
"}+	c #CDCDDC",
"|+	c #C8C8D9",
"1+	c #C3C3D5",
"2+	c #BEBED2",
"3+	c #B9B9CE",
"4+	c #B4B4CA",
"5+	c #B0B0C6",
"6+	c #AAAAC2",
"7+	c #A6A6BF",
"8+	c #A1A1BC",
"9+	c #8A8EA9",
"0+	c #32406A",
"a+	c #282E58",
"b+	c #090945",
"c+	c #5D5F89",
"d+	c #A1ADC4",
"e+	c #8290AE",
"f+	c #CACEDB",
"g+	c #C2C2D8",
"h+	c #BEBED5",
"i+	c #BABAD1",
"j+	c #B5B5CD",
"k+	c #B1B1CA",
"l+	c #ACACC7",
"m+	c #A7A7C3",
"n+	c #A3A3BF",
"o+	c #9F9FBC",
"p+	c #9A9AB8",
"q+	c #9595B4",
"r+	c #9191B1",
"s+	c #8588A4",
"t+	c #2D3B65",
"u+	c #232953",
"v+	c #080844",
"w+	c #565985",
"x+	c #97A3BB",
"y+	c #7987A6",
"z+	c #C3C6D6",
"A+	c #D0D0DE",
"B+	c #CBCBDA",
"C+	c #C6C6D6",
"D+	c #C1C1D3",
"E+	c #BCBCCF",
"F+	c #B7B7CC",
"G+	c #B1B1C7",
"H+	c #A8A8C0",
"I+	c #A3A3BB",
"J+	c #9E9EB8",
"K+	c #9A9AB5",
"L+	c #7F82A0",
"M+	c #283660",
"N+	c #1F254E",
"O+	c #060642",
"P+	c #4E507E",
"Q+	c #8C98B2",
"R+	c #6F7D9F",
"S+	c #BBBFCF",
"T+	c #AEAECA",
"U+	c #AAAAC7",
"V+	c #A6A6C4",
"W+	c #A1A1C0",
"X+	c #9999B9",
"Y+	c #9494B5",
"Z+	c #9090B2",
"`+	c #8C8CAE",
" @	c #8888AB",
".@	c #8484A8",
"+@	c #8080A4",
"@@	c #787B9A",
"#@	c #23315A",
"$@	c #1A1F49",
"%@	c #060641",
"&@	c #474A78",
"*@	c #8691AE",
"=@	c #687698",
"-@	c #B5B8CA",
";@	c #C5C5D5",
">@	c #C1C1D2",
",@	c #BCBCCE",
"'@	c #B6B6CA",
")@	c #B1B1C6",
"!@	c #ACACC3",
"~@	c #A7A7BF",
"{@	c #A2A2BB",
"]@	c #9E9EB7",
"^@	c #9898B3",
"/@	c #9494B0",
"(@	c #8F8FAC",
"_@	c #727696",
":@	c #1E2C55",
"<@	c #151B44",
"[@	c #050540",
"}@	c #404072",
"|@	c #7A7F9E",
"1@	c #5A6086",
"2@	c #9C9EB0",
"3@	c #AFAFBC",
"4@	c #AAAAB9",
"5@	c #A6A6B5",
"6@	c #A0A0B2",
"7@	c #9C9CAF",
"8@	c #9898AB",
"9@	c #9393A7",
"0@	c #8F8FA4",
"a@	c #8B8BA1",
"b@	c #85859D",
"c@	c #81819A",
"d@	c #7D7D97",
"e@	c #5F617F",
"f@	c #141A42",
"g@	c #0F113A",
"h@	c #03033F",
"i@	c #2B2B61",
"j@	c #1D1D56",
"k@	c #26265B",
"l@	c #27275C",
"m@	c #25255A",
"n@	c #24245A",
"o@	c #232359",
"p@	c #222258",
"q@	c #212158",
"r@	c #202056",
"s@	c #1F1F56",
"t@	c #1E1E55",
"u@	c #1D1D55",
"v@	c #1C1C53",
"w@	c #15154E",
"x@	c #04043F",
"                                                ",
"                                                ",
"      . + @ # $ % & * = - ; > , ' ) ! ~         ",
"    { ] ^ / ] ( _ : < < < < < < < < [ } |       ",
"    1 2 3 4 5 6 7 8 < < < < < < < < 9 0 a b     ",
"    c d e f g h i j < < < < < < < < k l m n     ",
"    o p q r s t u v < < < < < < < < w x y z     ",
"    A B C D D E 2 F < < < < < < < G H I J K     ",
"    L M N O P Q R S T O U V W X B Y Z `  ...    ",
"    +.@.#.$.%.&.*.=.-.;.>.,.'.).!.~.{.].^./.    ",
"    (._.:.<.[.}.=.|.1.2.3.4.5.6.7.8.9.0.a.b.    ",
"    c.d.e.f.f.:.g.j h.i.j.k.l.m.n.o.p.q.r.s.    ",
"    t.u.*.v.< w.x.y.z.A.B.C.D.E.F.G.H.I.J.K.    ",
"    L.M.=.N.O.P.y.Q.R.B.S.T.U.V.W.X.Y.Z.`. +    ",
"    .+++@+#+$+%+&+*+=+-+;+>+,+'+)+!+~+{+]+^+    ",
"    /+(+_+:+<+[+}+|+1+2+3+4+5+6+7+8+9+0+a+b+    ",
"    c+d+e+f+g+h+i+j+k+l+m+n+o+p+q+r+s+t+u+v+    ",
"    w+x+y+z+A+B+C+D+E+F+G+{ H+I+J+K+L+M+N+O+    ",
"    P+Q+R+S+T+U+V+W+)+X+Y+Z+`+ @.@+@@@#@$@%@    ",
"    &@*@=@-@;@>@,@'@)@!@~@{@]@^@/@(@_@:@<@[@    ",
"    }@|@1@2@3@4@5@6@7@8@9@0@a@b@c@d@e@f@g@h@    ",
"      i@j@k@l@l@m@n@o@p@q@r@s@t@u@v@w@x@h@      ",
"                                                ",
"                                                "};
