/* XPM */
static const char * saveas_xpm[] = {
"24 24 375 2",
"  	c None",
". 	c #EFB963",
"+ 	c #DE9C6E",
"@ 	c #D27E4A",
"# 	c #F7C805",
"$ 	c #FEE44B",
"% 	c #FEE8BC",
"& 	c #F6D8BD",
"* 	c #DA9163",
"= 	c #AAACC1",
"- 	c #A4A4BD",
"; 	c #A3A3BB",
"> 	c #9E9EB7",
", 	c #9898B3",
"' 	c #9292AD",
") 	c #8C8CAA",
"! 	c #8686A5",
"~ 	c #7F7FA0",
"{ 	c #79799C",
"] 	c #737397",
"^ 	c #AD8D4E",
"/ 	c #FAD601",
"( 	c #FFD504",
"_ 	c #FFC52D",
": 	c #FFC361",
"< 	c #EB9449",
"[ 	c #BCBDCE",
"} 	c #E5E8EF",
"| 	c #E0E4EC",
"1 	c #FFFFFF",
"2 	c #CFD5E1",
"3 	c #A4B0C6",
"4 	c #A8B3C9",
"5 	c #D4DAE4",
"6 	c #FFFDF9",
"7 	c #F8CE36",
"8 	c #FFE302",
"9 	c #FFC502",
"0 	c #FFB50B",
"a 	c #FC9926",
"b 	c #C87B44",
"c 	c #4D4F7D",
"d 	c #B5B7CA",
"e 	c #DADFE8",
"f 	c #D2D8E3",
"g 	c #8696B3",
"h 	c #2E487C",
"i 	c #48608D",
"j 	c #FBE3B8",
"k 	c #FBD702",
"l 	c #FFD807",
"m 	c #FFC20A",
"n 	c #FFAB1A",
"o 	c #E9882B",
"p 	c #A38A83",
"q 	c #666A90",
"r 	c #1A1A55",
"s 	c #B0B2C6",
"t 	c #D6DBE5",
"u 	c #CCD3DF",
"v 	c #8B9AB6",
"w 	c #516893",
"x 	c #798AAC",
"y 	c #C2CAD9",
"z 	c #F9D25C",
"A 	c #FFE60B",
"B 	c #FFCE13",
"C 	c #FFC015",
"D 	c #FC9A29",
"E 	c #CC8044",
"F 	c #8F8FA0",
"G 	c #5B5E86",
"H 	c #1B1B54",
"I 	c #A9ABC2",
"J 	c #D0D6E2",
"K 	c #C6CEDC",
"L 	c #A2AEC5",
"M 	c #7D8EAE",
"N 	c #A2AFC5",
"O 	c #D6DCE6",
"P 	c #FFFFFE",
"Q 	c #FBE2B1",
"R 	c #FBDD2D",
"S 	c #FFDD1E",
"T 	c #FFC723",
"U 	c #FFB42D",
"V 	c #F49739",
"W 	c #AD8A7C",
"X 	c #7786A6",
"Y 	c #50527C",
"Z 	c #181853",
"` 	c #A4A7BE",
" .	c #CBD2DE",
"..	c #C0C9D8",
"+.	c #E0E3EB",
"@.	c #D3D8E4",
"#.	c #F2F4F7",
"$.	c #FEF9F1",
"%.	c #FBDC76",
"&.	c #FEE628",
"*.	c #FFD12E",
"=.	c #FFC530",
"-.	c #FFAE3D",
";.	c #E79954",
">.	c #AAA7B2",
",.	c #697899",
"'.	c #494C77",
").	c #161651",
"!.	c #9FA1BA",
"~.	c #C6CDDC",
"{.	c #BBC4D5",
"].	c #E3E7EE",
"^.	c #E1E5ED",
"/.	c #DEE2EA",
"(.	c #DCE1E9",
"_.	c #DBDFE9",
":.	c #DFD7C0",
"<.	c #F9D742",
"[.	c #FFE539",
"}.	c #FFCE39",
"|.	c #FFC040",
"1.	c #FAA745",
"2.	c #B98871",
"3.	c #8A94AF",
"4.	c #617093",
"5.	c #444672",
"6.	c #14144F",
"7.	c #989BB6",
"8.	c #B5BED1",
"9.	c #AFBACE",
"0.	c #ABB6CB",
"a.	c #A7B3C8",
"b.	c #9DAAC2",
"c.	c #99A7C0",
"d.	c #D0B45F",
"e.	c #FEE745",
"f.	c #FFDA49",
"g.	c #FFCD48",
"h.	c #FEBB53",
"i.	c #D4823D",
"j.	c #677090",
"k.	c #5E6C91",
"l.	c #59678C",
"m.	c #3D406C",
"n.	c #12124E",
"o.	c #9396B1",
"p.	c #BCC4D5",
"q.	c #AFB9CD",
"r.	c #AAB5CA",
"s.	c #A6B2C8",
"t.	c #A1AEC5",
"u.	c #9CA9C2",
"v.	c #98A6BF",
"w.	c #9DA2AB",
"x.	c #F0CF4A",
"y.	c #FFE958",
"z.	c #FFD753",
"A.	c #FFCA57",
"B.	c #F6AA54",
"C.	c #9D715C",
"D.	c #5D6B90",
"E.	c #57668A",
"F.	c #526186",
"G.	c #383A67",
"H.	c #10104D",
"I.	c #8D91AE",
"J.	c #B6C0D2",
"K.	c #B6BFD2",
"L.	c #B2BDCF",
"M.	c #AFBACD",
"N.	c #AAB6CA",
"O.	c #A3AEC5",
"P.	c #C5A76D",
"Q.	c #FEED64",
"R.	c #FFE362",
"S.	c #FFD85D",
"T.	c #FFC769",
"U.	c #DA9656",
"V.	c #847681",
"W.	c #6B7698",
"X.	c #5B688C",
"Y.	c #4B5A80",
"Z.	c #323563",
"`.	c #0F0F4B",
" +	c #878BA9",
".+	c #B1BCCE",
"++	c #A3AFC6",
"@+	c #FEFEFE",
"#+	c #FAFAFB",
"$+	c #EEEEF3",
"%+	c #EAE0D3",
"&+	c #F8DB72",
"*+	c #FFEF77",
"=+	c #FFDE6C",
"-+	c #FFD76E",
";+	c #F7B96E",
">+	c #D2A484",
",+	c #C3C1CE",
"'+	c #BEBECF",
")+	c #8087A4",
"!+	c #435079",
"~+	c #2A2D5A",
"{+	c #0B0B45",
"]+	c #8286A6",
"^+	c #ACB7CC",
"/+	c #9EABC2",
"(+	c #FDFDFE",
"_+	c #F6F6F8",
":+	c #EDEDF2",
"<+	c #E6E6ED",
"[+	c #ECD4A0",
"}+	c #FCE97E",
"|+	c #FFE87E",
"1+	c #FFDE76",
"2+	c #FFD47F",
"3+	c #E7A96C",
"4+	c #C2A6A1",
"5+	c #BDBDCE",
"6+	c #B2B2C6",
"7+	c #747B9A",
"8+	c #38466F",
"9+	c #242654",
"0+	c #0A0A44",
"a+	c #7C80A2",
"b+	c #A7B3C9",
"c+	c #98A5BF",
"d+	c #EAEAF1",
"e+	c #C8C8DE",
"f+	c #C4C4DB",
"g+	c #BFBFD6",
"h+	c #D9BF99",
"i+	c #FDE889",
"j+	c #FFE383",
"k+	c #FFDF84",
"l+	c #FFD68D",
"m+	c #C18A6A",
"n+	c #9B97B3",
"o+	c #9292B1",
"p+	c #9090AE",
"q+	c #697090",
"r+	c #323F69",
"s+	c #202251",
"t+	c #080842",
"u+	c #757A9D",
"v+	c #A1ADC4",
"w+	c #8B98B5",
"x+	c #E4E4EC",
"y+	c #D5D5E3",
"z+	c #D1D1E0",
"A+	c #CCCAD8",
"B+	c #DDBFA1",
"C+	c #FBE2BF",
"D+	c #FFEAB7",
"E+	c #FDE0A2",
"F+	c #E7AF76",
"G+	c #A3898F",
"H+	c #9999B4",
"I+	c #9595B1",
"J+	c #9292AE",
"K+	c #63698B",
"L+	c #2D3963",
"M+	c #1B1E4C",
"N+	c #070741",
"O+	c #707499",
"P+	c #98A4BE",
"Q+	c #808EAC",
"R+	c #DBDBE6",
"S+	c #C2C2D7",
"T+	c #BDBDD4",
"U+	c #BBB4C3",
"V+	c #D7B598",
"W+	c #FBE5CA",
"X+	c #FDECD7",
"Y+	c #E5BFA4",
"Z+	c #AC837B",
"`+	c #8E8EAD",
" @	c #8A8AAA",
".@	c #8686A7",
"+@	c #5E6486",
"@@	c #28355F",
"#@	c #171A49",
"$@	c #060640",
"%@	c #696E94",
"&@	c #8E9BB5",
"*@	c #7886A5",
"=@	c #DADAE4",
"-@	c #CFCFDD",
";@	c #CACAD9",
">@	c #C6BFC8",
",@	c #C1A190",
"'@	c #D9C6B7",
")@	c #E1B699",
"!@	c #B6928A",
"~@	c #9E99AE",
"{@	c #9696B1",
"]@	c #8E8EAA",
"^@	c #8B8BA8",
"/@	c #595F82",
"(@	c #24315A",
"_@	c #151846",
":@	c #060641",
"<@	c #60648C",
"[@	c #8390AC",
"}@	c #6E7C9E",
"|@	c #CCCCDB",
"1@	c #ADADCA",
"2@	c #AAAAC7",
"3@	c #A69FB6",
"4@	c #A8827A",
"5@	c #A67663",
"6@	c #947B87",
"7@	c #8585A8",
"8@	c #8181A5",
"9@	c #7D7DA1",
"0@	c #7A7A9E",
"a@	c #77779C",
"b@	c #7B7B9E",
"c@	c #575E81",
"d@	c #222F59",
"e@	c #131543",
"f@	c #595E87",
"g@	c #7D89A7",
"h@	c #677598",
"i@	c #CDCDDA",
"j@	c #C4C4D4",
"k@	c #C0C0D1",
"l@	c #BAB4C3",
"m@	c #B48E85",
"n@	c #AA8C8B",
"o@	c #9D9DB7",
"p@	c #9A9AB4",
"q@	c #9595B0",
"r@	c #8F8FAB",
"s@	c #8D8DAB",
"t@	c #565E80",
"u@	c #1D2B55",
"v@	c #0F123F",
"w@	c #050540",
"x@	c #51527E",
"y@	c #707696",
"z@	c #595F85",
"A@	c #B2B2BE",
"B@	c #AEAEBB",
"C@	c #A9A9B8",
"D@	c #A4A3B2",
"E@	c #9F99A7",
"F@	c #9998A9",
"G@	c #9494A8",
"H@	c #9090A5",
"I@	c #8C8CA2",
"J@	c #86869E",
"K@	c #83839C",
"L@	c #808099",
"M@	c #7B7B96",
"N@	c #474A6B",
"O@	c #131A42",
"P@	c #0B0C39",
"Q@	c #03033F",
"R@	c #28285E",
"S@	c #1C1C55",
"T@	c #29295E",
"U@	c #27275C",
"V@	c #26265B",
"W@	c #25255A",
"X@	c #24245A",
"Y@	c #232359",
"Z@	c #222258",
"`@	c #202058",
" #	c #202056",
".#	c #1F1F56",
"+#	c #1E1E55",
"@#	c #1C1C54",
"##	c #1C1C53",
"$#	c #101049",
"%#	c #04043F",
"                            . + @               ",
"                          # $ % & *             ",
"  = - ; > , ' ) ! ~ { ] ^ / ( _ : <             ",
"[ } | 1 2 3 4 5 1 1 1 6 7 8 9 0 a b c           ",
"d e f 1 g h i 4 1 1 1 j k l m n o p q r         ",
"s t u 1 v w x y 1 1 6 z A B C D E F G H         ",
"I J K 1 L M N O 1 P Q R S T U V W X Y Z         ",
"`  ...1 +.@.| #.1 $.%.&.*.=.-.;.>.,.'.).        ",
"!.~.{.].^.| /.(._.:.<.[.}.|.1.2.3.4.5.6.        ",
"7...8.9.0.a.L b.c.d.e.f.g.h.i.j.k.l.m.n.        ",
"o.p.q.r.s.t.u.v.w.x.y.z.A.B.C.D.E.F.G.H.        ",
"I.J.r.K.L.M.N.O.P.Q.R.S.T.U.V.W.X.Y.Z.`.        ",
" +.+++1 @+#+$+%+&+*+=+-+;+>+,+'+)+!+~+{+        ",
"]+^+/+(+_+:+<+[+}+|+1+2+3+4+5+6+7+8+9+0+        ",
"a+b+c+d+e+f+g+h+i+j+k+l+m+n+o+p+q+r+s+t+        ",
"u+v+w+x+y+z+A+B+C+D+E+F+G+H+I+J+K+L+M+N+        ",
"O+P+Q+R+S+T+U+V+W+X+Y+Z+`+ @.@! +@@@#@$@        ",
"%@&@*@=@-@;@>@,@'@)@!@~@{@' ]@^@/@(@_@:@        ",
"<@[@}@|@1@2@3@4@5@6@7@8@9@0@a@b@c@d@e@:@        ",
"f@g@h@i@j@k@l@m@n@o@p@q@r@]@s@s@t@u@v@w@        ",
"x@y@z@A@B@C@D@E@F@G@H@I@J@K@L@M@N@O@P@Q@        ",
"  R@S@T@U@V@W@X@Y@Z@`@ #.#+#@###$#%#Q@          ",
"                                                ",
"                                                "};
