/* XPM */
static const char * sbc_xpm[] = {
"24 24 275 2",
"  	c None",
". 	c #B0B6CA",
"+ 	c #BCC4DF",
"@ 	c #EEF0F9",
"# 	c #E9EBF2",
"$ 	c #D1D6E5",
"% 	c #98A0BC",
"& 	c #9A9EAE",
"* 	c #A5A9B9",
"= 	c #BABECF",
"- 	c #DCDFF0",
"; 	c #DFE2F0",
"> 	c #C9CFE5",
", 	c #F0F0F6",
"' 	c #F9F9FB",
") 	c #FBFBFD",
"! 	c #E0E4F3",
"~ 	c #AEB4C8",
"{ 	c #BABFCF",
"] 	c #CACDD4",
"^ 	c #D3D5E0",
"/ 	c #DCE0EB",
"( 	c #E7EAF4",
"_ 	c #EEEFF4",
": 	c #F1F0F5",
"< 	c #EFEEF5",
"[ 	c #EDECF4",
"} 	c #DDE0EF",
"| 	c #C9CEE5",
"1 	c #E8E9F3",
"2 	c #F4F4F8",
"3 	c #F4F5FA",
"4 	c #E7EAF5",
"5 	c #C5C9D7",
"6 	c #A9AFC6",
"7 	c #DDDFE9",
"8 	c #E6EAF3",
"9 	c #C2DBF3",
"0 	c #AFD6F5",
"a 	c #ABD6F5",
"b 	c #B3D8F2",
"c 	c #C4D8EC",
"d 	c #DDDDE7",
"e 	c #E9E7F0",
"f 	c #EDEDF4",
"g 	c #D4D8EB",
"h 	c #B9C0DE",
"i 	c #CFD3E7",
"j 	c #E3E5F0",
"k 	c #ECECF3",
"l 	c #ECEBF3",
"m 	c #EFEFF6",
"n 	c #EEEFF6",
"o 	c #E1E4ED",
"p 	c #9BA5C8",
"q 	c #B7CAE3",
"r 	c #9AD0F8",
"s 	c #9EDBFB",
"t 	c #A9E3FC",
"u 	c #ABE4FB",
"v 	c #A8E2FB",
"w 	c #AAE4FC",
"x 	c #B4DCF2",
"y 	c #CDD6E3",
"z 	c #E6E5EF",
"A 	c #ECEDF4",
"B 	c #D2D7EA",
"C 	c #DADFEE",
"D 	c #CFD4E9",
"E 	c #CBCFE5",
"F 	c #D5D8E9",
"G 	c #DEDFED",
"H 	c #E4E7F2",
"I 	c #69708D",
"J 	c #A6B9D0",
"K 	c #9FD1F7",
"L 	c #ACE6FC",
"M 	c #BFF3FD",
"N 	c #C2F5FE",
"O 	c #B3EAFC",
"P 	c #ADE6FB",
"Q 	c #AFE7FC",
"R 	c #B7EEFD",
"S 	c #BBE0EF",
"T 	c #D0D5E1",
"U 	c #CED3E8",
"V 	c #F3F4F8",
"W 	c #EBEDF5",
"X 	c #DCDFEE",
"Y 	c #D0D4E8",
"Z 	c #D4D9EC",
"` 	c #8B93AF",
" .	c #A3C8E9",
"..	c #A2DCFB",
"+.	c #D7FEFF",
"@.	c #DFFEFF",
"#.	c #BAEDFC",
"$.	c #C0F4FE",
"%.	c #BDF3FD",
"&.	c #C0F6FE",
"*.	c #C4F7FD",
"=.	c #BED1DD",
"-.	c #E4E3EC",
";.	c #F1F2F7",
">.	c #DADEED",
",.	c #D1D5E8",
"'.	c #EFF0F7",
").	c #E4E8F3",
"!.	c #BEC3D8",
"~.	c #7D85A2",
"{.	c #7F8FA1",
"].	c #A3D4F9",
"^.	c #CAFAFE",
"/.	c #E5FEFF",
"(.	c #E7FCFF",
"_.	c #C1F5FE",
":.	c #CFFCFF",
"<.	c #D0FFFF",
"[.	c #D2FFFF",
"}.	c #C5E6EB",
"|.	c #C6C4D2",
"1.	c #F5F4F8",
"2.	c #DADCEC",
"3.	c #EBEAF3",
"4.	c #E7E7F0",
"5.	c #E9E8F2",
"6.	c #F2F1F7",
"7.	c #F9FAFE",
"8.	c #C6CDE5",
"9.	c #7A8CA0",
"0.	c #A5DAFC",
"a.	c #AAE3FB",
"b.	c #B5EAFC",
"c.	c #C6F2FE",
"d.	c #C6F5FE",
"e.	c #CEFCFF",
"f.	c #DAFFFF",
"g.	c #DCFFFF",
"h.	c #D2F0F3",
"i.	c #BABAC9",
"j.	c #F2F2F7",
"k.	c #EAECF5",
"l.	c #CBD1E6",
"m.	c #E4E5F0",
"n.	c #E8E8F1",
"o.	c #E4E4EF",
"p.	c #F1F3F7",
"q.	c #A9AFC4",
"r.	c #79899D",
"s.	c #A7D9FA",
"t.	c #A6E0FB",
"u.	c #B1E8FC",
"v.	c #BBF0FD",
"w.	c #C9F9FE",
"x.	c #D9FFFF",
"y.	c #DDFFFF",
"z.	c #E3FFFF",
"A.	c #E8FFFF",
"B.	c #D2E8ED",
"C.	c #B9B8C7",
"D.	c #F6F6FA",
"E.	c #F4F4F9",
"F.	c #F3F3F9",
"G.	c #DDE0EE",
"H.	c #CDD2E6",
"I.	c #EAEAF3",
"J.	c #E9E9F2",
"K.	c #F8F8FB",
"L.	c #B8BED6",
"M.	c #A3CEEC",
"N.	c #A7E1FC",
"O.	c #A8E1FB",
"P.	c #BDF2FD",
"Q.	c #CCFDFF",
"R.	c #D7FFFF",
"S.	c #E2FFFF",
"T.	c #EBFFFF",
"U.	c #F3FFFF",
"V.	c #C3CCD7",
"W.	c #CECDD8",
"X.	c #FCFCFD",
"Y.	c #F4F5F9",
"Z.	c #C5CCE4",
"`.	c #DDDFED",
" +	c #D9DEEE",
".+	c #95B1CC",
"++	c #ADE4FB",
"@+	c #AEE6FC",
"#+	c #BAF0FD",
"$+	c #CBFDFF",
"%+	c #E4FFFF",
"&+	c #EFFFFF",
"*+	c #FAFFFF",
"=+	c #EBF1F4",
"-+	c #B2B6C5",
";+	c #EDF0F7",
">+	c #E5E8F3",
",+	c #D4D9EA",
"'+	c #C4CAE3",
")+	c #DCE0EE",
"!+	c #E3E7F0",
"~+	c #878EA6",
"{+	c #757E93",
"]+	c #A2C9E3",
"^+	c #B7F0FE",
"/+	c #BCF2FE",
"(+	c #CAFCFF",
"_+	c #D8FFFF",
":+	c #EDFFFF",
"<+	c #F4F8FA",
"[+	c #BDC1CE",
"}+	c #9E9EB3",
"|+	c #CDD3E6",
"1+	c #D3DBF0",
"2+	c #D8DCED",
"3+	c #E0E3EF",
"4+	c #E3E5F1",
"5+	c #ECECF5",
"6+	c #EDEFF6",
"7+	c #A1A7BD",
"8+	c #9DBCD3",
"9+	c #B7E4EE",
"0+	c #C7F5F8",
"a+	c #D3F9FB",
"b+	c #D9F4F7",
"c+	c #D6E8ED",
"d+	c #AFB4C4",
"e+	c #A8A8B9",
"f+	c #B8B9C8",
"g+	c #D5CBC2",
"h+	c #EAC892",
"i+	c #F4E8D6",
"j+	c #F8F9FD",
"k+	c #A8AFC6",
"l+	c #778599",
"m+	c #889DAC",
"n+	c #90A4B0",
"o+	c #8A98A6",
"p+	c #848BA2",
"q+	c #C6C9D9",
"r+	c #E2E4EA",
"s+	c #D6CCC3",
"t+	c #DFBD82",
"u+	c #E9AB3D",
"v+	c #E4AD56",
"w+	c #F0EAE2",
"x+	c #C5CADB",
"y+	c #AEB2C1",
"z+	c #D6B27B",
"A+	c #FBE290",
"B+	c #F8DA91",
"C+	c #ECAC39",
"D+	c #E1AE62",
"E+	c #CBC8CB",
"F+	c #C3933A",
"G+	c #F6DE90",
"H+	c #FAE19C",
"I+	c #EDAD3B",
"J+	c #B97D22",
"K+	c #C09643",
"L+	c #F6DD90",
"M+	c #F9DC91",
"N+	c #EBAD3F",
"O+	c #BB7B19",
"P+	c #B38739",
"Q+	c #FEE899",
"R+	c #FBDE93",
"S+	c #E8A83D",
"T+	c #835B2F",
"U+	c #AF8539",
"V+	c #E3C67E",
"W+	c #BFA486",
"X+	c #6C6C7C",
"Y+	c #876338",
"Z+	c #7F777D",
"                                                ",
"                      .                         ",
"                    + @ # $ %                   ",
"            & * = - ; > , ' ) ! ~               ",
"    { ] ^ / ( _ : < [ } | 1 , 2 3 4 5 6         ",
"    7 8 9 0 a b c d e f g h i j k l m n o p     ",
"    q r s t u v w x y z A B C D E F G , H I     ",
"  J K L M N O P Q R S T m H U V W X Y Z `       ",
"   ...N +.@.#.$.%.&.*.=.-.;.>.,., m '.).!.~.    ",
"{.].t ^./.(._.:.<.[.[.}.|.;.1.U 2.3.4.5.6.7.8.  ",
"9.0.a.b.c.d.e.f.f.g.g.h.i.j.j.k.l.m.n.o.n.p.q.  ",
"r.s.t.u.v.w.x.y.z.A.A.B.C.D.E.F.G.H.I.J.K.L.    ",
"  M.N.O.P.Q.R.S.T.U.U.V.W.X.K.D.Y.Z.`.D. +      ",
"  .+++@+#+$+x.%+&+*+=+-+_ ;+>+>.,+'+)+!+~+      ",
"  {+]+^+/+(+_+z.:+<+[+}+|+1+2+3+4+5+6+7+        ",
"      8+9+0+a+b+c+d+e+f+g+h+i+3 E.j+k+          ",
"        l+m+n+o+p+q+r+s+t+u+v+w+7.x+            ",
"                    y+z+A+B+C+D+E+              ",
"                        F+G+H+I+J+              ",
"                          K+L+M+N+O+            ",
"                            P+Q+R+S+T+          ",
"                              U+V+W+X+          ",
"                                Y+Z+            ",
"                                                "};
