/* XPM */
static char * shadbala_xpm[] = {
"24 24 379 2",
"  	c None",
". 	c #A3A3A3",
"+ 	c #C2C2C2",
"@ 	c #C0C0C0",
"# 	c #C1C1C1",
"$ 	c #7B7B7B",
"% 	c #EFEFEF",
"& 	c #FFFFFF",
"* 	c #FEFEFE",
"= 	c #FDFDFD",
"- 	c #FCFCFC",
"; 	c #FBFBFB",
"> 	c #FBFAFA",
", 	c #F9F9F9",
"' 	c #F8F8F8",
") 	c #F6F6F7",
"! 	c #F5F5F5",
"~ 	c #F4F4F4",
"{ 	c #F3F3F3",
"] 	c #F1F1F1",
"^ 	c #F6F6F6",
"/ 	c #D4D4D4",
"( 	c #0F0F0F",
"_ 	c #F0F0F0",
": 	c #FBFCFC",
"< 	c #FBFEFF",
"[ 	c #FAFCFE",
"} 	c #F8FBFD",
"| 	c #F7FAFC",
"1 	c #F7F9FB",
"2 	c #F5F8FB",
"3 	c #F7F9F8",
"4 	c #F0EFF1",
"5 	c #E9E8EE",
"6 	c #F7F6F2",
"7 	c #F1F4F5",
"8 	c #EFF2F5",
"9 	c #EFF1F2",
"0 	c #EDEDED",
"a 	c #F0EFEF",
"b 	c #D3D3D3",
"c 	c #0D0D0D",
"d 	c #FCFCFD",
"e 	c #F7F2EB",
"f 	c #EBC1A2",
"g 	c #EBBD96",
"h 	c #EABD97",
"i 	c #E9BD97",
"j 	c #E9BC96",
"k 	c #E8BC96",
"l 	c #F3C393",
"m 	c #C8B1B0",
"n 	c #8BA6E0",
"o 	c #5E94E6",
"p 	c #9DA8D7",
"q 	c #E9BC99",
"r 	c #E7B690",
"s 	c #E4D2C4",
"t 	c #EDEFF2",
"u 	c #0B0B0B",
"v 	c #FCFBFB",
"w 	c #E4A66B",
"x 	c #F7B82F",
"y 	c #F9D07C",
"z 	c #F9CE71",
"A 	c #F9CE72",
"B 	c #FFD371",
"C 	c #AE835D",
"D 	c #A4AFD5",
"E 	c #A8DEFF",
"F 	c #6FBDFE",
"G 	c #4CA3F6",
"H 	c #6879AA",
"I 	c #F1C74E",
"J 	c #E08718",
"K 	c #DED6D3",
"L 	c #F0F1F2",
"M 	c #D2D2D2",
"N 	c #0A0A0A",
"O 	c #FCF9F7",
"P 	c #E39E4C",
"Q 	c #FBE773",
"R 	c #FFFFFE",
"S 	c #FFFEE9",
"T 	c #FFFEEA",
"U 	c #FFFFEA",
"V 	c #FFFFE8",
"W 	c #577DDB",
"X 	c #92D8FF",
"Y 	c #A9DAFE",
"Z 	c #77BFFF",
"` 	c #3E9CFF",
" .	c #106EFF",
"..	c #DFE7B8",
"+.	c #EC9C03",
"@.	c #D6C7C1",
"#.	c #EFF0F1",
"$.	c #D1D1D1",
"%.	c #090909",
"&.	c #FAF9F8",
"*.	c #E09F51",
"=.	c #FBDC4E",
"-.	c #FFF2B0",
";.	c #FFEFA2",
">.	c #FFF0A3",
",.	c #FFF89F",
"'.	c #617FC3",
").	c #4CAEFF",
"!.	c #65B6FF",
"~.	c #3690FF",
"{.	c #0067FF",
"].	c #0E62F7",
"^.	c #E3DD83",
"/.	c #E99807",
"(.	c #D5C7C2",
"_.	c #EDEEF0",
":.	c #070707",
"<.	c #F9F9F8",
"[.	c #DE9F53",
"}.	c #FBD93A",
"|.	c #FFEB83",
"1.	c #FEE978",
"2.	c #FEE97A",
"3.	c #FFEF79",
"4.	c #BDCB4F",
"5.	c #3C74B1",
"6.	c #5AB5FF",
"7.	c #57ADFF",
"8.	c #0F75FF",
"9.	c #0069FF",
"0.	c #0B69FA",
"a.	c #E2E567",
"b.	c #E89908",
"c.	c #D4C6C1",
"d.	c #CFCFCF",
"e.	c #050505",
"f.	c #F8F9F8",
"g.	c #DC9E55",
"h.	c #FBD21C",
"i.	c #FFE455",
"j.	c #FFE450",
"k.	c #F4E14C",
"l.	c #A0C04D",
"m.	c #7BD262",
"n.	c #4181BE",
"o.	c #5AB3FF",
"p.	c #58ADFF",
"q.	c #0E77FF",
"r.	c #0268F3",
"s.	c #444AA7",
"t.	c #D08532",
"u.	c #DD920C",
"v.	c #D4CAC3",
"w.	c #EBECEE",
"x.	c #040404",
"y.	c #F6F9F8",
"z.	c #DA9D59",
"A.	c #FABF03",
"B.	c #FFCA19",
"C.	c #FFDC24",
"D.	c #85B119",
"E.	c #8EE590",
"F.	c #ADF38D",
"G.	c #4182C2",
"H.	c #54AFFF",
"I.	c #276BD8",
"J.	c #905D84",
"K.	c #FB736B",
"L.	c #F76069",
"M.	c #CF4B3C",
"N.	c #C9A59F",
"O.	c #EAEDED",
"P.	c #CECECE",
"Q.	c #020202",
"R.	c #EFEEEE",
"S.	c #D89A59",
"T.	c #FDB80A",
"U.	c #FDBC12",
"V.	c #F5AC20",
"W.	c #649220",
"X.	c #4DCC32",
"Y.	c #81E13F",
"Z.	c #4285C6",
"`.	c #59B3FF",
" +	c #4DAAF3",
".+	c #B24654",
"++	c #FF857F",
"@+	c #FF8585",
"#+	c #FF7374",
"$+	c #FD5D5E",
"%+	c #BF2C2C",
"&+	c #DFE0E0",
"*+	c #CFCDCD",
"=+	c #010202",
"-+	c #F6F9F7",
";+	c #D6995B",
">+	c #CB8F43",
",+	c #A8656E",
"'+	c #C28762",
")+	c #B19A65",
"!+	c #8D8C64",
"~+	c #468B50",
"{+	c #317EBF",
"]+	c #5CB5FF",
"^+	c #4CABF3",
"/+	c #B83C4A",
"(+	c #FF403D",
"_+	c #FF6A6A",
":+	c #F25252",
"<+	c #D00303",
"[+	c #B31C1C",
"}+	c #DEDFDF",
"|+	c #CDCDCD",
"1+	c #000000",
"2+	c #EEEEEE",
"3+	c #F4F5F7",
"4+	c #B692A9",
"5+	c #E17277",
"6+	c #FC5549",
"7+	c #FF8032",
"8+	c #FFEF32",
"9+	c #B9B060",
"0+	c #4180ED",
"a+	c #337AE6",
"b+	c #3D8DE6",
"c+	c #4EAEF5",
"d+	c #B63F4D",
"e+	c #FF4240",
"f+	c #FC3F3F",
"g+	c #D10505",
"h+	c #CD0000",
"i+	c #B61E1E",
"j+	c #DEDEDE",
"k+	c #CCCCCC",
"l+	c #F1F0EF",
"m+	c #B3C3E6",
"n+	c #6760A9",
"o+	c #A95E79",
"p+	c #E24F47",
"q+	c #FF4815",
"r+	c #BFAB3E",
"s+	c #3C80E8",
"t+	c #599DFF",
"u+	c #5398FF",
"v+	c #3A7CE4",
"w+	c #3D96E4",
"x+	c #FF4341",
"y+	c #FB4041",
"z+	c #D30606",
"A+	c #CF0000",
"B+	c #B51D1D",
"C+	c #DDDDDD",
"D+	c #CBCACA",
"E+	c #F4F3F0",
"F+	c #809AD4",
"G+	c #6FB6F9",
"H+	c #64AFFD",
"I+	c #5497EC",
"J+	c #5475C6",
"K+	c #4377DD",
"L+	c #66AAFF",
"M+	c #589BFE",
"N+	c #4D93FF",
"O+	c #4A8DF9",
"P+	c #2D7ED9",
"Q+	c #B53F4E",
"R+	c #FF4441",
"S+	c #FB4141",
"T+	c #B41C1C",
"U+	c #DBDDDD",
"V+	c #CAC9C9",
"W+	c #788FD0",
"X+	c #77B2F5",
"Y+	c #8DC5FF",
"Z+	c #80BDFF",
"`+	c #71B7FF",
" @	c #6CAFFF",
".@	c #61A2FE",
"+@	c #569AFE",
"@@	c #5297FF",
"#@	c #4688EF",
"$@	c #6A6F88",
"%@	c #B4473C",
"&@	c #F2363D",
"*@	c #FF4344",
"=@	c #D50707",
"-@	c #CE0000",
";@	c #A82E2E",
">@	c #DDDFDF",
",@	c #CAC8C8",
"'@	c #F0F0EF",
")@	c #B8BEDC",
"!@	c #3B78E6",
"~@	c #89C5FF",
"{@	c #82BBFF",
"]@	c #75B0FF",
"^@	c #6CAAFF",
"/@	c #62A3FF",
"(@	c #62A2FF",
"_@	c #5AA2FC",
":@	c #154EBA",
"<@	c #D5A24E",
"[@	c #FDBB45",
"}@	c #D96C32",
"|@	c #E73234",
"1@	c #CE0105",
"2@	c #941808",
"3@	c #BBB5AD",
"4@	c #E5E7E8",
"5@	c #C8C8C8",
"6@	c #EDEDEE",
"7@	c #F6F5F0",
"8@	c #7B89CB",
"9@	c #2F6ADF",
"0@	c #599AF5",
"a@	c #67A7F7",
"b@	c #62A1F7",
"c@	c #5899F2",
"d@	c #357BDF",
"e@	c #0A41B8",
"f@	c #72464F",
"g@	c #D2782D",
"h@	c #C67234",
"i@	c #CB7A35",
"j@	c #A45027",
"k@	c #903D1E",
"l@	c #AF8257",
"m@	c #DADDDD",
"n@	c #E3E3E3",
"o@	c #C7C7C7",
"p@	c #ECECED",
"q@	c #F6F2EC",
"r@	c #BBBCD8",
"s@	c #6C7DC8",
"t@	c #5070C9",
"u@	c #4A6EC7",
"v@	c #4D6ABF",
"w@	c #6F7DBD",
"x@	c #C6C4D3",
"y@	c #E5E1D7",
"z@	c #D5D7DA",
"A@	c #D4D6D9",
"B@	c #D3D5D9",
"C@	c #D7DBD9",
"D@	c #D8DCD8",
"E@	c #DCDFE2",
"F@	c #DEDEDF",
"G@	c #E1E1E1",
"H@	c #C6C6C6",
"I@	c #EBEBEB",
"J@	c #ECEBEA",
"K@	c #EEEDEA",
"L@	c #EDECE8",
"M@	c #EAE9E7",
"N@	c #ECEBE6",
"O@	c #EAEAE6",
"P@	c #E6E5E5",
"Q@	c #E4E5E4",
"R@	c #E3E4E4",
"S@	c #E3E2E3",
"T@	c #E1E2E2",
"U@	c #E0E0E1",
"V@	c #DFDFDF",
"W@	c #DCDCDC",
"X@	c #E7E7E7",
"Y@	c #EAEAEB",
"Z@	c #E9EAEA",
"`@	c #E7E7E9",
" #	c #E8E8E8",
".#	c #E6E6E6",
"+#	c #E4E4E4",
"@#	c #BCBCBC",
"##	c #6A6A6A",
"$#	c #959595",
"%#	c #8E8E8E",
"&#	c #8D8D8D",
"*#	c #8C8C8C",
"=#	c #919191",
"-#	c #343434",
"                                                ",
"    . + @ @ @ @ @ @ @ @ @ @ @ @ @ # # + + $     ",
"    % & & * = - ; > , , ' ) ! ! ~ { { ] ^ / (   ",
"    _ = : < [ [ } | 1 2 3 4 5 6 7 8 9 0 a b c   ",
"    _ d e f g h i j k l m n o p q r s t _ b u   ",
"    _ v w x y z A A B C D E F G H I J K L M N   ",
"    % O P Q R S T U V W X Y Z `  ...+.@.#.$.%.  ",
"    % &.*.=.-.;.>.>.,.'.).!.~.{.].^./.(._.$.:.  ",
"    % <.[.}.|.1.2.3.4.5.6.7.8.9.0.a.b.c._.d.e.  ",
"    % f.g.h.i.j.k.l.m.n.o.p.q.r.s.t.u.v.w.d.x.  ",
"    % y.z.A.B.C.D.E.F.G.o.H.I.J.K.L.M.N.O.P.Q.  ",
"    R.y.S.T.U.V.W.X.Y.Z.`. +.+++@+#+$+%+&+*+=+  ",
"    R.-+;+>+,+'+)+!+~+{+]+^+/+(+_+:+<+[+}+|+1+  ",
"    2+3+4+5+6+7+8+9+0+a+b+c+d+e+f+g+h+i+j+k+1+  ",
"    l+m+n+o+p+q+r+s+t+u+v+w+d+x+y+z+A+B+C+D+1+  ",
"    E+F+G+H+I+J+K+L+M+N+O+P+Q+R+S+z+A+T+U+V+1+  ",
"    E+W+X+Y+Z+`+ @.@+@@@#@$@%@&@*@=@-@;@>@,@1+  ",
"    '@)@!@~@{@]@^@/@(@_@:@<@[@}@|@1@2@3@4@5@1+  ",
"    6@7@8@9@0@a@b@c@d@e@f@g@h@i@j@k@l@m@n@o@1+  ",
"    2+p@q@r@s@t@u@v@w@x@y@z@A@B@C@D@E@F@G@H@1+  ",
"    0 I@I@J@K@L@M@N@O@P@Q@R@S@T@U@V@j+W@V@H@1+  ",
"    X@% 0 0 I@Y@Z@`@ # #.#.#+#+#n@G@G@V@X@@#1+  ",
"    ##$#%#%#%#%#&#&#&#%#&#&#&#&#&#*#*#&#=#-#    ",
"                                                "};
