/* XPM */
static const char * solar_xpm[] = {
"24 24 149 2",
"  	c None",
". 	c #FDBB59",
"+ 	c #FEE4BC",
"@ 	c #FEE4AA",
"# 	c #FCC56B",
"$ 	c #FDBD5B",
"% 	c #FDC267",
"& 	c #FEEBCB",
"* 	c #FDD087",
"= 	c #FCB341",
"- 	c #FCB240",
"; 	c #FCB33F",
"> 	c #FDBC54",
", 	c #FDE3A3",
"' 	c #FCCD82",
") 	c #FDD085",
"! 	c #FCC25D",
"~ 	c #FEE28D",
"{ 	c #FEEFA2",
"] 	c #FFF2A7",
"^ 	c #FFEF9B",
"/ 	c #FEE387",
"( 	c #FDC961",
"_ 	c #FDC058",
": 	c #FDCE71",
"< 	c #FEEA99",
"[ 	c #FEEB8B",
"} 	c #FEE777",
"| 	c #FEE368",
"1 	c #FEE262",
"2 	c #FEE770",
"3 	c #FEEB87",
"4 	c #FED26F",
"5 	c #FDC15A",
"6 	c #FEEA97",
"7 	c #FEE87C",
"8 	c #FEE879",
"9 	c #FEEA7F",
"0 	c #FFE674",
"a 	c #FEE157",
"b 	c #FEE358",
"c 	c #FEE67D",
"d 	c #FECC62",
"e 	c #FEDF84",
"f 	c #FEE97F",
"g 	c #FEE468",
"h 	c #FEEF8C",
"i 	c #FEEA7E",
"j 	c #FEE367",
"k 	c #FEE159",
"l 	c #FEE251",
"m 	c #FEDE59",
"n 	c #FEDB6D",
"o 	c #FDBE4D",
"p 	c #FBB13F",
"q 	c #FEED96",
"r 	c #FEE364",
"s 	c #FEE774",
"t 	c #FEE97D",
"u 	c #FEE776",
"v 	c #FEE265",
"w 	c #FEE151",
"x 	c #FEDA50",
"y 	c #FEDF6A",
"z 	c #FDC050",
"A 	c #FCB444",
"B 	c #FDBA56",
"C 	c #FEE3BB",
"D 	c #FEE4AC",
"E 	c #FCB13E",
"F 	c #FFF097",
"G 	c #FEE257",
"H 	c #FEE15B",
"I 	c #FEE466",
"J 	c #FEE46C",
"K 	c #FEE469",
"L 	c #FEE15F",
"M 	c #FEE156",
"N 	c #FEE150",
"O 	c #FED94D",
"P 	c #FEE16A",
"Q 	c #FDC051",
"R 	c #FDC854",
"S 	c #FDE4A2",
"T 	c #FDBE61",
"U 	c #FEC368",
"V 	c #FCB13F",
"W 	c #FFEB89",
"X 	c #FEE256",
"Y 	c #FEE153",
"Z 	c #FEE059",
"` 	c #FEE15C",
" .	c #FEE057",
"..	c #FEE252",
"+.	c #FEDE4E",
"@.	c #FED64E",
"#.	c #FEDD68",
"$.	c #FDBF4F",
"%.	c #FCB445",
"&.	c #FCB546",
"*.	c #FEDC70",
"=.	c #FEE050",
"-.	c #FEE152",
";.	c #FEE154",
">.	c #FEE04F",
",.	c #FEDA4D",
"'.	c #FED453",
").	c #FED768",
"!.	c #FCBD4C",
"~.	c #FDC655",
"{.	c #FEE370",
"].	c #FEDB52",
"^.	c #FEDD4E",
"/.	c #FEDF4F",
"(.	c #FED94C",
"_.	c #FED44B",
":.	c #FED863",
"<.	c #FDCB5E",
"[.	c #FDCF5F",
"}.	c #FEE06E",
"|.	c #FED855",
"1.	c #FED64F",
"2.	c #FED54C",
"3.	c #FED44D",
"4.	c #FED353",
"5.	c #FED862",
"6.	c #FED267",
"7.	c #FDB444",
"8.	c #FDBC55",
"9.	c #FEC859",
"0.	c #FEDA66",
"a.	c #FEDB65",
"b.	c #FED566",
"c.	c #FDB544",
"d.	c #FCB540",
"e.	c #FDE3A4",
"f.	c #FCBC4B",
"g.	c #FDC04E",
"h.	c #FDBE4E",
"i.	c #FCBC4C",
"j.	c #FDB540",
"k.	c #FED762",
"l.	c #FEC163",
"m.	c #FCCB7F",
"n.	c #FCC062",
"o.	c #FDC97B",
"p.	c #FBB344",
"q.	c #FDE4A3",
"r.	c #FCB748",
"                                                ",
"                      .                         ",
"                      +                         ",
"                      @ #                       ",
"        $                           %           ",
"          & *       = - ;       > , '           ",
"          )     ! ~ { ] ^ / (     _             ",
"              : < [ } | 1 2 3 4                 ",
"            5 6 7 8 9 0 1 a b c d               ",
"            e f g 9 h i j k l m n o             ",
"          p q r 1 s t u v k w x y z   A         ",
"  B C D   E F G H I J K L M N O P Q   R S T     ",
"      U   V W X Y Z ` `  ...+.@.#.$.  %.&.      ",
"            *.1 =.-.;.;.-.>.,.'.).!.            ",
"            ~.{.].^././.+.(._.:.<.              ",
"              [.}.|.1.2.3.4.5.6.7.              ",
"          8.    9.).0.a.0.b.<.c.  d.            ",
"          e._     f.g.$.h.i.    j.k.l.          ",
"        % m.                      n.o.          ",
"                    p.R %.                      ",
"                      q.r.                      ",
"                      T                         ",
"                                                ",
"                                                "};
