/* XPM */
static const char * sview_xpm[] = {
"24 24 153 2",
"  	c None",
". 	c #C4D0E5",
"+ 	c #D2DCEC",
"@ 	c #D3DCEC",
"# 	c #D1DBEC",
"$ 	c #CFD9EB",
"% 	c #CBD6EA",
"& 	c #B9C5DB",
"* 	c #FCFFFF",
"= 	c #FFFFFF",
"- 	c #FEFFFF",
"; 	c #F7FBFF",
"> 	c #EEF4FE",
", 	c #E0E7F6",
"' 	c #CCD7EC",
") 	c #C8D3E4",
"! 	c #FDFFFF",
"~ 	c #F7FCFF",
"{ 	c #EEF5FE",
"] 	c #E2E9F7",
"^ 	c #CDD7EB",
"/ 	c #E3ECF8",
"( 	c #C6D1E4",
"_ 	c #FBFEFF",
": 	c #F3F9FF",
"< 	c #E6EDFA",
"[ 	c #D1DBED",
"} 	c #F0F3F9",
"| 	c #EAF0FC",
"1 	c #CAD4E7",
"2 	c #F6FAFF",
"3 	c #E9F0FC",
"4 	c #EBEFF7",
"5 	c #F1F6FC",
"6 	c #E2EAF8",
"7 	c #C4CFE3",
"8 	c #F8FCFF",
"9 	c #EDF3FE",
"0 	c #D6E0F0",
"a 	c #B4C1D7",
"b 	c #ADBBD2",
"c 	c #AAB8D1",
"d 	c #A7B6D0",
"e 	c #99A9C4",
"f 	c #F9FDFF",
"g 	c #F0F5FF",
"h 	c #E8EFFC",
"i 	c #CFD9EC",
"j 	c #BCC9E1",
"k 	c #B6C4DD",
"l 	c #A5B5D1",
"m 	c #6E7C94",
"n 	c #FAFEFF",
"o 	c #F2F8FF",
"p 	c #EAF1FC",
"q 	c #DDE6F5",
"r 	c #C8D3E8",
"s 	c #C0CDE3",
"t 	c #BDCAE2",
"u 	c #ACBBD6",
"v 	c #F2F8FE",
"w 	c #E4EBF8",
"x 	c #D4DEEF",
"y 	c #CAD5E9",
"z 	c #C7D2E7",
"A 	c #C5D1E6",
"B 	c #B2C0DA",
"C 	c #FCFEFF",
"D 	c #F4F9FE",
"E 	c #E4ECFA",
"F 	c #D9E3F3",
"G 	c #D5DEEF",
"H 	c #D1DBEE",
"I 	c #CED9EC",
"J 	c #CCD8EB",
"K 	c #B8C6DE",
"L 	c #FDFEFF",
"M 	c #F3F8FE",
"N 	c #E8EFFB",
"O 	c #DFE8F6",
"P 	c #DCE5F4",
"Q 	c #DAE2F2",
"R 	c #D6E0F1",
"S 	c #D3DDEF",
"T 	c #D2DCEE",
"U 	c #BDCAE1",
"V 	c #F2F7FF",
"W 	c #EBF1FD",
"X 	c #E3EBF9",
"Y 	c #E1E9F7",
"Z 	c #DEE6F5",
"` 	c #DCE4F4",
" .	c #D9E2F2",
"..	c #D7E0F1",
"+.	c #F4F9FF",
"@.	c #EFF6FF",
"#.	c #EDF3FF",
"$.	c #EBF2FD",
"%.	c #E7EEFB",
"&.	c #E4EBF9",
"*.	c #DFE7F5",
"=.	c #DDE6F4",
"-.	c #DBE5F3",
";.	c #FAFDFF",
">.	c #F5FAFF",
",.	c #F1F7FF",
"'.	c #EFF5FF",
").	c #E6EDFB",
"!.	c #E5ECF9",
"~.	c #E0E8F6",
"{.	c #C6D1E6",
"].	c #F8FDFF",
"^.	c #F6FBFF",
"/.	c #F3F8FF",
"(.	c #F1F6FF",
"_.	c #EEF4FF",
":.	c #E9EFFB",
"<.	c #C7D3E7",
"[.	c #FBFFFF",
"}.	c #F9FEFF",
"|.	c #F0F6FF",
"1.	c #E4ECF9",
"2.	c #E0E8F7",
"3.	c #C8D4E8",
"4.	c #F8FEFF",
"5.	c #EDF4FE",
"6.	c #EAF1FD",
"7.	c #E5EDFA",
"8.	c #E2EBF8",
"9.	c #C9D4E8",
"0.	c #E5ECFA",
"a.	c #C9D4E9",
"b.	c #F7FDFF",
"c.	c #ECF3FE",
"d.	c #F1F8FF",
"e.	c #ECF2FE",
"f.	c #C9D5E9",
"g.	c #DAE3EC",
"h.	c #E0E5EC",
"i.	c #DDE4EC",
"j.	c #DCE4EC",
"k.	c #DBE3EC",
"l.	c #D9E1EC",
"m.	c #D8E0EC",
"n.	c #D6DFEC",
"o.	c #D5DEEC",
"p.	c #D2DBEB",
"q.	c #D0DAEA",
"r.	c #CED8E8",
"s.	c #CCD6E7",
"t.	c #CBD5E6",
"u.	c #CAD4E6",
"v.	c #B8C5DB",
"    . + @ @ @ @ @ @ # $ % &                     ",
"    . * = = = = = - ; > , ' )                   ",
"    . ! = = = = = - ~ { ] ^ / (                 ",
"    . ! = = = = = = _ : < [ } | 1               ",
"    . ! = = = = = = ! 2 3 [ 4 5 6 7             ",
"    . ! = = = = = = - 8 9 0 a b c d e           ",
"    . ! = = = = = = - f g h 6 i j k l m         ",
"    . ! = = = = = = = n o p q r s t u m         ",
"    . ! = = = = = = = ! v w x y z A B m         ",
"    . ! = = = = = = C D E F G H I J K m         ",
"    . ! = = = = = L M N O P Q R S T U m         ",
"    . ! = = = = - V W < X Y Z `  ...s m         ",
"    . ! = = = L +.@.#.$.%.&.6 *.=.-.. m         ",
"    . ! = = - ;.>.,.'.9 3 ).!.6 ~.Z {.m         ",
"    . ! = = - ].^./.(._.$.:.).X Y ~.<.m         ",
"    . ! = = [.}.~ +.o |.9 | %.1.6 2.3.m         ",
"    . ! = = [.4.~ +.o |.5.6.N 7.8.6 9.m         ",
"    . ! = - n ].~ +.o |._.W N 0.6 6 a.m         ",
"    . ! = - n ].^.+.V |.> 6.N 0.6 6 3.m         ",
"    . ! = * }.b.>.+.V |.c.p %.1.6 Y a.m         ",
"    . ! = n }.~ >.+.d.|.e.| %.&.6 Y f.m         ",
"    . g.h.i.j.k.l.m.n.o.p.q.r.s.t.u.v.m         ",
"      m m m m m m m m m m m m m m m m           ",
"                                                "};
