/* XPM */
static const char * text_xpm[] = {
"24 24 82 1",
" 	c None",
".	c #C4A000",
"+	c #FFFFFF",
"@	c #F4E2BC",
"#	c #F4D597",
"$	c #888A85",
"%	c #797979",
"&	c #7B7B7B",
"*	c #6E6E6E",
"=	c #6D6D6D",
"-	c #747474",
";	c #8F5902",
">	c #DBDBDB",
",	c #A9A9A9",
"'	c #BBBBBB",
")	c #BABABA",
"!	c #A0A0A0",
"~	c #C0C0C0",
"{	c #A3A3A3",
"]	c #BDBDBD",
"^	c #A7A7A7",
"/	c #777777",
"(	c #EEEAC6",
"_	c #CFAD71",
":	c #F3F3F3",
"<	c #E9E9E9",
"[	c #E7E7E7",
"}	c #EAEAEA",
"|	c #BCBCBC",
"1	c #EFEBC7",
"2	c #D2AC6A",
"3	c #A18355",
"4	c #FDFDFD",
"5	c #ECECEC",
"6	c #D4D4D4",
"7	c #A48757",
"8	c #CCCCCC",
"9	c #B7B7B7",
"0	c #CFAA69",
"a	c #9B7E51",
"b	c #D3D3D3",
"c	c #CEA668",
"d	c #9F8254",
"e	c #EEE8C6",
"f	c #CDAB6F",
"g	c #A28556",
"h	c #EDE6C5",
"i	c #CBA165",
"j	c #A28555",
"k	c #B2B2B2",
"l	c #EBEBEB",
"m	c #EDE5C4",
"n	c #C89F64",
"o	c #9F8154",
"p	c #9F9F9F",
"q	c #CBCBCB",
"r	c #757575",
"s	c #705B39",
"t	c #C2AB8A",
"u	c #A38555",
"v	c #B8B8B8",
"w	c #BEBEBE",
"x	c #9C9C9C",
"y	c #4C4226",
"z	c #6B5736",
"A	c #ADADAD",
"B	c #ACACAC",
"C	c #B9B9B9",
"D	c #949494",
"E	c #C4C4C4",
"F	c #000000",
"G	c #545454",
"H	c #7E7E7E",
"I	c #BFBFBF",
"J	c #D1D1D1",
"K	c #CACACA",
"L	c #929292",
"M	c #E6E6E6",
"N	c #AAAAAA",
"O	c #B1B1B1",
"P	c #EEEEEE",
"Q	c #7B7C78",
"                        ",
"    . . . . . . .       ",
"   .+.+.+.+.+.+.+.      ",
"   .@.#.#.#.#.#.#.      ",
"  $%.&.&.&.*.*.=.-$;;   ",
"  $>,',)!),~!){]^/;(_;  ",
"  $:<<[}<}<<[<[[|;123;  ",
"  $4555555555556;127;   ",
"  $+55888888889;(0a;    ",
"  $+555555555b;(cd;     ",
"  $+558888889;ec7;$     ",
"  $+5555555b;efg;!$     ",
"  $+5588889;hij;6k$     ",
"  $+55555l;mno;66p$     ",
"  $+5588qrstu;vw]x$     ",
"  $+5555<;yz;AABCD$     ",
"  $+558qEF;GHIIJKL$     ",
"  $+555l}}<<M<<}MN$     ",
"  $+555555555555lO$     ",
"  $Pkkkkkkkkkkkkkk$     ",
"  Q$$$$$$$$$$$$$$$Q     ",
"                        ",
"                        ",
"                        "};
