/* XPM */
static char * transit_xpm[] = {
"24 24 322 2",
"  	c None",
". 	c #85C247",
"+ 	c #86C147",
"@ 	c #76B936",
"# 	c #6D9F4A",
"$ 	c #749569",
"% 	c #80967B",
"& 	c #81987D",
"* 	c #729465",
"= 	c #6EA348",
"- 	c #5CA421",
"; 	c #528145",
"> 	c #A9B1AB",
", 	c #ECEBEC",
"' 	c #D0D7E8",
") 	c #E4E6EE",
"! 	c #E9E7E8",
"~ 	c #94A198",
"{ 	c #558742",
"] 	c #69B424",
"^ 	c #438351",
"/ 	c #448124",
"( 	c #B3BAB8",
"_ 	c #FBF9FB",
": 	c #F3F3F1",
"< 	c #B0BEDE",
"[ 	c #D0D6E6",
"} 	c #F5F4F3",
"| 	c #FFFBFF",
"1 	c #9AA59F",
"2 	c #3A7A23",
"3 	c #8EA6DB",
"4 	c #B1C1E5",
"5 	c #CCD6EE",
"6 	c #D7E0EE",
"7 	c #418434",
"8 	c #6A8A6A",
"9 	c #EFE3E8",
"0 	c #EBEDED",
"a 	c #EBEFEF",
"b 	c #ACB8D7",
"c 	c #CACEDD",
"d 	c #E8E8E7",
"e 	c #E7E8E7",
"f 	c #F8F2F8",
"g 	c #648763",
"h 	c #297608",
"i 	c #5384CF",
"j 	c #E2EDF7",
"k 	c #F8F9FC",
"l 	c #F4F5FA",
"m 	c #F6F6FC",
"n 	c #D7E4D0",
"o 	c #1A6314",
"p 	c #C4CCC7",
"q 	c #CBA7A9",
"r 	c #AF6C6C",
"s 	c #D7BDBC",
"t 	c #B5BFDE",
"u 	c #D0D5E4",
"v 	c #E8E8E6",
"w 	c #DFE0E0",
"x 	c #E9E7E9",
"y 	c #B8C4B8",
"z 	c #1F670D",
"A 	c #5585D1",
"B 	c #EEF7FB",
"C 	c #F3F7FB",
"D 	c #E0E5F4",
"E 	c #DCE0F0",
"F 	c #E1E2F4",
"G 	c #BBCEBE",
"H 	c #1B6212",
"I 	c #B6B6B7",
"J 	c #DBE0E1",
"K 	c #EBF1F1",
"L 	c #C89493",
"M 	c #705259",
"N 	c #BDBEBF",
"O 	c #FDFDFD",
"P 	c #F1F1F1",
"Q 	c #D2D1D1",
"R 	c #A2A9A2",
"S 	c #276B1B",
"T 	c #1D4FB8",
"U 	c #90A1D8",
"V 	c #DBE2F3",
"W 	c #C8CCE9",
"X 	c #CFD3EC",
"Y 	c #C8CBE9",
"Z 	c #DADEF2",
"` 	c #CCDDCF",
" .	c #135911",
"..	c #C9D0CA",
"+.	c #F6F3F6",
"@.	c #FDFCF8",
"#.	c #D7E6F8",
"$.	c #90ABD1",
"%.	c #F1F0EE",
"&.	c #F8F8F8",
"*.	c #F5F6F5",
"=.	c #F4F2F4",
"-.	c #BBC7BB",
";.	c #165E0E",
">.	c #6797D8",
",.	c #A8AEDC",
"'.	c #B5BAE1",
").	c #B3B9E0",
"!.	c #B5BBE1",
"~.	c #D4DCF0",
"{.	c #D1D8EF",
"].	c #E8F1F4",
"^.	c #246523",
"/.	c #86A685",
"(.	c #FFFFFF",
"_.	c #FAF8F7",
":.	c #7A96CE",
"<.	c #EDF0F5",
"[.	c #FBFBFA",
"}.	c #F9F9F9",
"|.	c #7DA07D",
"1.	c #0A5303",
"2.	c #306EC8",
"3.	c #5C7ACB",
"4.	c #9FA9DA",
"5.	c #A0A8DA",
"6.	c #9FAADB",
"7.	c #9DABDC",
"8.	c #C8D3EC",
"9.	c #F0FAFC",
"0.	c #FDFFFF",
"a.	c #8BAE91",
"b.	c #2C692B",
"c.	c #DEE7DE",
"d.	c #F8F8F9",
"e.	c #F5F4F5",
"f.	c #FEFEFD",
"g.	c #FCFCFC",
"h.	c #FBFBFB",
"i.	c #FEFDFE",
"j.	c #D7E0D7",
"k.	c #306C2E",
"l.	c #2246B2",
"m.	c #2431A6",
"n.	c #7A89CD",
"o.	c #8E9FD7",
"p.	c #8CA0D8",
"q.	c #8FA6DB",
"r.	c #DEEAF7",
"s.	c #D4E0F3",
"t.	c #C6D6F0",
"u.	c #E4EEFB",
"v.	c #5D8B5E",
"w.	c #5E8C5D",
"x.	c #E1E8E0",
"y.	c #EDEBED",
"z.	c #F9F8F9",
"A.	c #FCFBFC",
"B.	c #D7E1D7",
"C.	c #558655",
"D.	c #0E530F",
"E.	c #203CAD",
"F.	c #1D38AC",
"G.	c #4E6BC2",
"H.	c #7D97D5",
"I.	c #7797D6",
"J.	c #A7C0E6",
"K.	c #EDF6FB",
"L.	c #ECF5FB",
"M.	c #E9F3FB",
"N.	c #D2DCE3",
"O.	c #6A8F6C",
"P.	c #53854C",
"Q.	c #9FBB9A",
"R.	c #C6D6C1",
"S.	c #C6D7C3",
"T.	c #9AB894",
"U.	c #467D41",
"V.	c #3C63C0",
"W.	c #2045B3",
"X.	c #2353BB",
"Y.	c #5B87D1",
"Z.	c #6694D6",
"`.	c #CADEF2",
" +	c #F0F8FC",
".+	c #EEF7FC",
"++	c #F1F9FC",
"@+	c #CDDDEC",
"#+	c #C1CFE5",
"$+	c #456F97",
"%+	c #41715E",
"&+	c #2A5E47",
"*+	c #2D6247",
"=+	c #386757",
"-+	c #09305F",
";+	c #8AB9E5",
">+	c #769DD9",
",+	c #2661C2",
"'+	c #2267C6",
")+	c #4085D4",
"!+	c #75ACE3",
"~+	c #ADD1F0",
"{+	c #C8E1F5",
"]+	c #F2F9FC",
"^+	c #EDF7FB",
"/+	c #E8F3FA",
"(+	c #76A6DA",
"_+	c #447DCA",
":+	c #4876C4",
"<+	c #3459AD",
"[+	c #4462AB",
"}+	c #657CB2",
"|+	c #1D4699",
"1+	c #7EB8E7",
"2+	c #C4E1F4",
"3+	c #B5D5F0",
"4+	c #4F91D9",
"5+	c #227CD4",
"6+	c #2B8ADA",
"7+	c #3B94DD",
"8+	c #64AAE4",
"9+	c #E8F4FB",
"0+	c #F7FCFD",
"a+	c #9DCAEE",
"b+	c #2282D7",
"c+	c #257BD0",
"d+	c #216BC4",
"e+	c #1F5BB6",
"f+	c #2551AB",
"g+	c #6D8ABC",
"h+	c #4798DD",
"i+	c #C7E2F5",
"j+	c #BDDBF3",
"k+	c #368AD9",
"l+	c #2A8BDA",
"m+	c #4398DF",
"n+	c #52A1E1",
"o+	c #6AAEE5",
"p+	c #E3F1FA",
"q+	c #9BC8ED",
"r+	c #57A5E2",
"s+	c #2687D8",
"t+	c #267BD3",
"u+	c #216AC8",
"v+	c #3267BF",
"w+	c #2B58B3",
"x+	c #91C6EC",
"y+	c #7AADE5",
"z+	c #2686D8",
"A+	c #449ADF",
"B+	c #5FA8E3",
"C+	c #73B4E7",
"D+	c #83BCE9",
"E+	c #D7EAF7",
"F+	c #C6E0F5",
"G+	c #77B3E7",
"H+	c #3491DD",
"I+	c #2381D5",
"J+	c #2E7BD1",
"K+	c #4E81D0",
"L+	c #2475CF",
"M+	c #3680C0",
"N+	c #56A0E3",
"O+	c #54A2E1",
"P+	c #51A1E1",
"Q+	c #74B4E7",
"R+	c #90C3EC",
"S+	c #A2CDEF",
"T+	c #9FCAEE",
"U+	c #95C5ED",
"V+	c #65ABE4",
"W+	c #4399DF",
"X+	c #2F8CDA",
"Y+	c #5C9BDD",
"Z+	c #3586DB",
"`+	c #3D8AC3",
" @	c #7DBAE9",
".@	c #89BFEB",
"+@	c #88BFEB",
"@@	c #A4CFEF",
"#@	c #BFDEF3",
"$@	c #C8E3F5",
"%@	c #B4D7F2",
"&@	c #93C5EC",
"*@	c #67ADE5",
"=@	c #75B4E8",
"-@	c #4C9BE0",
";@	c #2F5C80",
">@	c #4A88B4",
",@	c #89C3EF",
"'@	c #B7DCF5",
")@	c #C9E2F5",
"!@	c #DBECF8",
"~@	c #CBE4F6",
"{@	c #B6D7F2",
"]@	c #AAD2F0",
"^@	c #8FC8F0",
"/@	c #549ED6",
"(@	c #315E82",
"_@	c #323131",
":@	c #3F5A70",
"<@	c #699FC9",
"[@	c #A4D3F3",
"}@	c #CBEAFA",
"|@	c #D6EFFB",
"1@	c #CAE9F9",
"2@	c #A8D7F5",
"3@	c #76B4E4",
"4@	c #47779D",
"5@	c #343E47",
"6@	c #33302D",
"7@	c #332E2B",
"8@	c #2D2A26",
"9@	c #30404E",
"0@	c #3F5F7A",
"a@	c #486E8D",
"b@	c #446885",
"c@	c #365166",
"d@	c #2F3236",
"e@	c #322924",
"f@	c #333231",
"g@	c #343434",
"                                . +             ",
"                          @ # $ % & * =         ",
"                        - ; > , ' ) ! ~ { ]     ",
"                      ^ / ( _ : < [ } | 1 2     ",
"              3 4 5 6 7 8 9 0 a b c d e f g h   ",
"          i j k l m n o p q r s t u v w x y z   ",
"        A B C D E F G H I J K L M N O P Q R S   ",
"      T U V W X Y Z `  ...+.@.#.$.%.&.*.=.-.;.  ",
"      >.,.'.).!.~.{.].^./.(._.:.<.[.}.*.(.|.1.  ",
"    2.3.4.5.6.7.8.9.0.a.b.c.d.e.f.g.h.i.j.k.    ",
"    l.m.n.o.p.q.r.s.t.u.v.w.x.(.y.z.A.B.C.D.    ",
"    E.F.G.H.I.J.K.B L.M.N.O.P.Q.R.S.T.U.        ",
"    V.W.X.Y.Z.`. +.+K.++@+#+$+%+&+*+=+-+        ",
"    ;+>+,+'+)+!+~+{+]+^+/+(+_+:+<+[+}+|+        ",
"    1+2+3+4+5+6+7+8+9+0+a+b+c+d+e+f+g+          ",
"    h+i+j+k+l+m+n+o+p+++q+r+s+t+u+v+w+          ",
"      x+y+z+A+B+C+D+E+F+G+o+H+I+J+K+L+          ",
"      M+N+O+P+Q+R+S+T+U+D+V+W+X+Y+Z+            ",
"        `+ @.@+@@@#@$@%@&@Q+*@=@-@;@            ",
"          >@,@'@)@!@p+~@{@]@^@/@(@              ",
"          _@:@<@[@}@|@1@2@3@4@5@6@              ",
"            7@8@9@0@a@b@c@d@e@f@g@              ",
"                                                ",
"                                                "};
