/* XPM */
static char * uranian_xpm[] = {
"24 24 262 2",
"  	c None",
". 	c #A9ABB1",
"+ 	c #BBBBC1",
"@ 	c #BABBC0",
"# 	c #C5C5CB",
"$ 	c #C4C5CA",
"% 	c #C0C1C6",
"& 	c #AFB0B5",
"* 	c #BEC0C5",
"= 	c #C0C1C4",
"- 	c #BEBFC2",
"; 	c #BFC0C3",
"> 	c #D0D2D6",
", 	c #CFD1D5",
"' 	c #CFD1D4",
") 	c #D0D1D5",
"! 	c #D0D2D5",
"~ 	c #C7C8CC",
"{ 	c #BBBDC0",
"] 	c #B1B4BF",
"^ 	c #B4B8C4",
"/ 	c #B7BBC6",
"( 	c #B8BBC7",
"_ 	c #AFB3C0",
": 	c #B4B8C3",
"< 	c #B7BAC5",
"[ 	c #B7BBC5",
"} 	c #B0B4C0",
"| 	c #B5B8C3",
"1 	c #B5B8C4",
"2 	c #B1B5C1",
"3 	c #B8BBC6",
"4 	c #B6B9C4",
"5 	c #BEC1CC",
"6 	c #E4E6EB",
"7 	c #EEEFF2",
"8 	c #FCFCFC",
"9 	c #CDD0D7",
"0 	c #E6E8EC",
"a 	c #F1F2F4",
"b 	c #F7F7F8",
"c 	c #D8D9E0",
"d 	c #E7E8EC",
"e 	c #F2F3F5",
"f 	c #F3F4F7",
"g 	c #DEE0E7",
"h 	c #ECEEF3",
"i 	c #FAFAFD",
"j 	c #FBFCFD",
"k 	c #D2D4DD",
"l 	c #E8EAED",
"m 	c #F3F4F6",
"n 	c #F0F0F3",
"o 	c #C1C4CF",
"p 	c #E6E7ED",
"q 	c #EEEFF3",
"r 	c #FCFCFE",
"s 	c #CDCFD7",
"t 	c #E8E9EE",
"u 	c #F6F6F7",
"v 	c #D8DAE0",
"w 	c #E9EBEF",
"x 	c #EFF0F2",
"y 	c #A2A2A4",
"z 	c #78797A",
"A 	c #777778",
"B 	c #7A7A7A",
"C 	c #8E8E8E",
"D 	c #AAACB2",
"E 	c #F1F2F6",
"F 	c #F4F4F6",
"G 	c #EFF0F1",
"H 	c #BDBABD",
"I 	c #D7C9C6",
"J 	c #DDCECA",
"K 	c #E2D4CF",
"L 	c #C0BFC6",
"M 	c #D2D5DD",
"N 	c #D9DBE1",
"O 	c #DBDDE3",
"P 	c #C4C8D3",
"Q 	c #A3A5AC",
"R 	c #666768",
"S 	c #AAAAAA",
"T 	c #DBDBDB",
"U 	c #EBEBEB",
"V 	c #E6E6E6",
"W 	c #C4C4C4",
"X 	c #8B8B8B",
"Y 	c #797A7E",
"Z 	c #CFCFD5",
"` 	c #D3D6DD",
" .	c #CCCACA",
"..	c #F6B8BB",
"+.	c #FDACAE",
"@.	c #FDF7FA",
"#.	c #DCD5D1",
"$.	c #EAECF1",
"%.	c #F3F3F6",
"&.	c #F8F8F9",
"*.	c #A1A2A6",
"=.	c #797979",
"-.	c #FFFFFF",
";.	c #EFEFEF",
">.	c #FAFAFA",
",.	c #F3F3F3",
"'.	c #A6A6A6",
").	c #E8E9EA",
"!.	c #C3BFC5",
"~.	c #DDCDCA",
"{.	c #E2D1CE",
"].	c #E5DDD8",
"^.	c #C5C4CC",
"/.	c #D7DAE2",
"(.	c #DDDFE5",
"_.	c #D3D4D8",
":.	c #5F5F60",
"<.	c #DEDEDE",
"[.	c #FEFEFE",
"}.	c #FDFDFD",
"|.	c #F5F5F5",
"1.	c #ECECEB",
"2.	c #8A8A8A",
"3.	c #66686A",
"4.	c #CACFDA",
"5.	c #E7EAF0",
"6.	c #EFF1F5",
"7.	c #FAFBFD",
"8.	c #D3D7DF",
"9.	c #E9EBF0",
"0.	c #F8F9FC",
"a.	c #848486",
"b.	c #959595",
"c.	c #FBFBFB",
"d.	c #F8F8F8",
"e.	c #E5E5E5",
"f.	c #F2F2F2",
"g.	c #EAEAEA",
"h.	c #4E4F50",
"i.	c #CED1DD",
"j.	c #EBECF2",
"k.	c #F2F3F6",
"l.	c #D9DBE3",
"m.	c #FDFDFF",
"n.	c #404040",
"o.	c #C5C5C5",
"p.	c #F9F9F9",
"q.	c #EDEDED",
"r.	c #FBFBFC",
"s.	c #F2F3F3",
"t.	c #DDDFDF",
"u.	c #EEEFEF",
"v.	c #F3ECEC",
"w.	c #FDFBFB",
"x.	c #C9CDDC",
"y.	c #DADDE5",
"z.	c #DFE1E8",
"A.	c #CCD0DD",
"B.	c #DDDFE7",
"C.	c #D7D9DF",
"D.	c #333333",
"E.	c #D7D7D7",
"F.	c #EEEEEE",
"G.	c #F0F0F0",
"H.	c #F4F4F4",
"I.	c #E4E4E4",
"J.	c #D5D4D4",
"K.	c #CDB9B9",
"L.	c #E3CACA",
"M.	c #E8D7D7",
"N.	c #EEEBEB",
"O.	c #9C9C9C",
"P.	c #181818",
"Q.	c #D3D7E3",
"R.	c #EDEEF4",
"S.	c #F2F3F7",
"T.	c #F0F1F6",
"U.	c #E6E8EA",
"V.	c #343433",
"W.	c #CBCBCB",
"X.	c #D1D1D1",
"Y.	c #E0E0E0",
"Z.	c #E9E9E9",
"`.	c #D7D1D1",
" +	c #E4D9D9",
".+	c #F0F2F2",
"++	c #ECEDED",
"@+	c #D9D9D9",
"#+	c #D3D3D3",
"$+	c #9E9E9E",
"%+	c #181819",
"&+	c #D1D6E4",
"*+	c #E3E6ED",
"=+	c #EDEFF3",
"-+	c #D7DBE7",
";+	c #E4E7EE",
">+	c #F0F2F9",
",+	c #363737",
"'+	c #BDBDBD",
")+	c #E7E7E7",
"!+	c #E8E8E8",
"~+	c #E8E9E9",
"{+	c #777777",
"]+	c #D4D9E6",
"^+	c #EAEDF4",
"/+	c #EFF1F7",
"(+	c #F6F7F9",
"_+	c #D9DDE8",
":+	c #ECEEF5",
"<+	c #F8F9FE",
"[+	c #717173",
"}+	c #898988",
"|+	c #414142",
"1+	c #DADEEB",
"2+	c #EFF1F8",
"3+	c #F4F6FA",
"4+	c #E2E5EE",
"5+	c #F1F3F8",
"6+	c #F6F7FB",
"7+	c #DDDEDF",
"8+	c #434343",
"9+	c #E2E2E2",
"0+	c #747474",
"a+	c #555657",
"b+	c #CED4E3",
"c+	c #E0E4EF",
"d+	c #E4E7F1",
"e+	c #E8EAF3",
"f+	c #D8DDEC",
"g+	c #E3E7F1",
"h+	c #E7EAF4",
"i+	c #E3E6EF",
"j+	c #7B7E86",
"k+	c #525252",
"l+	c #BCBCBC",
"m+	c #ECECEC",
"n+	c #838383",
"o+	c #424346",
"p+	c #BCBFC8",
"q+	c #7B7E88",
"r+	c #72757F",
"s+	c #6B6E77",
"t+	c #666870",
"u+	c #575A60",
"v+	c #44464C",
"w+	c #131415",
"x+	c #303030",
"y+	c #707070",
"z+	c #B3B3B3",
"A+	c #C8C8C8",
"B+	c #C3C3C3",
"C+	c #939393",
"D+	c #4D4D4D",
"E+	c #1B1B1B",
"F+	c #3F4045",
"G+	c #000000",
"H+	c #0B0B0B",
"I+	c #191919",
"J+	c #222222",
"K+	c #1E1E1E",
"L+	c #141414",
"M+	c #020202",
"                                                ",
"                                                ",
"                                                ",
"                                                ",
"    . + @ @ # $ $ $ $ $ $ $ $ $ $ $ $ # % &     ",
"    * = - ; > , ' , ) , ' , , , ' , , ! ~ {     ",
"    ] ^ / ( _ : < [ } | < 1 2 1 / 1 } 1 3 4     ",
"    5 6 7 8 9 0 a b c d e f g h i j k l m n     ",
"    o p q r s t a u v w x y z A B C D E F G     ",
"    H I J K L M N O P Q R S T U V W X Y Z `     ",
"     ...+.@.#.$.%.&.*.=.T -.-.;.>.-.,.'.A ).    ",
"    !.~.{.].^./.(._.:.<.[.}.}.|.>.}.}.1.2.3.    ",
"    4.5.6.7.8.9.0.a.b.>.c.>.c.c.c.d.e.f.g.h.    ",
"    i.j.k.j l.h m.n.o.p.d.U q.r.s.t.u.v.w.A     ",
"    x.y.z.6 A.B.C.D.E.F.G.H.I.J.K.L.M.N.G.O.P.  ",
"    Q.R.S.j z.T.U.V.W.X.Y.Z.G.`. +.+++@+#+$+%+  ",
"    &+*+5.=+-+;+>+,+'+Z.)+V V !+~+V V )+;.{+    ",
"    ]+^+/+(+_+:+<+[+}+V V )+V )+)+V V !+<.|+    ",
"    1+2+3+j 4+5+6+7+8+W.!+)+)+9+e.)+)+!+0+a+    ",
"    b+c+d+e+f+g+h+i+j+k+l+m+m+@+I.F.<.n+o+p+    ",
"          q+r+s+t+u+v+w+x+y+z+A+B+C+D+E+F+      ",
"                        G+H+I+J+K+L+M+          ",
"                                                ",
"                                                "};
