/* XPM */
static const char * varga_xpm[] = {
"24 24 274 2",
"  	c None",
". 	c #5699B6",
"+ 	c #5197B4",
"@ 	c #5196B5",
"# 	c #5E9ABA",
"$ 	c #76ACC7",
"% 	c #9BC7DC",
"& 	c #ADD2E3",
"* 	c #B1D6E8",
"= 	c #87CBE4",
"- 	c #51AED4",
"; 	c #4C99B9",
"> 	c #3C7A9F",
", 	c #A3A4BA",
"' 	c #9A9CB1",
") 	c #64A3BE",
"! 	c #76B6D7",
"~ 	c #3AA2DE",
"{ 	c #0C8DE3",
"] 	c #0D92E5",
"^ 	c #0E92E4",
"/ 	c #0E8BDC",
"( 	c #339EDA",
"_ 	c #3FAEDE",
": 	c #3380AC",
"< 	c #5687A9",
"[ 	c #B4BACA",
"} 	c #A7ABBC",
"| 	c #5FA0B9",
"1 	c #5CA4CE",
"2 	c #156FA8",
"3 	c #147FBE",
"4 	c #198BC6",
"5 	c #17AAF4",
"6 	c #1AAAF5",
"7 	c #2590CF",
"8 	c #2A97CF",
"9 	c #3392BE",
"0 	c #26A0DF",
"a 	c #2880B4",
"b 	c #84ADC5",
"c 	c #CFD4DE",
"d 	c #A2A5B7",
"e 	c #4796BD",
"f 	c #0D93E1",
"g 	c #3B3B3B",
"h 	c #444444",
"i 	c #4D4D4D",
"j 	c #4DB3DC",
"k 	c #53B6E1",
"l 	c #6A6A6A",
"m 	c #737373",
"n 	c #7C7C7C",
"o 	c #3CB4E8",
"p 	c #2B98D2",
"q 	c #3783AE",
"r 	c #C3D1DC",
"s 	c #CFD0DC",
"t 	c #A4A7B8",
"u 	c #619EBE",
"v 	c #1C89CC",
"w 	c #08A2F4",
"x 	c #454545",
"y 	c #4F717C",
"z 	c #63ADC9",
"A 	c #77D2F4",
"B 	c #7ED5F6",
"C 	c #8CBFD2",
"D 	c #869AA1",
"E 	c #858585",
"F 	c #81DDFD",
"G 	c #5DBDE6",
"H 	c #387EA5",
"I 	c #7990AA",
"J 	c #A3A7BC",
"K 	c #8589A3",
"L 	c #4B95BB",
"M 	c #0795E3",
"N 	c #15B2FD",
"O 	c #4F5759",
"P 	c #618E9F",
"Q 	c #82DEFF",
"R 	c #99E5FF",
"S 	c #A6E7FF",
"T 	c #B6EBFF",
"U 	c #9FB5BD",
"V 	c #939596",
"W 	c #C5F1FE",
"X 	c #A5DDF2",
"Y 	c #5796B6",
"Z 	c #527494",
"` 	c #979AB1",
" .	c #8186A1",
"..	c #388FBC",
"+.	c #04A3F5",
"@.	c #21BAFF",
"#.	c #59D1FF",
"$.	c #74DBFF",
"%.	c #93E3FF",
"&.	c #ACEAFF",
"*.	c #BCEDFF",
"=.	c #CAF0FE",
"-.	c #D0F2FE",
";.	c #DEF7FE",
">.	c #E0F6FC",
",.	c #D1F0FA",
"'.	c #61A5CB",
").	c #426E94",
"!.	c #B6B8C8",
"~.	c #989CB2",
"{.	c #585C72",
"].	c #388EBD",
"^.	c #08A5F7",
"/.	c #26B9FF",
"(.	c #65A3BD",
"_.	c #8DC4D9",
":.	c #BAEDFF",
"<.	c #DAF6FF",
"[.	c #F1FBFE",
"}.	c #FAFBFB",
"|.	c #E3E3E3",
"1.	c #CFD6D7",
"2.	c #EBF8FB",
"3.	c #D6F1F9",
"4.	c #669EBC",
"5.	c #4A6E90",
"6.	c #BEC1D0",
"7.	c #A2A6B9",
"8.	c #585B72",
"9.	c #2A7DAB",
"0.	c #05A0F2",
"a.	c #29B7FF",
"b.	c #6C6C6C",
"c.	c #89A1AA",
"d.	c #C0EEFF",
"e.	c #E0F7FF",
"f.	c #F5FBFE",
"g.	c #FDFDFD",
"h.	c #C9C9C9",
"i.	c #ACACAC",
"j.	c #F0F9FB",
"k.	c #C8E8F0",
"l.	c #6F909D",
"m.	c #647890",
"n.	c #BDC0CE",
"o.	c #A3A7B9",
"p.	c #1D638D",
"q.	c #0E91E1",
"r.	c #2BB6FD",
"s.	c #757575",
"t.	c #828688",
"u.	c #949C9F",
"v.	c #D9E8EC",
"w.	c #E9EDEE",
"x.	c #B6B6B6",
"y.	c #B4B4B4",
"z.	c #E8F5F9",
"A.	c #9AC8D8",
"B.	c #536E79",
"C.	c #7E8696",
"D.	c #BEC1CF",
"E.	c #A2A6B8",
"F.	c #156CA3",
"G.	c #26B2F4",
"H.	c #7D9097",
"I.	c #929B9E",
"J.	c #9EA3A5",
"K.	c #DBE8EE",
"L.	c #E7EEF0",
"M.	c #BBBCBC",
"N.	c #C3C3C3",
"O.	c #C6C9CA",
"P.	c #B9DBE6",
"Q.	c #6E8C97",
"R.	c #545454",
"S.	c #8F919E",
"T.	c #A0A4B8",
"U.	c #2188BF",
"V.	c #69D0F6",
"W.	c #B7EBFF",
"X.	c #D7F3FF",
"Y.	c #E5F8FE",
"Z.	c #EEFBFE",
"`.	c #F3FBFC",
" +	c #EDF6F9",
".+	c #C8E2ED",
"++	c #7593A2",
"@+	c #686D71",
"#+	c #939393",
"$+	c #848484",
"%+	c #A1A4AF",
"&+	c #9EA1B5",
"*+	c #585B71",
"=+	c #4790B3",
"-+	c #77BFDD",
";+	c #B3E6F9",
">+	c #DAF1FB",
",+	c #DAEFF7",
"'+	c #CAE5F1",
")+	c #9AC0D2",
"!+	c #658DA2",
"~+	c #3E454A",
"{+	c #525253",
"]+	c #848485",
"^+	c #ACACAD",
"/+	c #858687",
"(+	c #808392",
"_+	c #565A6F",
":+	c #8595AD",
"<+	c #7597B5",
"[+	c #678FAB",
"}+	c #6889A6",
"|+	c #5F839F",
"1+	c #5D849F",
"2+	c #567A96",
"3+	c #657992",
"4+	c #6C6E7C",
"5+	c #393939",
"6+	c #838384",
"7+	c #B0B0B0",
"8+	c #7F7F82",
"9+	c #54555A",
"0+	c #B5B7C8",
"a+	c #B8BCCB",
"b+	c #ABB0C2",
"c+	c #A5A9BE",
"d+	c #A1A7BC",
"e+	c #A1A7BA",
"f+	c #A2A7BA",
"g+	c #A6A9BD",
"h+	c #A2A5B8",
"i+	c #70717F",
"j+	c #3D3D3E",
"k+	c #4D4D4E",
"l+	c #878788",
"m+	c #818181",
"n+	c #C4C8D4",
"o+	c #CFD3DC",
"p+	c #CACDD8",
"q+	c #C5C8D5",
"r+	c #C2C4D1",
"s+	c #BFC2CF",
"t+	c #BABDCC",
"u+	c #B2B4C6",
"v+	c #A1A3B9",
"w+	c #676977",
"x+	c #3D3D3F",
"y+	c #A8A8A9",
"z+	c #828282",
"A+	c #BFC3CF",
"B+	c #B8BBCA",
"C+	c #B3B6C6",
"D+	c #ADB1C3",
"E+	c #A5A9BC",
"F+	c #9DA3B7",
"G+	c #999EB3",
"H+	c #9599AF",
"I+	c #9195AC",
"J+	c #8A8EA5",
"K+	c #7D819A",
"L+	c #505362",
"M+	c #3A3A3A",
"N+	c #545455",
"O+	c #888889",
"P+	c #ABABAB",
"Q+	c #7E7E7E",
"R+	c #242424",
"S+	c #A7A7A8",
"T+	c #636363",
"U+	c #202020",
"V+	c #505051",
"W+	c #5A5A5A",
"X+	c #212121",
"Y+	c #333334",
"                                                ",
"                                                ",
"              . + + @                           ",
"          # $ % & * = - ; > , '                 ",
"        ) ! ~ { ] ^ / ( _ : < [ }               ",
"      | 1 2 3 4 5 6 7 8 9 0 a b c d             ",
"      e f g h i j k l m n o p q r s t           ",
"    u v w x y z A B C D E F G H I J K           ",
"    L M N O P Q R S T U V W X Y Z `  .          ",
"    ..+.@.#.$.%.&.*.=.-.;.>.,.'.).!.~.{.        ",
"    ].^./.(._.:.<.[.}.|.1.2.3.4.5.6.7.8.        ",
"    9.0.a.b.c.d.e.f.g.h.i.j.k.l.m.n.o.8.        ",
"    p.q.r.s.t.u.v.w.x.y.x.z.A.B.C.D.E.8.        ",
"      F.G.H.I.J.K.L.M.N.O.P.Q.R.S.n.T.8.        ",
"        U.V.W.X.Y.Z.`. +.+++@+#+$+%+&+*+        ",
"          =+-+;+>+,+'+)+!+~+{+]+^+/+(+_+        ",
"          :+<+[+}+|+1+2+3+4+5+{+6+7+8+9+        ",
"          0+a+b+c+d+e+f+g+h+i+j+k+l+^+m+        ",
"          n+o+p+q+r+s+n.t+u+v+w+x+{+l+y+z+      ",
"          A+B+C+D+E+F+G+H+I+J+K+L+M+N+O+P+Q+    ",
"                                  R+M+N+l+S+T+  ",
"                                    U+M+V+m W+  ",
"                                      X+Y+k+    ",
"                                                "};
