/* XPM */
static const char * wchart_xpm[] = {
"24 24 334 2",
"  	c None",
". 	c #C1AD8F",
"+ 	c #D7B06F",
"@ 	c #DCAD64",
"# 	c #DBAF64",
"$ 	c #C8AC7C",
"% 	c #C4B398",
"& 	c #C7A265",
"* 	c #D7BA92",
"= 	c #E3C9A2",
"- 	c #EDD8CC",
"; 	c #F0E8E3",
"> 	c #F1E9E5",
", 	c #EDEAE8",
"' 	c #EEDBD0",
") 	c #E5C9A5",
"! 	c #D1A766",
"~ 	c #BE9756",
"{ 	c #B79757",
"] 	c #D8A757",
"^ 	c #E6C9AF",
"/ 	c #ECE4DC",
"( 	c #F1E0D5",
"_ 	c #EED6BC",
": 	c #EFD6BB",
"< 	c #EFD1B3",
"[ 	c #E9CBA5",
"} 	c #E9CBA6",
"| 	c #ECE5DE",
"1 	c #EBDFD4",
"2 	c #DFB982",
"3 	c #C69135",
"4 	c #CB992D",
"5 	c #D4AE67",
"6 	c #EED8BD",
"7 	c #ECDECC",
"8 	c #ECCDA9",
"9 	c #EDD4BC",
"0 	c #F2E5DE",
"a 	c #ECECEC",
"b 	c #EDE9E5",
"c 	c #ECD3B4",
"d 	c #DFB471",
"e 	c #EDCFB2",
"f 	c #E0B676",
"g 	c #C49027",
"h 	c #C3922E",
"i 	c #D09D42",
"j 	c #DFC99A",
"k 	c #E9DEC1",
"l 	c #E9C89A",
"m 	c #EAE0D2",
"n 	c #E7DBC9",
"o 	c #DAAB63",
"p 	c #EAD0B0",
"q 	c #EDDECE",
"r 	c #CB932B",
"s 	c #C28E2B",
"t 	c #AB8D51",
"u 	c #BD9E55",
"v 	c #DDBD7E",
"w 	c #E3E4BE",
"x 	c #E3BD7C",
"y 	c #EBE3D8",
"z 	c #DEC9B3",
"A 	c #D9AB6A",
"B 	c #EAE0D3",
"C 	c #DBAD5A",
"D 	c #C49226",
"E 	c #BF9434",
"F 	c #D0983B",
"G 	c #E1F0C3",
"H 	c #E1C57C",
"I 	c #ECD1B4",
"J 	c #EBE3D9",
"K 	c #D8AE64",
"L 	c #E3D2AE",
"M 	c #E3CD9E",
"N 	c #BC9424",
"O 	c #C39426",
"P 	c #999179",
"Q 	c #BA9A43",
"R 	c #DBC077",
"S 	c #D4DF9E",
"T 	c #D3B666",
"U 	c #E9E2D5",
"V 	c #F0E0D6",
"W 	c #D6B272",
"X 	c #DCC07E",
"Y 	c #DFD3B6",
"Z 	c #AF9023",
"` 	c #BC9724",
" .	c #91824D",
"..	c #BFA761",
"+.	c #D9DB9A",
"@.	c #DAC06A",
"#.	c #D4BC83",
"$.	c #ECEBE8",
"%.	c #F2E8E3",
"&.	c #F2D4C3",
"*.	c #DBB780",
"=.	c #D8BD75",
"-.	c #DAD3BB",
";.	c #A38B24",
">.	c #AC9122",
",.	c #94843A",
"'.	c #B9A75D",
").	c #D2E4A3",
"!.	c #D3AD44",
"~.	c #E2CDA1",
"{.	c #EDECEB",
"].	c #EEEBE9",
"^.	c #EFEAE8",
"/.	c #EEEAE7",
"(.	c #EEE9E5",
"_.	c #EEE7E2",
":.	c #F0DED4",
"<.	c #F1CEBB",
"[.	c #EFC7B2",
"}.	c #D0B17B",
"|.	c #CFC384",
"1.	c #D9CFA5",
"2.	c #91841C",
"3.	c #9B8B1E",
"4.	c #897F33",
"5.	c #B4AA5F",
"6.	c #D3E6A0",
"7.	c #B8A84A",
"8.	c #DCD1AE",
"9.	c #EDEBEA",
"0.	c #F3E7E0",
"a.	c #F5E3D9",
"b.	c #F5DFD3",
"c.	c #F4DCCF",
"d.	c #F3D6C7",
"e.	c #F2D0BE",
"f.	c #F0CAB6",
"g.	c #EEC6AE",
"h.	c #ECC1A5",
"i.	c #C0A768",
"j.	c #D2D5AB",
"k.	c #BEBE7A",
"l.	c #817F19",
"m.	c #90871B",
"n.	c #7B793F",
"o.	c #AAA45C",
"p.	c #D3E39F",
"q.	c #A8A146",
"r.	c #CDC7A0",
"s.	c #F1EAE6",
"t.	c #F4E5DC",
"u.	c #F5DFD4",
"v.	c #F4DBCE",
"w.	c #F3D5C6",
"x.	c #F1D0BF",
"y.	c #F0CBB8",
"z.	c #EFC8B1",
"A.	c #EDC4AB",
"B.	c #ECC1A3",
"C.	c #E3B893",
"D.	c #B3A85D",
"E.	c #D8DCC6",
"F.	c #8C8F3D",
"G.	c #717617",
"H.	c #83831A",
"I.	c #797B5F",
"J.	c #989759",
"K.	c #CCDA99",
"L.	c #ADB35C",
"M.	c #B7AE7A",
"N.	c #F4E4D8",
"O.	c #F4DCCE",
"P.	c #F4D8C8",
"Q.	c #F2D3C3",
"R.	c #F0CAB4",
"S.	c #EEC5AC",
"T.	c #EBBD9E",
"U.	c #EBBA9C",
"V.	c #C7A86A",
"W.	c #B8BB80",
"X.	c #D7DEAA",
"Y.	c #5E6914",
"Z.	c #646E15",
"`.	c #687119",
" +	c #949690",
".+	c #84894B",
"++	c #B7C377",
"@+	c #C4D795",
"#+	c #A1A158",
"$+	c #E5D4BD",
"%+	c #F1CFBE",
"&+	c #F0CCB8",
"*+	c #EEC6AF",
"=+	c #EDC3A9",
"-+	c #ECBEA1",
";+	c #EBBC9B",
">+	c #EAB797",
",+	c #E0B285",
"'+	c #B9B871",
")+	c #D2DDB6",
"!+	c #979E58",
"~+	c #556413",
"{+	c #5E6A14",
"]+	c #636B36",
"^+	c #6A7448",
"/+	c #889042",
"(+	c #D8EDB5",
"_+	c #B0BC74",
":+	c #B7AE6F",
"<+	c #F2D2C1",
"[+	c #EFC8B2",
"}+	c #EDC0A4",
"|+	c #EBBE9E",
"1+	c #EABB98",
"2+	c #E9B692",
"3+	c #E3B284",
"4+	c #CFBF77",
"5+	c #D6E9B7",
"6+	c #B8C382",
"7+	c #636F1F",
"8+	c #5A6713",
"9+	c #5C691C",
"0+	c #677431",
"a+	c #ADB96B",
"b+	c #D8EDB4",
"c+	c #B9C67E",
"d+	c #C0B270",
"e+	c #E6BF9D",
"f+	c #EABA98",
"g+	c #E9B892",
"h+	c #E8B68E",
"i+	c #E3BD86",
"j+	c #DBD794",
"k+	c #D9EEB6",
"l+	c #ABB66E",
"m+	c #59651B",
"n+	c #4F5D14",
"o+	c #5C691A",
"p+	c #797F5C",
"q+	c #6D774B",
"r+	c #6F7B24",
"s+	c #AFBD74",
"t+	c #D6EBB1",
"u+	c #C9D591",
"v+	c #D3D08C",
"w+	c #E3D094",
"x+	c #E9CF94",
"y+	c #E8CF95",
"z+	c #E4D69A",
"A+	c #DBE4A4",
"B+	c #D2E6A8",
"C+	c #AFBC70",
"D+	c #515B1B",
"E+	c #2B3C35",
"F+	c #434E56",
"G+	c #576341",
"H+	c #7C7F75",
"I+	c #656F2F",
"J+	c #677420",
"K+	c #929D51",
"L+	c #CFE0A0",
"M+	c #D9EEB1",
"N+	c #D9EEB2",
"O+	c #DCEEB3",
"P+	c #DBEEB2",
"Q+	c #D9EDAA",
"R+	c #B7C57C",
"S+	c #839042",
"T+	c #61701B",
"U+	c #3C4818",
"V+	c #2C3E5B",
"W+	c #585CA9",
"X+	c #676AA0",
"Y+	c #60687A",
"Z+	c #989B9C",
"`+	c #6A743C",
" @	c #5B691C",
".@	c #5F6B16",
"+@	c #757D2B",
"@@	c #848F3F",
"#@	c #8A9342",
"$@	c #7B8434",
"%@	c #676F1A",
"&@	c #546313",
"*@	c #566513",
"=@	c #5B6813",
"-@	c #626E24",
";@	c #556045",
">@	c #33416A",
",@	c #4A5097",
"'@	c #6264B0",
")@	c #575F90",
"!@	c #616976",
"~@	c #687437",
"{@	c #6B7641",
"]@	c #5A6821",
"^@	c #566614",
"/@	c #576514",
"(@	c #5A6714",
"_@	c #5D6A14",
":@	c #5D691B",
"<@	c #6F7744",
"[@	c #6D7452",
"}@	c #9F9F9E",
"|@	c #5A646E",
"1@	c #273669",
"2@	c #363F82",
"3@	c #4C519A",
"4@	c #3E4E6B",
"5@	c #445560",
"6@	c #83898B",
"7@	c #707853",
"8@	c #667043",
"9@	c #5D682E",
"0@	c #5E682D",
"a@	c #626A39",
"b@	c #727A57",
"c@	c #7D8363",
"d@	c #2D3F52",
"e@	c #233460",
"f@	c #25355D",
"g@	c #283570",
"h@	c #253564",
"i@	c #6D7379",
"j@	c #81878A",
"k@	c #253944",
"l@	c #1F3252",
"m@	c #243467",
"n@	c #283A54",
"o@	c #868B8F",
"p@	c #3C4B52",
"q@	c #1F3447",
"r@	c #243847",
"s@	c #414F55",
"                  . + @ # $ %                   ",
"            & * = - ; > , ' ) ! ~ {             ",
"          ] ^ / ( _ : < [ } | 1 2 3 4           ",
"        5 6 7 8 9 0 a a b c d e , f g h         ",
"      i j k l m a a a a a a n o p q r s t       ",
"    u v w x y a a a a a a a a z A B C D E       ",
"    F G H I a a a a a a a a a J K L M N O P     ",
"  Q R S T U a a a a a a a a a V W X Y Z `  .    ",
"  ..+.@.#.$.a a a a a a a a %.&.*.=.-.;.>.,.    ",
"  '.).!.~.a a {.].^./.(._.:.<.[.}.|.1.2.3.4.    ",
"  5.6.7.8.a 9.0.a.b.c.d.e.f.g.h.i.j.k.l.m.n.    ",
"  o.p.q.r.s.t.u.v.w.x.y.z.A.B.C.D.E.F.G.H.I.    ",
"  J.K.L.M.N.O.P.Q.<.R.S.h.T.U.V.W.X.Y.Z.`. +    ",
"  .+++@+#+$+w.%+&+*+=+-+;+>+,+'+)+!+~+{+]+      ",
"  ^+/+(+_+:+<+[+S.}+|+1+2+3+4+5+6+7+8+9+        ",
"    0+a+b+c+d+e+|+f+g+h+i+j+k+l+m+n+o+p+        ",
"    q+r+s+t+u+v+w+x+y+z+A+B+C+D+E+F+G+H+        ",
"      I+J+K+L+M+N+O+P+Q+R+S+T+U+V+W+X+Y+Z+      ",
"        `+ @.@+@@@#@$@%@&@*@=@-@;@>@,@'@)@!@    ",
"          ~@{@]@^@/@/@(@_@:@<@[@}@|@1@2@3@4@5@6@",
"              7@8@9@0@a@b@c@        d@e@f@g@h@i@",
"                                    j@k@l@m@n@o@",
"                                      p@q@r@s@  ",
"                                                "};
