/* XPM */
static const char * world_xpm[] = {
"24 24 374 2",
"  	c None",
". 	c #3A72A0",
"+ 	c #437AA7",
"@ 	c #467DAB",
"# 	c #487FB0",
"$ 	c #467DAE",
"% 	c #4077A5",
"& 	c #376D9B",
"* 	c #2C618A",
"= 	c #3E79AA",
"- 	c #5B92C2",
"; 	c #6A9ECC",
"> 	c #6FA3D2",
", 	c #6CA1D2",
"' 	c #6A9FD1",
") 	c #699FD0",
"! 	c #659BCE",
"~ 	c #5E94CA",
"{ 	c #4D87BA",
"] 	c #3B77A9",
"^ 	c #2E5E87",
"/ 	c #6098C5",
"( 	c #9DC6E0",
"_ 	c #A7CEE3",
": 	c #98C2DF",
"< 	c #84B3D8",
"[ 	c #7CADD6",
"} 	c #79ABD5",
"| 	c #78ABD4",
"1 	c #76A8D2",
"2 	c #72A5D2",
"3 	c #6E9ECE",
"4 	c #82A9CE",
"5 	c #B9D0E2",
"6 	c #82A2C1",
"7 	c #4A647D",
"8 	c #74A5C9",
"9 	c #C1DDEC",
"0 	c #C9E8EE",
"a 	c #A4CEE2",
"b 	c #8DBBDB",
"c 	c #82B2D7",
"d 	c #7FB0D7",
"e 	c #7FB0D6",
"f 	c #80AACB",
"g 	c #91B4D1",
"h 	c #93B6D4",
"i 	c #A8C4DB",
"j 	c #D3E2EC",
"k 	c #D2E3F0",
"l 	c #A3C2DF",
"m 	c #80A1BF",
"n 	c #546C81",
"o 	c #659AC5",
"p 	c #CCE2EF",
"q 	c #E2F4F6",
"r 	c #A9D1E4",
"s 	c #8BBADB",
"t 	c #82B3D8",
"u 	c #81B4D7",
"v 	c #83B4D8",
"w 	c #85B6D8",
"x 	c #85ACC9",
"y 	c #ABC4D8",
"z 	c #D2E2ED",
"A 	c #DDEAF2",
"B 	c #CFE3EF",
"C 	c #BDD7EA",
"D 	c #BAD5E9",
"E 	c #ACCAE1",
"F 	c #82A1BC",
"G 	c #417AAA",
"H 	c #B6D6E8",
"I 	c #E2F3F6",
"J 	c #AFD5E6",
"K 	c #87B7D9",
"L 	c #81B3D8",
"M 	c #82B5D8",
"N 	c #87B8DA",
"O 	c #8ABBDA",
"P 	c #8DBEDB",
"Q 	c #8EBCD8",
"R 	c #90B3CC",
"S 	c #AECBE0",
"T 	c #C1DBEB",
"U 	c #C1DAEC",
"V 	c #C0D9EB",
"W 	c #BFD9EA",
"X 	c #ABC8DF",
"Y 	c #5F798F",
"Z 	c #669BC6",
"` 	c #CAE8EE",
" .	c #B7DAE8",
"..	c #8EBCDC",
"+.	c #80B2D7",
"@.	c #82B4D7",
"#.	c #86B7D9",
"$.	c #8CBCDB",
"%.	c #90C0DC",
"&.	c #93C2DD",
"*.	c #95C4DD",
"=.	c #8FBAD3",
"-.	c #95B5CE",
";.	c #B9D4E8",
">.	c #BCD7EA",
",.	c #BBD6E9",
"'.	c #BED7E9",
").	c #BAD3E6",
"!.	c #7D9CB4",
"~.	c #3D72A2",
"{.	c #7CACD3",
"].	c #B6DAE8",
"^.	c #97C2DE",
"/.	c #84B6D8",
"(.	c #89BBDA",
"_.	c #92C2DC",
":.	c #94C4DD",
"<.	c #97C6DE",
"[.	c #98C6DD",
"}.	c #8CB1CA",
"|.	c #A0BFD8",
"1.	c #B4D2E7",
"2.	c #B6D4E8",
"3.	c #BBD3E4",
"4.	c #AFC2D2",
"5.	c #9BB1C4",
"6.	c #7E9EB9",
"7.	c #4C657B",
"8.	c #487BA9",
"9.	c #81AED7",
"0.	c #93BFDD",
"a.	c #82B2D8",
"b.	c #7DB0D7",
"c.	c #88B9DA",
"d.	c #8EBEDC",
"e.	c #90BCD8",
"f.	c #A1C2D7",
"g.	c #AAC8DB",
"h.	c #A1C2D6",
"i.	c #9BBED3",
"j.	c #8FB3CA",
"k.	c #B6CDDC",
"l.	c #C4DCEC",
"m.	c #B6CFE3",
"n.	c #89A3B8",
"o.	c #6C93B4",
"p.	c #618BB6",
"q.	c #5980A4",
"r.	c #537088",
"s.	c #4B7FAD",
"t.	c #77A8D5",
"u.	c #81B1D8",
"v.	c #7BADD6",
"w.	c #7DAFD7",
"x.	c #8ABCDA",
"y.	c #90C0DD",
"z.	c #8DB8D2",
"A.	c #B1CDDE",
"B.	c #C3DBEC",
"C.	c #BDD8E9",
"D.	c #BBD6E7",
"E.	c #B9D4E5",
"F.	c #CDE1EE",
"G.	c #B4CCDD",
"H.	c #99B3C7",
"I.	c #7197B4",
"J.	c #86B0D6",
"K.	c #79A2D0",
"L.	c #527FAA",
"M.	c #4A6D89",
"N.	c #4C7FAF",
"O.	c #6EA0D2",
"P.	c #78A9D5",
"Q.	c #79ACD6",
"R.	c #7EB0D7",
"S.	c #8BB9D3",
"T.	c #92B8D1",
"U.	c #A2C7E1",
"V.	c #A1C5E1",
"W.	c #A2C5E1",
"X.	c #A3C6E2",
"Y.	c #A2C5DF",
"Z.	c #87A8BE",
"`.	c #7399B3",
" +	c #8AB3D2",
".+	c #8CB5DB",
"++	c #7BA3D0",
"@+	c #527DA9",
"#+	c #416684",
"$+	c #497BAB",
"%+	c #689BCF",
"&+	c #73A5D3",
"*+	c #78AAD5",
"=+	c #86B6D8",
"-+	c #91C0DD",
";+	c #8DBCD6",
">+	c #9ABED4",
",+	c #A1C5E0",
"'+	c #95BDDC",
")+	c #96BEDD",
"!+	c #96BFDD",
"~+	c #9DBED6",
"{+	c #7FA0B6",
"]+	c #8CB6D0",
"^+	c #96BFDE",
"/+	c #517CA6",
"(+	c #395F7E",
"_+	c #4679A6",
":+	c #6498CC",
"<+	c #70A3D2",
"[+	c #77A9D5",
"}+	c #7EAFD7",
"|+	c #86B5D8",
"1+	c #8CBBDB",
"2+	c #92C1DD",
"3+	c #7DACC9",
"4+	c #9ABCD2",
"5+	c #94BCDB",
"6+	c #8CB7D8",
"7+	c #8BB6D8",
"8+	c #8DB8D9",
"9+	c #85A8BF",
"0+	c #729BB4",
"a+	c #96C0D9",
"b+	c #94BDDE",
"c+	c #8BB3DA",
"d+	c #78A0CB",
"e+	c #4B76A0",
"f+	c #305673",
"g+	c #41719D",
"h+	c #6093C8",
"i+	c #6FA1D2",
"j+	c #76A7D4",
"k+	c #84B4D8",
"l+	c #90BFDC",
"m+	c #7CACC8",
"n+	c #6393B3",
"o+	c #7FABCB",
"p+	c #84B1D1",
"q+	c #86B2D5",
"r+	c #90B9D7",
"s+	c #6C97B3",
"t+	c #77A4BF",
"u+	c #9AC3DF",
"v+	c #92BADD",
"w+	c #88AFD8",
"x+	c #7098C2",
"y+	c #416B93",
"z+	c #244662",
"A+	c #36658E",
"B+	c #568ABC",
"C+	c #6B9CCF",
"D+	c #73A4D3",
"E+	c #7AABD6",
"F+	c #83B1D8",
"G+	c #88B7DA",
"H+	c #8CBADB",
"I+	c #92BFDC",
"J+	c #79A6C4",
"K+	c #628EAB",
"L+	c #5D8BAC",
"M+	c #7AA0BB",
"N+	c #7094AC",
"O+	c #5F89A6",
"P+	c #7CA6C3",
"Q+	c #8EB5DB",
"R+	c #80A6D1",
"S+	c #6089B2",
"T+	c #355D81",
"U+	c #19374F",
"V+	c #4B7FAF",
"W+	c #6697CA",
"X+	c #70A1D2",
"Y+	c #7FAED7",
"Z+	c #86B4D9",
"`+	c #8AB8DA",
" @	c #90BDDC",
".@	c #92BEDC",
"+@	c #92BFD9",
"@@	c #75A2BF",
"#@	c #6692AE",
"$@	c #78A3BE",
"%@	c #8DB7D2",
"&@	c #96BEDC",
"*@	c #749AC4",
"=@	c #5178A1",
"-@	c #2B5072",
";@	c #336189",
">@	c #5E91C3",
",@	c #6B9BCD",
"'@	c #73A3D3",
")@	c #7CAAD6",
"!@	c #82B0D8",
"~@	c #87B4D9",
"{@	c #8CB8DB",
"]@	c #90BCDC",
"^@	c #92BFDD",
"/@	c #8EBAD9",
"(@	c #8CB7D5",
"_@	c #96C0DD",
":@	c #95BEDE",
"<@	c #91B9DD",
"[@	c #8BB3DB",
"}@	c #7BA2CD",
"|@	c #668CB4",
"1@	c #436B92",
"2@	c #1B3950",
"3@	c #40729F",
"4@	c #5D8EC0",
"5@	c #6B9ACB",
"6@	c #75A3D3",
"7@	c #7BA8D4",
"8@	c #80ACD5",
"9@	c #86B1D7",
"0@	c #8EB6D8",
"a@	c #9FC0DB",
"b@	c #95B4CF",
"c@	c #8DB3D4",
"d@	c #8EB6D9",
"e@	c #8FB5D9",
"f@	c #8FB3D8",
"g@	c #95B5D4",
"h@	c #A4BCD1",
"i@	c #86A2B6",
"j@	c #395973",
"k@	c #43739F",
"l@	c #5B8BBC",
"m@	c #749EC9",
"n@	c #92B4D3",
"o@	c #9EBDD8",
"p@	c #ADC7DD",
"q@	c #C3D7E5",
"r@	c #D9E6EE",
"s@	c #B3CCE0",
"t@	c #A3C0D7",
"u@	c #ADC7DC",
"v@	c #BCD1E2",
"w@	c #C9DAE7",
"x@	c #D6E2EA",
"y@	c #A6B9C6",
"z@	c #4D6A7F",
"A@	c #386892",
"B@	c #84A8C8",
"C@	c #D1E1EC",
"D@	c #CBDFEC",
"E@	c #C6DBEC",
"F@	c #BED6EA",
"G@	c #B2CFE7",
"H@	c #AACAE4",
"I@	c #B0CEE5",
"J@	c #BAD4E8",
"K@	c #C3D9E9",
"L@	c #C4D6E3",
"M@	c #98AFC1",
"N@	c #3C5B73",
"O@	c #557792",
"P@	c #6C92AF",
"Q@	c #77A0BD",
"R@	c #88B0CC",
"S@	c #91B6D2",
"T@	c #95B9D4",
"U@	c #96B9D4",
"V@	c #97B7D2",
"W@	c #93B2CA",
"X@	c #7F9BAF",
"Y@	c #56768C",
"Z@	c #234055",
"`@	c #335670",
" #	c #40637C",
".#	c #496D85",
"+#	c #4E718A",
"@#	c #4E7189",
"##	c #4D6D83",
"$#	c #415F74",
"                                                ",
"                . + @ # $ % & *                 ",
"            = - ; > , ' ) ! ~ { ] ^             ",
"          / ( _ : < [ } | 1 2 3 4 5 6 7         ",
"        8 9 0 a b c d e f g h i j k l m n       ",
"      o p q r s t u v w x y z A B C D E F       ",
"    G H I J K L M N O P Q R S T T U V W X Y     ",
"    Z `  ...+.@.#.$.%.&.*.=.-.;.>.>.,.'.).!.    ",
"  ~.{.].^.t +./.(.%._.:.<.[.}.|.1.2.3.4.5.6.7.  ",
"  8.9.0.a.b.M c.d.e.f.g.h.i.j.k.l.m.n.o.p.q.r.  ",
"  s.t.u.v.w./.x.y.z.A.B.C.D.E.F.G.H.I.J.K.L.M.  ",
"  N.O.P.Q.R.w $.y.S.T.U.V.W.X.Y.Z.`. +.+++@+#+  ",
"  $+%+&+*+R.=+$.-+;+>+,+'+)+!+~+{+]+^+.+++/+(+  ",
"  _+:+<+[+}+|+1+2+3+4+5+6+7+8+9+0+a+b+c+d+e+f+  ",
"  g+h+i+j+[ k+s l+m+n+o+p+q+r+s+t+u+v+w+x+y+z+  ",
"  A+B+C+D+E+F+G+H+I+J+K+L+M+N+O+P+!+Q+R+S+T+U+  ",
"    V+W+X+t.Y+Z+`+ @.@+@@@#@$@%@&@v+w+*@=@-@    ",
"    ;@>@,@'@)@!@~@{@]@^@/@(@_@:@<@[@}@|@1@2@    ",
"      3@4@5@6@7@8@9@0@a@b@c@d@e@f@g@h@i@j@      ",
"        k@l@m@n@o@p@q@r@s@t@u@v@w@x@y@z@        ",
"          A@B@C@D@E@F@G@H@I@J@K@L@M@N@          ",
"            O@P@Q@R@S@T@U@V@W@X@Y@Z@            ",
"                `@ #.#+#@###$#                  ",
"                                                "};
