/* XPM */
static const char * yoga_xpm[] = {
"24 24 221 2",
"  	c None",
". 	c #F8F7F1",
"+ 	c #F6F4EF",
"@ 	c #F0ECE6",
"# 	c #F6F5EF",
"$ 	c #FCFAF9",
"% 	c #F1EDE8",
"& 	c #D8CDC7",
"* 	c #B09683",
"= 	c #C9B6A7",
"- 	c #EBE4DC",
"; 	c #E4DBD2",
"> 	c #EBE4DD",
", 	c #EAE4E0",
"' 	c #CFBAAC",
") 	c #AB8C73",
"! 	c #B39985",
"~ 	c #E5D9CF",
"{ 	c #D7CDC7",
"] 	c #E4DDDC",
"^ 	c #E0D7D1",
"/ 	c #CCC1B8",
"( 	c #DBD2CC",
"_ 	c #E2D9D2",
": 	c #F1EDE7",
"< 	c #F1EEEA",
"[ 	c #F1EFEB",
"} 	c #DED0C4",
"| 	c #C4A890",
"1 	c #695142",
"2 	c #AE9381",
"3 	c #C3AFA5",
"4 	c #D5C8C2",
"5 	c #F4F1EF",
"6 	c #ECE6E0",
"7 	c #D7CBC5",
"8 	c #BFCFDB",
"9 	c #2883C5",
"0 	c #CAC6D1",
"a 	c #ECE9E6",
"b 	c #E6DFD8",
"c 	c #DCD3CC",
"d 	c #E5DEDA",
"e 	c #E7E1E0",
"f 	c #D5C5BC",
"g 	c #B79A82",
"h 	c #684E3D",
"i 	c #AA8F7B",
"j 	c #C0ACA2",
"k 	c #D0C3BC",
"l 	c #ECE7E6",
"m 	c #E6DED8",
"n 	c #D6CAC3",
"o 	c #CEC3B8",
"p 	c #605A57",
"q 	c #216FAD",
"r 	c #1E66B8",
"s 	c #EDE7E4",
"t 	c #E5DED9",
"u 	c #D3C7BF",
"v 	c #E0D6CF",
"w 	c #E1D9D3",
"x 	c #E2DBDA",
"y 	c #D4C4BB",
"z 	c #B99D84",
"A 	c #604837",
"B 	c #A48874",
"C 	c #BEAA9F",
"D 	c #CBBEB7",
"E 	c #E4DDDB",
"F 	c #D5C9C2",
"G 	c #645549",
"H 	c #2279B6",
"I 	c #1E66B6",
"J 	c #EAE5E1",
"K 	c #E5DED8",
"L 	c #D7CCC4",
"M 	c #E8E1DC",
"N 	c #EDE8E7",
"O 	c #D3C2BA",
"P 	c #B1937B",
"Q 	c #5D4434",
"R 	c #A88B73",
"S 	c #C3AFA4",
"T 	c #D6CAC4",
"U 	c #645649",
"V 	c #227BB8",
"W 	c #1D65B5",
"X 	c #EAE4E1",
"Y 	c #E4DCD7",
"Z 	c #D5C9C1",
"` 	c #DACFC9",
" .	c #E5DDD7",
"..	c #E8E2E0",
"+.	c #D4C3BB",
"@.	c #B59680",
"#.	c #5C4333",
"$.	c #A6876F",
"%.	c #ECE7E5",
"&.	c #217AB8",
"*.	c #EBE5E2",
"=.	c #E3DBD6",
"-.	c #D2C6BE",
";.	c #E2D9D3",
">.	c #E2DBD9",
",.	c #B79B83",
"'.	c #5B4333",
").	c #A3836B",
"!.	c #DDD5D4",
"~.	c #D7CCC7",
"{.	c #D3C6C0",
"].	c #CDC3B8",
"^.	c #227AB8",
"/.	c #B0937B",
"(.	c #AA8A72",
"_.	c #C0ACA1",
":.	c #D4C9C3",
"<.	c #FAF9F7",
"[.	c #EDE8E2",
"}.	c #B49780",
"|.	c #A6866E",
"1.	c #C9B8AD",
"2.	c #F0EDE8",
"3.	c #DDD4CE",
"4.	c #C7B9B2",
"5.	c #CABBB4",
"6.	c #E4DCD6",
"7.	c #F5F2EF",
"8.	c #FBFAF9",
"9.	c #E5D7CF",
"0.	c #B79B84",
"a.	c #AD8E76",
"b.	c #E2D4C9",
"c.	c #CDC1BD",
"d.	c #A2908A",
"e.	c #A6948E",
"f.	c #C8BAB3",
"g.	c #CFC4B9",
"h.	c #246AB7",
"i.	c #E7E2DE",
"j.	c #E9E3DD",
"k.	c #E9E3DB",
"l.	c #EAE5DD",
"m.	c #E8E4DD",
"n.	c #E9E4E1",
"o.	c #D5C4B9",
"p.	c #B3957D",
"q.	c #A7886F",
"r.	c #A48E82",
"s.	c #8C7A75",
"t.	c #96837D",
"u.	c #A7958E",
"v.	c #CEC1B9",
"w.	c #D0C6BD",
"x.	c #64564A",
"y.	c #3075B7",
"z.	c #E7E1DE",
"A.	c #DFD6CC",
"B.	c #B9AD9B",
"C.	c #928679",
"D.	c #8B7C73",
"E.	c #7E6254",
"F.	c #88684F",
"G.	c #937258",
"H.	c #664B3B",
"I.	c #645043",
"J.	c #706051",
"K.	c #786758",
"L.	c #A08F82",
"M.	c #BDB0A3",
"N.	c #3F84C0",
"O.	c #A6978A",
"P.	c #817263",
"Q.	c #5E5042",
"R.	c #4C4239",
"S.	c #4C4138",
"T.	c #4A3D33",
"U.	c #584131",
"V.	c #523A29",
"W.	c #684B38",
"X.	c #4A3B30",
"Y.	c #4B3F34",
"Z.	c #4D4236",
"`.	c #4C3E32",
" +	c #5D4E41",
".+	c #786757",
"++	c #2477B1",
"@+	c #2D73B9",
"#+	c #978677",
"$+	c #6B5B4C",
"%+	c #4C443C",
"&+	c #323955",
"*+	c #133384",
"=+	c #042889",
"-+	c #03278A",
";+	c #123383",
">+	c #393E53",
",+	c #18367C",
"'+	c #03288A",
")+	c #02268B",
"!+	c #0D3287",
"~+	c #233671",
"{+	c #313347",
"]+	c #32364A",
"^+	c #32465C",
"/+	c #1E6FB4",
"(+	c #466283",
"_+	c #3B597B",
":+	c #3B5F89",
"<+	c #182D5D",
"[+	c #0B152B",
"}+	c #00113A",
"|+	c #172548",
"1+	c #011A61",
"2+	c #182B5C",
"3+	c #08215B",
"4+	c #042570",
"5+	c #13407A",
"6+	c #1364A0",
"7+	c #0E3158",
"8+	c #0E3055",
"                                                ",
"                                                ",
"                            . +                 ",
"                          @ # $ %               ",
"                & *     = - # $ %               ",
"            ; > , ' )   ! ~ { ] ^ /             ",
"        ( _ : < [ } | 1 2 3 4 5 6 7 8 9         ",
"      0 a b c d e f g h i j k l m n o p q       ",
"    r s t u v w x y z A B C D E ^ F o G H       ",
"    I J K L F M N O P Q R S 4 5 6 T o U V       ",
"    W X Y Z `  ...+.@.#.$.j k %.m n o G &.      ",
"    W *.=.-.v ;.>.+.,.'.).C D !.~.{.].G ^.      ",
"    W X K L F M N O /.'.(._.:.<.[.F o G ^.      ",
"    W X Y Z `  ...+.}.'.|.1.2.3.4.5.o U V       ",
"    W , =.-.6.7.8.9.0.'.a.b.c.d.e.f.g.G ^.      ",
"    h.i.j.k.l.m.n.o.p.#.q.r.s.t.u.v.w.x.^.      ",
"    y.z.@ A.B.C.D.E.F.'.G.H.I.J.K.L.M.x.^.      ",
"    N.{ O.P.Q.R.S.T.U.V.W.X.Y.Z.`. +.+x.++      ",
"    @+#+$+%+&+*+=+-+;+>+,+'+)+!+~+{+]+^+/+      ",
"    W (+_+:+<+[+    }+|+1+      2+3+4+5+6+      ",
"        7+8+                                    ",
"                                                ",
"                                                ",
"                                                "};
