/* XPM */
static char * yogaeditor_xpm[] = {
"24 24 271 2",
"  	c None",
". 	c #F8F7F1",
"+ 	c #F6F5EE",
"@ 	c #EFEBE5",
"# 	c #F6F5EF",
"$ 	c #FEFDFD",
"% 	c #F0ECE6",
"& 	c #D5C9C5",
"* 	c #AE9480",
"= 	c #EBE4DC",
"- 	c #FAF9F3",
"; 	c #FFFFFF",
"> 	c #F2EEE9",
", 	c #E2D8D0",
"' 	c #ECE5DE",
") 	c #ECE8E5",
"! 	c #D5C1B5",
"~ 	c #A98970",
"{ 	c #A98D78",
"] 	c #ECE2D7",
"^ 	c #C8BCB6",
"/ 	c #E2DBDA",
"( 	c #DDD2CB",
"_ 	c #C7BAB2",
": 	c #CCBCB4",
"< 	c #D6CAC3",
"[ 	c #E0D7CF",
"} 	c #F3F1EB",
"| 	c #F4F2EE",
"1 	c #F6F5F1",
"2 	c #E0D4C9",
"3 	c #CCAE94",
"4 	c #554135",
"5 	c #B09481",
"6 	c #C2AEA4",
"7 	c #DACFC8",
"8 	c #FCFCFB",
"9 	c #D1C4BD",
"0 	c #D8E1E7",
"a 	c #1384D6",
"b 	c #C6BFCC",
"c 	c #F1EEEB",
"d 	c #E6DFD7",
"e 	c #D8CDC6",
"f 	c #E4DEDA",
"g 	c #E7E2E1",
"h 	c #D6C6BF",
"i 	c #BA9B82",
"j 	c #594132",
"k 	c #978680",
"l 	c #9196B1",
"m 	c #9DA9C5",
"n 	c #ABBCDB",
"o 	c #CFCED0",
"p 	c #D0C3BC",
"q 	c #DCD2C6",
"r 	c #604C3F",
"s 	c #1C77C0",
"t 	c #105EB5",
"u 	c #FAEEE4",
"v 	c #E3DCD7",
"w 	c #CFC2BA",
"x 	c #E5DCD5",
"y 	c #DED5CF",
"z 	c #DFD6D6",
"A 	c #D4C4BC",
"B 	c #BDA087",
"C 	c #424C6A",
"D 	c #789AD4",
"E 	c #96B8E6",
"F 	c #7BA3E6",
"G 	c #5F83C0",
"H 	c #B5AEB1",
"I 	c #CEC0B9",
"J 	c #DBD2C8",
"K 	c #604936",
"L 	c #1B87D2",
"M 	c #F4EAE2",
"N 	c #E6DFD9",
"O 	c #D9CEC6",
"P 	c #CCBEB8",
"Q 	c #EBE5E0",
"R 	c #F2EFEF",
"S 	c #D3C3BD",
"T 	c #898793",
"U 	c #769BE0",
"V 	c #B8BBE2",
"W 	c #88ADE7",
"X 	c #5E7FB8",
"Y 	c #B6B9C3",
"Z 	c #E4E0DC",
"` 	c #1B88D3",
" .	c #F3E8E1",
"..	c #E4DDD7",
"+.	c #D4C8C0",
"@.	c #D8CDC7",
"#.	c #E5DDD7",
"$.	c #E8E3E3",
"%.	c #C2B8BA",
"&.	c #8099C6",
"*.	c #A7BDEB",
"=.	c #9DBEEA",
"-.	c #648BCF",
";.	c #878A98",
">.	c #E3E0DF",
",.	c #E7E0DA",
"'.	c #C3C0C0",
").	c #57473E",
"!.	c #105EB4",
"~.	c #F5EBE3",
"{.	c #E2DAD5",
"].	c #DFD5CF",
"^.	c #B7B5BF",
"/.	c #8CABDE",
"(.	c #A0BCE8",
"_.	c #8FAEE9",
":.	c #6389C8",
"<.	c #9A9498",
"[.	c #DAD1D1",
"}.	c #D0C2BD",
"|.	c #B1ACB3",
"1.	c #597AB2",
"2.	c #4A4D60",
"3.	c #1B88D4",
"4.	c #B6B5C3",
"5.	c #81A6E1",
"6.	c #91AEE9",
"7.	c #82A7EA",
"8.	c #6692DB",
"9.	c #7188B5",
"0.	c #DCE3ED",
"a.	c #C2CBD9",
"b.	c #5C7BB3",
"c.	c #3B70C7",
"d.	c #4A4E62",
"e.	c #F3E8E2",
"f.	c #E3DBD5",
"g.	c #E6E0E0",
"h.	c #A8AABD",
"i.	c #779EDF",
"j.	c #82A8EA",
"k.	c #759FE5",
"l.	c #6A97E2",
"m.	c #5584D6",
"n.	c #5780C6",
"o.	c #4A77C1",
"p.	c #4072CB",
"q.	c #3C6DBB",
"r.	c #454756",
"s.	c #105DB4",
"t.	c #F4E9DF",
"u.	c #E2DAD6",
"v.	c #CEC1B9",
"w.	c #F7F6F3",
"x.	c #D3DDEF",
"y.	c #779BD9",
"z.	c #6E9BE3",
"A.	c #75A0E6",
"B.	c #6A97E3",
"C.	c #608FDC",
"D.	c #5888D7",
"E.	c #4D7FD2",
"F.	c #4476CE",
"G.	c #3C6FC6",
"H.	c #3861A7",
"I.	c #4D403D",
"J.	c #1662B7",
"K.	c #F0E6DE",
"L.	c #ECE6DF",
"M.	c #EBE7E1",
"N.	c #CED6E2",
"O.	c #749CDC",
"P.	c #618EDA",
"Q.	c #5787D6",
"R.	c #5C8CDB",
"S.	c #5586D7",
"T.	c #4E80D2",
"U.	c #4476CC",
"V.	c #3A6BC0",
"W.	c #305DA9",
"X.	c #6C7D9E",
"Y.	c #5B4532",
"Z.	c #256FB7",
"`.	c #EFE4DD",
" +	c #F9F7F2",
".+	c #E4DBD1",
"++	c #A1A2A9",
"@+	c #6184C1",
"#+	c #6492DE",
"$+	c #709AE1",
"%+	c #6C98E1",
"&+	c #5E8DDC",
"*+	c #426FBE",
"=+	c #3761AB",
"-+	c #3462B4",
";+	c #2E5BA5",
">+	c #2E4E87",
",+	c #5D6478",
"'+	c #B3A89D",
")+	c #614A37",
"!+	c #3883C3",
"~+	c #E7D8D0",
"{+	c #988778",
"]+	c #606370",
"^+	c #577EC0",
"/+	c #6995E0",
"(+	c #719DE5",
"_+	c #6F9AE2",
":+	c #6B95E0",
"<+	c #3C68B3",
"[+	c #363D58",
"}+	c #343131",
"|+	c #35363E",
"1+	c #363436",
"2+	c #39302A",
"3+	c #54483B",
"4+	c #6C5B4B",
"5+	c #6B5441",
"6+	c #1E84CA",
"7+	c #2774BE",
"8+	c #A8907C",
"9+	c #5F606A",
"0+	c #5A81C2",
"a+	c #76A0E5",
"b+	c #729DE4",
"c+	c #6E99E3",
"d+	c #6B9AE0",
"e+	c #3D6DBD",
"f+	c #253A62",
"g+	c #16336E",
"h+	c #00289C",
"i+	c #00269C",
"j+	c #063395",
"k+	c #223474",
"l+	c #363339",
"m+	c #37343B",
"n+	c #353F4A",
"o+	c #1A72BF",
"p+	c #1A66BC",
"q+	c #426492",
"r+	c #5B87CD",
"s+	c #78A0E6",
"t+	c #739DE3",
"u+	c #709CE1",
"v+	c #6C99E3",
"w+	c #406FBD",
"x+	c #082966",
"y+	c #141F39",
"z+	c #00186D",
"A+	c #1A2E60",
"B+	c #001C5E",
"C+	c #002178",
"D+	c #114080",
"E+	c #126CAC",
"F+	c #527EC7",
"G+	c #7CA5E7",
"H+	c #759EE4",
"I+	c #719EE2",
"J+	c #729EE5",
"K+	c #4271BC",
"L+	c #072E6E",
"M+	c #5B88D5",
"N+	c #7FA4E8",
"O+	c #7AA3E5",
"P+	c #729EE3",
"Q+	c #4573C0",
"R+	c #083278",
"S+	c #3F6FBD",
"T+	c #5989D6",
"U+	c #5C88D9",
"V+	c #3F70C0",
"                                                ",
"                                                ",
"                            . +                 ",
"                          @ # $ %               ",
"                & *       = - ; >               ",
"            , ' ) ! ~   { ] ^ / ( _ :           ",
"        < [ } | 1 2 3 4 5 6 7 8 % 9 0 a         ",
"      b c d e f g h i j k l m n o p q r s       ",
"    t u v w x y z A B C D E F G H I J K L       ",
"    t M N O P Q R S T U V W X Y Z p J K `       ",
"    t  ...+.@.#.$.%.&.*.=.-.;.>.,.p '.).`       ",
"    !.~.{.w x ].z ^./.(._.:.<.[.}.|.1.2.3.      ",
"    !. .N O P Q R 4.5.6.7.8.9.0.a.b.c.d.3.      ",
"    !.e...+.@.f.g.h.i.j.k.l.m.n.o.p.q.r.3.      ",
"    s.t.u.v.#.w.x.y.z.A.B.C.D.E.F.G.H.I.3.      ",
"    J.K.,.L.M.N.O.P.Q.R.C.S.T.U.V.W.X.Y.3.      ",
"    Z.`. +.+++@+#+$+%+&+*+=+-+;+>+,+'+)+3.      ",
"    !+~+{+]+^+/+(+_+:+<+[+}+|+1+2+3+4+5+6+      ",
"    7+8+9+0+a+b+c+d+e+f+g+h+i+j+k+l+m+n+o+      ",
"    p+q+r+s+t+u+v+w+x+y+z+      A+B+C+D+E+      ",
"      F+G+H+I+J+K+L+                            ",
"      M+N+O+P+Q+R+                              ",
"      S+T+U+V+                                  ",
"                                                "};
